<?xml version="1.0" encoding="utf-8"?>
<!-- Generator: Adobe Illustrator 16.0.0, SVG Export Plug-In . SVG Version: 6.00 Build 0)  -->
<!DOCTYPE svg PUBLIC "-//W3C//DTD SVG 1.1//EN" "http://www.w3.org/Graphics/SVG/1.1/DTD/svg11.dtd">
<svg version="1.1" id="Capa_1" xmlns="http://www.w3.org/2000/svg" xmlns:xlink="http://www.w3.org/1999/xlink" x="0px" y="0px"
	 width="161px" height="162px" viewBox="0 0 161 162" enable-background="new 0 0 161 162" xml:space="preserve">
<g>
	<path fill="#8C2A2A" d="M156,128.188c0,15.639-12.676,28.313-28.313,28.313H33.313C17.676,156.5,5,143.824,5,128.188V33.813
		C5,18.176,17.676,5.5,33.313,5.5h94.375C143.324,5.5,156,18.176,156,33.813V128.188z"/>
	<path fill="#DB3B3B" d="M156,116.188c0,15.639-12.676,28.313-28.313,28.313H33.313C17.676,144.5,5,131.824,5,116.188V33.813
		C5,18.176,17.676,5.5,33.313,5.5h94.375C143.324,5.5,156,18.176,156,33.813V116.188z"/>
	<g>
		<g>
			<circle fill="#262626" cx="126.993" cy="105.775" r="14.674"/>
			<circle fill="#FFFFFF" cx="132.357" cy="99.971" r="5.366"/>
		</g>
		<g>
			<circle fill="#262626" cx="35.007" cy="105.775" r="14.674"/>
			<circle fill="#FFFFFF" cx="40.373" cy="99.971" r="5.366"/>
		</g>
		<path fill="#262626" d="M81.656,130.334c-9.556,0-17.331-7.775-17.331-17.331c0-1.104,0.896-2,2-2s2,0.896,2,2
			c0,7.351,5.98,13.331,13.331,13.331c7.352,0,13.332-5.98,13.332-13.331c0-1.104,0.896-2,2-2c1.104,0,2,0.896,2,2
			C98.988,122.559,91.213,130.334,81.656,130.334z"/>
	</g>
	<g opacity="0.3">
		<path d="M63.306,27.505c1.106-0.977,2.32-1.905,3.639-2.784c1.318-0.879,2.743-1.644,4.273-2.295
			c1.53-0.651,3.19-1.164,4.981-1.539c1.791-0.374,3.728-0.562,5.813-0.562c2.832,0,5.412,0.391,7.74,1.172
			c2.328,0.782,4.323,1.897,5.982,3.346c1.662,1.449,2.947,3.199,3.857,5.25c0.911,2.051,1.368,4.347,1.368,6.886
			c0,2.475-0.358,4.616-1.073,6.422c-0.718,1.807-1.621,3.378-2.712,4.713c-1.091,1.335-2.271,2.491-3.541,3.468
			c-1.27,0.977-2.475,1.897-3.612,2.759c-1.142,0.863-2.125,1.709-2.955,2.54s-1.328,1.767-1.49,2.809l-1.123,7.13h-8.254
			l-0.83-7.961c-0.033-0.163-0.049-0.3-0.049-0.415c0-0.114,0-0.252,0-0.415c0-1.433,0.358-2.678,1.075-3.736
			c0.716-1.058,1.611-2.051,2.686-2.979c1.074-0.928,2.229-1.831,3.468-2.71c1.237-0.879,2.393-1.832,3.467-2.857
			c1.075-1.026,1.971-2.189,2.688-3.492c0.716-1.302,1.073-2.833,1.073-4.591c0-1.172-0.221-2.223-0.658-3.15
			c-0.438-0.928-1.051-1.726-1.832-2.393s-1.719-1.18-2.809-1.539c-1.092-0.358-2.271-0.537-3.542-0.537
			c-1.856,0-3.427,0.204-4.713,0.61c-1.287,0.408-2.377,0.863-3.272,1.368c-0.896,0.505-1.653,0.96-2.271,1.367
			c-0.619,0.408-1.172,0.611-1.661,0.611c-1.172,0-2.02-0.489-2.54-1.465L63.306,27.505z M72.537,85.088
			c0-1.009,0.187-1.97,0.562-2.882c0.374-0.911,0.895-1.692,1.563-2.344c0.667-0.651,1.457-1.172,2.369-1.563
			c0.911-0.391,1.888-0.586,2.93-0.586c1.009,0,1.971,0.195,2.882,0.586c0.911,0.391,1.692,0.912,2.345,1.563
			c0.65,0.652,1.172,1.433,1.563,2.344c0.392,0.912,0.586,1.873,0.586,2.882c0,1.042-0.194,2.012-0.586,2.906
			c-0.392,0.896-0.912,1.669-1.563,2.32c-0.651,0.65-1.434,1.164-2.345,1.539c-0.911,0.373-1.873,0.562-2.882,0.562
			c-1.042,0-2.019-0.188-2.93-0.562c-0.912-0.375-1.702-0.889-2.369-1.539c-0.668-0.651-1.189-1.424-1.563-2.32
			C72.724,87.1,72.537,86.13,72.537,85.088z"/>
	</g>
</g>
</svg>
