<?xml version="1.0" encoding="utf-8"?>
<!-- Generator: Adobe Illustrator 16.0.0, SVG Export Plug-In . SVG Version: 6.00 Build 0)  -->
<!DOCTYPE svg PUBLIC "-//W3C//DTD SVG 1.1//EN" "http://www.w3.org/Graphics/SVG/1.1/DTD/svg11.dtd">
<svg version="1.1" id="Capa_1" xmlns="http://www.w3.org/2000/svg" xmlns:xlink="http://www.w3.org/1999/xlink" x="0px" y="0px"
	 width="107.485px" height="154.035px" viewBox="0 0 107.485 154.035" enable-background="new 0 0 107.485 154.035"
	 xml:space="preserve">
<g opacity="0.3">
	<polygon fill="none" stroke="#FFFFFF" stroke-miterlimit="10" points="93.398,23.813 83.641,24.007 91.994,29.051 83.451,24.332 
		88.165,32.876 83.124,24.524 82.931,34.28 82.734,24.522 77.689,32.875 82.408,24.332 73.867,29.05 82.218,24.007 72.463,23.813 
		82.218,23.62 73.865,18.575 82.408,23.292 77.689,14.749 82.734,23.1 82.931,13.344 83.124,23.1 88.168,14.748 83.451,23.292 
		91.994,18.574 83.643,23.62 	"/>
</g>
<g opacity="0.5">
	<polygon fill="none" stroke="#FFFFFF" stroke-miterlimit="10" points="42.62,125.836 27.671,125.963 38.147,136.633 
		27.485,126.151 27.354,141.104 27.225,126.151 16.558,136.631 27.039,125.964 12.087,125.836 27.039,125.708 16.557,115.042 
		27.228,125.52 27.354,110.569 27.482,125.52 38.149,115.04 27.67,125.708 	"/>
</g>
</svg>
