<?xml version="1.0" encoding="utf-8"?>
<!-- Generator: Adobe Illustrator 16.0.0, SVG Export Plug-In . SVG Version: 6.00 Build 0)  -->
<!DOCTYPE svg PUBLIC "-//W3C//DTD SVG 1.1//EN" "http://www.w3.org/Graphics/SVG/1.1/DTD/svg11.dtd">
<svg version="1.1" id="Capa_1" xmlns="http://www.w3.org/2000/svg" xmlns:xlink="http://www.w3.org/1999/xlink" x="0px" y="0px"
	 width="107.484px" height="154.035px" viewBox="0 0 107.484 154.035" enable-background="new 0 0 107.484 154.035"
	 xml:space="preserve">
<g opacity="0.4">
	<polygon fill="none" stroke="#FFFFFF" stroke-miterlimit="10" points="88.684,109.104 97.623,114.505 88.479,109.454 
		93.528,118.601 88.128,109.659 87.921,120.104 87.71,109.659 82.31,118.6 87.363,109.454 78.217,114.504 87.158,109.104 
		76.716,108.896 87.158,108.689 78.22,103.291 87.363,108.341 82.31,99.196 87.71,108.138 87.921,97.692 88.128,108.136 
		93.525,99.195 88.479,108.341 97.623,103.29 88.682,108.689 99.125,108.896 	"/>
</g>
<g opacity="0.5">
	<polygon fill="none" stroke="#FFFFFF" stroke-miterlimit="10" points="28.768,29.824 39.985,41.243 28.566,30.025 28.429,46.03 
		28.294,30.025 16.872,41.241 28.093,29.824 12.087,29.687 28.093,29.55 16.873,18.131 28.291,29.35 28.429,13.344 28.569,29.35 
		39.983,18.129 28.769,29.551 44.771,29.687 	"/>
</g>
</svg>
