<?xml version="1.0" encoding="utf-8"?>
<!-- Generator: Adobe Illustrator 16.0.0, SVG Export Plug-In . SVG Version: 6.00 Build 0)  -->
<!DOCTYPE svg PUBLIC "-//W3C//DTD SVG 1.1//EN" "http://www.w3.org/Graphics/SVG/1.1/DTD/svg11.dtd">
<svg version="1.1" id="Capa_1" xmlns="http://www.w3.org/2000/svg" xmlns:xlink="http://www.w3.org/1999/xlink" x="0px" y="0px"
	 width="378.99px" height="242.933px" viewBox="0 0 378.99 242.933" enable-background="new 0 0 378.99 242.933"
	 xml:space="preserve">
<g>
	<path fill="#7E7E7E" d="M10.944-0.482c-3.092,0-5.604,2.513-5.604,5.603v232.208c0,3.09,2.512,5.604,5.604,5.604h362.443
		c3.088,0,5.604-2.518,5.604-5.604V5.12c0-3.089-2.516-5.603-5.604-5.603L10.944-0.482L10.944-0.482z"/>
	<path fill="#575757" d="M9,194.5c0,2.485-2.015,4.5-4.5,4.5l0,0c-2.485,0-4.5-2.015-4.5-4.5v-46c0-2.485,2.015-4.5,4.5-4.5l0,0
		c2.485,0,4.5,2.015,4.5,4.5V194.5z"/>
	<path fill="#575757" d="M9,94.5C9,96.985,6.985,99,4.5,99l0,0C2.015,99,0,96.985,0,94.5v-46C0,46.015,2.015,44,4.5,44l0,0
		C6.985,44,9,46.015,9,48.5V94.5z"/>
</g>
</svg>
