<?xml version="1.0" encoding="utf-8"?>
<!-- Generator: Adobe Illustrator 16.0.0, SVG Export Plug-In . SVG Version: 6.00 Build 0)  -->
<!DOCTYPE svg PUBLIC "-//W3C//DTD SVG 1.1//EN" "http://www.w3.org/Graphics/SVG/1.1/DTD/svg11.dtd">
<svg version="1.1" id="Capa_1" xmlns="http://www.w3.org/2000/svg" xmlns:xlink="http://www.w3.org/1999/xlink" x="0px" y="0px"
	 width="520px" height="300px" viewBox="0 0 520 300" enable-background="new 0 0 520 300" xml:space="preserve">
<g>
	<g>
		<circle fill="#262626" cx="349.9" cy="74.737" r="30.345"/>
		<circle fill="#FFFFFF" cx="361.048" cy="62.764" r="11.147"/>
	</g>
	<g>
		<circle fill="#262626" cx="159.984" cy="74.737" r="30.345"/>
		<circle fill="#FFFFFF" cx="171.131" cy="62.764" r="11.147"/>
	</g>
	
		<line fill="none" stroke="#262626" stroke-width="7" stroke-linecap="round" stroke-miterlimit="10" x1="225.01" y1="115.404" x2="286.939" y2="115.404"/>
</g>
<g>
	<path fill="#3A4344" d="M349.649,123.539c-27.001,0-48.966-21.964-48.966-48.962c0-27.003,21.965-48.97,48.966-48.97
		c26.999,0,48.965,21.967,48.965,48.97C398.614,101.575,376.648,123.539,349.649,123.539z M349.649,31.814
		c-23.58,0-42.761,19.184-42.761,42.764c0,23.576,19.181,42.755,42.761,42.755c23.577,0,42.758-19.179,42.758-42.755
		C392.407,50.998,373.227,31.814,349.649,31.814z"/>
	<path fill="#3A4344" d="M161.373,123.539c-27,0-48.967-21.964-48.967-48.962c0-27.003,21.966-48.97,48.967-48.97
		c27,0,48.966,21.967,48.966,48.97C210.339,101.575,188.374,123.539,161.373,123.539z M161.373,31.814
		c-23.578,0-42.759,19.184-42.759,42.764c0,23.576,19.182,42.755,42.759,42.755c23.577,0,42.759-19.179,42.759-42.755
		C204.132,50.998,184.951,31.814,161.373,31.814z"/>
	<path fill="#3A4344" d="M303.096,79.401c0,0-22.649-8.616-47.585-8.616c-24.936,0-47.586,8.616-47.586,8.616
		c-1.714,0-3.103-1.391-3.103-3.104c0-1.713,1.388-3.104,3.103-3.104c0,0,17.904-8.616,47.664-8.616
		c29.761,0,47.507,8.616,47.507,8.616c1.716,0,3.104,1.391,3.104,3.104C306.2,78.011,304.812,79.401,303.096,79.401z"/>
	<path fill="#3A4344" d="M115.492,77.679c0.764,0,1.529-0.28,2.129-0.845c1.247-1.176,1.302-3.143,0.126-4.387l-17.241-18.262
		c-1.179-1.246-3.14-1.303-4.389-0.126c-1.246,1.175-1.301,3.142-0.125,4.386l17.24,18.261
		C113.844,77.353,114.666,77.679,115.492,77.679z"/>
	<path fill="#3A4344" d="M395.511,77.679c-0.764,0-1.53-0.28-2.13-0.845c-1.247-1.176-1.304-3.143-0.128-4.387l17.241-18.262
		c1.179-1.246,3.141-1.303,4.388-0.126c1.245,1.175,1.303,3.142,0.126,4.386l-17.24,18.261
		C397.156,77.353,396.335,77.679,395.511,77.679z"/>
</g>
</svg>
