<?xml version="1.0" encoding="utf-8"?>
<!-- Generator: Adobe Illustrator 16.0.0, SVG Export Plug-In . SVG Version: 6.00 Build 0)  -->
<!DOCTYPE svg PUBLIC "-//W3C//DTD SVG 1.1//EN" "http://www.w3.org/Graphics/SVG/1.1/DTD/svg11.dtd">
<svg version="1.1" id="Capa_1" xmlns="http://www.w3.org/2000/svg" xmlns:xlink="http://www.w3.org/1999/xlink" x="0px" y="0px"
	 width="520px" height="300px" viewBox="0 0 520 300" enable-background="new 0 0 520 300" xml:space="preserve">
<g>
	<path fill="#262626" d="M245.604,259.5h-41.47c-2.793,0-4.634-2.013-4.634-4.807v-96.09c0-2.792,1.706-5.056,4.5-5.056
		s4.5,2.264,4.5,5.056V250.5h37.104c2.793,0,5.057,1.707,5.057,4.5S248.397,259.5,245.604,259.5z"/>
	<path fill="#262626" d="M346.751,259.5h-41.47c-2.793,0-5.781-2.013-5.781-4.807v-96.09c0-2.792,2.707-5.056,5.5-5.056
		s5.5,2.264,5.5,5.056V250.5h36.251c2.794,0,5.058,1.707,5.058,4.5S349.545,259.5,346.751,259.5z"/>
</g>
<rect x="228.5" y="93.5" fill="#7C7C7C" width="118" height="78"/>
<g>
	<path fill="#262626" d="M345.139,132.606c-1.375,0-2.702-0.56-3.661-1.568l-15.48-16.243c-1.927-2.021-1.851-5.224,0.173-7.149
		c2.019-1.927,5.221-1.851,7.147,0.172l13.735,14.409c39.586-5.596,38.151-47.518,38.068-49.333c-0.127-2.79,2.033-5.154,4.824-5.28
		c2.786-0.174,5.154,2.033,5.28,4.823c0.025,0.548,1.897,55.002-49.584,60.145C345.475,132.598,345.305,132.606,345.139,132.606z"/>
	<path fill="#262626" d="M345.145,132.606c-0.268,0-0.539-0.02-0.813-0.065l-29.188-4.726c-2.758-0.445-4.631-3.042-4.185-5.799
		c0.446-2.755,3.046-4.634,5.802-4.185l29.188,4.725c2.758,0.447,4.631,3.043,4.185,5.801
		C349.729,130.84,347.582,132.606,345.145,132.606z"/>
	<path fill="#262626" d="M317.05,145.042c-1.941,0-3.793-1.125-4.627-3.013c-1.13-2.555,0.023-5.542,2.578-6.672l28.091-12.434
		c2.554-1.127,5.543,0.026,6.671,2.579c1.131,2.554-0.022,5.541-2.578,6.672l-28.091,12.434
		C318.429,144.901,317.732,145.042,317.05,145.042z"/>
	<path fill="#262626" d="M332.073,154.218c-0.893,0-1.794-0.236-2.612-0.73c-2.391-1.443-3.156-4.554-1.713-6.943l13.063-21.61
		c1.444-2.391,4.553-3.156,6.945-1.713c2.391,1.443,3.156,4.554,1.713,6.944l-13.063,21.611
		C335.455,153.348,333.783,154.218,332.073,154.218z"/>
</g>
<g>
	<path fill="#262626" d="M196.679,147.814c-53.828,0-73.468-59.78-73.688-60.473c-0.844-2.664,0.631-5.507,3.294-6.35
		c2.661-0.835,5.501,0.632,6.346,3.29l0,0c0.899,2.817,22.513,68.008,84.607,50.351l7.719-18.493
		c1.075-2.579,4.033-3.797,6.615-2.719c2.577,1.075,3.794,4.036,2.719,6.614l-8.642,20.706c-0.576,1.38-1.734,2.435-3.162,2.879
		C213.128,146.538,204.537,147.814,196.679,147.814z"/>
	<path fill="#262626" d="M220.988,143.848c-1.744,0-3.439-0.9-4.377-2.514c-1.404-2.417-0.585-5.513,1.83-6.915l25.563-14.86
		c2.412-1.413,5.51-0.584,6.913,1.83c1.405,2.416,0.585,5.512-1.83,6.915l-25.564,14.859
		C222.725,143.63,221.85,143.848,220.988,143.848z"/>
	<path fill="#262626" d="M251.67,145.408c-0.086,0-0.173-0.003-0.261-0.006l-30.683-1.559c-2.79-0.144-4.937-2.519-4.794-5.309
		c0.142-2.789,2.492-4.934,5.307-4.794l30.684,1.56c2.789,0.142,4.937,2.519,4.793,5.307
		C256.579,143.31,254.346,145.408,251.67,145.408z"/>
	<path fill="#262626" d="M240.911,159.354c-1.085,0-2.178-0.347-3.102-1.064l-19.932-15.505c-2.205-1.717-2.601-4.893-0.887-7.098
		c1.714-2.207,4.892-2.6,7.098-0.888l19.933,15.506c2.205,1.717,2.601,4.894,0.886,7.099
		C243.91,158.685,242.418,159.354,240.911,159.354z"/>
</g>
</svg>
