<?xml version="1.0" encoding="utf-8"?>
<!-- Generator: Adobe Illustrator 16.0.0, SVG Export Plug-In . SVG Version: 6.00 Build 0)  -->
<!DOCTYPE svg PUBLIC "-//W3C//DTD SVG 1.1//EN" "http://www.w3.org/Graphics/SVG/1.1/DTD/svg11.dtd">
<svg version="1.1" id="Capa_1" xmlns="http://www.w3.org/2000/svg" xmlns:xlink="http://www.w3.org/1999/xlink" x="0px" y="0px"
	 width="520px" height="300px" viewBox="0 0 520 300" enable-background="new 0 0 520 300" xml:space="preserve">
<g>
	
		<polyline fill="none" stroke="#262626" stroke-width="9" stroke-linecap="round" stroke-linejoin="round" stroke-miterlimit="10" points="
		306.551,158.154 306.551,256.209 264.232,256.209 	"/>
	
		<polyline fill="none" stroke="#262626" stroke-width="9" stroke-linecap="round" stroke-linejoin="round" stroke-miterlimit="10" points="
		203.334,158.154 203.334,256.209 161.016,256.209 	"/>
</g>
<g>
	<path fill="none" stroke="#262626" stroke-width="9" stroke-linecap="round" stroke-linejoin="round" stroke-miterlimit="10" d="
		M105.771,79.035c0,0-70.187-3.097-70.187,71.219L53.13,164.91"/>
	
		<line fill="none" stroke="#262626" stroke-width="9" stroke-linecap="round" stroke-linejoin="round" stroke-miterlimit="10" x1="35.584" y1="150.254" x2="42.19" y2="179.773"/>
	
		<line fill="none" stroke="#262626" stroke-width="9" stroke-linecap="round" stroke-linejoin="round" stroke-miterlimit="10" x1="35.584" y1="150.254" x2="24.643" y2="179.773"/>
	
		<line fill="none" stroke="#262626" stroke-width="9" stroke-linecap="round" stroke-linejoin="round" stroke-miterlimit="10" x1="35.584" y1="150.254" x2="14.322" y2="165.117"/>
</g>
<g>
	<path fill="none" stroke="#262626" stroke-width="9" stroke-linecap="round" stroke-linejoin="round" stroke-miterlimit="10" d="
		M408.862,78.678c0,0,70.187-3.097,70.187,71.219l-17.547,14.656"/>
	
		<line fill="none" stroke="#262626" stroke-width="9" stroke-linecap="round" stroke-linejoin="round" stroke-miterlimit="10" x1="479.049" y1="149.897" x2="472.443" y2="179.416"/>
	
		<line fill="none" stroke="#262626" stroke-width="9" stroke-linecap="round" stroke-linejoin="round" stroke-miterlimit="10" x1="479.049" y1="149.897" x2="489.989" y2="179.416"/>
	
		<line fill="none" stroke="#262626" stroke-width="9" stroke-linecap="round" stroke-linejoin="round" stroke-miterlimit="10" x1="479.049" y1="149.897" x2="500.313" y2="164.76"/>
</g>
</svg>
