<?xml version="1.0" encoding="utf-8"?>
<!-- Generator: Adobe Illustrator 16.0.0, SVG Export Plug-In . SVG Version: 6.00 Build 0)  -->
<!DOCTYPE svg PUBLIC "-//W3C//DTD SVG 1.1//EN" "http://www.w3.org/Graphics/SVG/1.1/DTD/svg11.dtd">
<svg version="1.1" id="Capa_1" xmlns="http://www.w3.org/2000/svg" xmlns:xlink="http://www.w3.org/1999/xlink" x="0px" y="0px"
	 width="251.861px" height="161.993px" viewBox="0 0 251.861 161.993" enable-background="new 0 0 251.861 161.993"
	 xml:space="preserve">
<g>
	
		<polyline fill="none" stroke="#262626" stroke-width="5" stroke-linecap="round" stroke-linejoin="round" stroke-miterlimit="10" points="
		147.93,104.493 147.93,151.993 127.43,151.993 	"/>
	
		<polyline fill="none" stroke="#262626" stroke-width="5" stroke-linecap="round" stroke-linejoin="round" stroke-miterlimit="10" points="
		97.93,104.493 97.93,151.993 77.43,151.993 	"/>
</g>
<g>
	<path fill="none" stroke="#262626" stroke-width="5" stroke-linecap="round" stroke-linejoin="round" stroke-miterlimit="10" d="
		M50.25,64.108c0,0-34,1.5-34-34.5l8.5-7.126"/>
	
		<line fill="none" stroke="#262626" stroke-width="5" stroke-linecap="round" stroke-linejoin="round" stroke-miterlimit="10" x1="16.25" y1="29.609" x2="19.5" y2="15.358"/>
	
		<line fill="none" stroke="#262626" stroke-width="5" stroke-linecap="round" stroke-linejoin="round" stroke-miterlimit="10" x1="16.25" y1="29.609" x2="11" y2="15.358"/>
	
		<line fill="none" stroke="#262626" stroke-width="5" stroke-linecap="round" stroke-linejoin="round" stroke-miterlimit="10" x1="16.25" y1="29.609" x2="6" y2="22.483"/>
</g>
<g>
	<path fill="none" stroke="#262626" stroke-width="5" stroke-linecap="round" stroke-linejoin="round" stroke-miterlimit="10" d="
		M197,54.109c0,0,34,1.5,34-34.5l-8.5-7.125"/>
	
		<line fill="none" stroke="#262626" stroke-width="5" stroke-linecap="round" stroke-linejoin="round" stroke-miterlimit="10" x1="231" y1="19.609" x2="227.75" y2="5.359"/>
	
		<line fill="none" stroke="#262626" stroke-width="5" stroke-linecap="round" stroke-linejoin="round" stroke-miterlimit="10" x1="231" y1="19.609" x2="236.25" y2="5.359"/>
	
		<line fill="none" stroke="#262626" stroke-width="5" stroke-linecap="round" stroke-linejoin="round" stroke-miterlimit="10" x1="231" y1="19.609" x2="241.25" y2="12.484"/>
</g>
<g>
	<path fill="none" stroke="#262626" stroke-width="4" stroke-linecap="round" stroke-miterlimit="10" d="M138.488,62.362
		c0,8.467-6.864,15.332-15.332,15.332c-8.467,0-15.331-6.864-15.331-15.332"/>
	<path fill="none" stroke="#262626" stroke-width="4" stroke-linecap="round" stroke-miterlimit="10" d="M63.825,60.678
		c0-7.167,5.81-12.978,12.979-12.978c7.167,0,12.977,5.811,12.977,12.978"/>
	<path fill="none" stroke="#262626" stroke-width="4" stroke-linecap="round" stroke-miterlimit="10" d="M155.825,60.678
		c0-7.167,5.812-12.978,12.979-12.978c7.166,0,12.977,5.811,12.977,12.978"/>
</g>
</svg>
