<?xml version="1.0" encoding="utf-8"?>
<!-- Generator: Adobe Illustrator 16.0.0, SVG Export Plug-In . SVG Version: 6.00 Build 0)  -->
<!DOCTYPE svg PUBLIC "-//W3C//DTD SVG 1.1//EN" "http://www.w3.org/Graphics/SVG/1.1/DTD/svg11.dtd">
<svg version="1.1" id="Capa_1" xmlns="http://www.w3.org/2000/svg" xmlns:xlink="http://www.w3.org/1999/xlink" x="0px" y="0px"
	 width="251.861px" height="120.266px" viewBox="0 0 251.861 120.266" enable-background="new 0 0 251.861 120.266"
	 xml:space="preserve">
<g>
	<path fill="none" stroke="#262626" stroke-width="4" stroke-linecap="round" stroke-miterlimit="10" d="M111.022,44.49
		c0-7.168,5.81-12.979,12.979-12.979c7.167,0,12.978,5.811,12.978,12.979"/>
	<g>
		<path fill="#262626" d="M89.004,11.155L89.004,11.155c1.989,2.505,3.179,5.674,3.179,9.12c0,8.104-6.57,14.675-14.676,14.675
			c-8.104,0-14.674-6.569-14.674-14.675c0-5.254,2.761-9.862,6.911-12.455L89.004,11.155z"/>
		<circle fill="#FFFFFF" cx="83.381" cy="17.837" r="5.366"/>
	</g>
	<g>
		<path fill="#262626" d="M177.256,7.82c4.149,2.593,6.911,7.201,6.911,12.455c0,8.104-6.569,14.675-14.674,14.675
			c-8.104,0-14.675-6.569-14.675-14.675c0-3.446,1.188-6.615,3.178-9.12l0,0L177.256,7.82z"/>
		<circle fill="#FFFFFF" cx="176.619" cy="17.837" r="5.366"/>
	</g>
</g>
<g>
	
		<polyline fill="none" stroke="#262626" stroke-width="5" stroke-linecap="round" stroke-linejoin="round" stroke-miterlimit="10" points="
		148.5,64 148.5,111.5 128,111.5 	"/>
	
		<polyline fill="none" stroke="#262626" stroke-width="5" stroke-linecap="round" stroke-linejoin="round" stroke-miterlimit="10" points="
		98.5,64 98.5,111.5 78,111.5 	"/>
</g>
<g>
	<path fill="none" stroke="#262626" stroke-width="5" stroke-linecap="round" stroke-linejoin="round" stroke-miterlimit="10" d="
		M49.095,23.217c0,0-32.297,10.732-19.449,44.361l10.482,3.624"/>
	
		<line fill="none" stroke="#262626" stroke-width="5" stroke-linecap="round" stroke-linejoin="round" stroke-miterlimit="10" x1="29.646" y1="67.578" x2="37.768" y2="79.731"/>
	
		<line fill="none" stroke="#262626" stroke-width="5" stroke-linecap="round" stroke-linejoin="round" stroke-miterlimit="10" x1="29.646" y1="67.578" x2="29.828" y2="82.764"/>
	
		<line fill="none" stroke="#262626" stroke-width="5" stroke-linecap="round" stroke-linejoin="round" stroke-miterlimit="10" x1="29.646" y1="67.578" x2="22.615" y2="77.893"/>
</g>
<g>
	<path fill="none" stroke="#262626" stroke-width="5" stroke-linecap="round" stroke-linejoin="round" stroke-miterlimit="10" d="
		M198.684,24.063c0,0,30.882,14.303,14.327,46.271l-10.824,2.418"/>
	
		<line fill="none" stroke="#262626" stroke-width="5" stroke-linecap="round" stroke-linejoin="round" stroke-miterlimit="10" x1="213.011" y1="70.334" x2="203.573" y2="81.493"/>
	
		<line fill="none" stroke="#262626" stroke-width="5" stroke-linecap="round" stroke-linejoin="round" stroke-miterlimit="10" x1="213.011" y1="70.334" x2="211.121" y2="85.402"/>
	
		<line fill="none" stroke="#262626" stroke-width="5" stroke-linecap="round" stroke-linejoin="round" stroke-miterlimit="10" x1="213.011" y1="70.334" x2="218.838" y2="81.374"/>
</g>
</svg>
