<?xml version="1.0" encoding="utf-8"?>
<!-- Generator: Adobe Illustrator 16.0.0, SVG Export Plug-In . SVG Version: 6.00 Build 0)  -->
<!DOCTYPE svg PUBLIC "-//W3C//DTD SVG 1.1//EN" "http://www.w3.org/Graphics/SVG/1.1/DTD/svg11.dtd">
<svg version="1.1" id="Capa_1" xmlns="http://www.w3.org/2000/svg" xmlns:xlink="http://www.w3.org/1999/xlink" x="0px" y="0px"
	 width="251.861px" height="161.993px" viewBox="0 0 251.861 161.993" enable-background="new 0 0 251.861 161.993"
	 xml:space="preserve">
<g>
	
		<polyline fill="none" stroke="#262626" stroke-width="5" stroke-linecap="round" stroke-linejoin="round" stroke-miterlimit="10" points="
		147.93,104.493 147.93,151.993 127.43,151.993 	"/>
	
		<polyline fill="none" stroke="#262626" stroke-width="5" stroke-linecap="round" stroke-linejoin="round" stroke-miterlimit="10" points="
		97.93,104.493 97.93,151.993 77.43,151.993 	"/>
</g>
<g>
	<path fill="none" stroke="#262626" stroke-width="5" stroke-linecap="round" stroke-linejoin="round" stroke-miterlimit="10" d="
		M47.25,63.108c0,0-34,1.5-34-34.5l8.5-7.126"/>
	
		<line fill="none" stroke="#262626" stroke-width="5" stroke-linecap="round" stroke-linejoin="round" stroke-miterlimit="10" x1="13.25" y1="28.609" x2="16.5" y2="14.358"/>
	
		<line fill="none" stroke="#262626" stroke-width="5" stroke-linecap="round" stroke-linejoin="round" stroke-miterlimit="10" x1="13.25" y1="28.609" x2="8" y2="14.358"/>
	
		<line fill="none" stroke="#262626" stroke-width="5" stroke-linecap="round" stroke-linejoin="round" stroke-miterlimit="10" x1="13.25" y1="28.609" x2="3" y2="21.483"/>
</g>
<g>
	<path fill="none" stroke="#262626" stroke-width="5" stroke-linecap="round" stroke-linejoin="round" stroke-miterlimit="10" d="
		M199,65.109c0,0,34,1.5,34-34.5l-8.5-7.125"/>
	
		<line fill="none" stroke="#262626" stroke-width="5" stroke-linecap="round" stroke-linejoin="round" stroke-miterlimit="10" x1="233" y1="30.609" x2="229.75" y2="16.359"/>
	
		<line fill="none" stroke="#262626" stroke-width="5" stroke-linecap="round" stroke-linejoin="round" stroke-miterlimit="10" x1="233" y1="30.609" x2="238.25" y2="16.359"/>
	
		<line fill="none" stroke="#262626" stroke-width="5" stroke-linecap="round" stroke-linejoin="round" stroke-miterlimit="10" x1="233" y1="30.609" x2="243.25" y2="23.484"/>
</g>
<g>
	<path fill="none" stroke="#262626" stroke-width="4" stroke-linecap="round" stroke-miterlimit="10" d="M138.488,62.362
		c0,8.467-6.864,15.332-15.332,15.332c-8.467,0-15.331-6.864-15.331-15.332"/>
	<path fill="none" stroke="#262626" stroke-width="4" stroke-linecap="round" stroke-miterlimit="10" d="M63.825,60.678
		c0-7.167,5.81-12.978,12.979-12.978c7.167,0,12.977,5.811,12.977,12.978"/>
	<path fill="none" stroke="#262626" stroke-width="4" stroke-linecap="round" stroke-miterlimit="10" d="M155.825,60.678
		c0-7.167,5.813-12.978,12.979-12.978s12.977,5.811,12.977,12.978"/>
</g>
<g>
	<path fill="#3A4344" d="M170.46,83.61c-13.708,0-24.861-11.152-24.861-24.861c0-13.711,11.153-24.865,24.861-24.865
		c13.71,0,24.863,11.154,24.863,24.865C195.323,72.458,184.17,83.61,170.46,83.61z M170.46,37.037
		c-11.973,0-21.71,9.74-21.71,21.713c0,11.97,9.737,21.709,21.71,21.709s21.712-9.739,21.712-21.709
		C192.172,46.777,182.432,37.037,170.46,37.037z"/>
	<path fill="#3A4344" d="M74.864,83.61c-13.709,0-24.862-11.152-24.862-24.861c0-13.711,11.153-24.865,24.862-24.865
		c13.709,0,24.862,11.154,24.862,24.865C99.726,72.458,88.573,83.61,74.864,83.61z M74.864,37.037
		c-11.972,0-21.711,9.74-21.711,21.713c0,11.97,9.74,21.709,21.711,21.709c11.971,0,21.711-9.739,21.711-21.709
		C96.574,46.777,86.835,37.037,74.864,37.037z"/>
	<path fill="#3A4344" d="M146.823,61.198c0,0-11.499-4.375-24.161-4.375S98.5,61.198,98.5,61.198c-0.87,0-1.575-0.707-1.575-1.576
		c0-0.87,0.705-1.576,1.575-1.576c0,0,9.091-4.375,24.201-4.375c15.111,0,24.122,4.375,24.122,4.375
		c0.872,0,1.576,0.706,1.576,1.576C148.399,60.493,147.695,61.198,146.823,61.198z"/>
	<path fill="#3A4344" d="M51.568,60.324c0.388,0,0.776-0.142,1.081-0.429c0.633-0.597,0.661-1.596,0.064-2.228l-8.754-9.273
		c-0.599-0.632-1.594-0.662-2.229-0.063c-0.632,0.596-0.661,1.595-0.063,2.227l8.753,9.272
		C50.731,60.159,51.148,60.324,51.568,60.324z"/>
	<path fill="#3A4344" d="M193.747,60.324c-0.388,0-0.777-0.142-1.081-0.429c-0.634-0.597-0.662-1.596-0.064-2.228l8.754-9.273
		c0.599-0.632,1.594-0.662,2.228-0.063c0.632,0.596,0.661,1.595,0.063,2.227l-8.753,9.272
		C194.582,60.159,194.166,60.324,193.747,60.324z"/>
</g>
</svg>
