<?xml version="1.0" encoding="utf-8"?>
<!-- Generator: Adobe Illustrator 16.0.0, SVG Export Plug-In . SVG Version: 6.00 Build 0)  -->
<!DOCTYPE svg PUBLIC "-//W3C//DTD SVG 1.1//EN" "http://www.w3.org/Graphics/SVG/1.1/DTD/svg11.dtd">
<svg version="1.1" id="Capa_1" xmlns="http://www.w3.org/2000/svg" xmlns:xlink="http://www.w3.org/1999/xlink" x="0px" y="0px"
	 width="132px" height="180px" viewBox="0 0 132 180" enable-background="new 0 0 132 180" xml:space="preserve">
<g>
	<path fill="#878787" d="M126.019,166.523c0,3.102-2.513,5.614-5.614,5.614H19.346c-3.102,0-5.614-2.513-5.614-5.614V14.936
		c0-3.101,2.513-5.614,5.614-5.614h101.059c3.102,0,5.614,2.513,5.614,5.614V166.523z"/>
	<path fill="#FFFFFF" d="M118.533,160.909c0,3.102-2.514,5.614-5.615,5.614H11.86c-3.101,0-5.614-2.513-5.614-5.614V9.321
		c0-3.102,2.513-5.614,5.614-5.614h101.058c3.102,0,5.615,2.513,5.615,5.614V160.909z"/>
</g>
</svg>
