<?xml version="1.0" encoding="utf-8"?>
<!-- Generator: Adobe Illustrator 16.0.0, SVG Export Plug-In . SVG Version: 6.00 Build 0)  -->
<!DOCTYPE svg PUBLIC "-//W3C//DTD SVG 1.1//EN" "http://www.w3.org/Graphics/SVG/1.1/DTD/svg11.dtd">
<svg version="1.1" id="Capa_1" xmlns="http://www.w3.org/2000/svg" xmlns:xlink="http://www.w3.org/1999/xlink" x="0px" y="0px"
	 width="173.902px" height="102.656px" viewBox="0 0 173.902 102.656" enable-background="new 0 0 173.902 102.656"
	 xml:space="preserve">
<g>
	<g>
		<path fill="#C4C4C4" d="M154,84.204C154,90.167,149.167,95,143.204,95H30.796C24.833,95,20,90.167,20,84.204V15.796
			C20,9.833,24.833,5,30.796,5h112.408C149.167,5,154,9.833,154,15.796V84.204z"/>
		<rect x="26" y="13" fill="#F9F9F9" width="119" height="67"/>
		<circle fill="#8C8C8C" cx="91.503" cy="9.135" r="1.274"/>
		<rect x="26" y="13" fill="#8C8C8C" width="119" height="7"/>
		<circle fill="#F9F9F9" cx="139.411" cy="15.957" r="1.8"/>
		<circle fill="#F9F9F9" cx="134.013" cy="15.957" r="1.8"/>
		<circle fill="#F9F9F9" cx="128.615" cy="15.957" r="1.799"/>
		<path fill="#F9F9F9" d="M50,19.923C50,21.07,49.07,22,47.923,22H31.077C29.93,22,29,21.07,29,19.923v-3.846
			C29,14.93,29.93,14,31.077,14h16.846C49.07,14,50,14.93,50,16.077V19.923z"/>
		<circle fill="#8C8C8C" cx="45.844" cy="16.857" r="1.799"/>
		<rect x="30" y="71" fill="#999999" width="4" height="4"/>
		<rect x="30" y="66" fill="#999999" width="4" height="3"/>
		<rect x="30" y="60" fill="#999999" width="4" height="4"/>
		<rect x="46" y="55" fill="#C4C4C4" width="4" height="3"/>
		<rect x="30" y="55" fill="#999999" width="4" height="3"/>
		<rect x="30" y="49" fill="#999999" width="4" height="4"/>
		<rect x="30" y="44" fill="#999999" width="4" height="4"/>
		<rect x="77" y="60" fill="#547FDD" width="8" height="4"/>
		<rect x="60" y="60" fill="#53B1E0" width="16" height="4"/>
		<rect x="46" y="60" fill="#C4C4C4" width="12" height="4"/>
		<rect x="82" y="66" fill="#BC4CD3" width="19" height="3"/>
		<rect x="61" y="71" fill="#D15959" width="13" height="4"/>
		<rect x="55" y="71" fill="#C4C4C4" width="4" height="4"/>
		<rect x="61" y="66" fill="#999999" width="19" height="3"/>
		<rect x="55" y="66" fill="#C4C4C4" width="4" height="3"/>
		<rect x="77" y="39" fill="#BC4CD3" width="14" height="3"/>
		<rect x="66" y="39" fill="#999999" width="10" height="3"/>
		<rect x="46" y="39" fill="#C4C4C4" width="18" height="3"/>
		<rect x="30" y="39" fill="#999999" width="4" height="3"/>
		<rect x="30" y="33" fill="#999999" width="4" height="4"/>
		<rect x="85" y="33" fill="#C4C4C4" width="18" height="4"/>
		<rect x="71" y="33" fill="#BC4CD3" width="13" height="4"/>
		<rect x="52" y="33" fill="#C4C4C4" width="17" height="4"/>
		<rect x="73" y="49" fill="#BC4CD3" width="15" height="4"/>
		<rect x="61" y="49" fill="#C4C4C4" width="11" height="4"/>
		<rect x="55" y="49" fill="#547FDD" width="4" height="4"/>
		<rect x="61" y="44" fill="#C4C4C4" width="17" height="4"/>
		<rect x="55" y="44" fill="#547FDD" width="4" height="4"/>
		<rect x="46" y="33" fill="#547FDD" width="4" height="4"/>
		<rect x="46" y="28" fill="#53B1E0" width="16" height="3"/>
		<rect x="30" y="28" fill="#999999" width="4" height="3"/>
		<rect x="51" y="22" fill="#BC4CD3" width="13" height="4"/>
		<rect x="66" y="22" fill="#C4C4C4" width="10" height="4"/>
		<rect x="39" y="22" fill="#C4C4C4" width="10" height="4"/>
		<rect x="30" y="22" fill="#999999" width="4" height="4"/>
		<rect x="119" y="20" fill="#E0E0E0" width="26" height="60"/>
		<rect x="121" y="31" fill="#9E9E9E" width="22" height="5"/>
		<rect x="121" y="22" fill="#9E9E9E" width="22" height="5"/>
		<path fill="#ADADAD" d="M170,92.152c0,3.229-2.618,5.848-5.848,5.848H9.848C6.618,98,4,95.382,4,92.152v-0.305
			C4,88.618,6.618,86,9.848,86h154.305c3.229,0,5.848,2.618,5.848,5.848V92.152z"/>
		<path fill="#8C8C8C" d="M103,92.314c0,0.931-1.147,1.686-2.563,1.686H72.563C71.147,94,70,93.245,70,92.314v-0.629
			C70,90.755,71.147,90,72.563,90h27.875c1.415,0,2.563,0.755,2.563,1.686V92.314z"/>
	</g>
</g>
</svg>
