<?xml version="1.0" encoding="utf-8"?>
<!-- Generator: Adobe Illustrator 19.2.0, SVG Export Plug-In . SVG Version: 6.00 Build 0)  -->
<svg version="1.1" id="Capa_1" xmlns="http://www.w3.org/2000/svg" xmlns:xlink="http://www.w3.org/1999/xlink" x="0px" y="0px"
	 viewBox="0 0 171.6 125.4" style="enable-background:new 0 0 171.6 125.4;" xml:space="preserve">
<style type="text/css">
	.st0{fill:none;stroke:#D6AF0B;stroke-width:2;stroke-miterlimit:10;}
	.st1{fill:none;stroke:#D3320D;stroke-width:2;stroke-miterlimit:10;}
	.st2{fill:none;stroke:#D3320D;stroke-width:3;stroke-miterlimit:10;}
	.st3{fill:none;stroke:#D6AF0B;stroke-miterlimit:10;}
	.st4{fill:none;stroke:#D87509;stroke-width:3;stroke-miterlimit:10;}
	.st5{fill:none;stroke:#D87509;stroke-width:2;stroke-miterlimit:10;}
	.st6{fill:none;stroke:#D6AF0B;stroke-width:3;stroke-miterlimit:10;}
	.st7{fill:none;stroke:#D3320D;stroke-miterlimit:10;}
</style>
<g>
	<g>
		<path class="st0" d="M30.7,54c-3.1-2.1-1.4-4.5-4.5-6.6c-3.1-2.1-4.7,0.4-7.8-1.7c-3.1-2.1-1.4-4.5-4.5-6.6"/>
	</g>
	<g>
		<path class="st1" d="M113.3,29c-3.1-2.1-1.4-4.5-4.5-6.6c-3.1-2.1-4.7,0.4-7.8-1.7s-1.4-4.5-4.5-6.6"/>
	</g>
	<g>
		<path class="st2" d="M156.5,102.5c-3.1-2.1-1.4-4.5-4.5-6.6c-3.1-2.1-4.7,0.4-7.8-1.7c-3.1-2.1-1.4-4.5-4.5-6.6"/>
	</g>
	<g>
		<path class="st3" d="M106.9,94.8c-3.1-2.1-1.4-4.5-4.5-6.6c-3.1-2.1-4.7,0.4-7.8-1.7c-3.1-2.1-1.4-4.5-4.5-6.6"/>
	</g>
	<g>
		<path class="st4" d="M42.9,32.2c-3.1-2.1-1.4-4.5-4.5-6.6c-3.1-2.1-4.7,0.4-7.8-1.7s-1.4-4.5-4.5-6.6"/>
	</g>
	<g>
		<path class="st1" d="M59.8,115.2c-3.1-2.1-1.4-4.5-4.5-6.6c-3.1-2.1-4.7,0.4-7.8-1.7c-3.1-2.1-1.4-4.5-4.5-6.6"/>
	</g>
	<g>
		<path class="st4" d="M110.2,119.1c-3.1-2.1-1.4-4.5-4.5-6.6c-3.1-2.1-4.7,0.4-7.8-1.7c-3.1-2.1-1.4-4.5-4.5-6.6"/>
	</g>
	<g>
		<path class="st3" d="M142.6,58.2c-3.1-2.1-1.4-4.5-4.5-6.6c-3.1-2.1-4.7,0.4-7.8-1.7c-3.1-2.1-1.4-4.5-4.5-6.6"/>
	</g>
	<g>
		<path class="st5" d="M80.5,110.4c-3.1-2.1-1.4-4.5-4.5-6.6c-3.1-2.1-4.7,0.4-7.8-1.7c-3.1-2.1-1.4-4.5-4.5-6.6"/>
	</g>
	<g>
		<path class="st6" d="M157.8,82.3c-3.1-2.1-1.4-4.5-4.5-6.6c-3.1-2.1-4.7,0.4-7.8-1.7c-3.1-2.1-1.4-4.5-4.5-6.6"/>
	</g>
	<g>
		<path class="st7" d="M82.1,48.7c-3.1-2.1-1.4-4.5-4.5-6.6c-3.1-2.1-4.7,0.4-7.8-1.7c-3.1-2.1-1.4-4.5-4.5-6.6"/>
	</g>
	<g>
		<path class="st6" d="M45.4,93.2c-3.1-2.1-1.4-4.5-4.5-6.6c-3.1-2.1-4.7,0.4-7.8-1.7c-3.1-2.1-1.4-4.5-4.5-6.6"/>
	</g>
	<g>
		<path class="st0" d="M125,91.4c-3.1-2.1-1.4-4.5-4.5-6.6c-3.1-2.1-4.7,0.4-7.8-1.7c-3.1-2.1-1.4-4.5-4.5-6.6"/>
	</g>
	<g>
		<path class="st1" d="M77.9,94.8c-3.1-2.1-1.4-4.5-4.5-6.6c-3.1-2.1-4.7,0.4-7.8-1.7c-3.1-2.1-1.4-4.5-4.5-6.6"/>
	</g>
	<g>
		<path class="st2" d="M131.5,72c-3.1-2.1-1.4-4.5-4.5-6.6c-3.1-2.1-4.7,0.4-7.8-1.7c-3.1-2.1-1.4-4.5-4.5-6.6"/>
	</g>
	<g>
		<path class="st3" d="M97.4,68.9c-3.1-2.1-1.4-4.5-4.5-6.6c-3.1-2.1-4.7,0.4-7.8-1.7C82,58.5,83.6,56,80.5,54"/>
	</g>
	<g>
		<path class="st4" d="M142.6,112.9c-3.1-2.1-1.4-4.5-4.5-6.6c-3.1-2.1-4.7,0.4-7.8-1.7c-3.1-2.1-1.4-4.5-4.5-6.6"/>
	</g>
	<g>
		<path class="st1" d="M67.7,29c-3.1-2.1-1.4-4.5-4.5-6.6c-3.1-2.1-4.7,0.4-7.8-1.7s-1.4-4.5-4.5-6.6"/>
	</g>
	<g>
		<path class="st4" d="M42.9,73.8c-3.1-2.1-1.4-4.5-4.5-6.6c-3.1-2.1-4.7,0.4-7.8-1.7c-3.1-2.1-1.4-4.5-4.5-6.6"/>
	</g>
	<g>
		<path class="st3" d="M50.8,49.6c-3.1-2.1-1.4-4.5-4.5-6.6c-3.1-2.1-4.7,0.4-7.8-1.7c-3.1-2.1-1.4-4.5-4.5-6.6"/>
	</g>
	<g>
		<path class="st5" d="M113.3,52.9c-3.1-2.1-1.4-4.5-4.5-6.6c-3.1-2.1-4.7,0.4-7.8-1.7c-3.1-2.1-1.4-4.5-4.5-6.6"/>
	</g>
	<g>
		<path class="st6" d="M73,72c-3.1-2.1-1.4-4.5-4.5-6.6c-3.1-2.1-4.7,0.4-7.8-1.7s-1.4-4.5-4.5-6.6"/>
	</g>
	<g>
		<path class="st7" d="M113.3,109.6c-3.1-2.1-1.4-4.5-4.5-6.6c-3.1-2.1-4.7,0.4-7.8-1.7s-1.4-4.5-4.5-6.6"/>
	</g>
	<g>
		<path class="st6" d="M87.1,21.2c-3.1-2.1-1.4-4.5-4.5-6.6c-3.1-2.1-4.7,0.4-7.8-1.7c-3.1-2.1-1.4-4.5-4.5-6.6"/>
	</g>
</g>
</svg>
