<?xml version="1.0" encoding="utf-8"?>
<!-- Generator: Adobe Illustrator 16.0.0, SVG Export Plug-In . SVG Version: 6.00 Build 0)  -->
<!DOCTYPE svg PUBLIC "-//W3C//DTD SVG 1.1//EN" "http://www.w3.org/Graphics/SVG/1.1/DTD/svg11.dtd">
<svg version="1.1" id="Capa_1" xmlns="http://www.w3.org/2000/svg" xmlns:xlink="http://www.w3.org/1999/xlink" x="0px" y="0px"
	 width="187.48px" height="160px" viewBox="0 0 187.48 160" enable-background="new 0 0 187.48 160" xml:space="preserve">
<g>
	<g>
		<path fill="#04A39F" d="M151.245,95.65c0,12.185-9.796,21.984-21.741,21.984h-0.232H56.645c-12.181,0-21.979-9.801-21.979-21.984
			l0,0V23.03c0-12.182,9.792-21.975,21.739-21.975l0,0h72.628c12.179,0,21.975,9.555,21.975,21.737c0,0,0,0,0,0.238v72.62H151.245
			L151.245,95.65z"/>
		<path fill="#0BFCFC" d="M151.245,86.102c0,12.18-9.796,21.978-21.979,21.978l0,0H56.641c-12.179,0-21.979-9.798-21.979-21.978l0,0
			V23.03c0-12.184,9.796-21.979,21.739-21.979l0,0h72.628c12.18,0,21.975,9.555,21.975,21.741c0,0,0,0,0,0.238V86.1h0.241V86.102z"
			/>
		<g>
			<g>
				<circle fill="#2A2A2A" cx="130.017" cy="80.81" r="11.852"/>
				<circle fill="#FFFFFF" cx="134.351" cy="76.122" r="4.334"/>
			</g>
			<g>
				<circle fill="#2A2A2A" cx="55.727" cy="80.81" r="11.852"/>
				<circle fill="#FFFFFF" cx="60.061" cy="76.122" r="4.334"/>
			</g>
			<path fill="#2A2A2A" d="M93.403,100.645c-7.718,0-13.998-6.279-13.998-13.998c0-0.892,0.723-1.614,1.615-1.614
				c0.892,0,1.614,0.723,1.614,1.614c0,5.938,4.83,10.767,10.769,10.767c5.936,0,10.766-4.829,10.766-10.767
				c0-0.892,0.724-1.614,1.615-1.614s1.614,0.723,1.614,1.614C107.398,94.364,101.12,100.645,93.403,100.645z"/>
		</g>
		<g opacity="0.3">
			<path d="M88.014,61.991L62.036,42.027v-4.636l25.979-22.663v7.051l-21.14,17.549l21.14,15.517V61.991z"/>
			<path d="M97.692,54.845l21.166-15.422L97.692,21.779v-7.051l25.979,22.663v4.636L97.692,61.991V54.845z"/>
		</g>
	</g>
	<g>
		<g>
			<path fill="#2A2A2A" d="M72.737,149.887v-36.21c0-1.051,0.853-1.905,1.905-1.905c1.052,0,1.905,0.854,1.905,1.905v34.304h13.722
				c1.052,0,1.905,0.853,1.905,1.906c0,1.051-0.853,1.905-1.905,1.905H74.642C73.59,151.792,72.737,150.938,72.737,149.887z"/>
			<path fill="#2A2A2A" d="M110.852,149.887v-36.21c0-1.051,0.852-1.905,1.905-1.905c1.053,0,1.905,0.854,1.905,1.905v34.304h13.722
				c1.053,0,1.906,0.853,1.906,1.906c0,1.051-0.854,1.905-1.906,1.905h-15.627C111.704,151.792,110.852,150.938,110.852,149.887z"/>
		</g>
		<g>
			<path fill="#2A2A2A" d="M37.337,82.555c1.052,0.048,1.866,0.938,1.819,1.988c-0.046,1.051-0.924,1.857-1.988,1.82
				c-0.099-0.006-10.355-0.375-17.357,6.324c-4.194,4.013-6.399,9.793-6.562,17.189l5.788,4.853
				c0.807,0.677,0.913,1.879,0.237,2.685c-0.676,0.807-1.877,0.912-2.686,0.236l-6.479-5.432c-0.433-0.361-0.681-0.897-0.681-1.461
				c0-8.898,2.605-15.905,7.746-20.824c7.243-6.93,17.116-7.389,19.595-7.389C37.085,82.545,37.282,82.553,37.337,82.555z"/>
			<path fill="#2A2A2A" d="M13.192,110.334l2.477,10.863c0.234,1.025-0.408,2.048-1.435,2.282c-1.024,0.233-2.047-0.409-2.281-1.435
				l-2.478-10.863c-0.233-1.027,0.408-2.049,1.435-2.282c0.142-0.032,0.285-0.048,0.425-0.048
				C12.205,108.852,12.99,109.45,13.192,110.334z"/>
			<path fill="#2A2A2A" d="M11.993,108.971c0.987,0.365,1.493,1.459,1.129,2.447L9.12,122.281c-0.364,0.986-1.457,1.493-2.447,1.129
				c-0.986-0.363-1.492-1.459-1.129-2.447L9.545,110.1c0.284-0.771,1.014-1.248,1.789-1.248
				C11.552,108.852,11.775,108.889,11.993,108.971z"/>
			<path fill="#2A2A2A" d="M12.9,109.672c0.6,0.863,0.386,2.051-0.478,2.651l-7.813,5.433c-0.864,0.6-2.052,0.387-2.653-0.477
				c-0.601-0.864-0.387-2.052,0.478-2.652l7.813-5.434c0.331-0.23,0.71-0.341,1.085-0.341
				C11.935,108.853,12.528,109.137,12.9,109.672z"/>
		</g>
		<g>
			<path fill="#2A2A2A" d="M149.602,84.904c-0.315,0-0.513-0.008-0.566-0.01c-1.051-0.047-1.865-0.938-1.82-1.988
				c0.048-1.051,0.951-1.873,1.984-1.82l0,0c0.106,0.003,10.42,0.342,17.386-6.348c4.181-4.014,6.376-9.785,6.537-17.168
				l-5.789-4.852c-0.806-0.676-0.912-1.878-0.234-2.686c0.677-0.807,1.878-0.911,2.686-0.236l6.479,5.432
				c0.433,0.362,0.682,0.897,0.682,1.461c0,8.898-2.607,15.905-7.748,20.824C161.955,84.445,152.081,84.904,149.602,84.904z"/>
			<path fill="#2A2A2A" d="M175.037,58.598c-0.871,0-1.656-0.599-1.856-1.482l-2.478-10.863c-0.234-1.025,0.406-2.047,1.435-2.282
				c1.025-0.233,2.047,0.409,2.28,1.436l2.479,10.862c0.232,1.025-0.407,2.047-1.436,2.281
				C175.319,58.582,175.176,58.598,175.037,58.598z"/>
			<path fill="#2A2A2A" d="M175.037,58.598c-0.218,0-0.44-0.037-0.659-0.117c-0.986-0.364-1.492-1.459-1.129-2.447l4.003-10.863
				c0.363-0.988,1.458-1.494,2.446-1.129c0.987,0.364,1.493,1.459,1.129,2.447l-4.002,10.863
				C176.542,58.121,175.813,58.598,175.037,58.598z"/>
			<path fill="#2A2A2A" d="M175.039,58.598c-0.603,0-1.197-0.285-1.565-0.818c-0.602-0.864-0.388-2.051,0.477-2.652l7.813-5.432
				c0.864-0.602,2.055-0.389,2.652,0.477c0.602,0.864,0.389,2.051-0.479,2.652l-7.813,5.432
				C175.794,58.486,175.414,58.598,175.039,58.598z"/>
		</g>
	</g>
	<path opacity="0.2" enable-background="new    " d="M130.48,148.955c0,3.063-3.412,6.045-7.619,6.045H63.6
		c-4.208,0-8.119-2.982-8.119-6.045v-0.41c0-3.063,3.911-5.545,8.119-5.545h59.262c4.207,0,7.619,2.482,7.619,5.545L130.48,148.955
		L130.48,148.955z"/>
</g>
</svg>
