<?xml version="1.0" encoding="utf-8"?>
<!-- Generator: Adobe Illustrator 16.0.0, SVG Export Plug-In . SVG Version: 6.00 Build 0)  -->
<!DOCTYPE svg PUBLIC "-//W3C//DTD SVG 1.1//EN" "http://www.w3.org/Graphics/SVG/1.1/DTD/svg11.dtd">
<svg version="1.1" id="Capa_1" xmlns="http://www.w3.org/2000/svg" xmlns:xlink="http://www.w3.org/1999/xlink" x="0px" y="0px"
	 width="187.48px" height="160px" viewBox="0 0 187.48 160" enable-background="new 0 0 187.48 160" xml:space="preserve">
<g>
	<g>
		<g>
			<path fill="#A53D3D" d="M150.986,95.439c0,12.158-9.771,21.937-21.688,21.937h-0.232H56.607
				c-12.159,0-21.935-9.776-21.935-21.937l0,0V22.988c0-12.15,9.773-21.924,21.691-21.924l0,0h72.455
				c12.156,0,21.928,9.535,21.928,21.688c0,0,0,0,0,0.237v72.45H150.986L150.986,95.439z"/>
			<path fill="#F76969" d="M150.986,85.914c0,12.146-9.771,21.928-21.926,21.928l0,0H56.603c-12.155,0-21.937-9.781-21.937-21.928
				l0,0V22.988c0-12.15,9.776-21.926,21.694-21.926l0,0h72.455c12.156,0,21.932,9.529,21.932,21.689c0,0,0,0,0,0.237v62.926H150.986
				z"/>
			<g opacity="0.3">
				<path d="M96.724,37.711L96.724,37.711h15.313v7.2l-15.313,0.003l0,0h-7.873l0,0H73.62l0.001-7.209l15.239,0.003l0,0
					L96.724,37.711L96.724,37.711z"/>
				<circle cx="92.831" cy="54.552" r="5.448"/>
				<circle cx="92.831" cy="28.072" r="5.448"/>
			</g>
		</g>
		<g>
			<g>
				<circle fill="#2A2A2A" cx="130.09" cy="80.123" r="11.889"/>
				<circle fill="#FFFFFF" cx="134.437" cy="75.419" r="4.348"/>
			</g>
			<g>
				<circle fill="#2A2A2A" cx="55.565" cy="80.123" r="11.889"/>
				<circle fill="#FFFFFF" cx="59.912" cy="75.419" r="4.347"/>
			</g>
			<path fill="#2A2A2A" d="M105.652,88.002c0.896,0,1.621,0.523,1.621,1.418c0,7.742-6.299,13.939-14.042,13.939
				c-7.741,0-14.042-6.146-14.042-13.89c0-0.896,0.728-1.471,1.621-1.471h24.841L105.652,88.002L105.652,88.002z"/>
		</g>
	</g>
	<g>
		<g>
			<path fill="#2A2A2A" d="M72.737,149.887v-36.21c0-1.051,0.853-1.905,1.905-1.905c1.052,0,1.905,0.854,1.905,1.905v34.304h13.722
				c1.052,0,1.905,0.853,1.905,1.906c0,1.051-0.853,1.905-1.905,1.905H74.642C73.59,151.792,72.737,150.938,72.737,149.887z"/>
			<path fill="#2A2A2A" d="M110.852,149.887v-36.21c0-1.051,0.852-1.905,1.905-1.905c1.053,0,1.905,0.854,1.905,1.905v34.304h13.722
				c1.053,0,1.906,0.853,1.906,1.906c0,1.051-0.854,1.905-1.906,1.905h-15.627C111.704,151.792,110.852,150.938,110.852,149.887z"/>
		</g>
		<g>
			<path fill="#2A2A2A" d="M36.77,82.545c-2.479,0-12.353,0.458-19.596,7.389c-5.141,4.918-7.745,11.926-7.745,20.824
				c0,0.563,0.248,1.1,0.681,1.461l6.479,5.432c0.81,0.678,2.011,0.57,2.687-0.234c0.676-0.809,0.568-2.008-0.237-2.686
				l-5.788-4.854c0.162-7.396,2.367-13.176,6.563-17.189c7.002-6.697,17.259-6.33,17.356-6.322c1.064,0.035,1.942-0.77,1.988-1.82
				c0.047-1.051-0.768-1.939-1.819-1.986C37.282,82.553,37.085,82.545,36.77,82.545z"/>
			<path fill="#2A2A2A" d="M11.335,108.852c-0.14,0-0.283,0.018-0.425,0.049c-1.026,0.233-1.668,1.257-1.435,2.281l2.478,10.863
				c0.234,1.025,1.257,1.668,2.281,1.436c1.026-0.232,1.669-1.256,1.435-2.281l-2.477-10.863
				C12.99,109.451,12.205,108.852,11.335,108.852z"/>
			<path fill="#2A2A2A" d="M11.334,108.852c-0.774,0-1.505,0.479-1.789,1.248l-4.001,10.863c-0.362,0.988,0.144,2.083,1.129,2.447
				c0.99,0.363,2.083-0.143,2.447-1.131l4.002-10.862c0.364-0.987-0.142-2.083-1.129-2.446
				C11.775,108.891,11.552,108.852,11.334,108.852z"/>
			<path fill="#2A2A2A" d="M11.332,108.852c-0.375,0-0.754,0.111-1.085,0.342l-7.813,5.434c-0.864,0.604-1.078,1.789-0.479,2.653
				c0.603,0.86,1.789,1.075,2.653,0.477l7.813-5.433c0.863-0.602,1.077-1.788,0.479-2.652
				C12.528,109.139,11.935,108.852,11.332,108.852z"/>
		</g>
		<g>
			<path fill="#2A2A2A" d="M167.184,90.109c4.813,5.238,6.965,12.396,6.396,21.277c-0.037,0.563-0.32,1.081-0.773,1.413
				l-6.813,5.005c-0.85,0.623-2.042,0.442-2.665-0.406c-0.624-0.85-0.438-2.041,0.408-2.666l6.088-4.471
				c0.313-7.376-1.508-13.277-5.421-17.55c-6.521-7.124-16.837-7.448-16.942-7.451l0,0c-1.035-0.014-1.884-0.893-1.861-1.944
				c0.021-1.051,0.892-1.887,1.941-1.865c0.057,0.002,0.251,0.006,0.565,0.025C150.581,81.637,160.404,82.729,167.184,90.109z"/>
			<path fill="#2A2A2A" d="M172.222,109.438c1.009,0.302,1.582,1.362,1.281,2.373l-3.169,10.679
				c-0.302,1.01-1.358,1.584-2.369,1.286c-1.01-0.299-1.584-1.36-1.283-2.368l3.17-10.683c0.257-0.869,1.08-1.416,1.947-1.36
				C171.938,109.371,172.08,109.396,172.222,109.438z"/>
			<path fill="#2A2A2A" d="M173.504,110.725l3.297,11.096c0.303,1.011-0.274,2.07-1.282,2.369c-1.012,0.302-2.069-0.272-2.368-1.282
				l-3.298-11.099c-0.301-1.009,0.273-2.067,1.284-2.369c0.223-0.063,0.447-0.09,0.664-0.075
				C172.574,109.412,173.271,109.936,173.504,110.725z"/>
			<path fill="#2A2A2A" d="M172.864,109.773l7.448,5.924c0.826,0.654,0.962,1.853,0.307,2.676c-0.653,0.826-1.853,0.962-2.678,0.309
				l-7.449-5.924c-0.824-0.656-0.96-1.854-0.305-2.678c0.4-0.508,1.013-0.754,1.613-0.715
				C172.177,109.389,172.549,109.523,172.864,109.773z"/>
		</g>
	</g>
	<path opacity="0.2" enable-background="new    " d="M130.48,148.955c0,3.063-3.412,6.045-7.619,6.045H63.6
		c-4.208,0-8.119-2.982-8.119-6.045v-0.41c0-3.063,3.911-5.545,8.119-5.545h59.262c4.207,0,7.619,2.482,7.619,5.545L130.48,148.955
		L130.48,148.955z"/>
</g>
</svg>
