<?xml version="1.0" encoding="utf-8"?>
<!-- Generator: Adobe Illustrator 16.0.0, SVG Export Plug-In . SVG Version: 6.00 Build 0)  -->
<!DOCTYPE svg PUBLIC "-//W3C//DTD SVG 1.1//EN" "http://www.w3.org/Graphics/SVG/1.1/DTD/svg11.dtd">
<svg version="1.1" id="Capa_1" xmlns="http://www.w3.org/2000/svg" xmlns:xlink="http://www.w3.org/1999/xlink" x="0px" y="0px"
	 width="187.48px" height="160px" viewBox="0 0 187.48 160" enable-background="new 0 0 187.48 160" xml:space="preserve">
<g>
	<g>
		<g>
			<path fill="#995120" d="M151.867,96.158c0,12.249-9.847,22.104-21.853,22.104h-0.236h-73.01
				c-12.251,0-22.101-9.854-22.101-22.104l0,0V23.152c0-12.247,9.849-22.092,21.857-22.092l0,0h73.008
				c12.249,0,22.096,9.605,22.096,21.853c0,0,0,0,0,0.24v73.006L151.867,96.158L151.867,96.158z"/>
			<path fill="#D68345" d="M151.867,86.557c0,12.245-9.847,22.094-22.094,22.094l0,0H56.764c-12.248,0-22.103-9.85-22.103-22.094
				l0,0V23.152c0-12.25,9.852-22.097,21.859-22.097l0,0h73.008c12.249,0,22.1,9.605,22.1,21.857c0,0,0,0,0,0.24v63.405H151.867z"/>
			<g opacity="0.3">
				<path d="M85.417,55.799h-6.539V37.896l0.063-2.942l0.106-3.216c-1.087,1.086-1.841,1.799-2.265,2.137l-3.555,2.857l-3.153-3.936
					l9.968-7.936h5.375V55.799z"/>
				<path d="M115.447,40.329c0,5.404-0.887,9.403-2.656,11.999c-1.771,2.596-4.498,3.894-8.18,3.894c-3.57,0-6.262-1.34-8.074-4.021
					c-1.813-2.68-2.719-6.638-2.719-11.872c0-5.46,0.881-9.484,2.645-12.073c1.764-2.589,4.48-3.883,8.148-3.883
					c3.568,0,6.268,1.354,8.094,4.063C114.533,31.145,115.447,35.109,115.447,40.329z M100.314,40.329
					c0,3.795,0.328,6.515,0.984,8.158s1.76,2.465,3.313,2.465c1.523,0,2.625-0.833,3.301-2.497c0.678-1.665,1.016-4.374,1.016-8.126
					c0-3.795-0.342-6.521-1.025-8.179c-0.686-1.658-1.781-2.487-3.291-2.487c-1.537,0-2.639,0.829-3.301,2.487
					C100.646,33.808,100.314,36.534,100.314,40.329z"/>
			</g>
		</g>
		<g>
			<path fill="#2A2A2A" d="M93.073,102.32c-7.726,0-14.011-6.285-14.011-14.012c0-0.894,0.723-1.617,1.617-1.617
				c0.892,0,1.616,0.725,1.616,1.617c0,5.941,4.835,10.776,10.777,10.776c5.943,0,10.779-4.835,10.779-10.776
				c0-0.894,0.724-1.617,1.615-1.617c0.895,0,1.617,0.725,1.617,1.617C107.086,96.035,100.8,102.32,93.073,102.32z"/>
			<path fill="#2A2A2A" d="M66.089,88.564c-0.893,0-1.616-0.726-1.616-1.619c0-4.894-3.981-8.875-8.875-8.875
				c-4.895,0-8.875,3.981-8.875,8.875c0,0.894-0.725,1.619-1.617,1.619c-0.894,0-1.617-0.726-1.617-1.619
				c0-6.676,5.432-12.108,12.109-12.108c6.677,0,12.108,5.432,12.108,12.108C67.707,87.84,66.982,88.564,66.089,88.564z"/>
			<path fill="#2A2A2A" d="M140.469,88.564c-0.893,0-1.616-0.726-1.616-1.619c0-4.894-3.981-8.875-8.875-8.875
				c-4.895,0-8.874,3.981-8.874,8.875c0,0.894-0.726,1.619-1.617,1.619c-0.895,0-1.617-0.726-1.617-1.619
				c0-6.676,5.433-12.108,12.108-12.108c6.678,0,12.108,5.432,12.108,12.108C142.087,87.84,141.363,88.564,140.469,88.564z"/>
		</g>
	</g>
	<g>
		<g>
			<path fill="#2A2A2A" d="M72.737,149.887v-36.21c0-1.051,0.853-1.905,1.905-1.905c1.052,0,1.905,0.854,1.905,1.905v34.304h13.722
				c1.052,0,1.905,0.853,1.905,1.906c0,1.051-0.853,1.905-1.905,1.905H74.642C73.59,151.792,72.737,150.938,72.737,149.887z"/>
			<path fill="#2A2A2A" d="M110.852,149.887v-36.21c0-1.051,0.852-1.905,1.905-1.905c1.053,0,1.905,0.854,1.905,1.905v34.304h13.722
				c1.053,0,1.906,0.853,1.906,1.906c0,1.051-0.854,1.905-1.906,1.905h-15.627C111.704,151.792,110.852,150.938,110.852,149.887z"/>
		</g>
		<g>
			<path fill="#2A2A2A" d="M35.372,86.131c-2.396,0.635-11.823,3.605-17.05,12.158c-3.711,6.071-4.435,13.512-2.158,22.114
				c0.144,0.544,0.522,1,1.032,1.238l7.653,3.592c0.955,0.447,2.089,0.036,2.536-0.915c0.446-0.953,0.036-2.087-0.917-2.534
				l-6.837-3.21c-1.737-7.192-1.085-13.344,1.942-18.297c5.054-8.268,15.063-10.537,15.16-10.556
				c1.038-0.238,1.681-1.24,1.456-2.269c-0.224-1.028-1.239-1.68-2.268-1.456C35.868,86.008,35.676,86.051,35.372,86.131z"/>
			<path fill="#2A2A2A" d="M17.518,118.072c-0.135,0.036-0.27,0.089-0.398,0.156c-0.932,0.488-1.291,1.642-0.803,2.572l5.176,9.868
				c0.49,0.931,1.642,1.289,2.573,0.804c0.933-0.489,1.292-1.642,0.803-2.574l-5.175-9.867
				C19.272,118.229,18.36,117.85,17.518,118.072z"/>
			<path fill="#2A2A2A" d="M17.518,118.073c-0.75,0.198-1.333,0.848-1.41,1.664l-1.087,11.526c-0.098,1.048,0.671,1.976,1.718,2.076
				c1.051,0.098,1.977-0.671,2.077-1.719l1.088-11.526c0.099-1.047-0.67-1.977-1.718-2.075
				C17.954,117.997,17.729,118.017,17.518,118.073z"/>
			<path fill="#2A2A2A" d="M17.516,118.073c-0.362,0.097-0.701,0.301-0.961,0.608l-6.162,7.251
				c-0.681,0.805-0.584,2.006,0.217,2.688c0.802,0.678,2.005,0.582,2.688-0.219l6.161-7.252c0.681-0.802,0.584-2.005-0.217-2.687
				C18.746,118.045,18.099,117.919,17.516,118.073z"/>
		</g>
		<g>
			<path fill="#2A2A2A" d="M170.289,80.8c5.039-5.023,7.507-12.078,7.332-20.975c-0.011-0.563-0.271-1.094-0.713-1.445l-6.582-5.304
				c-0.82-0.659-2.021-0.531-2.682,0.291c-0.661,0.819-0.529,2.019,0.289,2.68l5.883,4.736c-0.013,7.383-2.096,13.198-6.193,17.293
				c-6.832,6.827-17.15,6.692-17.258,6.689l0,0c-1.033-0.032-1.921,0.808-1.947,1.861c-0.023,1.051,0.808,1.925,1.858,1.948
				c0.056,0.002,0.252,0.007,0.566-0.001C153.321,88.523,163.185,87.871,170.289,80.8z"/>
			<path fill="#2A2A2A" d="M176.176,61.712c1.022-0.255,1.642-1.29,1.388-2.312l-2.689-10.81c-0.259-1.02-1.289-1.642-2.312-1.39
				c-1.021,0.255-1.643,1.29-1.389,2.312l2.692,10.811c0.218,0.879,1.017,1.463,1.886,1.445
				C175.889,61.766,176.034,61.746,176.176,61.712z"/>
			<path fill="#2A2A2A" d="M177.514,60.485l3.786-10.939c0.347-0.994-0.184-2.081-1.178-2.424c-0.994-0.345-2.078,0.18-2.421,1.176
				l-3.79,10.941c-0.342,0.994,0.185,2.079,1.18,2.423c0.219,0.075,0.443,0.11,0.66,0.106
				C176.526,61.752,177.248,61.262,177.514,60.485z"/>
			<path fill="#2A2A2A" d="M176.833,61.405l7.705-5.584c0.853-0.618,1.043-1.808,0.425-2.661c-0.616-0.854-1.809-1.043-2.662-0.426
				l-7.705,5.585c-0.852,0.619-1.042,1.809-0.422,2.662c0.378,0.526,0.979,0.799,1.579,0.788
				C176.13,61.76,176.508,61.641,176.833,61.405z"/>
		</g>
	</g>
	<path opacity="0.2" enable-background="new    " d="M130.48,148.955c0,3.063-3.412,6.045-7.619,6.045H63.6
		c-4.208,0-8.119-2.982-8.119-6.045v-0.41c0-3.063,3.911-5.545,8.119-5.545h59.262c4.207,0,7.619,2.482,7.619,5.545L130.48,148.955
		L130.48,148.955z"/>
</g>
</svg>
