<?xml version="1.0" encoding="utf-8"?>
<!-- Generator: Adobe Illustrator 21.1.0, SVG Export Plug-In . SVG Version: 6.00 Build 0)  -->
<svg version="1.1" id="Capa_1" xmlns="http://www.w3.org/2000/svg" xmlns:xlink="http://www.w3.org/1999/xlink" x="0px" y="0px"
	 viewBox="0 0 187.5 160" style="enable-background:new 0 0 187.5 160;" xml:space="preserve">
<style type="text/css">
	.st0{fill:#99993D;}
	.st1{fill:#DDE061;}
	.st2{opacity:0.3;enable-background:new    ;}
	.st3{fill:#2A2A2A;}
	.st4{fill:#FFFFFF;}
	.st5{opacity:0.2;enable-background:new    ;}
</style>
<g>
	<g>
		<g>
			<path class="st0" d="M151.9,96.2c0,12.2-9.8,22.1-21.9,22.1h-0.2h-73c-12.3,0-22.1-9.9-22.1-22.1l0,0v-73
				c0-12.2,9.8-22.1,21.9-22.1l0,0h73c12.2,0,22.1,9.6,22.1,21.9c0,0,0,0,0,0.2v73L151.9,96.2L151.9,96.2z"/>
			<path class="st1" d="M151.9,86.6c0,12.2-9.8,22.1-22.1,22.1l0,0h-73c-12.2,0-22.1-9.8-22.1-22.1l0,0V23.2
				c0-12.2,9.9-22.1,21.9-22.1l0,0h73c12.2,0,22.1,9.6,22.1,21.9c0,0,0,0,0,0.2v63.4H151.9z"/>
			<path class="st2" d="M97.7,35.9L97.7,35.9h17.6v8.3l-17.6,0l0,0l-9,0l0,0l-17.5,0l0-8.3l17.5,0l0,0L97.7,35.9L97.7,35.9z"/>
		</g>
		<g>
			<g>
				<circle class="st3" cx="129.8" cy="80.8" r="11.8"/>
				<circle class="st4" cx="134.1" cy="76.1" r="4.3"/>
			</g>
			<g>
				<circle class="st3" cx="55.7" cy="80.8" r="11.8"/>
				<circle class="st4" cx="60" cy="76.1" r="4.3"/>
			</g>
			<path class="st3" d="M93.3,100.6c-7.7,0-14-6.3-14-14c0-0.9,0.7-1.6,1.6-1.6s1.6,0.7,1.6,1.6c0,5.9,4.8,10.8,10.8,10.8
				c5.9,0,10.8-4.8,10.8-10.8c0-0.9,0.7-1.6,1.6-1.6c0.9,0,1.6,0.7,1.6,1.6C107.3,94.4,101,100.6,93.3,100.6z"/>
		</g>
	</g>
	<g>
		<g>
			<path class="st3" d="M111.4,151.8H95.8c-1.1,0-1.9-0.9-1.9-1.9c0-1.1,0.9-1.9,1.9-1.9h13.7v-34.3c0-1.1,0.9-1.9,1.9-1.9
				s1.9,0.9,1.9,1.9v36.2C113.3,150.9,112.4,151.8,111.4,151.8z"/>
			<path class="st3" d="M73.3,151.8H57.6c-1.1,0-1.9-0.9-1.9-1.9c0-1.1,0.9-1.9,1.9-1.9h13.7v-34.3c0-1.1,0.9-1.9,1.9-1.9
				c1.1,0,1.9,0.9,1.9,1.9v36.2C75.2,150.9,74.3,151.8,73.3,151.8z"/>
		</g>
		<g>
			<path class="st3" d="M37.8,83.5c1.1,0,1.9-0.9,1.8-2c0-1.1-0.9-1.9-2-1.8c-0.1,0-10.4,0.4-17.4-6.3c-4.2-4-6.4-9.8-6.6-17.2
				l5.8-4.9c0.8-0.7,0.9-1.9,0.2-2.7c-0.7-0.8-1.9-0.9-2.7-0.2l-6.5,5.4c-0.4,0.4-0.7,0.9-0.7,1.5c0,8.9,2.6,15.9,7.7,20.8
				c7.2,6.9,17.1,7.4,19.6,7.4C37.6,83.5,37.8,83.5,37.8,83.5z"/>
			<path class="st3" d="M13.7,55.8l2.5-10.9c0.2-1-0.4-2-1.4-2.3c-1-0.2-2,0.4-2.3,1.4L10,54.9c-0.2,1,0.4,2,1.4,2.3
				c0.1,0,0.3,0,0.4,0C12.7,57.2,13.5,56.6,13.7,55.8z"/>
			<path class="st3" d="M12.5,57.1c1-0.4,1.5-1.5,1.1-2.4l-4-10.9c-0.4-1-1.5-1.5-2.4-1.1c-1,0.4-1.5,1.5-1.1,2.4L10,56
				c0.3,0.8,1,1.2,1.8,1.2C12.1,57.2,12.3,57.2,12.5,57.1z"/>
			<path class="st3" d="M13.4,56.4c0.6-0.9,0.4-2.1-0.5-2.7l-7.8-5.4c-0.9-0.6-2.1-0.4-2.7,0.5c-0.6,0.9-0.4,2.1,0.5,2.7l7.8,5.4
				c0.3,0.2,0.7,0.3,1.1,0.3C12.4,57.2,13,57,13.4,56.4z"/>
		</g>
		<g>
			<path class="st3" d="M150.1,85.3c-0.3-0.1-0.5-0.2-0.5-0.2c-1-0.4-2.1,0.2-2.4,1.2c-0.4,1,0.2,2.1,1.1,2.4l0,0
				c0.1,0,9.8,3.6,13.7,12.4c2.4,5.3,2.2,11.5-0.4,18.4l-7.2,2.3c-1,0.3-1.6,1.4-1.2,2.4c0.3,1,1.4,1.6,2.4,1.2l8.1-2.6
				c0.5-0.2,1-0.6,1.2-1.1c3.4-8.2,3.6-15.7,0.7-22.2C161.3,90.4,152.3,86.3,150.1,85.3z"/>
			<path class="st3" d="M163.7,119.3c-0.8-0.3-1.8-0.1-2.3,0.7l-6.4,9.1c-0.6,0.9-0.4,2.1,0.5,2.7c0.9,0.6,2,0.4,2.7-0.5l6.4-9.1
				c0.6-0.9,0.4-2.1-0.5-2.7C163.9,119.4,163.8,119.4,163.7,119.3z"/>
			<path class="st3" d="M163.7,119.3c-0.2-0.1-0.4-0.1-0.7-0.1c-1.1,0-1.9,0.8-2,1.8l-0.4,11.6c0,1.1,0.8,1.9,1.8,2
				c1.1,0,1.9-0.8,2-1.8l0.4-11.6C164.9,120.3,164.4,119.6,163.7,119.3z"/>
			<path class="st3" d="M163.7,119.3c-0.6-0.2-1.2-0.2-1.8,0.2c-0.9,0.6-1.1,1.8-0.6,2.6l5.2,8c0.6,0.9,1.8,1.1,2.6,0.6
				c0.9-0.6,1.1-1.8,0.6-2.6l-5.2-8C164.3,119.7,164,119.5,163.7,119.3z"/>
		</g>
	</g>
	<path class="st5" d="M130.5,149c0,3.1-3.4,6-7.6,6H63.6c-4.2,0-8.1-3-8.1-6v-0.4c0-3.1,3.9-5.5,8.1-5.5h59.3c4.2,0,7.6,2.5,7.6,5.5
		L130.5,149L130.5,149z"/>
</g>
</svg>
