<?xml version="1.0" encoding="utf-8"?>
<!-- Generator: Adobe Illustrator 16.0.0, SVG Export Plug-In . SVG Version: 6.00 Build 0)  -->
<!DOCTYPE svg PUBLIC "-//W3C//DTD SVG 1.1//EN" "http://www.w3.org/Graphics/SVG/1.1/DTD/svg11.dtd">
<svg version="1.1" id="Capa_1" xmlns="http://www.w3.org/2000/svg" xmlns:xlink="http://www.w3.org/1999/xlink" x="0px" y="0px"
	 width="187.48px" height="160px" viewBox="0 0 187.48 160" enable-background="new 0 0 187.48 160" xml:space="preserve">
<g>
	<g>
		<path fill="#75A018" d="M151.26,95.662c0,12.188-9.798,21.986-21.741,21.986h-0.233h-72.63c-12.181,0-21.98-9.799-21.98-21.986
			l0,0V23.038c0-12.179,9.792-21.976,21.74-21.976l0,0h72.633c12.181,0,21.978,9.558,21.978,21.739c0,0,0,0,0,0.237v72.625
			L151.26,95.662L151.26,95.662z"/>
		<path fill="#A4ED24" d="M151.26,86.113c0,12.174-9.798,21.979-21.979,21.979l0,0H56.648c-12.181,0-21.98-9.806-21.98-21.979l0,0
			V23.038c0-12.179,9.797-21.978,21.741-21.978l0,0h72.633c12.183,0,21.978,9.551,21.978,21.741c0,0,0,0,0,0.237v63.075H151.26z"/>
		<g opacity="0.3">
			<path d="M110.914,26.372L98.042,39.529l13.791,13.464l-5.188,5.218L92.892,44.785L79.385,58.579l-5.3-5.105L87.63,39.636
				L74.403,26.684l5.141-5.269l13.232,12.951l12.831-13.145L110.914,26.372z"/>
		</g>
		<g>
			<path fill="#2A2A2A" d="M93.246,99.279c-7.726,0-14.011-6.285-14.011-14.012c0-0.895,0.723-1.617,1.617-1.617
				c0.892,0,1.615,0.725,1.615,1.617c0,5.94,4.835,10.775,10.777,10.775c5.943,0,10.779-4.835,10.779-10.775
				c0-0.895,0.724-1.617,1.615-1.617c0.895,0,1.616,0.725,1.616,1.617C107.259,92.994,100.972,99.279,93.246,99.279z"/>
			<path fill="#2A2A2A" d="M66.26,85.523c-0.893,0-1.615-0.727-1.615-1.619c0-4.895-3.981-8.875-8.875-8.875
				c-4.896,0-8.875,3.981-8.875,8.875c0,0.894-0.726,1.619-1.617,1.619c-0.895,0-1.617-0.727-1.617-1.619
				c0-6.676,5.432-12.108,12.109-12.108c6.677,0,12.107,5.433,12.107,12.108C67.88,84.799,67.155,85.523,66.26,85.523z"/>
			<path fill="#2A2A2A" d="M140.643,85.523c-0.895,0-1.617-0.727-1.617-1.619c0-4.895-3.981-8.875-8.875-8.875
				c-4.896,0-8.874,3.981-8.874,8.875c0,0.894-0.727,1.619-1.617,1.619c-0.895,0-1.617-0.727-1.617-1.619
				c0-6.676,5.435-12.108,12.108-12.108c6.678,0,12.107,5.433,12.107,12.108C142.26,84.799,141.536,85.523,140.643,85.523z"/>
		</g>
	</g>
	<g>
		<g>
			<path fill="#2A2A2A" d="M72.737,149.887v-36.21c0-1.051,0.853-1.905,1.905-1.905c1.052,0,1.905,0.854,1.905,1.905v34.304h13.722
				c1.052,0,1.905,0.853,1.905,1.906c0,1.051-0.853,1.905-1.905,1.905H74.642C73.59,151.792,72.737,150.938,72.737,149.887z"/>
			<path fill="#2A2A2A" d="M110.852,149.887v-36.21c0-1.051,0.852-1.905,1.905-1.905c1.053,0,1.905,0.854,1.905,1.905v34.304h13.722
				c1.053,0,1.906,0.853,1.906,1.906c0,1.051-0.854,1.905-1.906,1.905h-15.627C111.704,151.792,110.852,150.938,110.852,149.887z"/>
		</g>
		<g>
			<path fill="#2A2A2A" d="M37.337,85.166c1.053-0.047,1.866-0.938,1.819-1.986c-0.046-1.053-0.924-1.856-1.988-1.82
				c-0.099,0.007-10.354,0.375-17.356-6.323c-4.194-4.014-6.399-9.793-6.563-17.189l5.788-4.854
				c0.807-0.677,0.913-1.877,0.237-2.685c-0.676-0.806-1.877-0.912-2.687-0.235l-6.479,5.432c-0.433,0.361-0.682,0.898-0.682,1.461
				c0,8.898,2.605,15.906,7.746,20.824c7.243,6.931,17.116,7.39,19.596,7.39C37.085,85.178,37.282,85.17,37.337,85.166z"/>
			<path fill="#2A2A2A" d="M13.192,57.388l2.477-10.863c0.234-1.026-0.406-2.049-1.435-2.282c-1.024-0.232-2.047,0.41-2.281,1.436
				L9.475,56.541c-0.233,1.025,0.407,2.048,1.435,2.281c0.142,0.032,0.285,0.049,0.425,0.049
				C12.205,58.871,12.99,58.271,13.192,57.388z"/>
			<path fill="#2A2A2A" d="M11.993,58.752c0.987-0.363,1.493-1.459,1.129-2.446L9.12,45.443c-0.364-0.988-1.457-1.494-2.447-1.131
				c-0.985,0.364-1.491,1.459-1.129,2.447l4.001,10.863c0.284,0.77,1.015,1.248,1.789,1.248
				C11.552,58.871,11.775,58.832,11.993,58.752z"/>
			<path fill="#2A2A2A" d="M12.9,58.052c0.6-0.864,0.386-2.052-0.479-2.652L4.61,49.967c-0.864-0.6-2.052-0.385-2.653,0.477
				c-0.601,0.864-0.387,2.051,0.479,2.653l7.813,5.433c0.331,0.229,0.71,0.342,1.085,0.342C11.935,58.871,12.528,58.584,12.9,58.052
				z"/>
		</g>
		<g>
			<path fill="#2A2A2A" d="M169.184,76.613c4.813-5.24,6.965-12.397,6.396-21.279c-0.037-0.563-0.32-1.082-0.773-1.413l-6.813-5.005
				c-0.85-0.623-2.042-0.442-2.665,0.406c-0.624,0.85-0.438,2.041,0.408,2.666l6.088,4.471c0.313,7.375-1.508,13.277-5.421,17.55
				c-6.521,7.124-16.837,7.448-16.942,7.452l0,0c-1.035,0.014-1.884,0.891-1.861,1.943c0.021,1.051,0.892,1.887,1.941,1.865
				c0.057-0.002,0.251-0.006,0.565-0.025C152.581,85.084,162.404,83.992,169.184,76.613z"/>
			<path fill="#2A2A2A" d="M174.222,57.283c1.009-0.301,1.582-1.361,1.281-2.371l-3.169-10.68c-0.302-1.01-1.358-1.584-2.369-1.287
				c-1.01,0.301-1.584,1.361-1.283,2.37l3.17,10.683c0.257,0.867,1.08,1.416,1.947,1.359
				C173.938,57.349,174.08,57.324,174.222,57.283z"/>
			<path fill="#2A2A2A" d="M175.504,55.998l3.297-11.098c0.303-1.009-0.274-2.07-1.282-2.369c-1.012-0.3-2.069,0.273-2.368,1.283
				l-3.298,11.098c-0.301,1.01,0.273,2.069,1.284,2.369c0.223,0.065,0.447,0.092,0.664,0.076
				C174.574,57.308,175.271,56.785,175.504,55.998z"/>
			<path fill="#2A2A2A" d="M174.864,56.947l7.448-5.923c0.826-0.655,0.962-1.853,0.307-2.677c-0.653-0.826-1.853-0.961-2.678-0.307
				l-7.449,5.923c-0.824,0.655-0.96,1.853-0.305,2.677c0.4,0.509,1.013,0.755,1.613,0.716
				C174.177,57.332,174.549,57.197,174.864,56.947z"/>
		</g>
	</g>
	<path opacity="0.2" enable-background="new    " d="M130.48,148.955c0,3.063-3.412,6.045-7.619,6.045H63.6
		c-4.208,0-8.119-2.982-8.119-6.045v-0.41c0-3.063,3.911-5.545,8.119-5.545h59.262c4.207,0,7.619,2.482,7.619,5.545L130.48,148.955
		L130.48,148.955z"/>
</g>
</svg>
