<?xml version="1.0" encoding="utf-8"?>
<!-- Generator: Adobe Illustrator 16.0.0, SVG Export Plug-In . SVG Version: 6.00 Build 0)  -->
<!DOCTYPE svg PUBLIC "-//W3C//DTD SVG 1.1//EN" "http://www.w3.org/Graphics/SVG/1.1/DTD/svg11.dtd">
<svg version="1.1" id="Capa_1" xmlns="http://www.w3.org/2000/svg" xmlns:xlink="http://www.w3.org/1999/xlink" x="0px" y="0px"
	 width="187.48px" height="160px" viewBox="0 0 187.48 160" enable-background="new 0 0 187.48 160" xml:space="preserve">
<g>
	<g>
		<path fill="#75A018" d="M151.26,95.662c0,12.188-9.798,21.986-21.742,21.986h-0.233h-72.63c-12.181,0-21.98-9.799-21.98-21.986
			l0,0V23.038c0-12.179,9.792-21.976,21.74-21.976l0,0h72.633c12.18,0,21.977,9.558,21.977,21.739c0,0,0,0,0,0.237v72.625
			L151.26,95.662L151.26,95.662z"/>
		<path fill="#A4ED24" d="M151.26,86.113c0,12.174-9.798,21.979-21.979,21.979l0,0H56.648c-12.18,0-21.98-9.806-21.98-21.979l0,0
			V23.038c0-12.179,9.797-21.978,21.741-21.978l0,0h72.633c12.182,0,21.977,9.551,21.977,21.741c0,0,0,0,0,0.237v63.075H151.26z"/>
		<g opacity="0.3">
			<path d="M110.914,26.372L98.042,39.529l13.791,13.464l-5.188,5.218L92.892,44.785L79.385,58.579l-5.299-5.105l13.544-13.838
				L74.403,26.684l5.141-5.269l13.232,12.951l12.831-13.145L110.914,26.372z"/>
		</g>
		<g>
			<g>
				<circle fill="#2A2A2A" cx="129.902" cy="80.847" r="11.889"/>
				<circle fill="#FFFFFF" cx="134.25" cy="76.144" r="4.348"/>
			</g>
			<g>
				<circle fill="#2A2A2A" cx="55.378" cy="80.847" r="11.889"/>
				<circle fill="#FFFFFF" cx="59.725" cy="76.144" r="4.347"/>
			</g>
			<path fill="#2A2A2A" d="M105.466,88.727c0.896,0,1.62,0.523,1.62,1.418c0,7.742-6.298,13.94-14.041,13.94
				c-7.742,0-14.042-6.147-14.042-13.89c0-0.896,0.728-1.471,1.621-1.471h24.842V88.727z"/>
		</g>
	</g>
	<g>
		<g>
			<path fill="#2A2A2A" d="M72.737,149.887v-36.21c0-1.051,0.853-1.905,1.905-1.905c1.052,0,1.905,0.854,1.905,1.905v34.304h13.722
				c1.052,0,1.905,0.853,1.905,1.906c0,1.051-0.853,1.905-1.905,1.905H74.642C73.59,151.792,72.737,150.938,72.737,149.887z"/>
			<path fill="#2A2A2A" d="M110.852,149.887v-36.21c0-1.051,0.852-1.905,1.905-1.905c1.053,0,1.905,0.854,1.905,1.905v34.304h13.722
				c1.053,0,1.906,0.853,1.906,1.906c0,1.051-0.854,1.905-1.906,1.905h-15.627C111.704,151.792,110.852,150.938,110.852,149.887z"/>
		</g>
		<g>
			<path fill="#2A2A2A" d="M36.77,82.545c-2.479,0-12.352,0.458-19.595,7.389c-5.141,4.918-7.746,11.926-7.746,20.824
				c0,0.563,0.248,1.1,0.681,1.461l6.479,5.432c0.809,0.677,2.01,0.57,2.686-0.235c0.676-0.808,0.569-2.008-0.237-2.685
				l-5.788-4.854c0.162-7.396,2.367-13.176,6.562-17.189c7.002-6.698,17.259-6.33,17.357-6.323c1.064,0.036,1.942-0.769,1.988-1.82
				c0.047-1.051-0.768-1.94-1.819-1.987C37.282,82.553,37.085,82.545,36.77,82.545z"/>
			<path fill="#2A2A2A" d="M11.335,108.852c-0.14,0-0.283,0.017-0.425,0.049c-1.026,0.233-1.668,1.256-1.435,2.281l2.478,10.863
				c0.234,1.025,1.257,1.668,2.281,1.436c1.026-0.233,1.669-1.256,1.435-2.282l-2.477-10.863
				C12.99,109.451,12.205,108.852,11.335,108.852z"/>
			<path fill="#2A2A2A" d="M11.334,108.852c-0.775,0-1.505,0.479-1.789,1.248l-4.001,10.863c-0.363,0.988,0.143,2.083,1.129,2.447
				c0.99,0.363,2.083-0.143,2.447-1.13l4.002-10.863c0.364-0.987-0.142-2.083-1.129-2.446
				C11.775,108.891,11.552,108.852,11.334,108.852z"/>
			<path fill="#2A2A2A" d="M11.332,108.852c-0.375,0-0.754,0.111-1.085,0.342l-7.813,5.433c-0.864,0.603-1.078,1.789-0.478,2.653
				c0.602,0.861,1.789,1.076,2.653,0.477l7.813-5.433c0.863-0.601,1.077-1.788,0.478-2.652
				C12.528,109.139,11.935,108.852,11.332,108.852z"/>
		</g>
		<g>
			<path fill="#2A2A2A" d="M148.105,81.479c-0.314-0.02-0.511-0.024-0.565-0.025c-1.051-0.021-1.921,0.814-1.942,1.865
				c-0.021,1.053,0.827,1.931,1.862,1.943l0,0c0.105,0.004,10.421,0.328,16.942,7.452c3.913,4.272,5.733,10.175,5.421,17.55
				l-6.088,4.471c-0.848,0.625-1.032,1.816-0.408,2.666c0.623,0.849,1.815,1.029,2.665,0.406l6.813-5.005
				c0.454-0.332,0.737-0.851,0.774-1.413c0.569-8.882-1.583-16.039-6.396-21.279C160.404,82.73,150.581,81.639,148.105,81.479z"/>
			<path fill="#2A2A2A" d="M171.801,109.365c-0.868-0.057-1.691,0.492-1.948,1.359l-3.17,10.683c-0.3,1.009,0.274,2.069,1.284,2.37
				c1.01,0.297,2.067-0.277,2.369-1.287l3.169-10.68c0.3-1.01-0.273-2.07-1.282-2.371
				C172.08,109.398,171.938,109.374,171.801,109.365z"/>
			<path fill="#2A2A2A" d="M171.801,109.365c-0.217-0.016-0.442,0.011-0.665,0.076c-1.01,0.3-1.584,1.359-1.284,2.369l3.298,11.098
				c0.299,1.01,1.357,1.583,2.368,1.283c1.008-0.299,1.585-1.36,1.283-2.369l-3.297-11.098
				C173.271,109.938,172.574,109.415,171.801,109.365z"/>
			<path fill="#2A2A2A" d="M171.802,109.366c-0.602-0.039-1.213,0.207-1.614,0.716c-0.655,0.824-0.52,2.021,0.305,2.677l7.449,5.923
				c0.825,0.654,2.024,0.52,2.678-0.307c0.655-0.824,0.52-2.021-0.307-2.677l-7.448-5.923
				C172.549,109.525,172.177,109.391,171.802,109.366z"/>
		</g>
	</g>
	<path opacity="0.2" enable-background="new    " d="M130.48,148.955c0,3.063-3.412,6.045-7.619,6.045H63.6
		c-4.208,0-8.119-2.982-8.119-6.045v-0.41c0-3.063,3.911-5.545,8.119-5.545h59.262c4.207,0,7.619,2.482,7.619,5.545L130.48,148.955
		L130.48,148.955z"/>
</g>
</svg>
