<?xml version="1.0" encoding="utf-8"?>
<!-- Generator: Adobe Illustrator 16.0.0, SVG Export Plug-In . SVG Version: 6.00 Build 0)  -->
<!DOCTYPE svg PUBLIC "-//W3C//DTD SVG 1.1//EN" "http://www.w3.org/Graphics/SVG/1.1/DTD/svg11.dtd">
<svg version="1.1" id="Capa_1" xmlns="http://www.w3.org/2000/svg" xmlns:xlink="http://www.w3.org/1999/xlink" x="0px" y="0px"
	 width="187.48px" height="160px" viewBox="0 0 187.48 160" enable-background="new 0 0 187.48 160" xml:space="preserve">
<g>
	<g>
		<g>
			<path fill="#995120" d="M151.867,96.158c0,12.249-9.847,22.104-21.853,22.104h-0.236h-73.01
				c-12.251,0-22.101-9.854-22.101-22.104l0,0V23.152c0-12.247,9.849-22.092,21.857-22.092l0,0h73.008
				c12.249,0,22.096,9.605,22.096,21.853c0,0,0,0,0,0.24v73.006L151.867,96.158L151.867,96.158z"/>
			<path fill="#D68345" d="M151.867,86.557c0,12.245-9.847,22.094-22.094,22.094l0,0H56.764c-12.248,0-22.103-9.85-22.103-22.094
				l0,0V23.152c0-12.25,9.852-22.097,21.859-22.097l0,0h73.008c12.249,0,22.1,9.605,22.1,21.857c0,0,0,0,0,0.24v63.405H151.867z"/>
			<g opacity="0.3">
				<path d="M85.417,55.799h-6.539V37.896l0.063-2.942l0.106-3.216c-1.087,1.086-1.841,1.799-2.265,2.137l-3.555,2.857l-3.153-3.936
					l9.968-7.936h5.375V55.799z"/>
				<path d="M115.447,40.329c0,5.404-0.887,9.403-2.656,11.999c-1.771,2.596-4.498,3.894-8.18,3.894c-3.57,0-6.262-1.34-8.074-4.021
					c-1.813-2.68-2.719-6.638-2.719-11.872c0-5.46,0.881-9.484,2.645-12.073c1.764-2.589,4.48-3.883,8.148-3.883
					c3.568,0,6.268,1.354,8.094,4.063C114.533,31.145,115.447,35.109,115.447,40.329z M100.314,40.329
					c0,3.795,0.328,6.515,0.984,8.158s1.76,2.465,3.313,2.465c1.523,0,2.625-0.833,3.301-2.497c0.678-1.665,1.016-4.374,1.016-8.126
					c0-3.795-0.342-6.521-1.025-8.179c-0.686-1.658-1.781-2.487-3.291-2.487c-1.537,0-2.639,0.829-3.301,2.487
					C100.646,33.808,100.314,36.534,100.314,40.329z"/>
			</g>
		</g>
		<g>
			<g>
				<circle fill="#2A2A2A" cx="129.778" cy="80.777" r="11.819"/>
				<circle fill="#FFFFFF" cx="134.1" cy="76.102" r="4.322"/>
			</g>
			<g>
				<circle fill="#2A2A2A" cx="55.694" cy="80.777" r="11.819"/>
				<circle fill="#FFFFFF" cx="60.015" cy="76.102" r="4.322"/>
			</g>
			<circle fill="#2A2A2A" cx="93.743" cy="94.851" r="5.839"/>
		</g>
	</g>
	<g>
		<g>
			<path fill="#2A2A2A" d="M72.737,149.887v-36.21c0-1.051,0.853-1.905,1.905-1.905c1.052,0,1.905,0.854,1.905,1.905v34.304h13.722
				c1.052,0,1.905,0.853,1.905,1.906c0,1.051-0.853,1.905-1.905,1.905H74.642C73.59,151.792,72.737,150.938,72.737,149.887z"/>
			<path fill="#2A2A2A" d="M110.852,149.887v-36.21c0-1.051,0.852-1.905,1.905-1.905c1.053,0,1.905,0.854,1.905,1.905v34.304h13.722
				c1.053,0,1.906,0.853,1.906,1.906c0,1.051-0.854,1.905-1.906,1.905h-15.627C111.704,151.792,110.852,150.938,110.852,149.887z"/>
		</g>
		<g>
			<path fill="#2A2A2A" d="M36.848,84.57c-2.072,1.361-10.072,7.165-12.321,16.934c-1.597,6.934,0.073,14.221,4.958,21.658
				c0.309,0.471,0.812,0.783,1.371,0.848l8.397,0.982c1.047,0.122,1.993-0.627,2.116-1.671c0.121-1.046-0.627-1.991-1.672-2.113
				l-7.502-0.879c-3.926-6.271-5.255-12.313-3.953-17.97c2.174-9.442,10.949-14.766,11.036-14.814
				c0.909-0.555,1.201-1.709,0.662-2.613c-0.538-0.904-1.707-1.2-2.612-0.662C37.28,84.297,37.111,84.398,36.848,84.57z"/>
			<path fill="#2A2A2A" d="M30.032,120.522c-0.116,0.077-0.228,0.17-0.328,0.274c-0.729,0.759-0.705,1.966,0.054,2.694l8.035,7.72
				c0.759,0.728,1.966,0.703,2.695-0.053c0.73-0.759,0.706-1.966-0.054-2.695l-8.034-7.72
				C31.745,120.115,30.76,120.045,30.032,120.522z"/>
			<path fill="#2A2A2A" d="M30.031,120.523c-0.648,0.426-0.995,1.227-0.81,2.025l2.62,11.276c0.239,1.025,1.263,1.662,2.287,1.426
				c1.027-0.24,1.663-1.263,1.425-2.288l-2.62-11.277c-0.237-1.024-1.262-1.663-2.287-1.425
				C30.422,120.313,30.214,120.403,30.031,120.523z"/>
			<path fill="#2A2A2A" d="M30.03,120.524c-0.313,0.206-0.569,0.507-0.719,0.882l-3.547,8.829c-0.392,0.979,0.081,2.088,1.058,2.48
				c0.976,0.39,2.086-0.083,2.479-1.059l3.547-8.83c0.392-0.976-0.081-2.086-1.057-2.479
				C31.187,120.107,30.534,120.193,30.03,120.524z"/>
		</g>
		<g>
			<path fill="#2A2A2A" d="M151.073,83.977c-0.279-0.147-0.456-0.23-0.506-0.253c-0.951-0.448-2.086-0.039-2.534,0.912
				c-0.447,0.953-0.029,2.101,0.911,2.534l0,0c0.096,0.046,9.387,4.538,12.447,13.698c1.835,5.495,1.099,11.628-2.188,18.237
				l-7.38,1.607c-1.028,0.226-1.682,1.24-1.457,2.269c0.225,1.029,1.241,1.681,2.27,1.458l8.26-1.802
				c0.551-0.117,1.021-0.477,1.282-0.975c4.134-7.882,5.079-15.296,2.815-22.04C161.799,90.122,153.267,85.129,151.073,83.977z"/>
			<path fill="#2A2A2A" d="M161.375,119.089c-0.771-0.404-1.746-0.239-2.333,0.45l-7.24,8.468c-0.685,0.801-0.591,2.003,0.209,2.688
				c0.801,0.683,2.002,0.587,2.688-0.211l7.239-8.467c0.684-0.802,0.592-2.004-0.208-2.688
				C161.617,119.235,161.497,119.152,161.375,119.089z"/>
			<path fill="#2A2A2A" d="M161.375,119.089c-0.192-0.101-0.409-0.17-0.638-0.2c-1.045-0.137-2,0.599-2.138,1.641l-1.501,11.48
				c-0.138,1.045,0.597,1.999,1.641,2.135c1.042,0.137,2.002-0.598,2.137-1.642l1.502-11.479
				C162.487,120.211,162.06,119.449,161.375,119.089z"/>
			<path fill="#2A2A2A" d="M161.376,119.09c-0.532-0.279-1.192-0.304-1.766-0.002c-0.936,0.486-1.297,1.636-0.812,2.569l4.396,8.439
				c0.488,0.935,1.64,1.298,2.571,0.81c0.936-0.486,1.297-1.636,0.81-2.57l-4.396-8.438
				C161.994,119.54,161.709,119.265,161.376,119.09z"/>
		</g>
	</g>
	<path opacity="0.2" enable-background="new    " d="M130.48,148.955c0,3.063-3.412,6.045-7.619,6.045H63.6
		c-4.208,0-8.119-2.982-8.119-6.045v-0.41c0-3.063,3.911-5.545,8.119-5.545h59.262c4.207,0,7.619,2.482,7.619,5.545L130.48,148.955
		L130.48,148.955z"/>
</g>
</svg>
