<?xml version="1.0" encoding="utf-8"?>
<!-- Generator: Adobe Illustrator 16.0.0, SVG Export Plug-In . SVG Version: 6.00 Build 0)  -->
<!DOCTYPE svg PUBLIC "-//W3C//DTD SVG 1.1//EN" "http://www.w3.org/Graphics/SVG/1.1/DTD/svg11.dtd">
<svg version="1.1" id="Capa_1" xmlns="http://www.w3.org/2000/svg" xmlns:xlink="http://www.w3.org/1999/xlink" x="0px" y="0px"
	 width="187.48px" height="160px" viewBox="0 0 187.48 160" enable-background="new 0 0 187.48 160" xml:space="preserve">
<g>
	<g>
		<g>
			<path fill="#A53D3D" d="M150.986,95.439c0,12.158-9.771,21.937-21.688,21.937h-0.233H56.607
				c-12.159,0-21.934-9.776-21.934-21.937l0,0V22.988c0-12.15,9.773-21.924,21.691-21.924l0,0h72.455
				c12.156,0,21.928,9.535,21.928,21.688c0,0,0,0,0,0.237v72.45H150.986L150.986,95.439z"/>
			<path fill="#F76969" d="M150.986,85.914c0,12.146-9.771,21.928-21.926,21.928l0,0H56.603c-12.155,0-21.936-9.781-21.936-21.928
				l0,0V22.988c0-12.15,9.776-21.926,21.694-21.926l0,0h72.455c12.156,0,21.932,9.529,21.932,21.689c0,0,0,0,0,0.237v62.926H150.986
				z"/>
			<g opacity="0.3">
				<path d="M96.724,37.711L96.724,37.711h15.314v7.2l-15.314,0.003l0,0h-7.873l0,0H73.62l0.001-7.209l15.239,0.003l0,0
					L96.724,37.711L96.724,37.711z"/>
				<circle cx="92.831" cy="54.552" r="5.448"/>
				<circle cx="92.831" cy="28.072" r="5.448"/>
			</g>
		</g>
		<g>
			<path fill="#2A2A2A" d="M93.073,102.32c-7.726,0-14.011-6.285-14.011-14.012c0-0.894,0.723-1.617,1.617-1.617
				c0.892,0,1.616,0.725,1.616,1.617c0,5.941,4.835,10.776,10.777,10.776c5.943,0,10.779-4.835,10.779-10.776
				c0-0.894,0.724-1.617,1.615-1.617c0.895,0,1.617,0.725,1.617,1.617C107.086,96.035,100.8,102.32,93.073,102.32z"/>
			<path fill="#2A2A2A" d="M66.089,88.564c-0.893,0-1.616-0.726-1.616-1.619c0-4.894-3.981-8.875-8.875-8.875
				c-4.895,0-8.875,3.981-8.875,8.875c0,0.894-0.725,1.619-1.617,1.619c-0.894,0-1.617-0.726-1.617-1.619
				c0-6.676,5.432-12.108,12.109-12.108c6.677,0,12.108,5.432,12.108,12.108C67.707,87.84,66.982,88.564,66.089,88.564z"/>
			<path fill="#2A2A2A" d="M140.469,88.564c-0.893,0-1.616-0.726-1.616-1.619c0-4.894-3.981-8.875-8.875-8.875
				c-4.895,0-8.874,3.981-8.874,8.875c0,0.894-0.726,1.619-1.617,1.619c-0.895,0-1.617-0.726-1.617-1.619
				c0-6.676,5.433-12.108,12.108-12.108c6.678,0,12.108,5.432,12.108,12.108C142.087,87.84,141.363,88.564,140.469,88.564z"/>
		</g>
	</g>
	<g>
		<g>
			<path fill="#2A2A2A" d="M72.737,149.887v-36.21c0-1.051,0.853-1.905,1.905-1.905c1.052,0,1.905,0.854,1.905,1.905v34.304h13.722
				c1.052,0,1.905,0.853,1.905,1.906c0,1.051-0.853,1.905-1.905,1.905H74.642C73.59,151.792,72.737,150.938,72.737,149.887z"/>
			<path fill="#2A2A2A" d="M110.852,149.887v-36.21c0-1.051,0.852-1.905,1.905-1.905c1.053,0,1.905,0.854,1.905,1.905v34.304h13.722
				c1.053,0,1.906,0.853,1.906,1.906c0,1.051-0.854,1.905-1.906,1.905h-15.627C111.704,151.792,110.852,150.938,110.852,149.887z"/>
		</g>
		<g>
			<path fill="#2A2A2A" d="M36.77,82.545c-2.479,0-12.352,0.458-19.595,7.389c-5.141,4.918-7.746,11.926-7.746,20.824
				c0,0.563,0.248,1.1,0.681,1.461l6.479,5.432c0.809,0.677,2.01,0.57,2.686-0.235c0.676-0.808,0.569-2.008-0.237-2.685
				l-5.788-4.854c0.162-7.396,2.367-13.176,6.562-17.189c7.002-6.698,17.259-6.33,17.357-6.323c1.064,0.036,1.942-0.769,1.988-1.82
				c0.047-1.051-0.768-1.94-1.819-1.987C37.282,82.553,37.085,82.545,36.77,82.545z"/>
			<path fill="#2A2A2A" d="M11.335,108.852c-0.14,0-0.283,0.017-0.425,0.049c-1.026,0.233-1.668,1.256-1.435,2.281l2.478,10.863
				c0.234,1.025,1.257,1.668,2.281,1.436c1.026-0.233,1.669-1.256,1.435-2.282l-2.477-10.863
				C12.99,109.451,12.205,108.852,11.335,108.852z"/>
			<path fill="#2A2A2A" d="M11.334,108.852c-0.775,0-1.505,0.479-1.789,1.248l-4.001,10.863c-0.363,0.988,0.143,2.083,1.129,2.447
				c0.99,0.363,2.083-0.143,2.447-1.13l4.002-10.863c0.364-0.987-0.142-2.083-1.129-2.446
				C11.775,108.891,11.552,108.852,11.334,108.852z"/>
			<path fill="#2A2A2A" d="M11.332,108.852c-0.375,0-0.754,0.111-1.085,0.342l-7.813,5.433c-0.864,0.603-1.078,1.789-0.478,2.653
				c0.602,0.861,1.789,1.076,2.653,0.477l7.813-5.433c0.863-0.601,1.077-1.788,0.478-2.652
				C12.528,109.139,11.935,108.852,11.332,108.852z"/>
		</g>
		<g>
			<path fill="#2A2A2A" d="M148.105,86.243c-0.314,0.021-0.511,0.024-0.565,0.026c-1.051,0.021-1.921-0.814-1.942-1.865
				c-0.021-1.053,0.827-1.932,1.862-1.945l0,0c0.105-0.003,10.421-0.327,16.942-7.451c3.913-4.272,5.733-10.174,5.421-17.55
				l-6.088-4.47c-0.848-0.625-1.032-1.817-0.408-2.666c0.623-0.849,1.815-1.03,2.665-0.407l6.813,5.005
				c0.454,0.332,0.737,0.851,0.774,1.413c0.569,8.882-1.583,16.04-6.396,21.278C160.404,84.991,150.581,86.084,148.105,86.243z"/>
			<path fill="#2A2A2A" d="M171.801,58.357c-0.868,0.056-1.691-0.492-1.948-1.36l-3.17-10.682c-0.3-1.009,0.274-2.07,1.284-2.37
				c1.01-0.297,2.067,0.277,2.369,1.287l3.169,10.679c0.3,1.01-0.273,2.071-1.282,2.372
				C172.08,58.323,171.938,58.349,171.801,58.357z"/>
			<path fill="#2A2A2A" d="M171.801,58.357c-0.217,0.015-0.442-0.011-0.665-0.076c-1.01-0.3-1.584-1.36-1.284-2.369l3.298-11.098
				c0.299-1.01,1.357-1.583,2.368-1.283c1.008,0.299,1.585,1.36,1.283,2.369l-3.297,11.097
				C173.271,57.785,172.574,58.308,171.801,58.357z"/>
			<path fill="#2A2A2A" d="M171.802,58.356c-0.602,0.039-1.213-0.207-1.614-0.716c-0.655-0.824-0.52-2.021,0.305-2.677l7.449-5.923
				c0.825-0.654,2.024-0.519,2.678,0.307c0.655,0.824,0.52,2.021-0.307,2.677l-7.448,5.923
				C172.549,58.197,172.177,58.333,171.802,58.356z"/>
		</g>
	</g>
	<path opacity="0.2" enable-background="new    " d="M130.48,148.955c0,3.063-3.412,6.045-7.619,6.045H63.6
		c-4.208,0-8.119-2.982-8.119-6.045v-0.41c0-3.063,3.911-5.545,8.119-5.545h59.262c4.207,0,7.619,2.482,7.619,5.545L130.48,148.955
		L130.48,148.955z"/>
</g>
</svg>
