<?xml version="1.0" encoding="utf-8"?>
<!-- Generator: Adobe Illustrator 16.0.0, SVG Export Plug-In . SVG Version: 6.00 Build 0)  -->
<!DOCTYPE svg PUBLIC "-//W3C//DTD SVG 1.1//EN" "http://www.w3.org/Graphics/SVG/1.1/DTD/svg11.dtd">
<svg version="1.1" id="Capa_1" xmlns="http://www.w3.org/2000/svg" xmlns:xlink="http://www.w3.org/1999/xlink" x="0px" y="0px"
	 width="187.48px" height="160px" viewBox="0 0 187.48 160" enable-background="new 0 0 187.48 160" xml:space="preserve">
<g>
	<g>
		<g>
			<path fill="#99993D" d="M151.867,96.158c0,12.249-9.847,22.104-21.853,22.104h-0.236h-73.01c-12.251,0-22.1-9.854-22.1-22.104
				l0,0V23.152c0-12.247,9.848-22.092,21.857-22.092l0,0h73.008c12.249,0,22.096,9.605,22.096,21.853c0,0,0,0,0,0.24v73.006H151.867
				L151.867,96.158z"/>
			<path fill="#DDE061" d="M151.867,86.557c0,12.245-9.847,22.094-22.094,22.094l0,0H56.764c-12.248,0-22.102-9.85-22.102-22.094
				l0,0V23.152c0-12.25,9.851-22.097,21.859-22.097l0,0h73.008c12.249,0,22.1,9.605,22.1,21.857c0,0,0,0,0,0.24v63.405H151.867z"/>
			<path opacity="0.3" enable-background="new    " d="M97.742,35.94L97.742,35.94h17.599v8.277l-17.599,0.002l0,0l-9.047,0.002l0,0
				l-17.502-0.002l0.002-8.283l17.511,0.001l0,0L97.742,35.94L97.742,35.94z"/>
		</g>
		<g>
			<g>
				<circle fill="#2A2A2A" cx="129.778" cy="80.777" r="11.819"/>
				<circle fill="#FFFFFF" cx="134.1" cy="76.102" r="4.322"/>
			</g>
			<g>
				<circle fill="#2A2A2A" cx="55.694" cy="80.777" r="11.819"/>
				<circle fill="#FFFFFF" cx="60.015" cy="76.102" r="4.322"/>
			</g>
			<circle fill="#2A2A2A" cx="93.743" cy="94.851" r="5.839"/>
		</g>
	</g>
	<g>
		<g>
			<path fill="#2A2A2A" d="M111.386,151.792H95.759c-1.053,0-1.906-0.854-1.906-1.905c0-1.054,0.854-1.906,1.906-1.906h13.721
				v-34.304c0-1.052,0.854-1.905,1.906-1.905c1.052,0,1.905,0.854,1.905,1.905v36.21
				C113.291,150.938,112.438,151.792,111.386,151.792z"/>
			<path fill="#2A2A2A" d="M73.27,151.792H57.643c-1.052,0-1.906-0.854-1.906-1.905c0-1.054,0.854-1.906,1.906-1.906h13.722v-34.304
				c0-1.052,0.853-1.905,1.905-1.905c1.054,0,1.906,0.854,1.906,1.905v36.21C75.176,150.938,74.324,151.792,73.27,151.792z"/>
		</g>
		<g>
			<path fill="#2A2A2A" d="M36.77,82.545c-2.478,0-12.351,0.458-19.594,7.388c-5.141,4.918-7.747,11.926-7.747,20.825
				c0,0.563,0.249,1.099,0.681,1.461l6.479,5.432c0.808,0.676,2.009,0.57,2.685-0.236c0.676-0.807,0.57-2.008-0.237-2.685
				l-5.788-4.853c0.162-7.396,2.367-13.176,6.561-17.189c7.002-6.699,17.259-6.33,17.358-6.324c1.064,0.037,1.942-0.769,1.988-1.82
				c0.047-1.051-0.768-1.941-1.819-1.988C37.282,82.553,37.085,82.545,36.77,82.545z"/>
			<path fill="#2A2A2A" d="M11.335,108.852c-0.14,0-0.283,0.016-0.425,0.049c-1.026,0.233-1.668,1.255-1.435,2.281l2.478,10.863
				c0.234,1.026,1.257,1.668,2.281,1.435c1.027-0.233,1.669-1.256,1.435-2.282l-2.477-10.863
				C12.99,109.451,12.205,108.852,11.335,108.852z"/>
			<path fill="#2A2A2A" d="M11.334,108.852c-0.776,0-1.505,0.478-1.789,1.248l-4.001,10.863c-0.364,0.988,0.142,2.083,1.129,2.447
				c0.99,0.363,2.083-0.143,2.447-1.13l4.002-10.863c0.364-0.988-0.142-2.083-1.129-2.446
				C11.775,108.89,11.553,108.852,11.334,108.852z"/>
			<path fill="#2A2A2A" d="M11.332,108.852c-0.375,0-0.754,0.111-1.085,0.342l-7.813,5.432c-0.864,0.602-1.078,1.789-0.477,2.653
				c0.601,0.862,1.789,1.076,2.653,0.477l7.813-5.433c0.863-0.6,1.077-1.788,0.477-2.652
				C12.528,109.138,11.935,108.852,11.332,108.852z"/>
		</g>
		<g>
			<path fill="#2A2A2A" d="M149.752,87.725c0.104-0.298,0.16-0.485,0.176-0.538c0.301-1.007-0.272-2.069-1.279-2.371
				c-1.009-0.301-2.082,0.284-2.371,1.278l0,0c-0.031,0.101-3.095,9.956-11.699,14.341c-5.162,2.632-11.336,2.813-18.36,0.544
				l-2.685-7.06c-0.376-0.983-1.477-1.479-2.46-1.104c-0.984,0.375-1.478,1.476-1.104,2.46l3.006,7.901
				c0.199,0.527,0.623,0.938,1.155,1.124c8.408,2.918,15.881,2.753,22.214-0.488C145.266,99.244,148.938,90.067,149.752,87.725z"/>
			<path fill="#2A2A2A" d="M116.557,103.124c0.286-0.822-0.022-1.762-0.791-2.241l-9.449-5.903
				c-0.893-0.558-2.068-0.287-2.627,0.606c-0.556,0.893-0.284,2.066,0.608,2.626l9.447,5.902c0.894,0.558,2.069,0.288,2.628-0.604
				C116.449,103.385,116.512,103.254,116.557,103.124z"/>
			<path fill="#2A2A2A" d="M116.557,103.124c0.072-0.205,0.108-0.43,0.104-0.661c-0.02-1.053-0.889-1.889-1.94-1.87l-11.576,0.219
				c-1.053,0.019-1.888,0.887-1.868,1.94c0.02,1.051,0.889,1.89,1.941,1.869l11.574-0.218
				C115.613,104.39,116.303,103.856,116.557,103.124z"/>
			<path fill="#2A2A2A" d="M116.556,103.125c0.198-0.569,0.124-1.224-0.259-1.747c-0.62-0.852-1.811-1.039-2.661-0.421l-7.695,5.6
				c-0.851,0.621-1.04,1.814-0.419,2.663c0.62,0.852,1.811,1.039,2.662,0.418l7.694-5.599
				C116.203,103.803,116.433,103.48,116.556,103.125z"/>
		</g>
	</g>
	<path opacity="0.2" d="M130.48,148.955c0,3.063-3.412,6.045-7.619,6.045H63.6c-4.208,0-8.119-2.982-8.119-6.045v-0.41
		c0-3.063,3.911-5.545,8.119-5.545h59.262c4.207,0,7.619,2.482,7.619,5.545V148.955z"/>
</g>
</svg>
