<?xml version="1.0" encoding="utf-8"?>
<!-- Generator: Adobe Illustrator 16.0.0, SVG Export Plug-In . SVG Version: 6.00 Build 0)  -->
<!DOCTYPE svg PUBLIC "-//W3C//DTD SVG 1.1//EN" "http://www.w3.org/Graphics/SVG/1.1/DTD/svg11.dtd">
<svg version="1.1" id="Capa_1" xmlns="http://www.w3.org/2000/svg" xmlns:xlink="http://www.w3.org/1999/xlink" x="0px" y="0px"
	 width="187.48px" height="160px" viewBox="0 0 187.48 160" enable-background="new 0 0 187.48 160" xml:space="preserve">
<g>
	<g>
		<path fill="#04A39F" d="M151.245,95.65c0,12.185-9.796,21.984-21.741,21.984h-0.232H56.645c-12.181,0-21.979-9.801-21.979-21.984
			l0,0V23.03c0-12.182,9.792-21.975,21.739-21.975l0,0h72.628c12.179,0,21.975,9.555,21.975,21.737c0,0,0,0,0,0.238v72.62H151.245
			L151.245,95.65z"/>
		<path fill="#0BFCFC" d="M151.245,86.102c0,12.18-9.796,21.978-21.979,21.978l0,0H56.641c-12.179,0-21.979-9.798-21.979-21.978l0,0
			V23.03c0-12.184,9.796-21.979,21.739-21.979l0,0h72.628c12.18,0,21.975,9.555,21.975,21.741c0,0,0,0,0,0.238V86.1h0.241V86.102z"
			/>
		<g>
			<g>
				<circle fill="#2A2A2A" cx="130.017" cy="80.81" r="11.852"/>
				<circle fill="#FFFFFF" cx="134.351" cy="76.122" r="4.334"/>
			</g>
			<g>
				<circle fill="#2A2A2A" cx="55.727" cy="80.81" r="11.852"/>
				<circle fill="#FFFFFF" cx="60.061" cy="76.122" r="4.334"/>
			</g>
			<path fill="#2A2A2A" d="M105.784,85.032c0.892,0,1.614,0.723,1.614,1.614c0,7.718-6.278,13.998-13.995,13.998
				c-7.718,0-13.998-6.279-13.998-13.998c0-0.892,0.723-1.614,1.615-1.614"/>
		</g>
		<g opacity="0.3">
			<path d="M88.014,61.991L62.036,42.027v-4.636l25.979-22.663v7.051l-21.14,17.549l21.14,15.517V61.991z"/>
			<path d="M97.692,54.845l21.166-15.422L97.692,21.779v-7.051l25.979,22.663v4.636L97.692,61.991V54.845z"/>
		</g>
	</g>
	<g>
		<g>
			<path fill="#2A2A2A" d="M72.737,149.887v-36.21c0-1.051,0.853-1.905,1.905-1.905c1.052,0,1.905,0.854,1.905,1.905v34.304h13.722
				c1.052,0,1.905,0.853,1.905,1.906c0,1.051-0.853,1.905-1.905,1.905H74.642C73.59,151.792,72.737,150.938,72.737,149.887z"/>
			<path fill="#2A2A2A" d="M110.852,149.887v-36.21c0-1.051,0.852-1.905,1.905-1.905c1.053,0,1.905,0.854,1.905,1.905v34.304h13.722
				c1.053,0,1.906,0.853,1.906,1.906c0,1.051-0.854,1.905-1.906,1.905h-15.627C111.704,151.792,110.852,150.938,110.852,149.887z"/>
		</g>
		<g>
			<path fill="#2A2A2A" d="M36.77,84.527c-2.479,0-12.352-0.459-19.595-7.388c-5.141-4.919-7.746-11.926-7.746-20.825
				c0-0.563,0.248-1.099,0.681-1.46l6.479-5.432c0.809-0.676,2.01-0.57,2.686,0.236c0.676,0.806,0.569,2.008-0.237,2.685
				l-5.788,4.853c0.162,7.396,2.367,13.176,6.562,17.189c7.002,6.699,17.259,6.33,17.357,6.324c1.064-0.037,1.942,0.77,1.988,1.82
				c0.047,1.051-0.768,1.94-1.819,1.988C37.282,84.52,37.085,84.527,36.77,84.527z"/>
			<path fill="#2A2A2A" d="M11.335,58.221c-0.14,0-0.283-0.016-0.425-0.048c-1.026-0.234-1.668-1.255-1.435-2.282l2.478-10.863
				c0.234-1.026,1.257-1.668,2.281-1.435c1.026,0.234,1.669,1.256,1.435,2.282l-2.477,10.863
				C12.99,57.622,12.205,58.221,11.335,58.221z"/>
			<path fill="#2A2A2A" d="M11.334,58.221c-0.775,0-1.505-0.478-1.789-1.248L5.544,46.109c-0.363-0.988,0.143-2.083,1.129-2.447
				c0.99-0.364,2.083,0.143,2.447,1.129l4.002,10.863c0.364,0.988-0.142,2.083-1.129,2.447
				C11.775,58.183,11.552,58.221,11.334,58.221z"/>
			<path fill="#2A2A2A" d="M11.332,58.22c-0.375,0-0.754-0.111-1.085-0.341l-7.813-5.433c-0.864-0.601-1.078-1.789-0.478-2.653
				c0.602-0.863,1.789-1.076,2.653-0.477l7.813,5.433c0.863,0.6,1.077,1.788,0.478,2.652C12.528,57.935,11.935,58.22,11.332,58.22z"
				/>
		</g>
		<g>
			<path fill="#2A2A2A" d="M169.198,93.313c5.141,4.919,7.748,11.926,7.748,20.824c0,0.563-0.249,1.099-0.682,1.461l-6.479,5.432
				c-0.808,0.675-2.009,0.57-2.686-0.236c-0.678-0.808-0.571-2.01,0.234-2.686l5.789-4.852c-0.161-7.383-2.356-13.154-6.537-17.168
				c-6.966-6.689-17.279-6.351-17.386-6.348l0,0c-1.033,0.053-1.937-0.77-1.984-1.82c-0.045-1.051,0.77-1.941,1.82-1.988
				c0.054-0.002,0.251-0.01,0.566-0.01C152.081,85.922,161.955,86.381,169.198,93.313z"/>
			<path fill="#2A2A2A" d="M175.461,112.277c1.028,0.234,1.668,1.256,1.436,2.281l-2.479,10.862
				c-0.233,1.026-1.255,1.669-2.28,1.436c-1.028-0.235-1.669-1.257-1.435-2.282l2.478-10.863c0.2-0.884,0.985-1.482,1.856-1.482
				C175.176,112.229,175.319,112.244,175.461,112.277z"/>
			<path fill="#2A2A2A" d="M176.825,113.475l4.002,10.863c0.364,0.988-0.142,2.083-1.129,2.447
				c-0.988,0.365-2.083-0.141-2.446-1.129l-4.003-10.863c-0.363-0.988,0.143-2.083,1.129-2.447c0.219-0.08,0.441-0.117,0.659-0.117
				C175.813,112.229,176.542,112.705,176.825,113.475z"/>
			<path fill="#2A2A2A" d="M176.124,112.57l7.813,5.432c0.867,0.602,1.08,1.788,0.479,2.652c-0.598,0.865-1.788,1.078-2.652,0.477
				l-7.813-5.432c-0.864-0.602-1.078-1.788-0.477-2.652c0.368-0.533,0.963-0.818,1.565-0.818
				C175.414,112.229,175.794,112.34,176.124,112.57z"/>
		</g>
	</g>
	<path opacity="0.2" enable-background="new    " d="M130.48,148.955c0,3.063-3.412,6.045-7.619,6.045H63.6
		c-4.208,0-8.119-2.982-8.119-6.045v-0.41c0-3.063,3.911-5.545,8.119-5.545h59.262c4.207,0,7.619,2.482,7.619,5.545L130.48,148.955
		L130.48,148.955z"/>
</g>
</svg>
