<?xml version="1.0" encoding="utf-8"?>
<!-- Generator: Adobe Illustrator 16.0.0, SVG Export Plug-In . SVG Version: 6.00 Build 0)  -->
<!DOCTYPE svg PUBLIC "-//W3C//DTD SVG 1.1//EN" "http://www.w3.org/Graphics/SVG/1.1/DTD/svg11.dtd">
<svg version="1.1" id="Capa_1" xmlns="http://www.w3.org/2000/svg" xmlns:xlink="http://www.w3.org/1999/xlink" x="0px" y="0px"
	 width="187.48px" height="160px" viewBox="0 0 187.48 160" enable-background="new 0 0 187.48 160" xml:space="preserve">
<g>
	<g>
		<path fill="#84459B" d="M151.245,95.651c0,12.184-9.796,21.984-21.741,21.984h-0.233H56.645c-12.18,0-21.979-9.801-21.979-21.984
			l0,0V23.03c0-12.182,9.792-21.975,21.739-21.975l0,0h72.628c12.179,0,21.975,9.555,21.975,21.737c0,0,0,0,0,0.238v72.621H151.245
			L151.245,95.651z"/>
		<path fill="#C379DB" d="M151.245,86.101c0,12.18-9.796,21.978-21.979,21.978l0,0H56.641c-12.178,0-21.979-9.798-21.979-21.978l0,0
			V23.03c0-12.184,9.796-21.979,21.739-21.979l0,0h72.628c12.18,0,21.975,9.555,21.975,21.741c0,0,0,0,0,0.238v63.07H151.245z"/>
		<g opacity="0.3">
			<path d="M97.61,14.728l-0.002,19.283h18.291v8.604l-18.293,0.007l0.002,19.369H88.21l-0.007-19.369H70.005l0.005-8.615
				l18.199,0.002l-0.007-19.276L97.61,14.728z"/>
		</g>
		<g>
			<g>
				<circle fill="#2A2A2A" cx="130.017" cy="80.81" r="11.852"/>
				<circle fill="#FFFFFF" cx="134.351" cy="76.122" r="4.334"/>
			</g>
			<g>
				<circle fill="#2A2A2A" cx="55.727" cy="80.81" r="11.852"/>
				<circle fill="#FFFFFF" cx="60.061" cy="76.122" r="4.334"/>
			</g>
			<path fill="#2A2A2A" d="M93.403,100.645c-7.718,0-13.998-6.28-13.998-13.998c0-0.892,0.723-1.615,1.615-1.615
				c0.892,0,1.615,0.723,1.615,1.615c0,5.937,4.83,10.766,10.768,10.766c5.936,0,10.766-4.829,10.766-10.766
				c0-0.892,0.723-1.615,1.615-1.615c0.892,0,1.614,0.723,1.614,1.615C107.398,94.364,101.12,100.645,93.403,100.645z"/>
		</g>
	</g>
	<g>
		<g>
			<path fill="#2A2A2A" d="M111.386,151.792H95.759c-1.053,0-1.906-0.854-1.906-1.905c0-1.054,0.854-1.906,1.906-1.906h13.721
				v-34.304c0-1.052,0.854-1.905,1.906-1.905c1.052,0,1.905,0.854,1.905,1.905v36.21
				C113.291,150.938,112.438,151.792,111.386,151.792z"/>
			<path fill="#2A2A2A" d="M73.27,151.792H57.643c-1.052,0-1.906-0.854-1.906-1.905c0-1.054,0.854-1.906,1.906-1.906h13.722v-34.304
				c0-1.052,0.853-1.905,1.905-1.905c1.054,0,1.906,0.854,1.906,1.905v36.21C75.176,150.938,74.324,151.792,73.27,151.792z"/>
		</g>
		<g>
			<path fill="#2A2A2A" d="M36.77,84.527c-2.478,0-12.351-0.458-19.594-7.388c-5.141-4.919-7.747-11.926-7.747-20.825
				c0-0.563,0.249-1.099,0.681-1.46l6.479-5.432c0.808-0.676,2.009-0.57,2.685,0.236c0.676,0.806,0.57,2.008-0.237,2.685
				l-5.788,4.853c0.162,7.396,2.367,13.176,6.561,17.189c7.002,6.699,17.259,6.33,17.358,6.324c1.064-0.037,1.942,0.769,1.988,1.82
				c0.047,1.051-0.768,1.941-1.819,1.988C37.282,84.52,37.085,84.527,36.77,84.527z"/>
			<path fill="#2A2A2A" d="M11.335,58.221c-0.14,0-0.283-0.016-0.425-0.048c-1.026-0.234-1.668-1.255-1.435-2.282l2.478-10.863
				c0.234-1.026,1.257-1.668,2.281-1.435c1.027,0.234,1.669,1.256,1.435,2.282l-2.477,10.863
				C12.99,57.622,12.205,58.221,11.335,58.221z"/>
			<path fill="#2A2A2A" d="M11.334,58.221c-0.776,0-1.505-0.478-1.789-1.248L5.544,46.109c-0.364-0.988,0.142-2.083,1.129-2.447
				c0.99-0.364,2.083,0.143,2.447,1.129l4.002,10.863c0.364,0.988-0.142,2.083-1.129,2.447
				C11.775,58.183,11.553,58.221,11.334,58.221z"/>
			<path fill="#2A2A2A" d="M11.332,58.22c-0.375,0-0.754-0.111-1.085-0.341l-7.813-5.433c-0.864-0.601-1.078-1.789-0.477-2.653
				c0.601-0.863,1.789-1.076,2.653-0.477l7.813,5.433c0.863,0.6,1.077,1.788,0.477,2.652C12.528,57.935,11.935,58.22,11.332,58.22z"
				/>
		</g>
		<g>
			<path fill="#2A2A2A" d="M149.602,76.904c-0.315,0-0.512-0.007-0.566-0.01c-1.051-0.046-1.865-0.937-1.82-1.988
				c0.047-1.051,0.951-1.873,1.984-1.82l0,0c0.106,0.003,10.42,0.342,17.386-6.348c4.18-4.013,6.376-9.785,6.537-17.167
				l-5.789-4.852c-0.806-0.676-0.912-1.878-0.235-2.686c0.677-0.806,1.878-0.911,2.686-0.236l6.479,5.432
				c0.433,0.362,0.682,0.897,0.682,1.46c0,8.899-2.607,15.906-7.748,20.825C161.955,76.446,152.081,76.904,149.602,76.904z"/>
			<path fill="#2A2A2A" d="M175.037,50.598c-0.871,0-1.656-0.599-1.857-1.483l-2.477-10.863c-0.234-1.026,0.406-2.047,1.434-2.282
				c1.026-0.233,2.047,0.409,2.281,1.435l2.478,10.862c0.233,1.026-0.407,2.048-1.435,2.282
				C175.319,50.582,175.176,50.598,175.037,50.598z"/>
			<path fill="#2A2A2A" d="M175.037,50.598c-0.218,0-0.441-0.038-0.659-0.118c-0.987-0.364-1.492-1.459-1.129-2.447l4.003-10.863
				c0.363-0.988,1.458-1.494,2.446-1.129c0.987,0.364,1.493,1.459,1.129,2.447l-4.002,10.863
				C176.542,50.121,175.813,50.598,175.037,50.598z"/>
			<path fill="#2A2A2A" d="M175.039,50.597c-0.603,0-1.197-0.285-1.566-0.818c-0.601-0.864-0.387-2.051,0.477-2.652l7.813-5.432
				c0.865-0.601,2.055-0.388,2.653,0.477c0.601,0.864,0.388,2.051-0.479,2.652l-7.813,5.432
				C175.794,50.486,175.414,50.597,175.039,50.597z"/>
		</g>
	</g>
	<path opacity="0.2" d="M130.48,148.955c0,3.063-3.412,6.045-7.619,6.045H63.6c-4.208,0-8.119-2.982-8.119-6.045v-0.41
		c0-3.063,3.911-5.545,8.119-5.545h59.262c4.207,0,7.619,2.482,7.619,5.545V148.955z"/>
</g>
</svg>
