<?xml version="1.0" encoding="utf-8"?>
<!-- Generator: Adobe Illustrator 16.0.0, SVG Export Plug-In . SVG Version: 6.00 Build 0)  -->
<!DOCTYPE svg PUBLIC "-//W3C//DTD SVG 1.1//EN" "http://www.w3.org/Graphics/SVG/1.1/DTD/svg11.dtd">
<svg version="1.1" id="Capa_1" xmlns="http://www.w3.org/2000/svg" xmlns:xlink="http://www.w3.org/1999/xlink" x="0px" y="0px"
	 width="151px" height="151px" viewBox="5 4 151 151" enable-background="new 5 4 151 151" xml:space="preserve">
<g>
	<g>
		<path fill="#4F8826" d="M156,126.688C156,142.324,143.324,155,127.688,155H33.313C17.676,155,5,142.324,5,126.688V32.313
			C5,16.676,17.676,4,33.313,4h94.375C143.324,4,156,16.676,156,32.313V126.688z"/>
		<path fill="#92FF45" d="M156,114.688C156,130.324,143.324,143,127.688,143H33.313C17.676,143,5,130.324,5,114.688V32.313
			C5,16.676,17.676,4,33.313,4h94.375C143.324,4,156,16.676,156,32.313V114.688z"/>
		<g>
			<path fill="none" stroke="#000000" stroke-width="4" stroke-linecap="round" stroke-miterlimit="10" d="M68.523,127.67
				c0-7.168,5.81-12.979,12.979-12.979c7.166,0,12.977,5.811,12.977,12.979"/>
			<g>
				<path d="M46.504,94.335L46.504,94.335c1.989,2.505,3.179,5.674,3.179,9.12c0,8.104-6.57,14.675-14.676,14.675
					c-8.104,0-14.674-6.569-14.674-14.675c0-5.254,2.761-9.862,6.911-12.455L46.504,94.335z"/>
				<circle fill="#FFFFFF" cx="40.881" cy="101.018" r="5.366"/>
			</g>
			<g>
				<path d="M134.756,91c4.15,2.593,6.912,7.201,6.912,12.455c0,8.104-6.57,14.675-14.674,14.675s-14.676-6.569-14.676-14.675
					c0-3.446,1.188-6.615,3.178-9.12l0,0L134.756,91z"/>
				<circle fill="#FFFFFF" cx="134.119" cy="101.018" r="5.366"/>
			</g>
		</g>
	</g>
	<path fill="#283622" d="M156,104V32.313C156,16.676,143.324,4,127.688,4H33.313C17.676,4,5,16.676,5,32.313V104l8-42.666
		l4.333,1.667l5.333-6.667l12.85,6l5.366-6.667l12.118,6l10-5.666l9.667,4.666l8.834-4l11.165,3.334l9.668-3.334l9.984,4.334
		l9.348-5.667L131,61.667l4.666-7l6.002,8.334l3.666-3L156,104z"/>
</g>
<g opacity="0.5">
	<path fill="#FF0000" d="M149.792,51.784c3.994,9.334,5.994,19.146,5.994,29.43c0,10.283-2,20.11-5.994,29.478
		c-3.998,9.37-9.354,17.427-16.066,24.174c-6.716,6.747-14.74,12.118-24.074,16.114c-9.335,3.995-19.112,5.994-29.332,5.994
		c-10.219,0-19.996-1.999-29.331-5.994c-9.335-3.996-17.361-9.367-24.074-16.114c-6.716-6.747-12.071-14.804-16.066-24.174
		c-3.996-9.367-5.994-19.194-5.994-29.478c0-10.285,1.998-20.096,5.994-29.43c3.995-9.334,9.35-17.376,16.066-24.124
		c6.713-6.746,14.739-12.118,24.074-16.115C60.323,7.55,70.1,5.551,80.319,5.551c10.22,0,19.997,2,29.332,5.995
		c9.334,3.997,17.358,9.369,24.074,16.115C140.438,34.408,145.794,42.449,149.792,51.784z M35.61,110.595l74.189-74.091
		c-8.844-5.96-18.672-8.941-29.479-8.941c-9.695,0-18.638,2.392-26.825,7.173c-8.189,4.783-14.675,11.3-19.457,19.554
		c-4.783,8.254-7.173,17.23-7.173,26.925C26.865,91.824,29.779,101.621,35.61,110.595z M133.774,81.214
		c0-10.546-2.849-20.209-8.549-28.988l-74.09,73.992c8.974,5.832,18.702,8.745,29.184,8.745c7.272,0,14.2-1.425,20.782-4.274
		c6.585-2.849,12.267-6.666,17.05-11.446c4.781-4.782,8.58-10.498,11.397-17.147C132.364,95.446,133.774,88.485,133.774,81.214z"/>
</g>
</svg>
