<?xml version="1.0" encoding="utf-8"?>
<!-- Generator: Adobe Illustrator 16.0.0, SVG Export Plug-In . SVG Version: 6.00 Build 0)  -->
<!DOCTYPE svg PUBLIC "-//W3C//DTD SVG 1.1//EN" "http://www.w3.org/Graphics/SVG/1.1/DTD/svg11.dtd">
<svg version="1.1" id="Capa_1" xmlns="http://www.w3.org/2000/svg" xmlns:xlink="http://www.w3.org/1999/xlink" x="0px" y="0px"
	 width="400px" height="400px" viewBox="0 0 400 400" enable-background="new 0 0 400 400" xml:space="preserve">
<g>
	<g>
		<defs>
			<rect id="SVGID_1_" width="400" height="400"/>
		</defs>
		<clipPath id="SVGID_2_">
			<use xlink:href="#SVGID_1_"  overflow="visible"/>
		</clipPath>
		<g clip-path="url(#SVGID_2_)">
			<rect fill="#686868" width="400" height="400"/>
			<g opacity="0.5">
				
					<linearGradient id="SVGID_3_" gradientUnits="userSpaceOnUse" x1="-2592.8096" y1="2889.7441" x2="-2539.2356" y2="2611.9482" gradientTransform="matrix(0.7071 0.7071 0.7071 -0.7071 148.678 3784.6699)">
					<stop  offset="0" style="stop-color:#FFFFFF;stop-opacity:0"/>
					<stop  offset="1" style="stop-color:#FFFFFF"/>
				</linearGradient>
				<polygon fill="url(#SVGID_3_)" points="199.199,143.166 424.059,-81.694 324.352,-148.401 				"/>
				
					<linearGradient id="SVGID_4_" gradientUnits="userSpaceOnUse" x1="-5441.5635" y1="2502.6729" x2="-5387.9902" y2="2224.8809" gradientTransform="matrix(0 1 1 0 -2024.4141 5531.1523)">
					<stop  offset="0" style="stop-color:#FFFFFF;stop-opacity:0"/>
					<stop  offset="1" style="stop-color:#FFFFFF"/>
				</linearGradient>
				<polygon fill="url(#SVGID_4_)" points="199.199,143.166 517.199,143.166 493.864,25.494 				"/>
				
					<linearGradient id="SVGID_5_" gradientUnits="userSpaceOnUse" x1="-7182.1382" y1="337.2041" x2="-7128.5645" y2="59.4096" gradientTransform="matrix(-0.7071 0.7071 0.7071 0.7071 -4882.5181 5142.6597)">
					<stop  offset="0" style="stop-color:#FFFFFF;stop-opacity:0"/>
					<stop  offset="1" style="stop-color:#FFFFFF"/>
				</linearGradient>
				<polygon fill="url(#SVGID_5_)" points="199.199,143.166 424.059,368.025 490.766,268.318 				"/>
				
					<linearGradient id="SVGID_6_" gradientUnits="userSpaceOnUse" x1="-6881.7764" y1="-2547.3394" x2="-6828.2026" y2="-2825.1331" gradientTransform="matrix(-1 0 0 1 -6629 2969.5664)">
					<stop  offset="0" style="stop-color:#FFFFFF;stop-opacity:0"/>
					<stop  offset="1" style="stop-color:#FFFFFF"/>
				</linearGradient>
				<polygon fill="url(#SVGID_6_)" points="199.199,143.166 199.199,461.166 316.871,437.83 				"/>
				
					<linearGradient id="SVGID_7_" gradientUnits="userSpaceOnUse" x1="-4816.8047" y1="-4026.9971" x2="-4763.231" y2="-4304.792" gradientTransform="matrix(-0.7071 -0.7071 -0.7071 0.7071 -6213.6772 -180.1021)">
					<stop  offset="0" style="stop-color:#FFFFFF;stop-opacity:0"/>
					<stop  offset="1" style="stop-color:#FFFFFF"/>
				</linearGradient>
				<polygon fill="url(#SVGID_7_)" points="199.215,143.162 -25.645,368.021 74.063,434.729 				"/>
				
					<linearGradient id="SVGID_8_" gradientUnits="userSpaceOnUse" x1="-2123.3237" y1="-3960.7402" x2="-2069.7505" y2="-4238.5327" gradientTransform="matrix(0 -1 -1 0 -4040.5859 -1926.5859)">
					<stop  offset="0" style="stop-color:#FFFFFF;stop-opacity:0"/>
					<stop  offset="1" style="stop-color:#FFFFFF"/>
				</linearGradient>
				<polygon fill="url(#SVGID_8_)" points="199.215,143.162 -118.785,143.162 -95.45,260.834 				"/>
				
					<linearGradient id="SVGID_9_" gradientUnits="userSpaceOnUse" x1="-265.3984" y1="-1886.7925" x2="-211.8246" y2="-2164.5879" gradientTransform="matrix(0.7071 -0.7071 -0.7071 -0.7071 -1182.4819 -1538.093)">
					<stop  offset="0" style="stop-color:#FFFFFF;stop-opacity:0"/>
					<stop  offset="1" style="stop-color:#FFFFFF"/>
				</linearGradient>
				<polygon fill="url(#SVGID_9_)" points="199.215,143.162 -25.645,-81.698 -92.352,18.009 				"/>
				
					<linearGradient id="SVGID_10_" gradientUnits="userSpaceOnUse" x1="-418.3613" y1="770.8994" x2="-364.7879" y2="493.1067" gradientTransform="matrix(1 0 0 -1 564 635)">
					<stop  offset="0" style="stop-color:#FFFFFF;stop-opacity:0"/>
					<stop  offset="1" style="stop-color:#FFFFFF"/>
				</linearGradient>
				<polygon fill="url(#SVGID_10_)" points="199.215,143.162 199.215,-174.838 81.543,-151.503 				"/>
			</g>
			<g>
				<g>
					<g>
						<path fill="#575757" d="M303.773,195.041c0,21.671-17.565,39.24-39.239,39.24H133.733c-21.672,0-39.24-17.569-39.24-39.24
							V64.24c0-21.672,17.568-39.24,39.24-39.24h130.801c21.674,0,39.239,17.568,39.239,39.24V195.041z"/>
						<path fill="#C1C1C1" d="M303.773,178.41c0,21.672-17.565,39.24-39.239,39.24H133.733c-21.672,0-39.24-17.568-39.24-39.24
							V64.24c0-21.672,17.568-39.24,39.24-39.24h130.801c21.674,0,39.239,17.568,39.239,39.24V178.41z"/>
						<g>
							<path fill="#2A2A2A" d="M192.203,298.035h-28.411c-1.914,0-3.465-1.551-3.465-3.465v-65.834c0-1.913,1.551-3.463,3.465-3.463
								c1.913,0,3.464,1.55,3.464,3.463v62.369h24.947c1.915,0,3.466,1.553,3.466,3.465
								C195.669,296.484,194.118,298.035,192.203,298.035z"/>
							<path fill="#2A2A2A" d="M261.502,298.035h-28.413c-1.912,0-3.465-1.551-3.465-3.465v-65.834c0-1.913,1.553-3.463,3.465-3.463
								c1.915,0,3.466,1.55,3.466,3.463v62.369h24.947c1.913,0,3.465,1.553,3.465,3.465
								C264.967,296.484,263.415,298.035,261.502,298.035z"/>
						</g>
						<g>
							<path fill="#2A2A2A" d="M300.96,169.234c-0.659,0.141-1.071,0.212-1.188,0.231c-2.217,0.375-4.317-1.123-4.692-3.342
								c-0.371-2.217,1.155-4.323,3.334-4.691l0,0c0.229-0.037,21.938-3.942,33.512-21.039c6.941-10.257,8.953-23.306,5.992-38.809
								l-14.271-7.557c-1.987-1.053-2.744-3.52-1.693-5.507c1.054-1.988,3.521-2.746,5.509-1.694l15.974,8.458
								c1.063,0.564,1.825,1.571,2.078,2.75c3.978,18.605,1.659,34.416-6.89,46.998C326.577,162.755,306.145,168.125,300.96,169.234
								z"/>
							<path fill="#2A2A2A" d="M342.373,102.871c-1.814,0.388-3.727-0.513-4.544-2.27l-10.032-21.602
								c-0.945-2.041-0.063-4.462,1.979-5.411c2.041-0.946,4.464-0.061,5.412,1.979l10.032,21.602
								c0.95,2.04,0.063,4.463-1.979,5.411C342.96,102.711,342.667,102.808,342.373,102.871z"/>
							<path fill="#2A2A2A" d="M342.378,102.87c-0.458,0.098-0.94,0.118-1.431,0.048c-2.229-0.319-3.773-2.384-3.455-4.611
								l3.514-24.499c0.318-2.227,2.383-3.774,4.61-3.454c2.226,0.319,3.772,2.384,3.454,4.61l-3.514,24.499
								C345.311,101.2,344.001,102.523,342.378,102.87z"/>
							<path fill="#2A2A2A" d="M342.38,102.868c-1.26,0.27-2.627-0.061-3.638-1.01c-1.643-1.539-1.727-4.116-0.188-5.758
								l13.905-14.847c1.539-1.64,4.117-1.727,5.757-0.187c1.645,1.537,1.727,4.116,0.188,5.758l-13.904,14.846
								C343.909,102.3,343.165,102.7,342.38,102.868z"/>
						</g>
					</g>
					<g>
						<path fill="#2A2A2A" d="M199.623,188.679c-13.243,0-24.02-10.774-24.02-24.019c0-1.531,1.242-2.774,2.772-2.774
							c1.531,0,2.772,1.243,2.772,2.774c0,10.188,8.289,18.476,18.476,18.476c10.189,0,18.479-8.288,18.479-18.476
							c0-1.531,1.239-2.774,2.772-2.774c1.528,0,2.771,1.243,2.771,2.774C223.646,177.905,212.87,188.679,199.623,188.679z"/>
						<path fill="#2A2A2A" d="M153.365,165.097c-1.53,0-2.771-1.241-2.771-2.772c0-8.39-6.825-15.215-15.214-15.215
							c-8.39,0-15.214,6.825-15.214,15.215c0,1.531-1.241,2.772-2.772,2.772c-1.53,0-2.771-1.241-2.771-2.772
							c0-11.445,9.312-20.759,20.758-20.759c11.445,0,20.758,9.313,20.758,20.759C156.137,163.856,154.896,165.097,153.365,165.097z
							"/>
						<path fill="#2A2A2A" d="M280.873,165.097c-1.529,0-2.771-1.241-2.771-2.772c0-8.39-6.822-15.215-15.213-15.215
							c-8.389,0-15.214,6.825-15.214,15.215c0,1.531-1.239,2.772-2.772,2.772c-1.531,0-2.772-1.241-2.772-2.772
							c0-11.445,9.313-20.759,20.759-20.759c11.446,0,20.758,9.313,20.758,20.759C283.645,163.856,282.406,165.097,280.873,165.097z
							"/>
					</g>
				</g>
				<g>
					<path fill="#575757" d="M204.84,58.708v24.918h23.643V94.75H204.84v25.04h-12.155V94.75h-23.521V83.627h23.521V58.708H204.84z"
						/>
				</g>
			</g>
			<g>
				<path fill="#575757" d="M31.962,260.885c-2.833,0-5.136,2.305-5.136,5.137v214.692c0,2.831,2.303,5.136,5.136,5.136h335.905
					c2.833,0,5.137-2.305,5.137-5.136V266.021c0-2.832-2.304-5.138-5.137-5.138L31.962,260.885L31.962,260.885z"/>
				<path fill="#999999" d="M31.962,264.994c-2.833,0-5.136,2.304-5.136,5.136v214.692c0,2.831,2.303,5.137,5.136,5.137h335.905
					c2.833,0,5.137-2.306,5.137-5.137V270.13c0-2.832-2.304-5.136-5.137-5.136H31.962z"/>
				<path fill="#575757" d="M387.557,490.973c0,10.764-8.927,19.69-19.688,19.69H31.962c-10.762,0-19.518-8.756-19.518-19.519
					v-10.271l14.724,8.218h345.836l14.381-15.064L387.557,490.973z"/>
				<path fill="#7E7E7E" d="M367.867,500.391H31.962c-10.762,0-19.518-8.756-19.518-19.518V266.18
					c0-10.762,8.756-19.518,19.518-19.518h335.905c10.763,0,19.518,8.756,19.518,19.518v214.693
					C387.385,491.635,378.63,500.391,367.867,500.391z M31.962,261.043c-2.833,0-5.136,2.307-5.136,5.137v214.693
					c0,2.831,2.303,5.137,5.136,5.137h335.905c2.833,0,5.137-2.306,5.137-5.137V266.18c0-2.83-2.304-5.137-5.137-5.137H31.962z"/>
			</g>
			<g>
				<path fill="#2A2A2A" d="M70.883,250.432c-0.927,0.146-1.91-0.02-2.779-0.539l-15.769-9.449c-1.052-0.631-1.77-1.693-1.962-2.903
					c-3.042-19.11,0.162-35.043,9.519-47.36c14.864-19.568,39.717-22.614,40.769-22.733c2.272-0.258,4.327,1.375,4.586,3.646
					c0.26,2.271-1.358,4.344-3.64,4.586l0,0c-0.229,0.039-22.488,2.827-35.16,19.571c-7.601,10.043-10.346,23.188-8.169,39.092
					l14.086,8.441c1.962,1.176,2.601,3.722,1.426,5.685C73.132,249.563,72.051,250.245,70.883,250.432z"/>
				<path fill="#2A2A2A" d="M64.145,263.462c-1.866,0.297-3.757-0.721-4.492-2.551l-9.032-22.479c-0.853-2.121,0.177-4.537,2.3-5.39
					c2.123-0.854,4.536,0.177,5.39,2.299l9.032,22.481c0.853,2.121-0.178,4.535-2.301,5.389
					C64.747,263.331,64.446,263.414,64.145,263.462z"/>
				<path fill="#2A2A2A" d="M50.236,265.676c-0.469,0.074-0.961,0.066-1.455-0.029c-2.245-0.444-3.705-2.621-3.261-4.869l4.88-24.69
					c0.443-2.244,2.62-3.712,4.868-3.261c2.244,0.441,3.705,2.621,3.261,4.865l-4.88,24.694
					C53.305,264.137,51.902,265.41,50.236,265.676z"/>
				<path fill="#2A2A2A" d="M40.2,255.313c-1.296,0.207-2.666-0.203-3.644-1.222c-1.585-1.649-1.533-4.274,0.117-5.858
					l14.921-14.334c1.652-1.584,4.276-1.531,5.859,0.117c1.585,1.651,1.533,4.272-0.117,5.859l-14.92,14.335
					C41.782,254.818,41.005,255.186,40.2,255.313z"/>
			</g>
			<g>
				<g>
					<path opacity="0.3" enable-background="new    " d="M339,388.304c0,5.355-4.342,9.696-9.696,9.696h-55.606
						c-5.354,0-9.696-4.341-9.696-9.696v-90.606c0-5.355,4.342-9.696,9.696-9.696h55.606c5.354,0,9.696,4.341,9.696,9.696V388.304z"
						/>
					<path fill="#FFFFFF" d="M336,385.303c0,5.355-4.342,9.697-9.697,9.697h-55.604c-5.355,0-9.697-4.342-9.697-9.697v-90.604
						c0-5.355,4.342-9.697,9.697-9.697h55.604c5.355,0,9.697,4.342,9.697,9.697V385.303z"/>
					<g>
						<path fill="#575757" d="M307.223,344.378h4.764v3.743c0,0.349-0.112,0.648-0.34,0.902c-0.227,0.253-0.559,0.38-0.994,0.38
							h-3.43v9.238h-5.651v-9.238h-15.968c-0.437,0-0.819-0.136-1.151-0.406c-0.331-0.271-0.541-0.605-0.627-1.007l-0.654-3.272
							L301.1,320.77h6.125v23.608H307.223z M301.57,331.998c0-0.559,0.017-1.161,0.052-1.807c0.034-0.646,0.096-1.317,0.183-2.017
							l-11.752,16.202h11.519L301.57,331.998L301.57,331.998z"/>
					</g>
					<g>
						<path fill="#969696" d="M270.416,289.883c0.238,0.383,0.495,0.785,0.771,1.209c0.275,0.424,0.586,0.855,0.927,1.295
							c0.393,0.522,0.747,0.978,1.063,1.364c0.316,0.388,0.586,0.717,0.813,0.985c-0.191,0.212-0.443,0.514-0.756,0.906
							c-0.313,0.394-0.687,0.873-1.121,1.441c-0.346,0.46-0.659,0.903-0.941,1.33c-0.281,0.427-0.525,0.823-0.732,1.189
							c-0.148-0.278-0.4-0.68-0.756-1.201c-0.354-0.522-0.813-1.158-1.375-1.907c-0.078-0.093-0.234-0.288-0.47-0.585
							c-0.235-0.298-0.558-0.689-0.966-1.176c0.27-0.299,0.568-0.659,0.898-1.081c0.332-0.421,0.707-0.908,1.125-1.462
							c0.295-0.402,0.57-0.797,0.83-1.183C269.984,290.626,270.215,290.25,270.416,289.883z"/>
					</g>
					<g>
						<path fill="#969696" d="M327.266,390.384c-0.238-0.383-0.494-0.785-0.771-1.209c-0.277-0.424-0.586-0.854-0.927-1.295
							c-0.394-0.521-0.748-0.977-1.063-1.364c-0.316-0.388-0.588-0.717-0.814-0.984c0.191-0.212,0.443-0.515,0.757-0.907
							c0.313-0.394,0.686-0.873,1.12-1.441c0.347-0.46,0.66-0.902,0.941-1.33c0.281-0.427,0.525-0.822,0.732-1.189
							c0.15,0.279,0.402,0.68,0.756,1.202c0.354,0.521,0.813,1.158,1.376,1.906c0.077,0.094,0.233,0.288,0.47,0.586
							c0.234,0.298,0.557,0.688,0.965,1.175c-0.27,0.3-0.567,0.66-0.898,1.082c-0.331,0.421-0.706,0.907-1.124,1.461
							c-0.295,0.402-0.571,0.798-0.83,1.183C327.697,389.641,327.467,390.017,327.266,390.384z"/>
					</g>
					<polygon fill="none" stroke="#969696" stroke-width="0.5" stroke-miterlimit="10" points="298.573,296.313 265.584,339.696 
						298.573,383.079 331.563,339.696 					"/>
					<polygon fill="none" stroke="#969696" stroke-miterlimit="10" points="298.573,301.16 269.08,339.946 298.573,378.731 
						328.066,339.946 					"/>
				</g>
				<g>
					<path opacity="0.3" enable-background="new    " d="M239,388.304c0,5.355-4.342,9.696-9.695,9.696h-55.607
						c-5.355,0-9.696-4.341-9.696-9.696v-90.606c0-5.355,4.341-9.696,9.696-9.696h55.607c5.354,0,9.695,4.341,9.695,9.696V388.304z"
						/>
					<path fill="#FFFFFF" d="M236,385.303c0,5.355-4.342,9.697-9.697,9.697h-55.605c-5.355,0-9.697-4.342-9.697-9.697v-90.604
						c0-5.355,4.341-9.697,9.697-9.697h55.605c5.355,0,9.697,4.342,9.697,9.697V385.303z"/>
					<g>
						<path fill="#575757" d="M190.608,353.801h7.669v-22.064c0-0.854,0.026-1.753,0.078-2.695l-5.444,4.554
							c-0.227,0.192-0.458,0.323-0.694,0.394c-0.235,0.069-0.467,0.104-0.693,0.104c-0.35,0-0.667-0.074-0.956-0.223
							c-0.289-0.149-0.502-0.318-0.641-0.511l-2.042-2.802l11.542-9.813h5.313v33.058h6.805v4.842h-20.938L190.608,353.801
							L190.608,353.801z"/>
					</g>
					<g>
						<path fill="#969696" d="M174.364,300.163h-6.94v-0.278c0.971,0,1.773-0.308,2.406-0.922c0.633-0.615,0.949-1.611,0.949-2.99
							c-0.311,0.655-0.69,1.146-1.138,1.471c-0.447,0.324-0.955,0.485-1.522,0.485c-0.649,0-1.191-0.221-1.625-0.663
							c-0.434-0.44-0.65-0.986-0.65-1.637c0-0.578,0.191-1.1,0.573-1.563s0.859-0.695,1.432-0.695c0.169,0,0.348,0.027,0.536,0.082
							c0.188,0.055,0.446,0.172,0.773,0.352c-0.18-0.306-0.316-0.584-0.409-0.835s-0.139-0.469-0.139-0.653
							c0-0.645,0.217-1.176,0.651-1.598c0.434-0.42,0.97-0.63,1.608-0.63c0.627,0,1.162,0.209,1.604,0.626
							c0.442,0.418,0.663,0.932,0.663,1.543c0,0.251-0.045,0.506-0.135,0.762s-0.233,0.519-0.43,0.785
							c0.36-0.195,0.636-0.316,0.827-0.363s0.357-0.069,0.5-0.069c0.595,0,1.082,0.223,1.461,0.667
							c0.379,0.445,0.569,0.965,0.569,1.561c0,0.637-0.216,1.183-0.646,1.633c-0.431,0.449-0.963,0.675-1.596,0.675
							c-0.475,0-0.97-0.158-1.485-0.476c-0.515-0.316-0.926-0.802-1.232-1.457c0,1.352,0.327,2.342,0.982,2.971
							c0.655,0.629,1.46,0.941,2.415,0.941v0.276H174.364z"/>
					</g>
					<g>
						<path fill="#969696" d="M222.318,380.84h6.939v0.278c-0.972,0-1.773,0.308-2.406,0.922c-0.633,0.615-0.949,1.612-0.949,2.99
							c0.313-0.655,0.69-1.146,1.139-1.471c0.447-0.323,0.955-0.485,1.521-0.485c0.649,0,1.19,0.221,1.625,0.663
							c0.434,0.44,0.649,0.986,0.649,1.637c0,0.578-0.19,1.1-0.571,1.563c-0.383,0.464-0.859,0.695-1.433,0.695
							c-0.17,0-0.349-0.026-0.537-0.082c-0.188-0.055-0.444-0.172-0.772-0.352c0.18,0.306,0.315,0.584,0.41,0.835
							c0.092,0.251,0.139,0.469,0.139,0.653c0,0.645-0.217,1.177-0.65,1.598c-0.434,0.42-0.971,0.63-1.609,0.63
							c-0.627,0-1.162-0.209-1.604-0.626c-0.441-0.418-0.663-0.933-0.663-1.543c0-0.251,0.045-0.505,0.136-0.762
							c0.09-0.257,0.232-0.519,0.43-0.785c-0.36,0.195-0.637,0.316-0.826,0.363c-0.19,0.047-0.357,0.069-0.499,0.069
							c-0.597,0-1.082-0.223-1.461-0.667c-0.38-0.445-0.569-0.965-0.569-1.56c0-0.639,0.217-1.184,0.646-1.633
							c0.43-0.45,0.964-0.676,1.597-0.676c0.476,0,0.969,0.158,1.483,0.476c0.516,0.316,0.928,0.802,1.232,1.457
							c0-1.352-0.326-2.341-0.982-2.971c-0.653-0.629-1.459-0.941-2.414-0.941V380.84L222.318,380.84z"/>
					</g>
					<polygon fill="none" stroke="#969696" stroke-width="0.5" stroke-miterlimit="10" points="198.573,296.313 165.584,339.696 
						198.573,383.079 231.563,339.696 					"/>
					<polygon fill="none" stroke="#969696" stroke-miterlimit="10" points="198.573,301.16 169.08,339.946 198.573,378.731 
						228.066,339.946 					"/>
				</g>
				<g>
					<path opacity="0.3" enable-background="new    " d="M139,388.304c0,5.355-4.341,9.696-9.696,9.696H73.696
						c-5.355,0-9.696-4.341-9.696-9.696v-90.606c0-5.355,4.341-9.696,9.696-9.696h55.607c5.355,0,9.696,4.341,9.696,9.696
						L139,388.304L139,388.304z"/>
					<path fill="#FFFFFF" d="M136,385.303c0,5.355-4.341,9.697-9.697,9.697H70.697c-5.355,0-9.697-4.342-9.697-9.697v-90.604
						c0-5.355,4.341-9.697,9.697-9.697h55.605c5.355,0,9.697,4.342,9.697,9.697V385.303z"/>
					<g>
						<path fill="#575757" d="M99.926,320.376c1.745,0,3.319,0.249,4.724,0.746c1.404,0.497,2.604,1.188,3.599,2.068
							c0.995,0.88,1.758,1.915,2.29,3.102c0.532,1.187,0.798,2.469,0.798,3.848c0,1.203-0.135,2.265-0.406,3.181
							s-0.663,1.715-1.178,2.395c-0.515,0.681-1.143,1.257-1.885,1.729c-0.742,0.472-1.583,0.863-2.525,1.178
							c2.268,0.716,3.96,1.807,5.078,3.271c1.116,1.467,1.675,3.308,1.675,5.522c0,1.885-0.349,3.551-1.047,4.999
							c-0.698,1.448-1.64,2.666-2.827,3.651s-2.561,1.731-4.123,2.237s-3.215,0.759-4.96,0.759c-1.902,0-3.56-0.219-4.973-0.653
							c-1.414-0.438-2.644-1.082-3.691-1.938c-1.047-0.854-1.937-1.9-2.669-3.141c-0.733-1.238-1.361-2.67-1.885-4.292l2.853-1.178
							c0.488-0.21,0.986-0.314,1.492-0.314c0.454,0,0.859,0.096,1.217,0.288c0.357,0.192,0.632,0.471,0.825,0.837
							c0.314,0.611,0.658,1.214,1.034,1.807c0.375,0.594,0.825,1.121,1.348,1.583c0.523,0.464,1.139,0.839,1.845,1.126
							c0.706,0.288,1.548,0.433,2.526,0.433c1.099,0,2.059-0.179,2.879-0.536s1.505-0.825,2.055-1.4
							c0.55-0.575,0.959-1.218,1.23-1.924c0.271-0.707,0.406-1.418,0.406-2.134c0-0.907-0.096-1.731-0.288-2.473
							c-0.192-0.742-0.594-1.375-1.204-1.898c-0.611-0.522-1.488-0.933-2.63-1.229c-1.143-0.298-2.674-0.445-4.594-0.445v-4.633
							c1.588,0,2.905-0.141,3.952-0.419c1.047-0.278,1.88-0.667,2.5-1.164c0.619-0.498,1.051-1.097,1.295-1.793
							c0.244-0.698,0.366-1.467,0.366-2.305c0-1.797-0.489-3.153-1.465-4.069c-0.978-0.916-2.313-1.374-4.005-1.374
							c-1.536,0-2.81,0.404-3.821,1.216c-1.012,0.811-1.719,1.853-2.12,3.124c-0.209,0.662-0.497,1.138-0.864,1.425
							c-0.366,0.288-0.847,0.433-1.439,0.433c-0.279,0-0.576-0.026-0.89-0.077l-3.402-0.594c0.262-1.814,0.768-3.407,1.518-4.777
							s1.688-2.515,2.813-3.431s2.417-1.604,3.874-2.067C96.685,320.607,98.251,320.376,99.926,320.376z"/>
					</g>
					<g>
						<path fill="#969696" d="M72.042,300.427c-0.109,0-0.202-0.036-0.278-0.112l-3.939-3.801c-0.042-0.033-0.1-0.089-0.173-0.164
							c-0.074-0.076-0.19-0.214-0.351-0.414c-0.16-0.199-0.303-0.403-0.429-0.614c-0.126-0.21-0.239-0.466-0.337-0.765
							c-0.099-0.299-0.148-0.589-0.148-0.871c0-0.926,0.267-1.648,0.802-2.172c0.534-0.521,1.273-0.781,2.215-0.781
							c0.261,0,0.527,0.045,0.799,0.136s0.524,0.213,0.757,0.366c0.233,0.152,0.435,0.298,0.603,0.433s0.328,0.276,0.479,0.429
							c0.151-0.15,0.312-0.294,0.48-0.429s0.369-0.278,0.603-0.433c0.234-0.153,0.486-0.275,0.757-0.366s0.538-0.136,0.799-0.136
							c0.942,0,1.681,0.261,2.215,0.781c0.535,0.522,0.802,1.246,0.802,2.172c0,0.931-0.482,1.877-1.445,2.842l-3.933,3.787
							C72.244,300.391,72.151,300.427,72.042,300.427z"/>
					</g>
					<g>
						<path fill="#969696" d="M125.641,380.04c0.109,0,0.202,0.037,0.278,0.113l3.939,3.8c0.042,0.034,0.1,0.089,0.173,0.164
							c0.074,0.076,0.19,0.214,0.351,0.414c0.16,0.199,0.303,0.403,0.429,0.615c0.126,0.21,0.239,0.465,0.337,0.764
							c0.099,0.299,0.148,0.589,0.148,0.871c0,0.926-0.267,1.648-0.802,2.172c-0.534,0.521-1.273,0.782-2.215,0.782
							c-0.261,0-0.527-0.045-0.799-0.137c-0.272-0.091-0.524-0.213-0.757-0.365c-0.233-0.153-0.435-0.299-0.603-0.434
							s-0.328-0.276-0.479-0.429c-0.151,0.151-0.312,0.294-0.48,0.429s-0.369,0.279-0.603,0.434
							c-0.234,0.152-0.486,0.274-0.757,0.365c-0.271,0.092-0.538,0.137-0.799,0.137c-0.942,0-1.681-0.262-2.215-0.782
							c-0.535-0.522-0.802-1.246-0.802-2.172c0-0.931,0.482-1.877,1.445-2.841l3.933-3.787
							C125.439,380.077,125.532,380.04,125.641,380.04z"/>
					</g>
					<polygon fill="none" stroke="#969696" stroke-width="0.5" stroke-miterlimit="10" points="98.573,296.313 65.584,339.696 
						98.573,383.079 131.563,339.696 					"/>
					<polygon fill="none" stroke="#969696" stroke-miterlimit="10" points="98.573,301.16 69.08,339.946 98.573,378.731 
						128.066,339.946 					"/>
				</g>
			</g>
			<g opacity="0.7">
				<g>
					<defs>
						<rect id="SVGID_11_" y="-0.048" width="400" height="400.048"/>
					</defs>
					<clipPath id="SVGID_12_">
						<use xlink:href="#SVGID_11_"  overflow="visible"/>
					</clipPath>
					
						<radialGradient id="SVGID_13_" cx="-896.501" cy="426.7461" r="209.1665" gradientTransform="matrix(0.9494 0 0 0.9631 1051.1387 -210.9998)" gradientUnits="userSpaceOnUse">
						<stop  offset="0" style="stop-color:#000000;stop-opacity:0"/>
						<stop  offset="1" style="stop-color:#1C1C1C"/>
					</radialGradient>
					
						<rect opacity="0.7" clip-path="url(#SVGID_12_)" fill="url(#SVGID_13_)" enable-background="new    " width="400" height="400"/>
				</g>
			</g>
			<g>
				<g opacity="0.5">
					<path fill="none" stroke="#4C4C4C" stroke-width="21" stroke-linejoin="round" d="M147.265,220.967
						c-0.145,0.289-0.313,0.494-0.503,0.612c-0.191,0.118-0.418,0.178-0.682,0.178c-0.264,0-0.56-0.103-0.889-0.306
						c-0.329-0.205-0.718-0.432-1.165-0.682c-0.447-0.25-0.971-0.478-1.569-0.683c-0.6-0.203-1.307-0.306-2.123-0.306
						c-0.737,0-1.379,0.089-1.925,0.267c-0.547,0.179-1.007,0.425-1.383,0.74c-0.375,0.315-0.654,0.694-0.839,1.135
						s-0.276,0.927-0.276,1.452c0,0.671,0.188,1.23,0.563,1.679s0.872,0.828,1.491,1.146c0.618,0.316,1.323,0.6,2.112,0.85
						c0.79,0.25,1.597,0.518,2.419,0.799c0.823,0.283,1.629,0.613,2.419,0.988s1.494,0.85,2.113,1.422
						c0.618,0.572,1.115,1.273,1.49,2.104c0.376,0.828,0.563,1.836,0.563,3.021c0,1.291-0.221,2.498-0.662,3.624
						s-1.086,2.105-1.935,2.942c-0.85,0.836-1.886,1.493-3.11,1.975s-2.626,0.722-4.206,0.722c-0.908,0-1.804-0.091-2.686-0.269
						c-0.882-0.179-1.728-0.431-2.537-0.76c-0.81-0.328-1.566-0.724-2.271-1.185c-0.705-0.462-1.333-0.975-1.886-1.541l1.54-2.547
						c0.145-0.185,0.319-0.34,0.523-0.465s0.431-0.188,0.681-0.188c0.329,0,0.685,0.135,1.066,0.403
						c0.382,0.271,0.833,0.57,1.353,0.898c0.521,0.33,1.133,0.629,1.837,0.897c0.704,0.271,1.55,0.405,2.537,0.405
						c1.514,0,2.686-0.358,3.515-1.076s1.244-1.747,1.244-3.09c0-0.751-0.188-1.362-0.563-1.837s-0.872-0.871-1.491-1.193
						c-0.619-0.322-1.323-0.596-2.112-0.82c-0.79-0.223-1.594-0.467-2.409-0.729c-0.816-0.264-1.619-0.579-2.409-0.948
						c-0.79-0.367-1.494-0.849-2.112-1.44c-0.619-0.593-1.116-1.333-1.491-2.222c-0.375-0.89-0.563-1.984-0.563-3.287
						c0-1.041,0.207-2.055,0.622-3.041c0.414-0.987,1.02-1.863,1.816-2.627s1.773-1.375,2.932-1.836
						c1.159-0.461,2.481-0.691,3.97-0.691c1.685,0,3.238,0.264,4.659,0.791c1.422,0.525,2.633,1.264,3.634,2.211L147.265,220.967z"
						/>
					<path fill="none" stroke="#4C4C4C" stroke-width="21" stroke-linejoin="round" d="M157.336,224.066v12.875
						c0,1.236,0.286,2.194,0.858,2.873c0.573,0.678,1.432,1.017,2.577,1.017c0.842,0,1.632-0.188,2.369-0.563
						c0.737-0.375,1.435-0.892,2.094-1.55v-14.651h4.877v20.26h-2.981c-0.632,0-1.047-0.297-1.244-0.889l-0.336-1.619
						c-0.421,0.422-0.855,0.807-1.303,1.154c-0.448,0.35-0.926,0.646-1.432,0.889c-0.507,0.244-1.054,0.436-1.64,0.572
						s-1.214,0.209-1.886,0.209c-1.105,0-2.083-0.188-2.932-0.563c-0.85-0.376-1.563-0.906-2.143-1.591
						c-0.579-0.685-1.017-1.497-1.313-2.438c-0.296-0.94-0.444-1.977-0.444-3.108v-12.875H157.336z"/>
					<path fill="none" stroke="#4C4C4C" stroke-width="21" stroke-linejoin="round" d="M175.325,244.326v-20.26h2.981
						c0.632,0,1.047,0.297,1.244,0.889l0.316,1.501c0.355-0.396,0.727-0.757,1.115-1.086s0.803-0.612,1.244-0.849
						c0.44-0.237,0.915-0.426,1.422-0.563c0.506-0.14,1.063-0.208,1.668-0.208c1.277,0,2.327,0.346,3.149,1.036
						c0.823,0.69,1.438,1.608,1.847,2.755c0.315-0.671,0.711-1.247,1.185-1.729c0.474-0.48,0.994-0.871,1.56-1.174
						c0.566-0.304,1.169-0.526,1.807-0.672c0.639-0.146,1.28-0.218,1.926-0.218c1.118,0,2.112,0.171,2.981,0.513
						c0.869,0.344,1.599,0.844,2.193,1.502c0.592,0.658,1.043,1.461,1.352,2.408c0.31,0.948,0.466,2.034,0.466,3.258v12.896h-4.878
						V231.43c0-1.289-0.283-2.26-0.849-2.912c-0.566-0.65-1.396-0.978-2.488-0.978c-0.5,0-0.964,0.086-1.392,0.257
						c-0.428,0.172-0.804,0.418-1.126,0.74c-0.322,0.322-0.576,0.729-0.76,1.215c-0.185,0.486-0.276,1.047-0.276,1.678v12.896
						h-4.896V231.43c0-1.354-0.273-2.342-0.819-2.961s-1.353-0.929-2.419-0.929c-0.697,0-1.353,0.175-1.965,0.522
						c-0.612,0.349-1.182,0.826-1.708,1.433v14.829h-4.878V244.326z"/>
					<path fill="none" stroke="#4C4C4C" stroke-width="21" stroke-linejoin="round" d="M224.451,244.326h-2.193
						c-0.461,0-0.822-0.069-1.086-0.207c-0.264-0.139-0.461-0.418-0.592-0.84l-0.434-1.441c-0.515,0.461-1.019,0.866-1.513,1.215
						c-0.493,0.35-1.004,0.643-1.528,0.879c-0.527,0.236-1.086,0.414-1.681,0.533c-0.592,0.118-1.25,0.178-1.975,0.178
						c-0.854,0-1.646-0.115-2.369-0.348c-0.726-0.23-1.347-0.577-1.865-1.039c-0.521-0.463-0.926-1.037-1.215-1.725
						c-0.289-0.687-0.435-1.485-0.435-2.396c0-0.766,0.199-1.521,0.603-2.27c0.401-0.745,1.07-1.42,2.004-2.021
						c0.937-0.602,2.181-1.1,3.732-1.495c1.552-0.396,3.481-0.596,5.784-0.596v-1.193c0-1.365-0.284-2.377-0.858-3.033
						c-0.572-0.656-1.404-0.985-2.498-0.985c-0.789,0-1.447,0.093-1.976,0.276c-0.524,0.185-0.981,0.393-1.371,0.621
						c-0.389,0.23-0.747,0.438-1.075,0.623c-0.33,0.185-0.691,0.275-1.086,0.275c-0.33,0-0.613-0.085-0.851-0.257
						c-0.235-0.17-0.428-0.381-0.572-0.631l-0.889-1.562c2.33-2.133,5.141-3.199,8.432-3.199c1.185,0,2.24,0.195,3.169,0.584
						c0.93,0.388,1.715,0.928,2.36,1.619c0.646,0.689,1.135,1.517,1.471,2.478c0.337,0.961,0.505,2.015,0.505,3.159L224.451,244.326
						L224.451,244.326z M214.973,241.285c0.5,0,0.961-0.045,1.383-0.137c0.42-0.09,0.818-0.228,1.193-0.407
						c0.375-0.183,0.738-0.405,1.086-0.671c0.35-0.267,0.701-0.58,1.057-0.942v-3.392c-1.422,0-2.608,0.09-3.563,0.27
						c-0.953,0.178-1.721,0.407-2.301,0.686c-0.578,0.278-0.99,0.604-1.231,0.976c-0.244,0.371-0.365,0.774-0.365,1.213
						c0,0.861,0.252,1.479,0.76,1.851C213.494,241.1,214.156,241.285,214.973,241.285z"/>
					<path fill="none" stroke="#4C4C4C" stroke-width="21" stroke-linejoin="round" d="M229.25,244.326v-20.26h2.98
						c0.633,0,1.047,0.297,1.244,0.889l0.336,1.6c0.407-0.421,0.84-0.803,1.293-1.145c0.455-0.344,0.936-0.639,1.44-0.889
						c0.508-0.25,1.051-0.441,1.629-0.573c0.58-0.132,1.211-0.197,1.896-0.197c1.105,0,2.086,0.188,2.941,0.563s1.57,0.9,2.143,1.58
						c0.574,0.679,1.009,1.486,1.306,2.429c0.295,0.94,0.442,1.979,0.442,3.108v12.896h-4.877v-12.896
						c0-1.235-0.287-2.193-0.858-2.873c-0.572-0.678-1.433-1.017-2.576-1.017c-0.844,0-1.633,0.19-2.369,0.573
						c-0.737,0.381-1.436,0.9-2.094,1.56v14.651H229.25z"/>
					<path fill="none" stroke="#4C4C4C" stroke-width="21" stroke-linejoin="round" d="M265.957,244.326
						c-0.633,0-1.047-0.297-1.244-0.889l-0.396-1.955c-0.42,0.475-0.86,0.901-1.321,1.283c-0.461,0.383-0.957,0.711-1.49,0.987
						c-0.532,0.274-1.104,0.49-1.719,0.642c-0.611,0.151-1.272,0.229-1.984,0.229c-1.104,0-2.118-0.23-3.04-0.691
						c-0.923-0.461-1.716-1.129-2.38-2.004c-0.664-0.876-1.178-1.959-1.541-3.248c-0.36-1.291-0.543-2.766-0.543-4.424
						c0-1.501,0.205-2.896,0.613-4.186c0.407-1.291,0.994-2.41,1.758-3.357c0.763-0.947,1.679-1.688,2.744-2.222
						c1.065-0.532,2.264-0.8,3.594-0.8c1.132,0,2.101,0.182,2.902,0.543c0.803,0.363,1.521,0.846,2.151,1.451v-10.701h4.877v29.342
						H265.957z M259.459,240.752c1.014,0,1.877-0.21,2.588-0.632c0.711-0.421,1.383-1.021,2.014-1.797v-9.083
						c-0.553-0.672-1.153-1.146-1.807-1.422c-0.652-0.276-1.354-0.414-2.104-0.414c-0.736,0-1.404,0.138-2.004,0.414
						c-0.601,0.276-1.105,0.695-1.521,1.254c-0.416,0.561-0.733,1.271-0.959,2.133c-0.224,0.861-0.336,1.879-0.336,3.051
						c0,1.186,0.096,2.188,0.287,3.012c0.19,0.822,0.465,1.494,0.819,2.015c0.355,0.52,0.789,0.895,1.304,1.125
						C258.255,240.637,258.828,240.752,259.459,240.752z"/>
					<path fill="none" stroke="#4C4C4C" stroke-width="21" stroke-linejoin="round" d="M282.859,223.751
						c1.514,0,2.887,0.243,4.117,0.729c1.229,0.487,2.278,1.18,3.147,2.074c0.869,0.896,1.541,1.987,2.017,3.276
						c0.473,1.291,0.709,2.731,0.709,4.325c0,1.605-0.236,3.054-0.709,4.344c-0.476,1.29-1.146,2.391-2.017,3.298
						c-0.87,0.908-1.918,1.604-3.147,2.093c-1.23,0.488-2.604,0.731-4.117,0.731c-1.514,0-2.892-0.244-4.127-0.731
						c-1.238-0.486-2.295-1.185-3.17-2.093c-0.875-0.907-1.554-2.008-2.033-3.298c-0.48-1.29-0.721-2.736-0.721-4.344
						c0-1.594,0.239-3.034,0.721-4.325c0.479-1.289,1.158-2.382,2.033-3.276c0.875-0.896,1.932-1.587,3.17-2.074
						C279.969,223.994,281.346,223.751,282.859,223.751z M282.859,240.871c1.686,0,2.932-0.566,3.742-1.699
						c0.809-1.131,1.213-2.79,1.213-4.977c0-2.185-0.404-3.851-1.213-4.994c-0.812-1.146-2.058-1.719-3.742-1.719
						c-1.711,0-2.976,0.576-3.791,1.729c-0.816,1.153-1.226,2.813-1.226,4.985s0.408,3.827,1.226,4.966
						C279.885,240.301,281.148,240.871,282.859,240.871z"/>
					<path fill="none" stroke="#4C4C4C" stroke-width="21" stroke-linejoin="round" d="M154.686,268.791
						c-0.276,0.335-0.542,0.602-0.797,0.797c-0.256,0.197-0.619,0.295-1.092,0.295c-0.452,0-0.86-0.107-1.224-0.324
						c-0.364-0.216-0.772-0.457-1.225-0.723c-0.453-0.266-0.983-0.506-1.593-0.723c-0.61-0.217-1.367-0.325-2.271-0.325
						c-1.121,0-2.09,0.207-2.906,0.62c-0.816,0.412-1.489,1.003-2.021,1.77c-0.531,0.768-0.925,1.707-1.18,2.817
						c-0.256,1.11-0.384,2.364-0.384,3.762c0,2.931,0.565,5.183,1.696,6.755c1.131,1.574,2.689,2.36,4.676,2.36
						c1.062,0,1.902-0.134,2.522-0.397c0.619-0.267,1.146-0.562,1.578-0.886c0.432-0.324,0.83-0.624,1.194-0.899
						c0.364-0.274,0.821-0.412,1.372-0.412c0.728,0,1.278,0.265,1.652,0.795l2.654,3.274c-0.943,1.082-1.938,1.962-2.979,2.642
						c-1.041,0.679-2.109,1.209-3.2,1.593c-1.092,0.384-2.188,0.649-3.29,0.797c-1.102,0.147-2.173,0.221-3.215,0.221
						c-1.869,0-3.653-0.354-5.354-1.062c-1.701-0.708-3.196-1.735-4.484-3.083c-1.288-1.347-2.311-3.005-3.067-4.972
						c-0.758-1.966-1.136-4.207-1.136-6.726c0-2.203,0.329-4.263,0.988-6.181c0.658-1.918,1.632-3.579,2.92-4.985
						c1.288-1.405,2.881-2.512,4.779-3.317c1.897-0.808,4.096-1.211,6.594-1.211c2.398,0,4.503,0.385,6.313,1.15
						s3.441,1.889,4.897,3.363L154.686,268.791z"/>
					<path fill="none" stroke="#4C4C4C" stroke-width="21" stroke-linejoin="round" d="M182.416,292.126
						c-0.866,0-1.52-0.118-1.962-0.354c-0.442-0.235-0.812-0.728-1.106-1.476l-0.648-1.682c-0.768,0.648-1.505,1.22-2.213,1.711
						s-1.44,0.909-2.197,1.254c-0.758,0.345-1.563,0.6-2.419,0.769c-0.856,0.165-1.805,0.25-2.848,0.25
						c-1.396,0-2.665-0.184-3.805-0.548c-1.142-0.364-2.109-0.903-2.906-1.612c-0.796-0.711-1.411-1.595-1.844-2.649
						c-0.433-1.056-0.648-2.272-0.648-3.654c0-1.085,0.274-2.2,0.825-3.345c0.551-1.145,1.505-2.186,2.862-3.122
						c1.356-0.938,3.186-1.722,5.486-2.353c2.301-0.633,5.202-0.947,8.703-0.947v-1.311c0-1.807-0.369-3.111-1.106-3.916
						c-0.737-0.804-1.785-1.205-3.142-1.205c-1.082,0-1.967,0.117-2.655,0.354s-1.303,0.501-1.844,0.797
						c-0.541,0.295-1.067,0.561-1.578,0.796c-0.512,0.236-1.121,0.354-1.829,0.354c-0.63,0-1.165-0.152-1.607-0.459
						c-0.443-0.305-0.792-0.683-1.048-1.135l-1.651-2.861c1.848-1.633,3.898-2.848,6.15-3.643c2.252-0.798,4.665-1.195,7.242-1.195
						c1.849,0,3.515,0.3,5,0.898c1.485,0.602,2.744,1.438,3.776,2.508c1.032,1.072,1.824,2.346,2.375,3.82
						c0.55,1.477,0.825,3.088,0.825,4.838v19.116h-4.188V292.126z M171.914,286.551c1.18,0,2.212-0.207,3.098-0.619
						c0.885-0.414,1.779-1.082,2.685-2.007v-4.188c-1.829,0-3.334,0.119-4.514,0.356c-1.181,0.238-2.114,0.536-2.803,0.894
						c-0.689,0.358-1.165,0.765-1.431,1.221c-0.266,0.456-0.398,0.952-0.398,1.486c0,1.053,0.285,1.791,0.855,2.219
						C169.976,286.339,170.812,286.551,171.914,286.551z"/>
					<path fill="none" stroke="#4C4C4C" stroke-width="21" stroke-linejoin="round" d="M193.093,292.126v-30.592h5.428
						c0.452,0,0.831,0.04,1.136,0.118c0.305,0.078,0.561,0.201,0.768,0.369c0.206,0.166,0.363,0.389,0.472,0.662
						c0.108,0.276,0.203,0.61,0.28,1.004l0.503,2.861c1.12-1.73,2.379-3.098,3.774-4.101s2.92-1.505,4.571-1.505
						c1.396,0,2.519,0.334,3.363,1.002l-1.18,6.728c-0.08,0.413-0.236,0.703-0.473,0.87c-0.237,0.167-0.551,0.251-0.943,0.251
						c-0.336,0-0.729-0.045-1.182-0.133c-0.451-0.089-1.021-0.134-1.711-0.134c-2.398,0-4.285,1.279-5.662,3.836v18.762
						L193.093,292.126L193.093,292.126z"/>
					<path fill="none" stroke="#4C4C4C" stroke-width="21" stroke-linejoin="round" d="M228.197,292.598
						c-1.455,0-2.738-0.211-3.85-0.634c-1.113-0.423-2.046-1.022-2.804-1.8c-0.758-0.775-1.332-1.716-1.726-2.816
						c-0.395-1.102-0.592-2.33-0.592-3.688v-15.812h-2.596c-0.471,0-0.875-0.152-1.209-0.457c-0.334-0.306-0.502-0.754-0.502-1.344
						v-3.568l4.867-0.944l1.801-7.463c0.236-0.944,0.904-1.416,2.006-1.416h4.779v8.938h7.434v6.255h-7.434v15.191
						c0,0.708,0.172,1.293,0.516,1.755c0.344,0.463,0.84,0.692,1.49,0.692c0.334,0,0.613-0.033,0.84-0.104
						c0.228-0.068,0.424-0.146,0.59-0.234c0.168-0.09,0.324-0.168,0.474-0.236c0.147-0.068,0.319-0.104,0.516-0.104
						c0.275,0,0.496,0.063,0.664,0.191s0.34,0.329,0.517,0.604l2.772,4.338c-1.18,0.885-2.508,1.549-3.981,1.99
						C231.295,292.374,229.771,292.598,228.197,292.598z"/>
					<path fill="none" stroke="#4C4C4C" stroke-width="21" stroke-linejoin="round" d="M262.182,292.126
						c-0.867,0-1.52-0.118-1.963-0.354c-0.441-0.235-0.811-0.728-1.104-1.476l-0.648-1.682c-0.768,0.648-1.506,1.22-2.213,1.711
						c-0.709,0.491-1.44,0.909-2.196,1.254c-0.759,0.345-1.564,0.6-2.421,0.769c-0.854,0.165-1.805,0.25-2.848,0.25
						c-1.396,0-2.664-0.184-3.806-0.548c-1.141-0.364-2.108-0.903-2.905-1.612c-0.795-0.711-1.41-1.595-1.845-2.649
						c-0.432-1.056-0.647-2.272-0.647-3.654c0-1.085,0.274-2.2,0.826-3.345c0.551-1.145,1.504-2.186,2.86-3.122
						c1.357-0.937,3.187-1.722,5.486-2.353c2.301-0.633,5.203-0.947,8.703-0.947v-1.311c0-1.807-0.369-3.111-1.105-3.916
						c-0.737-0.804-1.785-1.205-3.143-1.205c-1.082,0-1.967,0.117-2.654,0.354c-0.688,0.236-1.303,0.501-1.844,0.797
						c-0.541,0.295-1.068,0.561-1.578,0.796c-0.512,0.236-1.121,0.354-1.83,0.354c-0.629,0-1.164-0.152-1.606-0.459
						c-0.443-0.305-0.791-0.683-1.048-1.135l-1.652-2.86c1.848-1.632,3.898-2.847,6.15-3.644s4.666-1.195,7.242-1.195
						c1.85,0,3.516,0.301,5,0.899c1.485,0.601,2.743,1.438,3.776,2.509c1.031,1.071,1.824,2.346,2.375,3.819
						c0.549,1.476,0.824,3.088,0.824,4.838v19.116L262.182,292.126L262.182,292.126z M251.68,286.551
						c1.18,0,2.211-0.207,3.098-0.619c0.886-0.414,1.779-1.082,2.685-2.007v-4.188c-1.828,0-3.334,0.119-4.514,0.356
						c-1.181,0.238-2.113,0.536-2.804,0.894c-0.688,0.357-1.164,0.765-1.43,1.221s-0.398,0.952-0.398,1.486
						c0,1.053,0.285,1.791,0.855,2.219C249.742,286.339,250.578,286.551,251.68,286.551z"/>
					<path fill="none" stroke="#4C4C4C" stroke-width="21" stroke-linejoin="round" d="M291.563,268.23
						c-0.235,0.373-0.487,0.64-0.752,0.797c-0.266,0.158-0.604,0.235-1.02,0.235c-0.432,0-0.865-0.094-1.297-0.28
						c-0.434-0.187-0.9-0.389-1.402-0.604c-0.5-0.217-1.066-0.418-1.695-0.605c-0.629-0.187-1.348-0.279-2.153-0.279
						c-1.16,0-2.05,0.222-2.67,0.664c-0.619,0.441-0.929,1.058-0.929,1.844c0,0.57,0.201,1.043,0.604,1.416
						c0.403,0.374,0.938,0.703,1.606,0.988c0.67,0.285,1.427,0.556,2.271,0.812c0.845,0.257,1.711,0.541,2.598,0.855
						c0.885,0.313,1.75,0.684,2.596,1.105c0.847,0.423,1.603,0.943,2.271,1.563c0.668,0.619,1.203,1.371,1.607,2.256
						c0.402,0.886,0.604,1.947,0.604,3.188c0,1.515-0.276,2.91-0.825,4.188c-0.552,1.279-1.373,2.38-2.466,3.305
						c-1.09,0.926-2.438,1.643-4.04,2.153c-1.604,0.511-3.447,0.767-5.531,0.767c-1.043,0-2.084-0.099-3.127-0.295
						c-1.043-0.195-2.052-0.462-3.023-0.796c-0.973-0.335-1.873-0.731-2.699-1.194s-1.533-0.959-2.123-1.49l2.123-3.362
						c0.256-0.394,0.561-0.703,0.914-0.931c0.354-0.226,0.816-0.338,1.387-0.338c0.531,0,1.008,0.117,1.433,0.354
						c0.422,0.234,0.879,0.491,1.37,0.768c0.492,0.275,1.066,0.53,1.728,0.767c0.658,0.235,1.488,0.354,2.492,0.354
						c0.707,0,1.307-0.074,1.799-0.223s0.886-0.35,1.181-0.604c0.295-0.256,0.512-0.541,0.649-0.855
						c0.137-0.314,0.205-0.639,0.205-0.975c0-0.608-0.205-1.109-0.619-1.504c-0.412-0.394-0.953-0.731-1.621-1.019
						c-0.67-0.284-1.432-0.55-2.287-0.796c-0.854-0.246-1.727-0.525-2.61-0.841c-0.885-0.315-1.754-0.693-2.609-1.136
						c-0.855-0.443-1.619-1.004-2.287-1.683s-1.209-1.509-1.623-2.493c-0.412-0.981-0.619-2.173-0.619-3.568
						c0-1.299,0.25-2.531,0.752-3.702c0.502-1.17,1.254-2.197,2.258-3.083c1.002-0.885,2.261-1.588,3.775-2.109
						c1.514-0.521,3.283-0.781,5.311-0.781c1.103,0,2.168,0.1,3.199,0.295c1.033,0.197,2.002,0.473,2.906,0.826
						c0.904,0.354,1.73,0.771,2.479,1.254c0.748,0.481,1.406,1.008,1.978,1.578L291.563,268.23z"/>
				</g>
				<g>
					<path fill="none" stroke="#FFFFFF" stroke-width="21" stroke-linejoin="round" d="M137.265,210.967
						c-0.145,0.289-0.313,0.494-0.503,0.612c-0.191,0.118-0.418,0.178-0.682,0.178c-0.264,0-0.56-0.103-0.889-0.306
						c-0.329-0.205-0.718-0.432-1.165-0.682c-0.447-0.25-0.971-0.478-1.569-0.683c-0.6-0.203-1.307-0.306-2.123-0.306
						c-0.737,0-1.379,0.089-1.925,0.267c-0.547,0.179-1.007,0.425-1.383,0.74c-0.375,0.315-0.654,0.694-0.839,1.135
						s-0.276,0.927-0.276,1.452c0,0.671,0.188,1.23,0.563,1.679s0.872,0.828,1.491,1.146c0.618,0.316,1.323,0.6,2.112,0.85
						c0.79,0.25,1.597,0.518,2.419,0.799c0.823,0.283,1.629,0.613,2.419,0.988s1.494,0.85,2.113,1.422
						c0.618,0.572,1.115,1.273,1.49,2.104c0.376,0.828,0.563,1.836,0.563,3.021c0,1.291-0.221,2.498-0.662,3.624
						s-1.086,2.105-1.935,2.942c-0.85,0.836-1.886,1.493-3.11,1.975s-2.626,0.722-4.206,0.722c-0.908,0-1.804-0.091-2.686-0.269
						c-0.882-0.179-1.728-0.431-2.537-0.76c-0.81-0.328-1.566-0.724-2.271-1.185c-0.705-0.462-1.333-0.975-1.886-1.541l1.54-2.547
						c0.145-0.185,0.319-0.34,0.523-0.465s0.431-0.188,0.681-0.188c0.329,0,0.685,0.135,1.066,0.403
						c0.382,0.271,0.833,0.57,1.353,0.898c0.521,0.33,1.133,0.629,1.837,0.897c0.704,0.271,1.55,0.405,2.537,0.405
						c1.514,0,2.686-0.358,3.515-1.076s1.244-1.747,1.244-3.09c0-0.751-0.188-1.362-0.563-1.837s-0.872-0.871-1.491-1.193
						c-0.619-0.322-1.323-0.596-2.112-0.82c-0.79-0.223-1.594-0.467-2.409-0.729c-0.816-0.264-1.619-0.579-2.409-0.948
						c-0.79-0.367-1.494-0.849-2.112-1.44c-0.619-0.593-1.116-1.333-1.491-2.222c-0.375-0.89-0.563-1.984-0.563-3.287
						c0-1.041,0.207-2.055,0.622-3.041c0.414-0.987,1.02-1.863,1.816-2.627s1.773-1.375,2.932-1.836
						c1.159-0.461,2.481-0.691,3.97-0.691c1.685,0,3.238,0.264,4.659,0.791c1.422,0.525,2.633,1.264,3.634,2.211L137.265,210.967z"
						/>
					<path fill="none" stroke="#FFFFFF" stroke-width="21" stroke-linejoin="round" d="M147.336,214.066v12.875
						c0,1.236,0.286,2.194,0.858,2.873c0.573,0.678,1.432,1.017,2.577,1.017c0.842,0,1.632-0.188,2.369-0.563
						c0.737-0.375,1.435-0.892,2.094-1.55v-14.651h4.877v20.26h-2.981c-0.632,0-1.047-0.297-1.244-0.889l-0.336-1.619
						c-0.421,0.422-0.855,0.807-1.303,1.154c-0.448,0.35-0.926,0.646-1.432,0.889c-0.507,0.244-1.054,0.436-1.64,0.572
						s-1.214,0.209-1.886,0.209c-1.105,0-2.083-0.188-2.932-0.563c-0.85-0.376-1.563-0.906-2.143-1.591
						c-0.579-0.685-1.017-1.497-1.313-2.438c-0.296-0.94-0.444-1.977-0.444-3.108v-12.875H147.336z"/>
					<path fill="none" stroke="#FFFFFF" stroke-width="21" stroke-linejoin="round" d="M165.325,234.326v-20.26h2.981
						c0.632,0,1.047,0.297,1.244,0.889l0.316,1.501c0.355-0.396,0.727-0.757,1.115-1.086s0.803-0.612,1.244-0.849
						c0.44-0.237,0.915-0.426,1.422-0.563c0.506-0.14,1.063-0.208,1.668-0.208c1.277,0,2.327,0.346,3.149,1.036
						c0.823,0.69,1.438,1.608,1.847,2.755c0.315-0.671,0.711-1.247,1.185-1.729c0.474-0.48,0.994-0.871,1.56-1.174
						c0.566-0.304,1.169-0.526,1.807-0.672c0.639-0.146,1.28-0.218,1.926-0.218c1.118,0,2.112,0.171,2.981,0.513
						c0.869,0.344,1.6,0.844,2.192,1.502c0.592,0.658,1.043,1.461,1.353,2.408c0.309,0.948,0.464,2.034,0.464,3.258v12.896h-4.878
						V221.43c0-1.289-0.283-2.26-0.849-2.912c-0.566-0.65-1.396-0.978-2.488-0.978c-0.5,0-0.964,0.086-1.392,0.257
						c-0.428,0.172-0.804,0.418-1.126,0.74c-0.322,0.322-0.576,0.729-0.76,1.215c-0.185,0.486-0.276,1.047-0.276,1.678v12.896
						h-4.897V221.43c0-1.354-0.273-2.342-0.819-2.961s-1.353-0.929-2.419-0.929c-0.697,0-1.353,0.175-1.965,0.522
						c-0.612,0.349-1.182,0.826-1.708,1.433v14.829h-4.877V234.326z"/>
					<path fill="none" stroke="#FFFFFF" stroke-width="21" stroke-linejoin="round" d="M214.451,234.326h-2.193
						c-0.461,0-0.822-0.069-1.086-0.207c-0.264-0.139-0.461-0.418-0.592-0.84l-0.434-1.441c-0.515,0.461-1.019,0.866-1.513,1.215
						c-0.493,0.35-1.004,0.643-1.528,0.879c-0.527,0.236-1.086,0.414-1.681,0.533c-0.592,0.118-1.25,0.178-1.975,0.178
						c-0.854,0-1.646-0.115-2.369-0.348c-0.725-0.23-1.346-0.577-1.865-1.039c-0.521-0.463-0.925-1.037-1.214-1.725
						c-0.289-0.687-0.434-1.485-0.434-2.396c0-0.766,0.199-1.521,0.602-2.27c0.402-0.745,1.07-1.42,2.003-2.021
						c0.937-0.602,2.181-1.1,3.732-1.495c1.552-0.396,3.481-0.596,5.784-0.596v-1.193c0-1.365-0.284-2.377-0.858-3.033
						c-0.572-0.656-1.404-0.985-2.498-0.985c-0.789,0-1.447,0.093-1.976,0.276c-0.524,0.185-0.981,0.393-1.371,0.621
						c-0.389,0.23-0.747,0.438-1.075,0.623c-0.33,0.185-0.691,0.275-1.086,0.275c-0.33,0-0.613-0.085-0.85-0.257
						c-0.236-0.17-0.428-0.381-0.572-0.631l-0.888-1.562c2.33-2.133,5.139-3.199,8.43-3.199c1.185,0,2.24,0.195,3.169,0.584
						c0.93,0.388,1.715,0.928,2.36,1.619c0.646,0.689,1.135,1.517,1.471,2.478c0.337,0.961,0.505,2.015,0.505,3.159L214.451,234.326
						L214.451,234.326z M204.973,231.285c0.5,0,0.961-0.045,1.383-0.137c0.42-0.09,0.818-0.228,1.193-0.407
						c0.375-0.183,0.738-0.405,1.086-0.671c0.35-0.267,0.701-0.58,1.057-0.942v-3.392c-1.422,0-2.608,0.09-3.563,0.27
						c-0.953,0.178-1.721,0.407-2.301,0.686c-0.578,0.278-0.99,0.604-1.231,0.976c-0.244,0.371-0.365,0.774-0.365,1.213
						c0,0.861,0.252,1.479,0.76,1.851C203.494,231.1,204.156,231.285,204.973,231.285z"/>
					<path fill="none" stroke="#FFFFFF" stroke-width="21" stroke-linejoin="round" d="M219.25,234.326v-20.26h2.98
						c0.633,0,1.047,0.297,1.244,0.889l0.336,1.6c0.407-0.421,0.84-0.803,1.293-1.145c0.455-0.344,0.936-0.639,1.44-0.889
						c0.508-0.25,1.051-0.441,1.629-0.573c0.58-0.132,1.211-0.197,1.896-0.197c1.105,0,2.086,0.188,2.941,0.563s1.57,0.9,2.143,1.58
						c0.574,0.679,1.009,1.486,1.306,2.429c0.295,0.94,0.442,1.979,0.442,3.108v12.896h-4.877v-12.896
						c0-1.235-0.287-2.193-0.858-2.873c-0.572-0.678-1.433-1.017-2.576-1.017c-0.844,0-1.633,0.19-2.369,0.573
						c-0.737,0.381-1.436,0.9-2.094,1.56v14.651H219.25z"/>
					<path fill="none" stroke="#FFFFFF" stroke-width="21" stroke-linejoin="round" d="M255.957,234.326
						c-0.633,0-1.047-0.297-1.244-0.889l-0.396-1.955c-0.42,0.475-0.86,0.901-1.321,1.283c-0.461,0.383-0.957,0.711-1.49,0.987
						c-0.532,0.274-1.104,0.49-1.719,0.642c-0.611,0.151-1.272,0.229-1.984,0.229c-1.104,0-2.118-0.23-3.041-0.691
						c-0.922-0.461-1.715-1.129-2.379-2.004c-0.664-0.876-1.178-1.959-1.541-3.248c-0.36-1.291-0.543-2.766-0.543-4.424
						c0-1.501,0.205-2.896,0.613-4.186c0.407-1.291,0.994-2.41,1.758-3.357c0.763-0.947,1.679-1.688,2.744-2.222
						c1.065-0.532,2.264-0.8,3.594-0.8c1.132,0,2.101,0.182,2.902,0.543c0.803,0.363,1.521,0.846,2.151,1.451v-10.701h4.877v29.342
						H255.957z M249.459,230.752c1.014,0,1.877-0.21,2.588-0.632c0.711-0.421,1.383-1.021,2.014-1.797v-9.083
						c-0.553-0.672-1.153-1.146-1.807-1.422c-0.652-0.276-1.354-0.414-2.104-0.414c-0.736,0-1.404,0.138-2.004,0.414
						c-0.601,0.276-1.105,0.695-1.521,1.254c-0.416,0.561-0.733,1.271-0.959,2.133c-0.224,0.861-0.336,1.879-0.336,3.051
						c0,1.186,0.096,2.188,0.287,3.012c0.19,0.822,0.465,1.494,0.819,2.015c0.355,0.52,0.789,0.895,1.304,1.125
						C248.255,230.637,248.828,230.752,249.459,230.752z"/>
					<path fill="none" stroke="#FFFFFF" stroke-width="21" stroke-linejoin="round" d="M272.859,213.751
						c1.514,0,2.887,0.243,4.117,0.729c1.229,0.487,2.278,1.18,3.147,2.074c0.869,0.896,1.541,1.987,2.017,3.276
						c0.473,1.291,0.709,2.731,0.709,4.325c0,1.605-0.236,3.054-0.709,4.344c-0.476,1.29-1.146,2.391-2.017,3.298
						c-0.87,0.908-1.918,1.604-3.147,2.093c-1.23,0.488-2.604,0.731-4.117,0.731c-1.514,0-2.892-0.244-4.127-0.731
						c-1.238-0.486-2.295-1.185-3.17-2.093c-0.875-0.907-1.554-2.008-2.033-3.298c-0.48-1.29-0.721-2.736-0.721-4.344
						c0-1.594,0.239-3.034,0.721-4.325c0.479-1.289,1.158-2.382,2.033-3.276c0.875-0.896,1.932-1.587,3.17-2.074
						C269.969,213.994,271.346,213.751,272.859,213.751z M272.859,230.871c1.686,0,2.932-0.566,3.742-1.699
						c0.809-1.131,1.213-2.79,1.213-4.977c0-2.185-0.404-3.851-1.213-4.994c-0.812-1.146-2.058-1.719-3.742-1.719
						c-1.711,0-2.976,0.576-3.791,1.729c-0.816,1.153-1.226,2.813-1.226,4.985s0.408,3.827,1.226,4.966
						C269.885,230.301,271.148,230.871,272.859,230.871z"/>
					<path fill="none" stroke="#FFFFFF" stroke-width="21" stroke-linejoin="round" d="M144.686,258.791
						c-0.276,0.335-0.542,0.602-0.797,0.797c-0.256,0.197-0.619,0.295-1.092,0.295c-0.452,0-0.86-0.107-1.224-0.324
						c-0.364-0.216-0.772-0.457-1.225-0.723c-0.453-0.266-0.983-0.506-1.593-0.723c-0.61-0.217-1.367-0.325-2.271-0.325
						c-1.121,0-2.09,0.207-2.906,0.62c-0.816,0.412-1.489,1.003-2.021,1.77c-0.531,0.768-0.925,1.707-1.18,2.817
						c-0.256,1.11-0.384,2.364-0.384,3.762c0,2.931,0.565,5.183,1.696,6.755c1.131,1.574,2.689,2.36,4.676,2.36
						c1.062,0,1.902-0.134,2.522-0.397c0.619-0.267,1.146-0.562,1.578-0.886c0.432-0.324,0.83-0.624,1.194-0.899
						c0.364-0.274,0.821-0.412,1.372-0.412c0.728,0,1.278,0.265,1.652,0.795l2.654,3.274c-0.943,1.082-1.938,1.962-2.979,2.642
						c-1.041,0.679-2.109,1.209-3.2,1.593c-1.092,0.384-2.188,0.649-3.29,0.797c-1.102,0.147-2.173,0.221-3.215,0.221
						c-1.869,0-3.653-0.354-5.354-1.062c-1.701-0.708-3.196-1.735-4.484-3.083c-1.288-1.347-2.311-3.005-3.067-4.972
						c-0.758-1.966-1.136-4.207-1.136-6.726c0-2.203,0.329-4.263,0.988-6.181c0.658-1.918,1.632-3.579,2.92-4.985
						c1.288-1.405,2.881-2.512,4.779-3.317c1.897-0.808,4.096-1.211,6.594-1.211c2.398,0,4.503,0.385,6.313,1.15
						s3.441,1.888,4.897,3.363L144.686,258.791z"/>
					<path fill="none" stroke="#FFFFFF" stroke-width="21" stroke-linejoin="round" d="M172.416,282.126
						c-0.866,0-1.52-0.118-1.962-0.354c-0.442-0.235-0.812-0.728-1.106-1.476l-0.648-1.682c-0.768,0.648-1.505,1.22-2.213,1.711
						s-1.44,0.909-2.197,1.254c-0.758,0.345-1.563,0.6-2.419,0.769c-0.856,0.165-1.805,0.25-2.848,0.25
						c-1.396,0-2.665-0.184-3.805-0.548c-1.142-0.364-2.109-0.903-2.906-1.612c-0.796-0.711-1.411-1.595-1.844-2.649
						c-0.433-1.056-0.648-2.272-0.648-3.654c0-1.085,0.274-2.2,0.825-3.345c0.551-1.145,1.505-2.186,2.862-3.122
						c1.356-0.938,3.186-1.722,5.486-2.353c2.301-0.633,5.202-0.947,8.703-0.947v-1.311c0-1.807-0.369-3.111-1.106-3.916
						c-0.737-0.804-1.785-1.205-3.142-1.205c-1.082,0-1.967,0.117-2.655,0.354s-1.303,0.501-1.844,0.797
						c-0.541,0.295-1.067,0.561-1.578,0.796c-0.512,0.236-1.121,0.354-1.829,0.354c-0.63,0-1.165-0.152-1.607-0.459
						c-0.443-0.305-0.792-0.683-1.048-1.135l-1.651-2.861c1.848-1.633,3.898-2.848,6.15-3.643c2.252-0.798,4.665-1.195,7.242-1.195
						c1.849,0,3.515,0.3,5,0.898c1.485,0.602,2.744,1.438,3.776,2.508c1.032,1.072,1.824,2.346,2.375,3.82
						c0.55,1.477,0.825,3.088,0.825,4.838v19.116h-4.188V282.126z M161.914,276.551c1.18,0,2.212-0.207,3.098-0.619
						c0.885-0.414,1.779-1.082,2.685-2.007v-4.188c-1.829,0-3.334,0.119-4.514,0.356c-1.181,0.238-2.114,0.536-2.803,0.894
						c-0.689,0.358-1.165,0.765-1.431,1.221c-0.266,0.456-0.398,0.952-0.398,1.486c0,1.053,0.285,1.791,0.855,2.219
						C159.976,276.339,160.812,276.551,161.914,276.551z"/>
					<path fill="none" stroke="#FFFFFF" stroke-width="21" stroke-linejoin="round" d="M183.093,282.126v-30.592h5.428
						c0.452,0,0.831,0.04,1.136,0.118c0.305,0.078,0.561,0.201,0.768,0.369c0.206,0.166,0.363,0.389,0.472,0.662
						c0.107,0.276,0.201,0.61,0.28,1.004l0.501,2.861c1.121-1.73,2.38-3.098,3.776-4.101s2.92-1.505,4.572-1.505
						c1.396,0,2.518,0.334,3.363,1.003l-1.18,6.727c-0.08,0.413-0.236,0.703-0.473,0.87c-0.237,0.167-0.551,0.251-0.943,0.251
						c-0.336,0-0.729-0.045-1.182-0.133c-0.451-0.089-1.021-0.134-1.71-0.134c-2.398,0-4.286,1.279-5.663,3.836v18.762
						L183.093,282.126L183.093,282.126z"/>
					<path fill="none" stroke="#FFFFFF" stroke-width="21" stroke-linejoin="round" d="M218.197,282.598
						c-1.455,0-2.738-0.211-3.85-0.634c-1.113-0.423-2.046-1.022-2.804-1.8c-0.758-0.775-1.332-1.716-1.726-2.816
						c-0.395-1.102-0.592-2.33-0.592-3.688v-15.812h-2.596c-0.471,0-0.875-0.152-1.209-0.457c-0.334-0.306-0.502-0.754-0.502-1.344
						v-3.568l4.867-0.944l1.801-7.463c0.236-0.944,0.904-1.416,2.006-1.416h4.779v8.938h7.434v6.255h-7.434v15.191
						c0,0.708,0.172,1.293,0.516,1.755c0.344,0.463,0.84,0.693,1.49,0.693c0.334,0,0.613-0.034,0.84-0.104
						c0.228-0.068,0.424-0.146,0.59-0.234c0.168-0.09,0.324-0.168,0.474-0.236c0.147-0.068,0.319-0.104,0.516-0.104
						c0.275,0,0.496,0.063,0.664,0.191s0.34,0.329,0.517,0.604l2.772,4.338c-1.18,0.885-2.508,1.549-3.981,1.99
						C221.295,282.374,219.771,282.598,218.197,282.598z"/>
					<path fill="none" stroke="#FFFFFF" stroke-width="21" stroke-linejoin="round" d="M252.182,282.126
						c-0.867,0-1.52-0.118-1.963-0.354c-0.441-0.235-0.811-0.728-1.104-1.476l-0.648-1.682c-0.768,0.648-1.506,1.22-2.213,1.711
						c-0.709,0.491-1.44,0.909-2.196,1.254c-0.759,0.345-1.564,0.6-2.421,0.769c-0.854,0.165-1.805,0.25-2.848,0.25
						c-1.396,0-2.664-0.184-3.806-0.548c-1.141-0.364-2.108-0.903-2.905-1.612c-0.795-0.711-1.41-1.595-1.845-2.649
						c-0.432-1.056-0.647-2.272-0.647-3.654c0-1.085,0.274-2.2,0.826-3.345c0.551-1.145,1.504-2.186,2.86-3.122
						c1.357-0.937,3.187-1.722,5.486-2.353c2.301-0.633,5.203-0.947,8.703-0.947v-1.311c0-1.807-0.369-3.111-1.105-3.916
						c-0.737-0.804-1.784-1.205-3.143-1.205c-1.082,0-1.967,0.117-2.654,0.354c-0.688,0.236-1.303,0.501-1.844,0.797
						c-0.541,0.295-1.068,0.561-1.578,0.796c-0.512,0.236-1.121,0.354-1.83,0.354c-0.629,0-1.164-0.152-1.606-0.459
						c-0.443-0.305-0.791-0.683-1.048-1.135l-1.652-2.86c1.848-1.632,3.898-2.847,6.15-3.644s4.666-1.195,7.242-1.195
						c1.85,0,3.516,0.301,5,0.899c1.485,0.601,2.743,1.437,3.776,2.509c1.031,1.071,1.824,2.346,2.375,3.819
						c0.549,1.476,0.824,3.088,0.824,4.838v19.116L252.182,282.126L252.182,282.126z M241.68,276.551
						c1.18,0,2.211-0.207,3.098-0.619c0.886-0.414,1.779-1.082,2.685-2.007v-4.188c-1.828,0-3.334,0.119-4.514,0.356
						c-1.181,0.238-2.113,0.536-2.804,0.894c-0.688,0.357-1.164,0.765-1.43,1.221s-0.398,0.952-0.398,1.486
						c0,1.053,0.285,1.791,0.855,2.219C239.742,276.339,240.578,276.551,241.68,276.551z"/>
					<path fill="none" stroke="#FFFFFF" stroke-width="21" stroke-linejoin="round" d="M281.563,258.23
						c-0.235,0.373-0.487,0.64-0.752,0.797c-0.266,0.158-0.604,0.235-1.02,0.235c-0.432,0-0.865-0.094-1.297-0.28
						c-0.434-0.187-0.9-0.389-1.402-0.604c-0.5-0.217-1.066-0.418-1.695-0.605c-0.629-0.187-1.348-0.279-2.153-0.279
						c-1.16,0-2.05,0.222-2.67,0.664c-0.619,0.441-0.929,1.058-0.929,1.844c0,0.57,0.201,1.043,0.604,1.416
						c0.403,0.374,0.938,0.703,1.606,0.988c0.67,0.285,1.427,0.556,2.271,0.812c0.845,0.257,1.711,0.541,2.598,0.855
						c0.885,0.313,1.75,0.684,2.596,1.105c0.847,0.423,1.603,0.943,2.271,1.563c0.668,0.619,1.203,1.371,1.607,2.256
						c0.402,0.886,0.604,1.947,0.604,3.188c0,1.515-0.276,2.91-0.825,4.188c-0.552,1.279-1.373,2.38-2.466,3.305
						c-1.09,0.926-2.438,1.643-4.04,2.153c-1.604,0.511-3.447,0.767-5.531,0.767c-1.043,0-2.084-0.099-3.127-0.295
						c-1.043-0.195-2.052-0.462-3.023-0.796c-0.973-0.335-1.873-0.731-2.699-1.194s-1.533-0.959-2.123-1.49l2.123-3.362
						c0.256-0.394,0.561-0.703,0.914-0.931c0.354-0.226,0.816-0.338,1.387-0.338c0.531,0,1.008,0.117,1.433,0.354
						c0.422,0.234,0.879,0.491,1.37,0.768c0.492,0.275,1.066,0.53,1.728,0.767c0.658,0.235,1.488,0.354,2.492,0.354
						c0.707,0,1.307-0.074,1.799-0.223s0.886-0.35,1.181-0.604c0.295-0.256,0.512-0.541,0.649-0.855
						c0.137-0.314,0.205-0.639,0.205-0.975c0-0.608-0.205-1.109-0.619-1.504c-0.412-0.394-0.953-0.731-1.621-1.019
						c-0.67-0.284-1.432-0.55-2.287-0.796c-0.854-0.246-1.727-0.525-2.61-0.841c-0.885-0.315-1.754-0.693-2.609-1.136
						c-0.855-0.443-1.619-1.004-2.287-1.683s-1.209-1.509-1.623-2.493c-0.412-0.981-0.619-2.173-0.619-3.568
						c0-1.299,0.25-2.531,0.752-3.702c0.502-1.17,1.254-2.197,2.258-3.083c1.002-0.885,2.261-1.588,3.775-2.109
						c1.514-0.521,3.283-0.781,5.311-0.781c1.103,0,2.168,0.1,3.199,0.295c1.033,0.197,2.002,0.473,2.906,0.826
						c0.904,0.354,1.73,0.771,2.479,1.254c0.748,0.481,1.406,1.008,1.978,1.578L281.563,258.23z"/>
				</g>
				<g>
					<path d="M137.265,210.967c-0.145,0.289-0.313,0.494-0.503,0.612c-0.191,0.118-0.418,0.178-0.682,0.178
						c-0.264,0-0.56-0.103-0.889-0.306c-0.329-0.205-0.718-0.432-1.165-0.682c-0.447-0.25-0.971-0.478-1.569-0.683
						c-0.6-0.203-1.307-0.306-2.123-0.306c-0.737,0-1.379,0.089-1.925,0.267c-0.547,0.179-1.007,0.425-1.383,0.74
						c-0.375,0.315-0.654,0.694-0.839,1.135s-0.276,0.927-0.276,1.452c0,0.671,0.188,1.23,0.563,1.679s0.872,0.828,1.491,1.146
						c0.618,0.316,1.323,0.6,2.112,0.85c0.79,0.25,1.597,0.518,2.419,0.799c0.823,0.283,1.629,0.613,2.419,0.988
						s1.494,0.85,2.113,1.422c0.618,0.572,1.115,1.273,1.49,2.104c0.376,0.828,0.563,1.836,0.563,3.021
						c0,1.291-0.221,2.498-0.662,3.624s-1.086,2.105-1.935,2.942c-0.85,0.836-1.886,1.493-3.11,1.975s-2.626,0.722-4.206,0.722
						c-0.908,0-1.804-0.091-2.686-0.269c-0.882-0.179-1.728-0.431-2.537-0.76c-0.81-0.328-1.566-0.724-2.271-1.185
						c-0.705-0.462-1.333-0.975-1.886-1.541l1.54-2.547c0.145-0.185,0.319-0.34,0.523-0.465s0.431-0.188,0.681-0.188
						c0.329,0,0.685,0.135,1.066,0.403c0.382,0.271,0.833,0.57,1.353,0.898c0.521,0.33,1.133,0.629,1.837,0.897
						c0.704,0.271,1.55,0.405,2.537,0.405c1.514,0,2.686-0.358,3.515-1.076s1.244-1.747,1.244-3.09c0-0.751-0.188-1.362-0.563-1.837
						s-0.872-0.871-1.491-1.193c-0.619-0.322-1.323-0.596-2.112-0.82c-0.79-0.223-1.594-0.467-2.409-0.729
						c-0.816-0.264-1.619-0.579-2.409-0.948c-0.79-0.367-1.494-0.849-2.112-1.44c-0.619-0.593-1.116-1.333-1.491-2.222
						c-0.375-0.89-0.563-1.984-0.563-3.287c0-1.041,0.207-2.055,0.622-3.041c0.414-0.987,1.02-1.863,1.816-2.627
						s1.773-1.375,2.932-1.836c1.159-0.461,2.481-0.691,3.97-0.691c1.685,0,3.238,0.264,4.659,0.791
						c1.422,0.525,2.633,1.264,3.634,2.211L137.265,210.967z"/>
					<path d="M147.336,214.066v12.875c0,1.236,0.286,2.194,0.858,2.873c0.573,0.678,1.432,1.017,2.577,1.017
						c0.842,0,1.632-0.188,2.369-0.563c0.737-0.375,1.435-0.892,2.094-1.55v-14.651h4.877v20.26h-2.981
						c-0.632,0-1.047-0.297-1.244-0.889l-0.336-1.619c-0.421,0.422-0.855,0.807-1.303,1.154c-0.448,0.35-0.926,0.646-1.432,0.889
						c-0.507,0.244-1.054,0.436-1.64,0.572s-1.214,0.209-1.886,0.209c-1.105,0-2.083-0.188-2.932-0.563
						c-0.85-0.376-1.563-0.906-2.143-1.591c-0.579-0.685-1.017-1.497-1.313-2.438c-0.296-0.94-0.444-1.977-0.444-3.108v-12.875
						H147.336z"/>
					<path d="M165.325,234.326v-20.26h2.981c0.632,0,1.047,0.297,1.244,0.889l0.316,1.501c0.355-0.396,0.727-0.757,1.115-1.086
						s0.803-0.612,1.244-0.849c0.44-0.237,0.915-0.426,1.422-0.563c0.506-0.14,1.063-0.208,1.668-0.208
						c1.277,0,2.327,0.346,3.149,1.036c0.823,0.69,1.438,1.608,1.847,2.755c0.315-0.671,0.711-1.247,1.185-1.729
						c0.474-0.48,0.994-0.871,1.56-1.174c0.566-0.304,1.169-0.526,1.807-0.672c0.639-0.146,1.28-0.218,1.926-0.218
						c1.118,0,2.112,0.171,2.981,0.513c0.869,0.344,1.6,0.844,2.192,1.502c0.592,0.658,1.043,1.461,1.353,2.408
						c0.309,0.948,0.464,2.034,0.464,3.258v12.896h-4.878V221.43c0-1.289-0.283-2.26-0.849-2.912
						c-0.566-0.65-1.396-0.978-2.488-0.978c-0.5,0-0.964,0.086-1.392,0.257c-0.428,0.172-0.804,0.418-1.126,0.74
						c-0.322,0.322-0.576,0.729-0.76,1.215c-0.185,0.486-0.276,1.047-0.276,1.678v12.896h-4.897V221.43
						c0-1.354-0.273-2.342-0.819-2.961s-1.353-0.929-2.419-0.929c-0.697,0-1.353,0.175-1.965,0.522
						c-0.612,0.349-1.182,0.826-1.708,1.433v14.829h-4.877V234.326z"/>
					<path d="M214.451,234.326h-2.193c-0.461,0-0.822-0.069-1.086-0.207c-0.264-0.139-0.461-0.418-0.592-0.84l-0.434-1.441
						c-0.515,0.461-1.019,0.866-1.513,1.215c-0.493,0.35-1.004,0.643-1.528,0.879c-0.527,0.236-1.086,0.414-1.681,0.533
						c-0.592,0.118-1.25,0.178-1.975,0.178c-0.854,0-1.646-0.115-2.369-0.348c-0.725-0.23-1.346-0.577-1.865-1.039
						c-0.521-0.463-0.925-1.037-1.214-1.725c-0.289-0.687-0.434-1.485-0.434-2.396c0-0.766,0.199-1.521,0.602-2.27
						c0.402-0.745,1.07-1.42,2.003-2.021c0.937-0.602,2.181-1.1,3.732-1.495c1.552-0.396,3.481-0.596,5.784-0.596v-1.193
						c0-1.365-0.284-2.377-0.858-3.033c-0.572-0.656-1.404-0.985-2.498-0.985c-0.789,0-1.447,0.093-1.976,0.276
						c-0.524,0.185-0.981,0.393-1.371,0.621c-0.389,0.23-0.747,0.438-1.075,0.623c-0.33,0.185-0.691,0.275-1.086,0.275
						c-0.33,0-0.613-0.085-0.85-0.257c-0.236-0.17-0.428-0.381-0.572-0.631l-0.888-1.562c2.33-2.133,5.139-3.199,8.43-3.199
						c1.185,0,2.24,0.195,3.169,0.584c0.93,0.388,1.715,0.928,2.36,1.619c0.646,0.689,1.135,1.517,1.471,2.478
						c0.337,0.961,0.505,2.015,0.505,3.159L214.451,234.326L214.451,234.326z M204.973,231.285c0.5,0,0.961-0.045,1.383-0.137
						c0.42-0.09,0.818-0.228,1.193-0.407c0.375-0.183,0.738-0.405,1.086-0.671c0.35-0.267,0.701-0.58,1.057-0.942v-3.392
						c-1.422,0-2.608,0.09-3.563,0.27c-0.953,0.178-1.721,0.407-2.301,0.686c-0.578,0.278-0.99,0.604-1.231,0.976
						c-0.244,0.371-0.365,0.774-0.365,1.213c0,0.861,0.252,1.479,0.76,1.851C203.494,231.1,204.156,231.285,204.973,231.285z"/>
					<path d="M219.25,234.326v-20.26h2.98c0.633,0,1.047,0.297,1.244,0.889l0.336,1.6c0.407-0.421,0.84-0.803,1.293-1.145
						c0.455-0.344,0.936-0.639,1.44-0.889c0.508-0.25,1.051-0.441,1.629-0.573c0.58-0.132,1.211-0.197,1.896-0.197
						c1.105,0,2.086,0.188,2.941,0.563s1.57,0.9,2.143,1.58c0.574,0.679,1.009,1.486,1.306,2.429
						c0.295,0.94,0.442,1.979,0.442,3.108v12.896h-4.877v-12.896c0-1.235-0.287-2.193-0.858-2.873
						c-0.572-0.678-1.433-1.017-2.576-1.017c-0.844,0-1.633,0.19-2.369,0.573c-0.737,0.381-1.436,0.9-2.094,1.56v14.651H219.25z"/>
					<path d="M255.957,234.326c-0.633,0-1.047-0.297-1.244-0.889l-0.396-1.955c-0.42,0.475-0.86,0.901-1.321,1.283
						c-0.461,0.383-0.957,0.711-1.49,0.987c-0.532,0.274-1.104,0.49-1.719,0.642c-0.611,0.151-1.272,0.229-1.984,0.229
						c-1.104,0-2.118-0.23-3.041-0.691c-0.922-0.461-1.715-1.129-2.379-2.004c-0.664-0.876-1.178-1.959-1.541-3.248
						c-0.36-1.291-0.543-2.766-0.543-4.424c0-1.501,0.205-2.896,0.613-4.186c0.407-1.291,0.994-2.41,1.758-3.357
						c0.763-0.947,1.679-1.688,2.744-2.222c1.065-0.532,2.264-0.8,3.594-0.8c1.132,0,2.101,0.182,2.902,0.543
						c0.803,0.363,1.521,0.846,2.151,1.451v-10.701h4.877v29.342H255.957z M249.459,230.752c1.014,0,1.877-0.21,2.588-0.632
						c0.711-0.421,1.383-1.021,2.014-1.797v-9.083c-0.553-0.672-1.153-1.146-1.807-1.422c-0.652-0.276-1.354-0.414-2.104-0.414
						c-0.736,0-1.404,0.138-2.004,0.414c-0.601,0.276-1.105,0.695-1.521,1.254c-0.416,0.561-0.733,1.271-0.959,2.133
						c-0.224,0.861-0.336,1.879-0.336,3.051c0,1.186,0.096,2.188,0.287,3.012c0.19,0.822,0.465,1.494,0.819,2.015
						c0.355,0.52,0.789,0.895,1.304,1.125C248.255,230.637,248.828,230.752,249.459,230.752z"/>
					<path d="M272.859,213.751c1.514,0,2.887,0.243,4.117,0.729c1.229,0.487,2.278,1.18,3.147,2.074
						c0.869,0.896,1.541,1.987,2.017,3.276c0.473,1.291,0.709,2.731,0.709,4.325c0,1.605-0.236,3.054-0.709,4.344
						c-0.476,1.29-1.146,2.391-2.017,3.298c-0.87,0.908-1.918,1.604-3.147,2.093c-1.23,0.488-2.604,0.731-4.117,0.731
						c-1.514,0-2.892-0.244-4.127-0.731c-1.238-0.486-2.295-1.185-3.17-2.093c-0.875-0.907-1.554-2.008-2.033-3.298
						c-0.48-1.29-0.721-2.736-0.721-4.344c0-1.594,0.239-3.034,0.721-4.325c0.479-1.289,1.158-2.382,2.033-3.276
						c0.875-0.896,1.932-1.587,3.17-2.074C269.969,213.994,271.346,213.751,272.859,213.751z M272.859,230.871
						c1.686,0,2.932-0.566,3.742-1.699c0.809-1.131,1.213-2.79,1.213-4.977c0-2.185-0.404-3.851-1.213-4.994
						c-0.812-1.146-2.058-1.719-3.742-1.719c-1.711,0-2.976,0.576-3.791,1.729c-0.816,1.153-1.226,2.813-1.226,4.985
						s0.408,3.827,1.226,4.966C269.885,230.301,271.148,230.871,272.859,230.871z"/>
					<path d="M144.686,258.791c-0.276,0.335-0.542,0.602-0.797,0.797c-0.256,0.197-0.619,0.295-1.092,0.295
						c-0.452,0-0.86-0.107-1.224-0.324c-0.364-0.216-0.772-0.457-1.225-0.723c-0.453-0.266-0.983-0.506-1.593-0.723
						c-0.61-0.217-1.367-0.325-2.271-0.325c-1.121,0-2.09,0.207-2.906,0.62c-0.816,0.412-1.489,1.003-2.021,1.77
						c-0.531,0.768-0.925,1.707-1.18,2.817c-0.256,1.11-0.384,2.364-0.384,3.762c0,2.931,0.565,5.183,1.696,6.755
						c1.131,1.574,2.689,2.36,4.676,2.36c1.062,0,1.902-0.134,2.522-0.397c0.619-0.267,1.146-0.562,1.578-0.886
						c0.432-0.324,0.83-0.624,1.194-0.899c0.364-0.274,0.821-0.412,1.372-0.412c0.728,0,1.278,0.265,1.652,0.795l2.654,3.274
						c-0.943,1.082-1.938,1.962-2.979,2.642c-1.041,0.679-2.109,1.209-3.2,1.593c-1.092,0.384-2.188,0.649-3.29,0.797
						c-1.102,0.147-2.173,0.221-3.215,0.221c-1.869,0-3.653-0.354-5.354-1.062c-1.701-0.708-3.196-1.735-4.484-3.083
						c-1.288-1.347-2.311-3.005-3.067-4.972c-0.758-1.966-1.136-4.207-1.136-6.726c0-2.203,0.329-4.263,0.988-6.181
						c0.658-1.918,1.632-3.579,2.92-4.985c1.288-1.405,2.881-2.512,4.779-3.317c1.897-0.808,4.096-1.211,6.594-1.211
						c2.398,0,4.503,0.385,6.313,1.15s3.441,1.888,4.897,3.363L144.686,258.791z"/>
					<path d="M172.416,282.126c-0.866,0-1.52-0.118-1.962-0.354c-0.442-0.235-0.812-0.728-1.106-1.476l-0.648-1.682
						c-0.768,0.648-1.505,1.22-2.213,1.711s-1.44,0.909-2.197,1.254c-0.758,0.345-1.563,0.6-2.419,0.769
						c-0.856,0.165-1.805,0.25-2.848,0.25c-1.396,0-2.665-0.184-3.805-0.548c-1.142-0.364-2.109-0.903-2.906-1.612
						c-0.796-0.711-1.411-1.595-1.844-2.649c-0.433-1.056-0.648-2.272-0.648-3.654c0-1.085,0.274-2.2,0.825-3.345
						c0.551-1.145,1.505-2.186,2.862-3.122c1.356-0.938,3.186-1.722,5.486-2.353c2.301-0.633,5.202-0.947,8.703-0.947v-1.311
						c0-1.807-0.369-3.111-1.106-3.916c-0.737-0.804-1.785-1.205-3.142-1.205c-1.082,0-1.967,0.117-2.655,0.354
						s-1.303,0.501-1.844,0.797c-0.541,0.295-1.067,0.561-1.578,0.796c-0.512,0.236-1.121,0.354-1.829,0.354
						c-0.63,0-1.165-0.152-1.607-0.459c-0.443-0.305-0.792-0.683-1.048-1.135l-1.651-2.861c1.848-1.633,3.898-2.848,6.15-3.643
						c2.252-0.798,4.665-1.195,7.242-1.195c1.849,0,3.515,0.3,5,0.898c1.485,0.602,2.744,1.438,3.776,2.508
						c1.032,1.072,1.824,2.346,2.375,3.82c0.55,1.477,0.825,3.088,0.825,4.838v19.116h-4.188V282.126z M161.914,276.551
						c1.18,0,2.212-0.207,3.098-0.619c0.885-0.414,1.779-1.082,2.685-2.007v-4.188c-1.829,0-3.334,0.119-4.514,0.356
						c-1.181,0.238-2.114,0.536-2.803,0.894c-0.689,0.358-1.165,0.765-1.431,1.221c-0.266,0.456-0.398,0.952-0.398,1.486
						c0,1.053,0.285,1.791,0.855,2.219C159.976,276.339,160.812,276.551,161.914,276.551z"/>
					<path d="M183.093,282.126v-30.592h5.428c0.452,0,0.831,0.04,1.136,0.118c0.305,0.078,0.561,0.201,0.768,0.369
						c0.206,0.166,0.363,0.389,0.472,0.662c0.107,0.276,0.201,0.61,0.28,1.004l0.501,2.861c1.121-1.73,2.38-3.098,3.776-4.101
						s2.92-1.505,4.572-1.505c1.396,0,2.518,0.334,3.363,1.003l-1.18,6.727c-0.08,0.413-0.236,0.703-0.473,0.87
						c-0.237,0.167-0.551,0.251-0.943,0.251c-0.336,0-0.729-0.045-1.182-0.133c-0.451-0.089-1.021-0.134-1.71-0.134
						c-2.398,0-4.286,1.279-5.663,3.836v18.762L183.093,282.126L183.093,282.126z"/>
					<path d="M218.197,282.598c-1.455,0-2.738-0.211-3.85-0.634c-1.113-0.423-2.046-1.022-2.804-1.8
						c-0.758-0.775-1.332-1.716-1.726-2.816c-0.395-1.102-0.592-2.33-0.592-3.688v-15.812h-2.596c-0.471,0-0.875-0.152-1.209-0.457
						c-0.334-0.306-0.502-0.754-0.502-1.344v-3.568l4.867-0.944l1.801-7.463c0.236-0.944,0.904-1.416,2.006-1.416h4.779v8.938h7.434
						v6.255h-7.434v15.191c0,0.708,0.172,1.293,0.516,1.755c0.344,0.463,0.84,0.693,1.49,0.693c0.334,0,0.613-0.034,0.84-0.104
						c0.228-0.068,0.424-0.146,0.59-0.234c0.168-0.09,0.324-0.168,0.474-0.236c0.147-0.068,0.319-0.104,0.516-0.104
						c0.275,0,0.496,0.063,0.664,0.191s0.34,0.329,0.517,0.604l2.772,4.338c-1.18,0.885-2.508,1.549-3.981,1.99
						C221.295,282.374,219.771,282.598,218.197,282.598z"/>
					<path d="M252.182,282.126c-0.867,0-1.52-0.118-1.963-0.354c-0.441-0.235-0.811-0.728-1.104-1.476l-0.648-1.682
						c-0.768,0.648-1.506,1.22-2.213,1.711c-0.709,0.491-1.44,0.909-2.196,1.254c-0.759,0.345-1.564,0.6-2.421,0.769
						c-0.854,0.165-1.805,0.25-2.848,0.25c-1.396,0-2.664-0.184-3.806-0.548c-1.141-0.364-2.108-0.903-2.905-1.612
						c-0.795-0.711-1.41-1.595-1.845-2.649c-0.432-1.056-0.647-2.272-0.647-3.654c0-1.085,0.274-2.2,0.826-3.345
						c0.551-1.145,1.504-2.186,2.86-3.122c1.357-0.937,3.187-1.722,5.486-2.353c2.301-0.633,5.203-0.947,8.703-0.947v-1.311
						c0-1.807-0.369-3.111-1.105-3.916c-0.737-0.804-1.784-1.205-3.143-1.205c-1.082,0-1.967,0.117-2.654,0.354
						c-0.688,0.236-1.303,0.501-1.844,0.797c-0.541,0.295-1.068,0.561-1.578,0.796c-0.512,0.236-1.121,0.354-1.83,0.354
						c-0.629,0-1.164-0.152-1.606-0.459c-0.443-0.305-0.791-0.683-1.048-1.135l-1.652-2.86c1.848-1.632,3.898-2.847,6.15-3.644
						s4.666-1.195,7.242-1.195c1.85,0,3.516,0.301,5,0.899c1.485,0.601,2.743,1.437,3.776,2.509
						c1.031,1.071,1.824,2.346,2.375,3.819c0.549,1.476,0.824,3.088,0.824,4.838v19.116L252.182,282.126L252.182,282.126z
						 M241.68,276.551c1.18,0,2.211-0.207,3.098-0.619c0.886-0.414,1.779-1.082,2.685-2.007v-4.188
						c-1.828,0-3.334,0.119-4.514,0.356c-1.181,0.238-2.113,0.536-2.804,0.894c-0.688,0.357-1.164,0.765-1.43,1.221
						s-0.398,0.952-0.398,1.486c0,1.053,0.285,1.791,0.855,2.219C239.742,276.339,240.578,276.551,241.68,276.551z"/>
					<path d="M281.563,258.23c-0.235,0.373-0.487,0.64-0.752,0.797c-0.266,0.158-0.604,0.235-1.02,0.235
						c-0.432,0-0.865-0.094-1.297-0.28c-0.434-0.187-0.9-0.389-1.402-0.604c-0.5-0.217-1.066-0.418-1.695-0.605
						c-0.629-0.187-1.348-0.279-2.153-0.279c-1.16,0-2.05,0.222-2.67,0.664c-0.619,0.441-0.929,1.058-0.929,1.844
						c0,0.57,0.201,1.043,0.604,1.416c0.403,0.374,0.938,0.703,1.606,0.988c0.67,0.285,1.427,0.556,2.271,0.812
						c0.845,0.257,1.711,0.541,2.598,0.855c0.885,0.313,1.75,0.684,2.596,1.105c0.847,0.423,1.603,0.943,2.271,1.563
						c0.668,0.619,1.203,1.371,1.607,2.256c0.402,0.886,0.604,1.947,0.604,3.188c0,1.515-0.276,2.91-0.825,4.188
						c-0.552,1.279-1.373,2.38-2.466,3.305c-1.09,0.926-2.438,1.643-4.04,2.153c-1.604,0.511-3.447,0.767-5.531,0.767
						c-1.043,0-2.084-0.099-3.127-0.295c-1.043-0.195-2.052-0.462-3.023-0.796c-0.973-0.335-1.873-0.731-2.699-1.194
						s-1.533-0.959-2.123-1.49l2.123-3.362c0.256-0.394,0.561-0.703,0.914-0.931c0.354-0.226,0.816-0.338,1.387-0.338
						c0.531,0,1.008,0.117,1.433,0.354c0.422,0.234,0.879,0.491,1.37,0.768c0.492,0.275,1.066,0.53,1.728,0.767
						c0.658,0.235,1.488,0.354,2.492,0.354c0.707,0,1.307-0.074,1.799-0.223s0.886-0.35,1.181-0.604
						c0.295-0.256,0.512-0.541,0.649-0.855c0.137-0.314,0.205-0.639,0.205-0.975c0-0.608-0.205-1.109-0.619-1.504
						c-0.412-0.394-0.953-0.731-1.621-1.019c-0.67-0.284-1.432-0.55-2.287-0.796c-0.854-0.246-1.727-0.525-2.61-0.841
						c-0.885-0.315-1.754-0.693-2.609-1.136c-0.855-0.443-1.619-1.004-2.287-1.683s-1.209-1.509-1.623-2.493
						c-0.412-0.981-0.619-2.173-0.619-3.568c0-1.299,0.25-2.531,0.752-3.702c0.502-1.17,1.254-2.197,2.258-3.083
						c1.002-0.885,2.261-1.588,3.775-2.109c1.514-0.521,3.283-0.781,5.311-0.781c1.103,0,2.168,0.1,3.199,0.295
						c1.033,0.197,2.002,0.473,2.906,0.826c0.904,0.354,1.73,0.771,2.479,1.254c0.748,0.481,1.406,1.008,1.978,1.578L281.563,258.23
						z"/>
				</g>
			</g>
		</g>
	</g>
</g>
</svg>
