<?xml version="1.0" encoding="utf-8"?>
<!-- Generator: Adobe Illustrator 21.0.2, SVG Export Plug-In . SVG Version: 6.00 Build 0)  -->
<svg version="1.1" id="Capa_1" xmlns="http://www.w3.org/2000/svg" xmlns:xlink="http://www.w3.org/1999/xlink" x="0px" y="0px"
	 viewBox="0 0 253.8 217" style="enable-background:new 0 0 253.8 217;" xml:space="preserve">
<style type="text/css">
	.st0{fill:#887228;}
	.st1{fill:#F0CA45;}
	.st2{opacity:0.3;}
	.st3{fill:#2A2A2A;}
	.st4{fill:#FFFFFF;}
</style>
<g>
	<path class="st0" d="M196.6,132.4c0,15.6-12.7,28.3-28.3,28.3H73.9c-15.6,0-28.3-12.7-28.3-28.3V38c0-15.6,12.7-28.3,28.3-28.3
		h94.4c15.6,0,28.3,12.7,28.3,28.3V132.4z"/>
	<path class="st1" d="M196.6,120.4c0,15.6-12.7,28.3-28.3,28.3H73.9c-15.6,0-28.3-12.7-28.3-28.3V38c0-15.6,12.7-28.3,28.3-28.3
		h94.4c15.6,0,28.3,12.7,28.3,28.3V120.4z"/>
	<g class="st2">
		<path d="M59.1,39.7H63V28.5c0-0.4,0-0.9,0-1.4l-2.8,2.3c-0.1,0.1-0.2,0.2-0.4,0.2c-0.1,0-0.2,0.1-0.4,0.1c-0.2,0-0.3,0-0.5-0.1
			s-0.3-0.2-0.3-0.3l-1-1.4l5.9-5h2.7v16.9h3.5v2.5H59.1V39.7z"/>
		<path d="M74.5,39.7h3.9V28.5c0-0.4,0-0.9,0-1.4l-2.8,2.3c-0.1,0.1-0.2,0.2-0.4,0.2c-0.1,0-0.2,0.1-0.4,0.1c-0.2,0-0.3,0-0.5-0.1
			c-0.1-0.1-0.3-0.2-0.3-0.3l-1-1.4l5.9-5h2.7v16.9h3.5v2.5H74.5V39.7z"/>
	</g>
	<g>
		<path class="st3" d="M48.2,118.4c-3.3,0-16.2-0.6-25.7-9.7c-6.7-6.5-10.2-15.6-10.2-27.3c0-0.7,0.3-1.4,0.9-1.9l8.5-7.1
			c1.1-0.9,2.6-0.7,3.5,0.3c0.9,1.1,0.7,2.6-0.3,3.5l-7.6,6.4c0.2,9.7,3.1,17.3,8.6,22.5c9.1,8.8,22.7,8.3,22.8,8.3
			c1.4-0.1,2.5,1,2.6,2.4c0.1,1.4-1,2.5-2.4,2.6C48.9,118.4,48.7,118.4,48.2,118.4z"/>
		<path class="st3" d="M14.9,83.9c-0.2,0-0.4,0-0.6-0.1c-1.3-0.3-2.2-1.6-1.9-3l3.3-14.3c0.3-1.3,1.6-2.2,3-1.9
			c1.3,0.3,2.2,1.6,1.9,3L17.3,82C17,83.1,16,83.9,14.9,83.9z"/>
		<path class="st3" d="M14.9,83.9c-1,0-2-0.6-2.3-1.6L7.3,68c-0.5-1.3,0.2-2.7,1.5-3.2c1.3-0.5,2.7,0.2,3.2,1.5l5.2,14.3
			c0.5,1.3-0.2,2.7-1.5,3.2C15.5,83.9,15.2,83.9,14.9,83.9z"/>
		<path class="st3" d="M14.9,83.9c-0.5,0-1-0.1-1.4-0.4L3.2,76.4c-1.1-0.8-1.4-2.3-0.6-3.5c0.8-1.1,2.3-1.4,3.5-0.6l10.3,7.1
			c1.1,0.8,1.4,2.3,0.6,3.5C16.4,83.6,15.7,83.9,14.9,83.9z"/>
	</g>
	<g>
		<path class="st3" d="M233.8,121.2c-0.4,0-0.9-0.1-1.3-0.4c-1.2-0.7-1.6-2.2-0.9-3.4l3.9-6.5c-22.7-9.8-42.3,4.6-43.2,5.2
			c-1.1,0.8-2.7,0.6-3.5-0.5c-0.8-1.1-0.6-2.7,0.5-3.5c1-0.7,24.3-18,50.9-4.5c0.6,0.3,1.1,0.9,1.3,1.5c0.2,0.7,0.1,1.4-0.3,2
			l-5.3,8.8C235.5,120.7,234.6,121.2,233.8,121.2z"/>
		<path class="st3" d="M241.6,123.9c-1.2,0-2.2-0.8-2.4-2l-2.5-11.6c-0.3-1.3,0.6-2.7,1.9-3c1.4-0.3,2.7,0.6,3,1.9l2.5,11.6
			c0.3,1.3-0.6,2.7-1.9,3C242,123.9,241.8,123.9,241.6,123.9z"/>
		<path class="st3" d="M250.1,121.2c-0.5,0-1.1-0.2-1.6-0.6l-11-8.8c-1.1-0.9-1.2-2.4-0.4-3.5c0.9-1.1,2.4-1.2,3.5-0.4l11,8.8
			c1.1,0.9,1.2,2.4,0.4,3.5C251.6,120.9,250.9,121.2,250.1,121.2z"/>
		<path class="st3" d="M249.6,113.5c-0.1,0-0.2,0-0.3,0l-10.5-1.2c-1.4-0.2-2.4-1.4-2.2-2.8c0.2-1.4,1.4-2.4,2.8-2.2l10.5,1.2
			c1.4,0.2,2.4,1.4,2.2,2.8C252,112.6,250.9,113.5,249.6,113.5z"/>
	</g>
	<g class="st2">
		<path d="M95.8,51.3c0.2,0,0.4,0.1,0.6,0.2c0.2,0.1,0.3,0.2,0.5,0.4c0.2,0.2,0.3,0.4,0.5,0.6L118.3,79c-0.1-0.6-0.1-1.3-0.2-1.9
			c0-0.6,0-1.2,0-1.7V51.3h6.5v39.7h-3.8c-0.6,0-1.1-0.1-1.5-0.3c-0.4-0.2-0.8-0.5-1.1-1L97.5,63.2c0.1,0.6,0.1,1.2,0.1,1.7
			s0,1.1,0,1.6v24.4h-6.5V51.3H95C95.3,51.3,95.6,51.3,95.8,51.3z"/>
		<path d="M154.3,90.9h-3c-0.6,0-1.1-0.1-1.5-0.3s-0.6-0.6-0.8-1.2l-0.6-2c-0.7,0.6-1.4,1.2-2.1,1.7c-0.7,0.5-1.4,0.9-2.1,1.2
			c-0.7,0.3-1.5,0.6-2.3,0.7c-0.8,0.2-1.7,0.2-2.7,0.2c-1.2,0-2.3-0.2-3.3-0.5s-1.9-0.8-2.6-1.4c-0.7-0.6-1.3-1.4-1.7-2.4
			s-0.6-2.1-0.6-3.3c0-1.1,0.3-2.1,0.8-3.2c0.6-1,1.5-2,2.8-2.8s3-1.5,5.2-2.1c2.2-0.6,4.8-0.8,8-0.8v-1.7c0-1.9-0.4-3.3-1.2-4.2
			c-0.8-0.9-2-1.4-3.5-1.4c-1.1,0-2,0.1-2.7,0.4c-0.7,0.3-1.4,0.5-1.9,0.9c-0.5,0.3-1,0.6-1.5,0.9c-0.5,0.3-1,0.4-1.5,0.4
			c-0.5,0-0.9-0.1-1.2-0.4c-0.3-0.2-0.6-0.5-0.8-0.9l-1.2-2.2c3.2-3,7.1-4.4,11.7-4.4c1.6,0,3.1,0.3,4.4,0.8
			c1.3,0.5,2.4,1.3,3.3,2.2c0.9,1,1.6,2.1,2,3.4s0.7,2.8,0.7,4.4V90.9z M141.1,86.7c0.7,0,1.3-0.1,1.9-0.2c0.6-0.1,1.1-0.3,1.7-0.6
			s1-0.6,1.5-0.9c0.5-0.4,1-0.8,1.5-1.3V79c-2,0-3.6,0.1-5,0.4s-2.4,0.6-3.2,1c-0.8,0.4-1.4,0.8-1.7,1.4c-0.3,0.5-0.5,1.1-0.5,1.7
			c0,1.2,0.4,2.1,1.1,2.6C139.1,86.4,140,86.7,141.1,86.7z"/>
	</g>
	<g>
		<g>
			<circle class="st3" cx="167.1" cy="111.7" r="14.7"/>
			<circle class="st4" cx="172.5" cy="105.8" r="5.4"/>
		</g>
		<g>
			<circle class="st3" cx="75.1" cy="111.7" r="14.7"/>
			<circle class="st4" cx="80.5" cy="105.8" r="5.4"/>
		</g>
		<circle class="st3" cx="122.4" cy="129.1" r="7.3"/>
	</g>
	<g>
		<path class="st3" d="M94.4,203.3v-47.5c0-1.4,1.1-2.5,2.5-2.5s2.5,1.1,2.5,2.5v45h18c1.4,0,2.5,1.1,2.5,2.5s-1.1,2.5-2.5,2.5H96.9
			C95.5,205.8,94.4,204.6,94.4,203.3z"/>
		<path class="st3" d="M144.4,203.3v-47.5c0-1.4,1.1-2.5,2.5-2.5s2.5,1.1,2.5,2.5v45h18c1.4,0,2.5,1.1,2.5,2.5s-1.1,2.5-2.5,2.5
			h-20.5C145.5,205.8,144.4,204.6,144.4,203.3z"/>
	</g>
</g>
</svg>
