<?xml version="1.0" encoding="utf-8"?>
<!-- Generator: Adobe Illustrator 21.0.0, SVG Export Plug-In . SVG Version: 6.00 Build 0)  -->
<svg version="1.1" id="Capa_1" xmlns="http://www.w3.org/2000/svg" xmlns:xlink="http://www.w3.org/1999/xlink" x="0px" y="0px"
	 viewBox="0 0 93.8 82.3" style="enable-background:new 0 0 93.8 82.3;" xml:space="preserve">
<style type="text/css">
	.st0{fill:#447D9E;}
	.st1{fill:#77CCFF;}
	.st2{opacity:0.3;}
	.st3{fill:#262626;}
	.st4{fill:#FFFFFF;}
</style>
<g>
	<path class="st0" d="M72.5,49.5c0,5.4-4.4,9.8-9.8,9.8H30.1c-5.4,0-9.8-4.4-9.8-9.8V16.9c0-5.4,4.4-9.8,9.8-9.8h32.6
		c5.4,0,9.8,4.4,9.8,9.8V49.5z"/>
	<path class="st1" d="M72.5,45.3c0,5.4-4.4,9.8-9.8,9.8H30.1c-5.4,0-9.8-4.4-9.8-9.8V16.9c0-5.4,4.4-9.8,9.8-9.8h32.6
		c5.4,0,9.8,4.4,9.8,9.8V45.3z"/>
	<g class="st2">
		<g>
			<path d="M29.5,17.7v0.9h-4v-0.9H27v-4.2c0-0.2,0-0.3,0-0.5l-1,0.9c-0.1,0-0.1,0.1-0.2,0.1c-0.1,0-0.1,0-0.2,0
				c-0.1,0-0.1,0-0.1-0.1c0,0-0.1-0.1-0.1-0.1L25,13.3l2.2-1.9h1v6.3H29.5z"/>
			<path d="M35.6,15.1c0,0.6-0.1,1.2-0.2,1.6s-0.3,0.8-0.6,1.1c-0.2,0.3-0.5,0.5-0.8,0.7c-0.3,0.1-0.7,0.2-1,0.2s-0.7-0.1-1-0.2
				c-0.3-0.1-0.6-0.4-0.8-0.7c-0.2-0.3-0.4-0.7-0.6-1.1c-0.1-0.5-0.2-1-0.2-1.6c0-0.6,0.1-1.2,0.2-1.6c0.1-0.5,0.3-0.8,0.6-1.1
				c0.2-0.3,0.5-0.5,0.8-0.7c0.3-0.1,0.7-0.2,1-0.2s0.7,0.1,1,0.2c0.3,0.1,0.6,0.4,0.8,0.7c0.2,0.3,0.4,0.7,0.6,1.1
				C35.6,13.9,35.6,14.4,35.6,15.1z M34.4,15.1c0-0.5,0-1-0.1-1.3c-0.1-0.3-0.2-0.6-0.3-0.8c-0.1-0.2-0.3-0.3-0.4-0.4
				c-0.2-0.1-0.3-0.1-0.5-0.1c-0.2,0-0.3,0-0.5,0.1c-0.2,0.1-0.3,0.2-0.4,0.4c-0.1,0.2-0.2,0.5-0.3,0.8s-0.1,0.8-0.1,1.3
				s0,1,0.1,1.3c0.1,0.3,0.2,0.6,0.3,0.8c0.1,0.2,0.3,0.3,0.4,0.4c0.2,0.1,0.3,0.1,0.5,0.1c0.2,0,0.4,0,0.5-0.1
				c0.2-0.1,0.3-0.2,0.4-0.4c0.1-0.2,0.2-0.5,0.3-0.8C34.3,16,34.4,15.6,34.4,15.1z"/>
		</g>
		<g>
			<path d="M46.9,21.3v13.6h-1.3c-0.2,0-0.4,0-0.5-0.1c-0.1-0.1-0.3-0.2-0.4-0.3l-7.1-9c0,0.4,0.1,0.8,0.1,1.1v8.3h-2.2V21.3h1.3
				c0.1,0,0.2,0,0.3,0c0.1,0,0.1,0,0.2,0.1c0.1,0,0.1,0.1,0.2,0.1c0.1,0.1,0.1,0.1,0.2,0.2l7.1,9.1c0-0.2,0-0.4,0-0.6
				c0-0.2,0-0.4,0-0.6v-8.2H46.9z"/>
			<path d="M51.1,30.4c0,0.5,0.1,0.9,0.3,1.3c0.1,0.4,0.3,0.7,0.5,0.9c0.2,0.2,0.5,0.4,0.8,0.5s0.7,0.2,1,0.2s0.7,0,1-0.1
				c0.3-0.1,0.5-0.2,0.7-0.3c0.2-0.1,0.4-0.2,0.5-0.3c0.2-0.1,0.3-0.1,0.4-0.1c0.2,0,0.3,0.1,0.4,0.2l0.7,0.8
				c-0.3,0.3-0.5,0.6-0.9,0.8c-0.3,0.2-0.7,0.4-1,0.5c-0.3,0.1-0.7,0.2-1.1,0.3c-0.4,0.1-0.7,0.1-1,0.1c-0.7,0-1.3-0.1-1.9-0.3
				c-0.6-0.2-1.1-0.5-1.5-1c-0.4-0.4-0.8-1-1-1.6c-0.2-0.6-0.4-1.4-0.4-2.2c0-0.7,0.1-1.3,0.3-1.9c0.2-0.6,0.5-1.1,0.9-1.5
				c0.4-0.4,0.9-0.8,1.5-1c0.6-0.3,1.2-0.4,1.9-0.4c0.6,0,1.2,0.1,1.7,0.3s1,0.5,1.3,0.8c0.4,0.4,0.7,0.8,0.9,1.4
				c0.2,0.5,0.3,1.2,0.3,1.9c0,0.4,0,0.6-0.1,0.7c-0.1,0.1-0.2,0.2-0.4,0.2H51.1z M55.5,29c0-0.3,0-0.6-0.1-0.8
				c-0.1-0.3-0.2-0.5-0.4-0.7c-0.2-0.2-0.4-0.4-0.6-0.5s-0.6-0.2-0.9-0.2c-0.7,0-1.2,0.2-1.6,0.6c-0.4,0.4-0.6,0.9-0.7,1.6H55.5z"/>
		</g>
	</g>
	<g>
		<path class="st3" d="M55.1,75.1H48c-0.5,0-0.9-0.4-0.9-0.9s0.4-0.9,0.9-0.9h6.1V57.9c0-0.5,0.4-0.9,0.9-0.9s0.9,0.4,0.9,0.9v16.4
			C55.9,74.8,55.6,75.1,55.1,75.1z"/>
		<path class="st3" d="M37.9,75.1h-7.1c-0.5,0-0.9-0.4-0.9-0.9s0.4-0.9,0.9-0.9h6.1V57.9c0-0.5,0.4-0.9,0.9-0.9s0.9,0.4,0.9,0.9
			v16.4C38.6,74.8,38.3,75.1,37.9,75.1z"/>
	</g>
	<g>
		<path class="st3" d="M21.6,43.1c0.5,0,0.8,0.4,0.8,0.9c0,0.4-0.4,0.8-0.9,0.8c-0.1,0-4.7-0.1-7.9,2.9c-1.9,1.8-2.9,4.5-3,7.8
			l2.6,2.2c0.4,0.3,0.4,0.8,0.1,1.2c-0.3,0.4-0.8,0.4-1.2,0.1l-2.9-2.5c-0.2-0.2-0.3-0.4-0.3-0.7c0-4,1.2-7.2,3.5-9.4
			c3.3-3.1,7.8-3.3,8.9-3.3C21.5,43.1,21.6,43.1,21.6,43.1z"/>
		<path class="st3" d="M10.6,55.6l1.1,4.9c0.2,0.4-0.1,0.9-0.6,1c-0.4,0.2-0.9-0.1-1-0.6L9,56c-0.2-0.4,0.1-0.9,0.6-1
			c0.1,0,0.1,0,0.2,0C10.2,55,10.6,55.3,10.6,55.6z"/>
		<path class="st3" d="M10.1,55.1c0.4,0.2,0.7,0.7,0.5,1.1l-1.8,4.9c-0.2,0.4-0.7,0.7-1.1,0.5c-0.4-0.2-0.7-0.7-0.5-1.1L9,55.6
			C9.1,55.2,9.4,55,9.8,55C9.9,55,10,55,10.1,55.1z"/>
		<path class="st3" d="M10.5,55.4c0.3,0.4,0.2,0.9-0.2,1.2l-3.5,2.5c-0.4,0.3-0.9,0.2-1.2-0.2c-0.3-0.4-0.2-0.9,0.2-1.2l3.5-2.5
			C9.5,55.1,9.6,55,9.8,55C10.1,55,10.4,55.1,10.5,55.4z"/>
	</g>
	<g>
		<path class="st3" d="M72.4,41.3c-0.1,0-0.2,0-0.3,0c-0.5,0-0.8-0.4-0.8-0.9s0.4-0.9,0.9-0.8l0,0c0,0,4.7,0.2,7.9-2.9
			c1.9-1.8,2.9-4.4,3-7.8l-2.6-2.2c-0.4-0.3-0.4-0.9-0.1-1.2c0.3-0.4,0.9-0.4,1.2-0.1l2.9,2.5c0.2,0.2,0.3,0.4,0.3,0.7
			c0,4-1.2,7.2-3.5,9.4C78,41.1,73.5,41.3,72.4,41.3z"/>
		<path class="st3" d="M83.9,29.3c-0.4,0-0.7-0.3-0.8-0.7L82,23.8c-0.1-0.5,0.2-0.9,0.6-1c0.5-0.1,0.9,0.2,1,0.6l1.1,4.9
			c0.1,0.5-0.2,0.9-0.6,1C84.1,29.3,84,29.3,83.9,29.3z"/>
		<path class="st3" d="M83.9,29.3c-0.1,0-0.2,0-0.3-0.1c-0.4-0.2-0.7-0.7-0.5-1.1l1.8-4.9c0.2-0.4,0.7-0.7,1.1-0.5s0.7,0.7,0.5,1.1
			l-1.8,4.9C84.6,29.1,84.3,29.3,83.9,29.3z"/>
		<path class="st3" d="M83.9,29.3c-0.3,0-0.5-0.1-0.7-0.4c-0.3-0.4-0.2-0.9,0.2-1.2l3.5-2.5c0.4-0.3,0.9-0.2,1.2,0.2
			c0.3,0.4,0.2,0.9-0.2,1.2l-3.5,2.5C84.3,29.3,84.1,29.3,83.9,29.3z"/>
	</g>
	<g>
		<g>
			<circle class="st3" cx="62.5" cy="41.6" r="5.1"/>
			<circle class="st4" cx="64.4" cy="39.6" r="1.9"/>
		</g>
		<g>
			<circle class="st3" cx="30.7" cy="41.6" r="5.1"/>
			<circle class="st4" cx="32.6" cy="39.6" r="1.9"/>
		</g>
		<path class="st3" d="M46.8,50.1c-3.3,0-6-2.7-6-6c0-0.4,0.3-0.7,0.7-0.7c0.4,0,0.7,0.3,0.7,0.7c0,2.5,2.1,4.6,4.6,4.6
			c2.5,0,4.6-2.1,4.6-4.6c0-0.4,0.3-0.7,0.7-0.7s0.7,0.3,0.7,0.7C52.8,47.4,50.1,50.1,46.8,50.1z"/>
	</g>
</g>
</svg>
