<?xml version="1.0" encoding="utf-8"?>
<!-- Generator: Adobe Illustrator 16.0.0, SVG Export Plug-In . SVG Version: 6.00 Build 0)  -->
<!DOCTYPE svg PUBLIC "-//W3C//DTD SVG 1.1//EN" "http://www.w3.org/Graphics/SVG/1.1/DTD/svg11.dtd">
<svg version="1.1" id="Capa_1" xmlns="http://www.w3.org/2000/svg" xmlns:xlink="http://www.w3.org/1999/xlink" x="0px" y="0px"
	 width="300px" height="300px" viewBox="0 0 300 300" enable-background="new 0 0 300 300" xml:space="preserve">
<g>
	<g>
		<g>
			<g>
				<g>
					<path fill="#087F5D" d="M188.042,72.93h0.396c3.941-6.504,10.055-13.994,24.44-13.994c17.937,0,33.903,13.798,33.903,41.984
						c0,22.471-10.053,43.758-34.494,43.758c-14.98,0-20.5-8.081-23.063-12.615h-0.396v41.984h-21.482V61.104h20.496L188.042,72.93
						L188.042,72.93z M206.768,127.135c13.799,0,17.74-14.979,17.74-24.639c0-12.812-4.533-25.032-18.332-25.032
						c-14.783,0-18.33,13.206-18.33,26.216C188.042,116.098,193.167,127.135,206.768,127.135z"/>
				</g>
				<g>
					<path fill="#087F5D" d="M151.773,68.988c0.197,6.701-4.73,12.023-12.614,12.023c-6.899,0-11.827-5.322-11.827-12.023
						c0-6.898,5.125-12.221,12.221-12.221C147.043,56.57,151.773,62.09,151.773,68.988z M129.304,142.707V90.473h20.104v52.234
						H129.304z"/>
				</g>
				<g>
					<path fill="#087F5D" d="M53.22,30.355h97.766v18.133h-40.013v94.219H90.867V48.488H53.22V30.355z"/>
				</g>
			</g>
		</g>
	</g>
</g>
</svg>
