<?xml version="1.0" encoding="utf-8"?>
<!-- Generator: Adobe Illustrator 16.0.0, SVG Export Plug-In . SVG Version: 6.00 Build 0)  -->
<!DOCTYPE svg PUBLIC "-//W3C//DTD SVG 1.1//EN" "http://www.w3.org/Graphics/SVG/1.1/DTD/svg11.dtd">
<svg version="1.1" id="Capa_1" xmlns="http://www.w3.org/2000/svg" xmlns:xlink="http://www.w3.org/1999/xlink" x="0px" y="0px"
	 width="408.5px" height="339.5px" viewBox="0 0 408.5 339.5" enable-background="new 0 0 408.5 339.5" xml:space="preserve">
<title>Mesa de trabajo 1</title>
<g>
	<path opacity="0.3" enable-background="new    " d="M177.834,307.951H86.711c-2.699,0-4.797-2.104-4.797-4.794v-4.5
		c0-2.696,2.099-4.794,4.797-4.794h91.123c2.702,0,4.796,2.098,4.796,4.794v4.5C182.63,305.848,180.536,307.951,177.834,307.951z"/>
	<path fill="#087F5D" d="M204.814,231.514c0,15.284-12.294,27.578-27.277,27.578h-0.298H86.114
		c-15.287,0-27.579-12.294-27.579-27.578l0,0v-91.123c0-15.288,12.289-27.576,27.276-27.576l0,0h91.128
		c15.286,0,27.575,11.988,27.575,27.278c0,0,0,0,0,0.298v91.123H204.814L204.814,231.514z"/>
	<path fill="#28E5B8" d="M204.814,219.521c0,15.287-12.294,27.58-27.576,27.58l0,0H86.114c-15.287,0-27.579-12.293-27.579-27.58l0,0
		v-79.13c0-15.291,12.289-27.58,27.276-27.58l0,0h91.128c15.286,0,27.575,11.989,27.575,27.279c0,0,0,0,0,0.301v79.13H204.814z"/>
	<path fill="#262626" d="M102.071,301.055v-45.857l0,0c0-1.506,1.201-2.699,2.702-2.699c1.497,0,2.697,1.193,2.697,2.699v43.457
		h17.386l0,0c1.497,0,2.695,1.201,2.695,2.703c0,1.494-1.198,2.692-2.695,2.692H104.77
		C103.57,304.05,102.369,302.857,102.071,301.055z"/>
	<path fill="#262626" d="M150.03,301.055v-45.857l0,0c0-1.506,1.201-2.699,2.698-2.699c1.5,0,2.697,1.193,2.697,2.699v43.457h17.686
		l0,0c1.499,0,2.697,1.201,2.697,2.703c0,1.494-1.198,2.692-2.697,2.692h-19.783C151.829,304.05,150.03,302.857,150.03,301.055z"/>
	<g>
		<path fill="#262626" d="M64.653,222.559c-0.157,1.817-1.28,2.807-2.498,2.596c-8.144-0.27-16.048,2.451-22.248,7.744
			c-5.858,5.871-8.862,13.619-8.833,21.733l7.108,6.364l0.324,0.277c0.967,0.826,0.779,2.344-0.044,3.312
			c-0.827,0.968-2.345,0.784-3.314-0.042l-8.07-7.188c-0.326-0.278-0.694-1.15-0.74-1.75c0.01-11.424,3.54-20.123,10.273-26.355
			c7.052-5.961,16.41-9.396,25.765-8.921C63.596,220.534,64.56,221.361,64.653,222.559L64.653,222.559z"/>
		<path fill="#262626" d="M34.033,269.438c0.092,1.198-0.737,2.164-1.931,2.256c-1.199,0.094-2.459-0.711-2.851-1.885l-2.886-13.904
			l-0.024-0.301c-0.093-1.193,1.006-2.48,2.2-2.576c1.198-0.092,2.485,1.011,2.578,2.205l2.892,13.908L34.033,269.438
			L34.033,269.438z"/>
		<path fill="#262626" d="M30.939,256.757l-5.25,13.64c-0.505,1.244-1.655,1.932-2.892,1.428c-1.247-0.504-1.963-1.952-1.456-3.197
			l5.25-13.637c0.227-0.922,1.08-1.586,1.973-1.655c1.201-0.095,2.487,1.006,2.58,2.204C31.167,255.83,31.19,256.133,30.939,256.757
			z"/>
		<path fill="#262626" d="M30.113,257.723l-9.991,6.787c0.024,0.301-0.276,0.323-0.276,0.323c-1.153,0.692-2.696,0.21-3.388-0.94
			c-0.692-1.146-0.209-2.688,0.938-3.382l9.997-6.786c0.277-0.32,0.877-0.367,1.171-0.391c1.201-0.096,2.487,1.006,2.58,2.204
			C31.213,256.432,30.683,257.374,30.113,257.723z"/>
	</g>
	<g>
		<path fill="#262626" d="M200.556,219.341l-0.007-0.304c0.27-1.202,1.446-2.135,2.643-2.162c8.115,0.714,16.16-1.572,22.639-6.527
			c6.164-5.539,9.586-13.119,9.694-21.217l-7.057-6.73c-0.924-1.18-0.664-2.684,0.521-3.312c0.887-0.621,2.088-0.649,2.697-0.063
			l7.678,7.615c0.615,0.586,0.929,1.176,0.644,1.783c-0.937,11.417-4.628,19.903-11.684,25.766
			c-7.365,5.569-16.894,8.492-26.212,7.515C201.501,221.42,200.584,220.538,200.556,219.341z"/>
		<path fill="#262626" d="M233.664,174.182c-0.027-1.199,1.148-2.427,2.346-2.455c1.196-0.027,2.115,0.853,2.442,2.037l2.131,14.043
			c0.028,1.201-0.835,2.416-2.335,2.452c-1.202,0.028-2.118-0.848-2.441-1.741L233.664,174.182L233.664,174.182z"/>
		<path fill="#262626" d="M235.798,188.219c-0.007-0.297-0.014-0.594,0.282-0.898l5.979-13.338c0.57-1.213,2.053-1.85,3.268-1.276
			c1.216,0.571,1.551,2.062,1.271,2.971l-5.983,13.334c-0.571,1.214-2.054,1.849-3.269,1.278
			C236.441,190.003,235.82,189.125,235.798,188.219z"/>
		<path fill="#262626" d="M235.798,188.219c-0.021-0.891,0.56-1.81,1.146-2.119l10.352-6.242c1.188-0.629,2.701-0.065,3.324,1.119
			c0.629,1.188,0.357,2.391-0.824,3.022l-10.352,6.237c-1.182,0.629-2.691,0.363-3.318-0.821
			C236.122,189.117,235.813,188.826,235.798,188.219z"/>
	</g>
	<g>
		<g>
			<g>
				<g>
					<g>
						<path fill="#087F5D" d="M149.323,146.689h0.193c1.921-3.17,4.9-6.822,11.914-6.822c8.742,0,16.527,6.728,16.527,20.468
							c0,10.953-4.901,21.331-16.816,21.331c-7.302,0-9.993-3.939-11.243-6.15h-0.194v20.467h-10.471v-55.058h9.992L149.323,146.689
							L149.323,146.689z M158.452,173.113c6.724,0,8.646-7.303,8.646-12.012c0-6.246-2.21-12.201-8.937-12.201
							c-7.206,0-8.935,6.438-8.935,12.779C149.323,167.731,151.82,173.113,158.452,173.113z"/>
					</g>
					<g>
						<path fill="#087F5D" d="M131.64,144.766c0.097,3.268-2.304,5.862-6.148,5.862c-3.362,0-5.766-2.594-5.766-5.862
							c0-3.362,2.498-5.956,5.958-5.956C129.336,138.714,131.64,141.404,131.64,144.766z M120.687,180.704v-25.463h9.802v25.463
							H120.687z"/>
					</g>
					<g>
						<path fill="#087F5D" d="M83.597,125.936h47.661v8.839h-19.505v45.93h-9.803v-45.93H83.597V125.936z"/>
					</g>
				</g>
			</g>
		</g>
	</g>
	<g>
		<g>
			<circle fill="#262626" cx="174.978" cy="212.786" r="14.125"/>
			<circle fill="#FFFFFF" cx="180.263" cy="207.213" r="5.188"/>
		</g>
		<g>
			<path fill="#3A4344" d="M174.576,235.464c-12.543,0-22.744-10.2-22.744-22.743c0-12.546,10.201-22.748,22.744-22.748
				c12.541,0,22.745,10.202,22.745,22.748C197.321,225.264,187.117,235.464,174.576,235.464z M174.576,192.855
				c-10.953,0-19.862,8.91-19.862,19.865c0,10.949,8.909,19.86,19.862,19.86c10.951,0,19.862-8.911,19.862-19.86
				C194.438,201.766,185.527,192.855,174.576,192.855z"/>
			<path fill="#3A4344" d="M87.118,235.464c-12.542,0-22.745-10.2-22.745-22.743c0-12.546,10.204-22.748,22.745-22.748
				c12.542,0,22.748,10.202,22.748,22.748C109.865,225.264,99.66,235.464,87.118,235.464z M87.118,192.855
				c-10.952,0-19.862,8.91-19.862,19.865c0,10.949,8.91,19.86,19.862,19.86c10.952,0,19.863-8.911,19.863-19.86
				C106.981,201.766,98.069,192.855,87.118,192.855z"/>
			<path fill="#3A4344" d="M152.952,214.961c0,0-10.521-4.002-22.104-4.002s-22.105,4.002-22.105,4.002
				c-0.796,0-1.44-0.645-1.44-1.441s0.644-1.442,1.44-1.442c0,0,8.316-4.002,22.142-4.002c13.824,0,22.068,4.002,22.068,4.002
				c0.796,0,1.442,0.646,1.442,1.442C154.394,214.316,153.748,214.961,152.952,214.961z"/>
			<path fill="#3A4344" d="M65.805,214.161c0.354,0,0.712-0.13,0.99-0.394c0.579-0.547,0.605-1.463,0.057-2.037l-8.008-8.483
				c-0.547-0.58-1.457-0.604-2.036-0.06c-0.58,0.543-0.606,1.457-0.059,2.037l8.009,8.48
				C65.04,214.009,65.42,214.161,65.805,214.161z"/>
			<path fill="#3A4344" d="M195.881,214.161c-0.356,0-0.713-0.13-0.99-0.394c-0.58-0.547-0.604-1.463-0.06-2.037l8.01-8.483
				c0.547-0.58,1.457-0.604,2.037-0.06c0.581,0.543,0.606,1.457,0.06,2.037l-8.009,8.48
				C196.645,214.009,196.264,214.161,195.881,214.161z"/>
		</g>
		<g>
			<circle fill="#262626" cx="87.053" cy="213.072" r="14.124"/>
			<path fill="#FFFFFF" d="M92.241,202.309c2.866,0,5.188,2.324,5.188,5.19c0,2.862-2.323,5.188-5.188,5.188
				c-2.864,0-5.188-2.326-5.188-5.188C87.053,204.633,89.377,202.309,92.241,202.309z"/>
		</g>
		<path fill="#262626" d="M146.15,219.959c0.808,0,1.462,0.654,1.462,1.463c0,8.909-7.249,16.161-16.163,16.161
			c-8.912,0-16.163-7.252-16.163-16.161c0-0.809,0.655-1.463,1.462-1.463"/>
	</g>
</g>
</svg>
