<?xml version="1.0" encoding="utf-8"?>
<!-- Generator: Adobe Illustrator 16.0.0, SVG Export Plug-In . SVG Version: 6.00 Build 0)  -->
<!DOCTYPE svg PUBLIC "-//W3C//DTD SVG 1.1//EN" "http://www.w3.org/Graphics/SVG/1.1/DTD/svg11.dtd">
<svg version="1.1" id="Capa_1" xmlns="http://www.w3.org/2000/svg" xmlns:xlink="http://www.w3.org/1999/xlink" x="0px" y="0px"
	 width="320px" height="249px" viewBox="0 0 320 249" enable-background="new 0 0 320 249" xml:space="preserve">
<path opacity="0.3" enable-background="new    " d="M193.458,248h-63.733c-1.888,0-3.356-1.471-3.356-3.354V241.5
	c0-1.887,1.468-3.354,3.356-3.354h63.733c1.89,0,3.354,1.467,3.354,3.354v3.146C196.813,246.529,195.348,248,193.458,248z"/>
<path opacity="0.3" enable-background="new    " d="M263.904,246.743h-52.412c-1.891,0-3.355-1.47-3.355-3.354v-0.63
	c0-1.884,1.467-3.354,3.355-3.354h52.412c1.888,0,3.354,1.472,3.354,3.354v0.63C267.257,245.271,265.582,246.743,263.904,246.743z"
	/>
<path opacity="0.3" enable-background="new    " d="M110.856,246.743H58.443c-1.888,0-3.354-1.47-3.354-3.354v-0.63
	c0-1.884,1.465-3.354,3.354-3.354h52.414c1.888,0,3.354,1.472,3.354,3.354v0.63C114.209,245.271,112.534,246.743,110.856,246.743z"
	/>
<title>Mesa de trabajo 1</title>
<path fill="#84459B" d="M279.627,223.682c-2.514,7.758-10.691,12.158-18.447,9.644l0,0l-46.965-14.888
	c-7.757-2.514-12.16-10.69-9.645-18.447l0,0l14.886-46.963c2.519-7.754,10.69-12.16,18.45-9.644l0,0l46.962,14.886
	c7.76,2.518,12.159,10.691,9.644,18.449l0,0L279.627,223.682z"/>
<path fill="#C379DB" d="M281.516,217.602c-2.518,7.756-10.691,12.158-18.451,9.643l0,0l-46.961-14.883
	c-7.758-2.516-12.16-10.691-9.646-18.45l0,0l13-40.886c2.518-7.754,10.691-12.159,18.45-9.644l0,0l46.962,14.886
	c7.76,2.518,12.16,10.692,9.645,18.451l0,0L281.516,217.602z"/>
<path fill="#262626" d="M257.82,245.271h-9.645c-0.837,0-1.673-0.838-1.467-1.674c0-0.421,0.211-0.632,0.211-0.84l4.612-6.078
	l-2.517-8.179c-0.207-0.836,0.211-1.675,1.051-1.884c0.836-0.213,1.677,0.209,1.886,1.048l2.728,9.015
	c0.207,0.418,0,0.836-0.211,1.258l-3.354,3.985h6.29c1.048,0.21,1.675,1.046,1.466,2.095
	C259.291,244.438,258.664,245.064,257.82,245.271L257.82,245.271z"/>
<path fill="#262626" d="M233.295,245.271h-9.229c-0.836,0-1.672-0.838-1.672-1.674l0,0l1.672-23.691c0-0.838,0.843-1.465,1.68-1.465
	l0,0c0.838,0,1.466,0.627,1.466,1.257v0.212l-1.673,21.801h7.545c1.05,0.213,1.678,1.049,1.467,2.1
	C234.764,244.438,234.134,245.271,233.295,245.271L233.295,245.271z"/>
<path fill="#262626" d="M190.316,206.066c-0.631,0-1.049-0.203-1.262-0.627l-3.144-4.822c-0.212-0.42-0.212-0.838-0.212-1.258
	c1.26-5.243,4.822-9.646,9.435-12.16c4.612-2.098,10.065-2.309,14.888-0.627c0.838,0.418,1.262,1.256,0.838,2.097
	c-0.213,0.838-1.26,1.258-1.889,0.838c-3.982-1.26-8.593-1.048-12.369,0.628c-3.773,2.098-6.502,5.45-7.549,9.646l2.729,4.189
	c0.416,0.633,0.209,1.68-0.422,2.102C190.945,205.863,190.734,206.066,190.316,206.066L190.316,206.066z"/>
<path fill="#262626" d="M186.541,208.796L186.541,208.796c-1.048,0-1.675-0.84-1.675-1.676l0,0l0.627-7.55
	c0-0.838,0.839-1.467,1.677-1.467c0.839,0,1.465,0.84,1.465,1.678l0,0l-0.625,7.546C188.01,208.166,187.377,208.796,186.541,208.796
	z"/>
<path fill="#262626" d="M182.348,207.537c-0.841,0-1.467-0.629-1.467-1.674c0-0.422,0.213-0.635,0.419-1.051l4.821-6.291
	c0.632-0.631,1.47-0.838,2.307-0.207c0.84,0.627,0.84,1.467,0.211,2.303l0,0l-4.822,6.291
	C183.396,207.327,182.768,207.537,182.348,207.537z"/>
<path fill="#262626" d="M181.09,203.137c-0.841,0-1.675-0.631-1.675-1.468c0-0.63,0.419-1.262,1.046-1.468l6.292-1.887
	c0.836-0.211,1.673,0.211,1.882,1.047c0.213,0.84-0.209,1.677-1.046,1.888l-6.289,1.89h-0.21V203.137L181.09,203.137z"/>
<g>
	<path fill="#262626" d="M294.428,189.684l4.523,3.043c0.535,0.332,0.777,0.729,0.736,1.201c0.535,5.506-1.268,10.807-4.735,14.818
		c-3.722,3.613-8.532,5.816-13.711,5.816c-0.862,0.205-1.644-0.523-1.56-1.459c-0.205-0.867,0.527-1.648,1.461-1.563
		c4.244-0.086,8.438-1.683,11.535-4.694c2.92-3.125,4.344-7.421,3.971-11.596l-4.06-3.005l0,0c-0.711-0.442-0.807-1.486-0.362-2.202
		C292.668,189.333,293.713,189.238,294.428,189.684L294.428,189.684z"/>
	<path fill="#262626" d="M297.706,186.775l2.052,7.435c0,0,0.176,0.113,0.067,0.292c0.095,1.045-0.526,1.65-1.394,1.854
		c-1.045,0.095-1.647-0.527-1.852-1.393l-2.055-7.439c0.045-0.465,0.08-0.933,0.305-1.289c0.439-0.711,1.484-0.807,2.201-0.364
		C297.391,186.09,297.635,186.488,297.706,186.775z"/>
	<path fill="#262626" d="M301.971,187.448l-2.476,7.589l0,0c-0.442,0.708-1.349,1.382-2.062,0.941
		c-0.716-0.441-1.209-1.24-0.943-2.063l2.479-7.587l0,0c0.439-0.713,1.239-1.204,2.063-0.941l0.359,0.219
		C302.102,186.047,302.412,186.732,301.971,187.448z"/>
	<path fill="#262626" d="M304.673,189.859L304.673,189.859c0.489,0.798,0.407,1.731-0.394,2.223l-5.158,3.957
		c-0.799,0.488-1.622,0.227-2.227-0.393c-0.492-0.795-0.229-1.621,0.389-2.226l5.165-3.955c0.506-0.425,1.263-0.448,1.797-0.118
		C304.427,189.458,304.427,189.458,304.673,189.859z"/>
</g>
<path fill="#262626" d="M268.936,199.148c4.281,0,7.758,3.472,7.758,7.76c0,4.283-3.477,7.757-7.758,7.757
	c-4.287,0-7.761-3.474-7.761-7.757C261.175,202.62,264.648,199.148,268.936,199.148z"/>
<circle fill="#FFFFFF" cx="266.419" cy="203.556" r="2.727"/>
<circle fill="#262626" cx="223.021" cy="192.441" r="7.759"/>
<circle fill="#FFFFFF" cx="220.505" cy="189.086" r="2.727"/>
<path fill="#262626" d="M241.262,215.083c-4.613-1.464-7.339-6.497-5.871-11.112c0.211-0.625,0.629-0.837,1.258-0.837
	c0.627,0.212,0.84,0.63,0.84,1.259v0.211c-1.049,3.563,0.838,7.34,4.398,8.598c3.565,1.048,7.34-0.84,8.598-4.404
	c0.211-0.629,0.631-0.836,1.263-0.836c0.628,0.207,0.838,0.627,0.838,1.258v0.208C250.902,213.827,245.876,216.553,241.262,215.083
	L241.262,215.083z"/>
<path fill="#75A018" d="M115.888,195.796c2.725,7.761-1.467,16.146-9.225,18.872l-46.752,16.141
	c-7.758,2.728-16.143-1.468-18.87-9.223l-16.143-46.755c-2.728-7.756,1.468-16.146,9.225-18.87l0,0l46.753-16.145
	c7.757-2.727,16.143,1.467,18.87,9.226l0,0L115.888,195.796z"/>
<path fill="#A4ED24" d="M113.791,189.927c2.727,7.757-1.466,16.144-9.224,18.869l0,0l-46.754,16.144
	c-7.756,2.727-16.143-1.467-18.869-9.224l-14.049-40.884c-2.727-7.76,1.468-16.146,9.226-18.873l0,0l46.753-16.143
	c7.758-2.727,16.143,1.47,18.87,9.225l0,0L113.791,189.927z"/>
<circle fill="#262626" cx="97.017" cy="188.667" r="7.758"/>
<circle fill="#FFFFFF" cx="98.696" cy="184.895" r="2.727"/>
<circle fill="#262626" cx="51.523" cy="204.391" r="7.757"/>
<circle fill="#FFFFFF" cx="53.201" cy="200.618" r="2.728"/>
<circle fill="#262626" cx="77.941" cy="205.022" r="3.773"/>
<path fill="#262626" d="M101.211,244.225h-8.805c-0.84,0-1.677-0.625-1.677-1.466c0-0.839,0.628-1.679,1.467-1.679
	c0.208,0,0.208,0,0.419,0h6.499l-5.87-24.316c-0.209-0.84,0.418-1.889,1.258-2.099l0,0c0.839-0.208,1.887,0.21,2.096,1.051l0,0
	l6.291,26.415c0.21,0.42,0,1.047-0.421,1.469C102.259,244.018,101.839,244.438,101.211,244.225z"/>
<path fill="#262626" d="M78.359,245.271H67.876c-1.048,0-1.887-0.838-1.887-1.883c0-1.05,0.839-1.891,1.887-1.891h5.452
	l-6.291-4.822c-0.419-0.417-0.838-1.049-0.628-1.673l2.099-10.485c0.209-0.838,1.047-1.468,2.094-1.261
	c0.84,0.214,1.468,1.048,1.26,1.888l-1.888,9.436l9.225,7.338c0.628,0.421,0.839,1.26,0.628,2.1
	C79.826,244.855,79.199,245.271,78.359,245.271z"/>
<g>
	<path fill="#262626" d="M20.885,191.182c0.536-0.33,1.292-0.301,1.909,0.303c0.907,0.678,0.985,1.613,0.489,2.408l-3.059,3.836
		c0.827,4.166,3.306,7.812,6.706,10.154c3.648,1.945,8.221,2.59,12.276,1.582c0.825-0.26,1.62,0.236,1.879,1.061
		c0.259,0.826-0.305,1.912-1.13,2.168c-5.058,1.377-10.493,0.527-14.939-1.916c-4.485-2.908-7.618-7.629-8.457-13.012
		c-0.04-0.47,0.098-1.047,0.348-1.44l3.552-4.64C20.527,191.396,20.707,191.289,20.885,191.182L20.885,191.182z"/>
	<path fill="#262626" d="M17.335,188.191c0.357-0.223,0.647-0.15,0.935-0.08c0.935-0.08,1.661,0.701,1.742,1.639l-0.006,7.624
		c-0.029,0.751-0.814,1.479-1.568,1.451c-0.936,0.079-1.839-0.595-1.918-1.528l0.006-7.622
		C16.552,188.913,16.799,188.518,17.335,188.191L17.335,188.191z"/>
	<path fill="#262626" d="M13.103,189.305c0.893-0.547,1.759-0.338,2.086,0.198l4.23,6.508c0.547,0.894,0.049,1.689-0.667,2.128l0,0
		c-0.713,0.436-1.646,0.519-2.085-0.197l-4.122-6.326l0,0C12,190.721,12.386,189.743,13.103,189.305L13.103,189.305L13.103,189.305z
		"/>
	<path fill="#262626" d="M12.776,193.195l5.955,2.498l0,0c0.975,0.387,1.523,1.283,1.135,2.258c-0.496,0.796-1.39,1.341-2.363,0.956
		l-5.954-2.501c-0.398-0.249-0.688-0.317-0.905-0.676c-0.438-0.715-0.159-1.871,0.554-2.308
		C11.733,193.096,12.201,193.055,12.776,193.195z"/>
</g>
<path fill="#262626" d="M112.113,187.622c-0.839,0-1.677-0.843-1.677-1.888c0-0.629,0.42-1.26,1.258-1.469l0,0
	c3.982-1.26,7.548-4.195,9.645-7.758c1.676-3.775,1.886-8.177,0.42-12.16l-4.613-1.677c-0.84-0.422-1.469-1.262-1.049-2.31
	c0.419-1.049,1.258-1.465,2.306-1.049l5.451,2.099c0.42,0.212,0.84,0.63,1.047,1.05c2.097,5.03,1.888,10.693-0.419,15.725
	c-2.516,4.4-6.708,7.965-11.741,9.437C112.534,187.622,112.322,187.622,112.113,187.622z"/>
<path fill="#262626" d="M123.015,164.768c-0.628,0-1.047-0.209-1.467-0.84l-3.984-6.496c-0.417-0.843,0-1.89,0.84-2.307
	c0.628-0.419,1.678-0.209,2.097,0.419l3.983,6.5c0.419,0.837,0.211,1.884-0.628,2.31
	C123.645,164.559,123.434,164.768,123.015,164.768z"/>
<path fill="#262626" d="M123.015,164.768L123.015,164.768c-0.839,0-1.676-0.84-1.676-1.679l0,0l0.208-7.965
	c0-0.839,0.839-1.679,1.677-1.679c0.839,0,1.677,0.84,1.677,1.679l0,0l-0.208,7.965
	C124.694,164.139,124.064,164.768,123.015,164.768z"/>
<path fill="#262626" d="M123.015,164.768c-0.419,0-0.628-0.209-1.047-0.42c-0.838-0.63-0.838-1.676-0.418-2.306l3.774-5.24
	c0.628-0.84,1.676-0.84,2.306-0.421c0.839,0.628,0.839,1.678,0.42,2.518l-3.774,5.238
	C124.064,164.559,123.645,164.768,123.015,164.768z"/>
<path fill="#1D4FCC" d="M212.328,194.537c0,10.691-8.598,19.29-19.078,19.29h-0.208h-63.736c-10.691,0-19.289-8.599-19.289-19.29
	l0,0v-63.732c0-10.693,8.596-19.288,19.078-19.288l0,0h63.737c10.691,0,19.287,8.385,19.287,19.079c0,0,0,0,0,0.209v63.732H212.328
	L212.328,194.537z"/>
<path fill="#4874FF" d="M212.328,186.15c0,10.692-8.598,19.289-19.286,19.289l0,0h-63.736c-10.691,0-19.289-8.597-19.289-19.289l0,0
	v-55.346c0-10.694,8.596-19.289,19.078-19.289l0,0h63.737c10.691,0,19.287,8.385,19.287,19.08c0,0,0,0,0,0.209v55.346H212.328z"/>
<circle fill="#262626" cx="192.409" cy="178.395" r="9.852"/>
<circle fill="#FFFFFF" cx="195.973" cy="174.411" r="3.565"/>
<circle fill="#262626" cx="130.144" cy="178.395" r="9.852"/>
<path fill="#FFFFFF" d="M133.706,170.846c1.97,0,3.566,1.596,3.566,3.567c0,1.969-1.596,3.563-3.566,3.563
	c-1.968,0-3.563-1.596-3.563-3.563C130.143,172.441,131.738,170.846,133.706,170.846z"/>
<path fill="#262626" d="M172.077,182.168c0.625,0,1.256,0.419,1.256,1.048c0,0,0,0,0,0.209c0,6.502-5.24,11.741-11.741,11.741
	c-6.496,0-11.74-5.239-11.74-11.741c0-0.626,0.628-1.257,1.259-1.257l0,0H172.077z"/>
<path fill="#262626" d="M178.154,245.271h-14.049c-1.047,0-1.885-0.838-1.885-1.883c0-1.05,0.838-1.891,1.885-1.891l0,0h12.16
	v-30.396c0-1.051,0.84-1.887,1.887-1.887c1.05,0,1.89,0.836,1.89,1.887l0,0v32.075C179.834,244.438,178.993,245.271,178.154,245.271
	z"/>
<path fill="#262626" d="M144.191,245.271h-13.836c-1.048,0-1.887-0.838-1.887-1.883c0-1.05,0.839-1.891,1.887-1.891l0,0h12.369
	v-30.396c0-1.051,0.839-1.887,1.887-1.887c1.047,0,1.887,0.836,1.887,1.887l0,0v32.075
	C146.498,244.438,145.24,245.271,144.191,245.271z"/>
<g opacity="0.3">
	<path d="M258.669,167.704l-2.928,9.305l8.829,2.776l-1.307,4.152l-8.83-2.775l-2.938,9.35l-4.536-1.426l2.935-9.35l-8.779-2.762
		l1.309-4.154l8.781,2.763l2.926-9.304L258.669,167.704z"/>
</g>
<g opacity="0.3">
	<path d="M138.182,130.527h48.077v9.937h-48.077V130.527z M138.182,149.633h48.077v9.979h-48.077V149.633z"/>
</g>
<g>
	<path fill="#7F5903" d="M188.377,91.149c-11.483,0-20.826-9.342-20.826-20.825c0-11.483,9.343-20.825,20.826-20.825
		c11.481,0,20.824,9.342,20.824,20.825C209.201,81.807,199.858,91.149,188.377,91.149z M188.377,53.07
		c-9.515,0-17.255,7.74-17.255,17.254c0,9.514,7.74,17.254,17.255,17.254c9.514,0,17.254-7.74,17.254-17.254
		C205.631,60.811,197.891,53.07,188.377,53.07z"/>
	<path fill="#916700" d="M135.744,91.149c-11.483,0-20.825-9.342-20.825-20.825c0-11.483,9.342-20.825,20.825-20.825
		c11.482,0,20.825,9.342,20.825,20.825C156.569,81.807,147.227,91.149,135.744,91.149z M135.744,53.07
		c-9.514,0-17.254,7.74-17.254,17.254c0,9.514,7.74,17.254,17.254,17.254c9.514,0,17.254-7.74,17.254-17.254
		C152.999,60.811,145.258,53.07,135.744,53.07z"/>
	<path fill="#9B5C00" d="M161.907,19.687c-10.481,0-19.077,8.597-19.077,19.079l19.077-0.208V19.687z"/>
	<path fill="#513014" d="M161.907,156.172h-26.626v-10.275c0-2.306,1.887-4.19,4.193-4.19h22.433"/>
	<path fill="#5E3B19" d="M161.907,141.705H149.12c-2.094,0-3.982-1.678-3.982-3.982l0,0l0,0c0-2.101,1.677-3.983,3.982-3.983h12.788
		"/>
	<rect x="155.41" y="113.822" fill="#B28108" width="6.498" height="19.917"/>
	<path fill="#9B5C00" d="M161.907,113.822h-10.481c-1.467,0-2.726-1.259-2.726-2.727v-0.208c0-1.469,1.258-2.726,2.726-2.726h10.481
		"/>
	<path fill="#AD6B00" d="M161.907,108.162h-19.705c-1.679,0-3.145-1.468-3.145-3.146l0,0v-0.209c0-1.677,1.466-3.145,3.145-3.145
		l0,0h19.705"/>
	<path fill="#BA8B08" d="M161.907,101.87h-24.528c-2.307,0-4.192-1.887-4.192-4.193V45.893h28.722"/>
	<path fill="#AD6B00" d="M161.907,45.893h-28.93c-2.095,0-3.773-1.677-3.773-3.774V41.91c0-2.097,1.677-3.776,3.773-3.776h28.93"/>
	<path fill="#8E5102" d="M161.907,19.687c10.483,0,19.079,8.597,19.079,19.079l-19.079-0.208V19.687z"/>
	<path fill="#3F220D" d="M161.907,156.172h26.626v-10.275c0-2.306-1.885-4.19-4.191-4.19h-22.435"/>
	<path fill="#513014" d="M161.907,141.705h12.788c2.098,0,3.984-1.678,3.984-3.982l0,0l0,0c0-2.101-1.676-3.983-3.984-3.983l0,0
		h-12.788"/>
	<rect x="161.907" y="113.822" fill="#966906" width="6.501" height="19.917"/>
	<path fill="#915403" d="M161.907,113.822h10.483c1.465,0,2.726-1.259,2.726-2.727v-0.208c0-1.469-1.261-2.726-2.726-2.726h-10.483"
		/>
	<path fill="#9B5C02" d="M161.907,108.162h19.708c1.675,0,3.145-1.259,3.145-2.936c0,0,0,0,0-0.208v-0.209
		c0-1.678-1.47-3.146-3.145-3.146h-19.708"/>
	<path fill="#A87A07" d="M161.907,101.87h24.532c2.308,0,4.193-1.887,4.193-4.193V45.893h-28.726"/>
	<path fill="#9B5C02" d="M161.907,45.893h28.934c2.097,0,3.772-1.677,3.772-3.774V41.91c0-2.097-1.676-3.776-3.772-3.776h-28.934"/>
	<polygon fill="#AD6B00" points="153.103,65.811 153.103,95.937 161.907,91.324 161.907,65.811 	"/>
	<polygon fill="#9B5C02" points="170.714,65.811 170.714,95.937 161.907,91.324 161.907,65.811 	"/>
	<circle fill="#BA8B08" cx="161.909" cy="38.229" r="12.104"/>
	<path fill="#A87A07" d="M161.908,26.125c6.686,0,12.105,5.419,12.105,12.104s-5.42,12.104-12.105,12.104"/>
	<path fill="#8E5102" d="M161.699,45.153h11.533c2.304,0,4.19,1.886,4.19,4.191v23.064c0,2.306-1.887,4.437-4.19,4.437h-11.533"/>
	<path fill="#9B5C00" d="M161.907,76.811h-11.53c-2.307,0-4.193-1.887-4.193-4.192V49.556c0-2.308,1.888-4.193,4.193-4.193h11.53"/>
	<path fill="#996B07" d="M161.699,43.685h11.533c2.304,0,4.19,1.678,4.19,3.983V70.73c0,2.306-2.044,4.35-4.348,4.35h-11.533"/>
	<path fill="#AD7E09" d="M161.699,47.876h8.384c1.681,0,3.149,1.68,3.149,3.357v16.353c0,1.68-1.469,3.146-3.149,3.146h-8.384"/>
	<path fill="#965902" d="M161.699,50.604h1.676v14.883h3.145v2.096h-4.821"/>
	<path fill="#A87A07" d="M161.907,75.134h-11.53c-2.307,0-4.193-1.888-4.193-4.193V47.879c0-2.307,1.888-4.194,4.193-4.194h11.53"/>
	<path fill="#BA8B08" d="M161.907,70.729h-8.175c-1.676,0-3.146-1.467-3.146-3.146V51.022c0-1.679,1.467-3.146,3.146-3.146h8.175"/>
	<path fill="#AD6B00" d="M161.909,67.583l-5.033,0.003v-2.307h3.563v-9.854c0-0.419,0-0.838,0-1.26l-2.517,2.097
		c0,0-0.211,0.209-0.419,0.209h-0.21c-0.21,0-0.21,0-0.418,0c-0.209,0-0.209-0.209-0.209-0.209l-0.839-1.259l5.242-4.403h0.839"/>
</g>
<path fill="#262626" d="M114.629,172.523c-0.839,0-1.468-0.627-1.678-1.467c-0.838-6.498,1.049-13.209,4.823-18.451
	c3.981-5.033,9.853-7.967,17.82-8.594c0.419,0,1.049,0.209,1.259,0.42l5.451,5.238c0.629,0.632,0.839,1.68,0.209,2.309
	c-0.63,0.627-1.678,0.84-2.307,0.211l-0.21-0.211l-4.823-4.611c-5.661,0.42-10.902,2.936-14.676,7.339
	c-3.355,4.61-4.823,10.271-4.193,15.935C116.517,171.479,115.888,172.314,114.629,172.523L114.629,172.523z"/>
<path fill="#262626" d="M145.658,148.626h-0.21l-9.854-1.261c-0.838,0-1.677-0.838-1.677-1.678c0-0.838,0.839-1.674,1.677-1.674
	h0.21l9.853,1.258c0.839,0.209,1.468,1.045,1.468,1.886C147.126,147.995,146.498,148.626,145.658,148.626L145.658,148.626z"/>
<path fill="#262626" d="M135.806,147.366c-0.839,0-1.676-0.837-1.676-1.679c0-0.627,0.418-1.258,1.048-1.467l9.225-4.4
	c0.839-0.422,1.888,0,2.308,0.841c0.418,0.837,0,1.675-0.839,2.095l-9.226,4.401C136.225,147.366,136.013,147.366,135.806,147.366z"
	/>
<path fill="#262626" d="M135.806,147.366c-0.839,0-1.676-0.837-1.676-1.679c0-0.207,0-0.627,0.208-0.838l4.192-7.339
	c0.42-0.838,1.469-1.259,2.306-0.838c0.84,0.419,1.259,1.468,0.84,2.31c0,0,0,0.211-0.21,0.211l-4.193,7.336
	C137.062,146.945,136.433,147.366,135.806,147.366z"/>
<path fill="#262626" d="M208.555,172.523h-0.212c-0.836-0.209-1.468-1.047-1.468-1.885c0.632-5.662-0.834-11.324-4.191-15.936
	c-3.771-4.401-9.015-6.921-14.675-7.13l-4.823,4.823c-0.84,0.627-1.888,0.42-2.307-0.42c-0.42-0.629-0.42-1.47,0-1.887l5.451-5.242
	c0.421-0.42,0.838-0.629,1.259-0.42c7.968,0.844,13.839,3.564,17.821,8.596c3.773,5.242,5.658,11.951,4.822,18.451
	C210.023,171.896,209.393,172.523,208.555,172.523z"/>
<path fill="#262626" d="M177.525,148.626c-0.84,0-1.678-0.843-1.678-1.681c0-0.836,0.631-1.465,1.465-1.674l9.856-1.258
	c0.84,0,1.675,0.625,1.675,1.674c0,0.84-0.627,1.467-1.258,1.678L177.525,148.626L177.525,148.626z"/>
<path fill="#262626" d="M187.377,147.366c-0.209,0-0.417,0-0.624-0.212l-9.228-4.4c-0.84-0.42-1.26-1.467-0.84-2.305
	c0.42-0.842,1.467-1.051,2.099-0.842l9.225,4.404c0.839,0.42,1.259,1.467,0.839,2.307
	C188.635,146.945,188.01,147.366,187.377,147.366z"/>
<path fill="#262626" d="M187.377,147.366c-0.624,0-1.258-0.421-1.465-0.837l-4.193-7.34c-0.419-0.842,0-1.889,0.838-2.306
	c0.842-0.42,1.678-0.211,2.1,0.627l4.191,7.339c0.42,0.838,0.209,1.889-0.63,2.308C188.01,147.154,187.8,147.366,187.377,147.366z"
	/>
<g opacity="0.3">
	<path d="M75.079,164.583l-4.59,9.651l10.112,4.793l-1.865,3.844l-10.083-4.778l-4.816,10.12l-3.872-1.806l4.83-10.152l-9.705-4.621
		l1.833-3.86l9.705,4.619l4.57-9.637L75.079,164.583z"/>
</g>
</svg>
