<?xml version="1.0" encoding="utf-8"?>
<!-- Generator: Adobe Illustrator 16.0.0, SVG Export Plug-In . SVG Version: 6.00 Build 0)  -->
<!DOCTYPE svg PUBLIC "-//W3C//DTD SVG 1.1//EN" "http://www.w3.org/Graphics/SVG/1.1/DTD/svg11.dtd">
<svg version="1.1" id="Capa_1" xmlns="http://www.w3.org/2000/svg" xmlns:xlink="http://www.w3.org/1999/xlink" x="0px" y="0px"
	 width="300px" height="300px" viewBox="0 0 300 300" enable-background="new 0 0 300 300" xml:space="preserve">
<g>
	<g>
		<defs>
			<path id="SVGID_1_" d="M299.789,221.609c0,43.178-35.003,78.18-78.18,78.18H78.18c-43.181,0-78.18-35.002-78.18-78.18V78.179
				C0,35.002,34.999,0,78.18,0h143.429c43.177,0,78.18,35.002,78.18,78.179V221.609z"/>
		</defs>
		<clipPath id="SVGID_2_">
			<use xlink:href="#SVGID_1_"  overflow="visible"/>
		</clipPath>
		<g clip-path="url(#SVGID_2_)">
			<path fill="#087F5D" d="M299.789,221.609c0,43.178-35.003,78.18-78.18,78.18H78.18c-43.181,0-78.18-35.002-78.18-78.18V78.179
				C0,35.002,34.999,0,78.18,0h143.429c43.177,0,78.18,35.002,78.18,78.179V221.609z"/>
			<path fill="#28E5B8" d="M299.789,201.881c0,43.178-35.003,78.178-78.18,78.178H78.18c-43.181,0-78.18-35-78.18-78.178V58.449
				C0,15.273,34.999,0,78.18,0h143.429c43.177,0,78.18,15.273,78.18,58.449V201.881z"/>
			<g>
				<g>
					<g>
						<g>
							<g>
								<path fill="#087F5D" d="M187.637,68.827h0.395c3.934-6.491,10.031-13.964,24.387-13.964
									c17.898,0,33.831,13.768,33.831,41.893c0,22.424-10.03,43.665-34.42,43.665c-14.947,0-20.456-8.064-23.013-12.588h-0.396
									v41.894h-21.436V57.026h20.451L187.637,68.827L187.637,68.827z M206.32,122.915c13.769,0,17.703-14.946,17.703-24.586
									c0-12.783-4.524-24.978-18.295-24.978c-14.75,0-18.289,13.179-18.289,26.16C187.637,111.901,192.75,122.915,206.32,122.915z
									"/>
							</g>
							<g>
								<path fill="#087F5D" d="M151.445,64.893c0.195,6.687-4.72,11.997-12.587,11.997c-6.885,0-11.8-5.31-11.8-11.997
									c0-6.883,5.113-12.194,12.193-12.194C146.726,52.502,151.445,58.01,151.445,64.893z M129.025,138.453V86.332h20.061v52.122
									L129.025,138.453L129.025,138.453z"/>
							</g>
							<g>
								<path fill="#087F5D" d="M53.105,26.344h97.554v18.094h-39.925v94.016H90.671V44.438H53.105V26.344z"/>
							</g>
						</g>
					</g>
				</g>
			</g>
			<g>
				<g>
					<circle fill="#262626" cx="240.15" cy="204.125" r="28.913"/>
					<circle fill="#FFFFFF" cx="250.969" cy="192.716" r="10.621"/>
				</g>
				<g>
					<path fill="#3A4344" d="M239.331,250.543c-25.673,0-46.56-20.885-46.56-46.557c0-25.676,20.887-46.563,46.56-46.563
						c25.672,0,46.56,20.887,46.56,46.563C285.891,229.658,265.003,250.543,239.331,250.543z M239.331,163.326
						c-22.42,0-40.658,18.24-40.658,40.66c0,22.416,18.238,40.652,40.658,40.652c22.418,0,40.655-18.236,40.655-40.652
						C279.986,181.566,261.749,163.326,239.331,163.326z"/>
					<path fill="#3A4344" d="M60.31,250.543c-25.672,0-46.559-20.885-46.559-46.557c0-25.676,20.886-46.563,46.559-46.563
						s46.56,20.887,46.56,46.563C106.87,229.658,85.983,250.543,60.31,250.543z M60.31,163.326c-22.418,0-40.657,18.24-40.657,40.66
						c0,22.416,18.239,40.652,40.657,40.652s40.658-18.236,40.658-40.652C100.968,181.566,82.729,163.326,60.31,163.326z"/>
					<path fill="#3A4344" d="M195.066,208.574h-90.493c-1.63,0-2.951-1.322-2.951-2.952c0-1.629,1.32-2.951,2.951-2.951h90.493
						c1.631,0,2.951,1.322,2.951,2.951C198.018,207.252,196.697,208.574,195.066,208.574z"/>
					<path fill="#3A4344" d="M16.683,206.938c0.726,0,1.454-0.268,2.024-0.806c1.186-1.118,1.239-2.987,0.12-4.171L2.435,184.598
						c-1.12-1.186-2.985-1.24-4.172-0.121c-1.185,1.117-1.238,2.988-0.12,4.17l16.393,17.363
						C15.117,206.625,15.899,206.938,16.683,206.938z"/>
					<path fill="#3A4344" d="M282.938,206.938c-0.727,0-1.455-0.268-2.023-0.806c-1.188-1.118-1.239-2.987-0.121-4.171
						l16.395-17.363c1.119-1.186,2.984-1.24,4.172-0.121c1.186,1.117,1.238,2.988,0.119,4.17l-16.394,17.363
						C284.503,206.625,283.721,206.938,282.938,206.938z"/>
				</g>
				<g>
					<circle fill="#262626" cx="60.175" cy="204.709" r="28.913"/>
					<circle fill="#FFFFFF" cx="70.795" cy="193.301" r="10.621"/>
				</g>
				<path fill="#262626" d="M151.054,218.805c18.243,0,33.085,14.842,33.085,33.083c0,1.652-1.34,2.992-2.993,2.992
					c-1.651,0-2.993-1.34-2.993-2.992c0-14.939-12.158-27.098-27.099-27.098c-14.943,0-27.1,12.156-27.1,27.098
					c0,1.652-1.342,2.992-2.994,2.992s-2.992-1.34-2.992-2.992C117.968,233.646,132.81,218.805,151.054,218.805z"/>
			</g>
		</g>
	</g>
</g>
</svg>
