<?xml version="1.0" encoding="utf-8"?>
<!-- Generator: Adobe Illustrator 16.0.0, SVG Export Plug-In . SVG Version: 6.00 Build 0)  -->
<!DOCTYPE svg PUBLIC "-//W3C//DTD SVG 1.1//EN" "http://www.w3.org/Graphics/SVG/1.1/DTD/svg11.dtd">
<svg version="1.1" id="Capa_1" xmlns="http://www.w3.org/2000/svg" xmlns:xlink="http://www.w3.org/1999/xlink" x="0px" y="0px"
	 width="408.5px" height="339.5px" viewBox="0 0 408.5 339.5" enable-background="new 0 0 408.5 339.5" xml:space="preserve">
<g>
	<path fill="#25936E" d="M399.5,196.613c0,11.156-8.976,20.129-20.129,20.129h-35.486H214.746c-11.158,0-20.131-8.973-20.131-20.129
		l0,0V34.481c0-11.162,8.971-20.132,19.912-20.132l0,0h164.624c11.158,0,20.13,8.751,20.13,19.913c0,0,0,0,0,0.219v162.132H399.5z"
		/>
	<path fill="#3CB592" d="M399.5,188.262c0,11.159-8.976,20.133-20.129,20.133h-35.486H214.746c-11.158,0-20.131-8.974-20.131-20.133
		l0,0V26.132C194.615,14.969,203.586,6,214.527,6l0,0h164.624c11.158,0,20.13,8.752,20.13,19.913c0,0,0,0,0,0.22v162.129H399.5z"/>
	<path fill="#A53D3D" d="M325.005,185.654c0,5.666-4.554,10.222-10.106,10.222h-0.11h-33.765c-5.666,0-10.222-4.556-10.222-10.222
		l0,0V151.89c0-5.662,4.556-10.216,10.109-10.216l0,0h33.765c5.665,0,10.219,4.443,10.219,10.106c0,0,0,0,0,0.11v33.764H325.005
		L325.005,185.654z"/>
	<path fill="#F76969" d="M325.005,181.215c0,5.66-4.554,10.219-10.218,10.219l0,0h-33.766c-5.664,0-10.221-4.559-10.221-10.219l0,0
		V151.89c0-5.662,4.555-10.217,10.109-10.217l0,0h33.765c5.665,0,10.22,4.44,10.22,10.107c0,0,0,0,0,0.11v29.325H325.005z"/>
	<path fill="#75A018" d="M262.386,185.654c0,5.666-4.555,10.222-10.108,10.222h-0.109h-33.766c-5.664,0-10.219-4.556-10.219-10.222
		l0,0V151.89c0-5.662,4.553-10.216,10.107-10.216l0,0h33.768c5.662,0,10.217,4.443,10.217,10.106c0,0,0,0,0,0.11v33.764H262.386
		L262.386,185.654z"/>
	<path fill="#A4ED24" d="M262.386,181.215c0,5.66-4.555,10.219-10.219,10.219l0,0H218.4c-5.662,0-10.219-4.559-10.219-10.219l0,0
		V151.89c0-5.662,4.555-10.217,10.108-10.217l0,0h33.767c5.664,0,10.217,4.44,10.217,10.107c0,0,0,0,0,0.11v29.325H262.386z"/>
	<path fill="#1D4FCC" d="M387.625,185.654c0,5.666-4.555,10.222-10.106,10.222h-0.109h-33.768c-5.661,0-10.218-4.556-10.218-10.222
		v-62.62V89.27c0-5.664,4.553-10.217,10.106-10.217l0,0h33.767c5.663,0,10.217,4.442,10.217,10.106c0,0,0,0,0,0.111v33.764h0.111
		V185.654L387.625,185.654z"/>
	<path fill="#4874FF" d="M387.625,181.215c0,5.66-4.555,10.219-10.217,10.219l0,0h-33.768c-5.662,0-10.218-4.559-10.218-10.219
		v-62.621V89.27c0-5.665,4.553-10.219,10.106-10.219l0,0h33.767c5.663,0,10.217,4.442,10.217,10.108c0,0,0,0,0,0.111v29.324
		L387.625,181.215z"/>
	<path fill="#99993D" d="M325.005,123.034c0,5.665-4.554,10.222-10.106,10.222h-0.11h-33.765c-5.666,0-10.222-4.557-10.222-10.222
		l0,0V89.27c0-5.664,4.556-10.217,10.109-10.217l0,0h33.765c5.665,0,10.219,4.442,10.219,10.106c0,0,0,0,0,0.111v33.764H325.005
		L325.005,123.034z"/>
	<path fill="#DDE061" d="M325.005,118.594c0,5.663-4.554,10.218-10.218,10.218l0,0h-33.766c-5.664,0-10.221-4.555-10.221-10.218l0,0
		V89.27c0-5.665,4.555-10.219,10.109-10.219l0,0h33.765c5.665,0,10.22,4.442,10.22,10.108c0,0,0,0,0,0.111v29.324H325.005z"/>
	<path fill="#84459B" d="M262.386,123.034c0,5.665-4.555,10.222-10.108,10.222h-0.109h-33.766c-5.664,0-10.219-4.557-10.219-10.222
		l0,0V89.27c0-5.664,4.553-10.217,10.107-10.217l0,0h33.768c5.662,0,10.217,4.442,10.217,10.106c0,0,0,0,0,0.111v33.764H262.386
		L262.386,123.034z"/>
	<path fill="#25936E" d="M387.625,54.928c0,5.664-4.555,10.22-10.217,10.22H252.167H218.4c-5.662,0-10.219-4.556-10.219-10.22l0,0
		V25.606c0-5.666,4.555-10.219,10.108-10.219l0,0h159.006c5.663,0,10.217,4.442,10.217,10.107c0,0,0,0,0,0.111v29.322
		L387.625,54.928L387.625,54.928z"/>
	<path fill="#5AFFFA" d="M387.625,60.147c0,5.663-4.555,10.218-10.217,10.218H252.167H218.4c-5.662,0-10.219-4.555-10.219-10.218
		l0,0V30.825c0-5.666,4.555-10.218,10.108-10.218l0,0h159.006c5.663,0,10.217,4.442,10.217,10.107c0,0,0,0,0,0.111v29.323
		L387.625,60.147L387.625,60.147z"/>
	<path fill="#C379DB" d="M262.386,118.594c0,5.663-4.555,10.218-10.219,10.218l0,0H218.4c-5.662,0-10.219-4.555-10.219-10.218l0,0
		V89.27c0-5.665,4.555-10.219,10.108-10.219l0,0h33.767c5.664,0,10.217,4.442,10.217,10.108c0,0,0,0,0,0.111v29.324H262.386z"/>
	<g opacity="0.3">
		<path d="M237.742,91.454l-0.001,10.181h9.657v4.543l-9.658,0.003l0.001,10.226h-4.962l-0.004-10.226h-9.607l0.003-4.548
			l9.608,0.001l-0.004-10.177L237.742,91.454z"/>
	</g>
	<g opacity="0.3">
		<path d="M346.671,129.242h27.185v5.619h-27.185V129.242z M346.671,140.045h27.185v5.643h-27.185V140.045z"/>
	</g>
	<g opacity="0.3">
		<path d="M246.161,158.351l-7.8,7.973l8.357,8.158l-3.144,3.162l-8.334-8.135l-8.183,8.358l-3.211-3.093l8.207-8.386l-8.016-7.848
			l3.115-3.192l8.018,7.847l7.775-7.964L246.161,158.351z"/>
	</g>
	<g opacity="0.3">
		<path d="M300.359,163.099L300.359,163.099h9.659v4.542l-9.659,0.002l0,0h-4.965l0,0h-9.605l0.001-4.547l9.61,0.002l0,0
			L300.359,163.099L300.359,163.099z"/>
		<circle cx="297.904" cy="173.72" r="3.436"/>
		<circle cx="297.904" cy="157.021" r="3.436"/>
	</g>
	<path opacity="0.3" enable-background="new    " d="M300.359,101.659L300.359,101.659h9.659v4.543l-9.659,0.001l0,0l-4.965,0.001
		l0,0l-9.605-0.001l0.001-4.546l9.61,0.001l0,0L300.359,101.659L300.359,101.659z"/>
</g>
<title>Mesa de trabajo 1</title>
</svg>
