<?xml version="1.0" encoding="utf-8"?>
<!-- Generator: Adobe Illustrator 16.0.0, SVG Export Plug-In . SVG Version: 6.00 Build 0)  -->
<!DOCTYPE svg PUBLIC "-//W3C//DTD SVG 1.1//EN" "http://www.w3.org/Graphics/SVG/1.1/DTD/svg11.dtd">
<svg version="1.1" id="Capa_1" xmlns="http://www.w3.org/2000/svg" xmlns:xlink="http://www.w3.org/1999/xlink" x="0px" y="0px"
	 width="580px" height="182.152px" viewBox="0 0 580 182.152" enable-background="new 0 0 580 182.152" xml:space="preserve">
<title>Mesa de trabajo 1</title>
<g>
	<g enable-background="new    ">
		<path fill="#444444" d="M103.316,126.042c-0.299-8.073-0.598-17.841-0.598-27.606h-0.299c-2.093,8.571-4.883,18.139-7.475,26.013
			l-8.172,26.212h-11.86l-7.176-26.013c-2.193-7.874-4.485-17.442-6.08-26.212h-0.199c-0.399,9.069-0.698,19.435-1.196,27.807
			l-1.196,25.514H45.011l4.286-67.175h20.232l6.578,22.426c2.093,7.772,4.186,16.145,5.681,24.02h0.299
			c1.894-7.774,4.186-16.645,6.379-24.12l7.176-22.325h19.833l3.688,67.175h-14.851L103.316,126.042z"/>
		<path fill="#444444" d="M158.325,151.756l-0.897-4.883h-0.299c-3.189,3.887-8.173,5.979-13.954,5.979
			c-9.867,0-15.747-7.176-15.747-14.949c0-12.658,11.362-18.738,28.604-18.638v-0.698c0-2.592-1.396-6.279-8.871-6.279
			c-4.983,0-10.266,1.694-13.455,3.688l-2.791-9.768c3.389-1.893,10.066-4.285,18.937-4.285c16.246,0,21.428,9.568,21.428,21.03
			v16.943c0,4.685,0.2,9.169,0.698,11.859H158.325z M156.531,128.733c-7.973-0.1-14.153,1.794-14.153,7.674
			c0,3.888,2.592,5.781,5.98,5.781c3.788,0,6.877-2.491,7.874-5.582c0.2-0.797,0.299-1.694,0.299-2.591V128.733z"/>
		<path fill="#444444" d="M199.385,89.065v13.954h10.863v11.163h-10.863v17.641c0,5.881,1.396,8.571,5.98,8.571
			c1.894,0,3.389-0.199,4.485-0.398l0.1,11.462c-1.994,0.797-5.582,1.295-9.868,1.295c-4.883,0-8.97-1.694-11.361-4.186
			c-2.791-2.891-4.186-7.575-4.186-14.452v-19.933h-6.479v-11.163h6.479V92.454L199.385,89.065z"/>
		<path fill="#444444" d="M230.179,132.221c0.499,6.279,6.678,9.269,13.754,9.269c5.182,0,9.368-0.697,13.455-1.993l1.994,10.266
			c-4.984,1.993-11.063,2.99-17.641,2.99c-16.545,0-26.013-9.568-26.013-24.816c0-12.358,7.674-26.014,24.618-26.014
			c15.748,0,21.728,12.26,21.728,24.319c0,2.591-0.299,4.883-0.499,5.979H230.179z M248.02,121.856c0-3.688-1.595-9.867-8.571-9.867
			c-6.379,0-8.97,5.78-9.369,9.867H248.02z"/>
		<path fill="#444444" d="M271.14,118.567c0-6.079-0.2-11.262-0.399-15.548h12.757l0.698,6.578h0.299
			c2.093-3.09,6.378-7.675,14.75-7.675c6.279,0,11.263,3.189,13.355,8.272h0.199c1.794-2.492,3.987-4.485,6.278-5.88
			c2.692-1.595,5.682-2.393,9.27-2.393c9.368,0,16.445,6.578,16.445,21.13v28.703h-14.75v-26.511c0-7.076-2.293-11.163-7.177-11.163
			c-3.488,0-5.979,2.393-6.977,5.283c-0.398,1.096-0.598,2.69-0.598,3.887v28.504h-14.751v-27.308c0-6.18-2.193-10.366-6.978-10.366
			c-3.886,0-6.179,2.99-7.075,5.482c-0.499,1.196-0.598,2.591-0.598,3.787v28.404h-14.75V118.567z"/>
		<path fill="#444444" d="M384.553,151.756l-0.897-4.883h-0.298c-3.19,3.887-8.174,5.979-13.954,5.979
			c-9.867,0-15.747-7.176-15.747-14.949c0-12.658,11.361-18.738,28.604-18.638v-0.698c0-2.592-1.394-6.279-8.87-6.279
			c-4.983,0-10.266,1.694-13.454,3.688l-2.792-9.768c3.39-1.893,10.067-4.285,18.938-4.285c16.246,0,21.43,9.568,21.43,21.03v16.943
			c0,4.685,0.198,9.169,0.696,11.859H384.553z M382.758,128.733c-7.973-0.1-14.151,1.794-14.151,7.674
			c0,3.888,2.591,5.781,5.98,5.781c3.787,0,6.877-2.491,7.873-5.582c0.198-0.797,0.298-1.694,0.298-2.591V128.733z M392.825,81.79
			l-12.16,15.15h-10.464l8.57-15.15H392.825z"/>
		<path fill="#444444" d="M425.612,89.065v13.954h10.863v11.163h-10.863v17.641c0,5.881,1.396,8.571,5.979,8.571
			c1.894,0,3.389-0.199,4.484-0.398l0.102,11.462c-1.993,0.797-5.583,1.295-9.867,1.295c-4.884,0-8.972-1.694-11.363-4.186
			c-2.789-2.891-4.186-7.575-4.186-14.452v-19.933h-6.478v-11.163h6.478V92.454L425.612,89.065z"/>
		<path fill="#444444" d="M460.893,89.465c0,4.186-3.19,7.574-8.174,7.574c-4.784,0-7.973-3.389-7.873-7.574
			c-0.1-4.386,3.089-7.674,7.973-7.674S460.791,85.079,460.893,89.465z M445.244,151.756v-48.736h15.149v48.736H445.244z"/>
		<path fill="#444444" d="M509.126,150.56c-2.689,1.195-7.774,2.192-13.553,2.192c-15.749,0-25.814-9.568-25.814-24.917
			c0-14.252,9.768-25.913,27.906-25.913c3.986,0,8.372,0.698,11.561,1.895l-2.391,11.261c-1.794-0.797-4.486-1.494-8.473-1.494
			c-7.973,0-13.156,5.682-13.056,13.654c0,8.971,5.98,13.654,13.355,13.654c3.587,0,6.379-0.598,8.672-1.494L509.126,150.56z"/>
		<path fill="#444444" d="M564.539,126.839c0,17.841-12.658,26.014-25.715,26.014c-14.252,0-25.215-9.369-25.215-25.116
			s10.365-25.813,26.013-25.813C554.571,101.923,564.539,112.189,564.539,126.839z M529.257,127.338
			c0,8.372,3.488,14.651,9.966,14.651c5.881,0,9.669-5.881,9.669-14.651c0-7.275-2.792-14.65-9.669-14.65
			C531.947,112.687,529.257,120.162,529.257,127.338z"/>
	</g>
	<g>
		<g>
			<defs>
				<rect id="SVGID_1_" x="377.202" y="27.422" width="186.854" height="48.046"/>
			</defs>
			<clipPath id="SVGID_2_">
				<use xlink:href="#SVGID_1_"  overflow="visible"/>
			</clipPath>
			<g clip-path="url(#SVGID_2_)">
				<g>
					<line fill="none" stroke="#444444" stroke-miterlimit="10" x1="894.828" y1="76.084" x2="946.869" y2="24.021"/>
					<line fill="none" stroke="#444444" stroke-miterlimit="10" x1="887.613" y1="76.084" x2="939.654" y2="24.021"/>
					<line fill="none" stroke="#444444" stroke-miterlimit="10" x1="880.379" y1="76.084" x2="932.441" y2="24.021"/>
					<line fill="none" stroke="#444444" stroke-miterlimit="10" x1="873.164" y1="76.084" x2="925.229" y2="24.021"/>
					<line fill="none" stroke="#444444" stroke-miterlimit="10" x1="865.951" y1="76.084" x2="918.014" y2="24.021"/>
					<line fill="none" stroke="#444444" stroke-miterlimit="10" x1="858.736" y1="76.084" x2="910.777" y2="24.021"/>
					<line fill="none" stroke="#444444" stroke-miterlimit="10" x1="851.523" y1="76.084" x2="903.564" y2="24.021"/>
					<line fill="none" stroke="#444444" stroke-miterlimit="10" x1="844.287" y1="76.084" x2="896.352" y2="24.021"/>
					<line fill="none" stroke="#444444" stroke-miterlimit="10" x1="837.074" y1="76.084" x2="889.137" y2="24.021"/>
					<line fill="none" stroke="#444444" stroke-miterlimit="10" x1="829.859" y1="76.084" x2="881.924" y2="24.021"/>
					<line fill="none" stroke="#444444" stroke-miterlimit="10" x1="822.646" y1="76.084" x2="874.688" y2="24.021"/>
					<line fill="none" stroke="#444444" stroke-miterlimit="10" x1="815.56" y1="76.084" x2="867.473" y2="24.021"/>
					<line fill="none" stroke="#444444" stroke-miterlimit="10" x1="808.345" y1="76.084" x2="860.26" y2="24.021"/>
					<line fill="none" stroke="#444444" stroke-miterlimit="10" x1="801.132" y1="76.084" x2="853.173" y2="24.021"/>
					<line fill="none" stroke="#444444" stroke-miterlimit="10" x1="793.917" y1="76.084" x2="845.96" y2="24.021"/>
					<line fill="none" stroke="#444444" stroke-miterlimit="10" x1="786.683" y1="76.084" x2="838.745" y2="24.021"/>
					<line fill="none" stroke="#444444" stroke-miterlimit="10" x1="779.468" y1="76.084" x2="831.532" y2="24.021"/>
					<line fill="none" stroke="#444444" stroke-miterlimit="10" x1="772.255" y1="76.084" x2="824.317" y2="24.021"/>
					<line fill="none" stroke="#444444" stroke-miterlimit="10" x1="765.04" y1="76.084" x2="817.082" y2="24.021"/>
					<line fill="none" stroke="#444444" stroke-miterlimit="10" x1="757.827" y1="76.084" x2="809.868" y2="24.021"/>
					<line fill="none" stroke="#444444" stroke-miterlimit="10" x1="750.591" y1="76.084" x2="802.654" y2="24.021"/>
					<line fill="none" stroke="#444444" stroke-miterlimit="10" x1="743.378" y1="76.084" x2="795.44" y2="24.021"/>
					<line fill="none" stroke="#444444" stroke-miterlimit="10" x1="736.163" y1="76.084" x2="788.227" y2="24.021"/>
					<line fill="none" stroke="#444444" stroke-miterlimit="10" x1="728.95" y1="76.084" x2="780.991" y2="24.021"/>
					<line fill="none" stroke="#444444" stroke-miterlimit="10" x1="721.863" y1="76.084" x2="773.777" y2="24.021"/>
					<line fill="none" stroke="#444444" stroke-miterlimit="10" x1="714.648" y1="76.084" x2="766.563" y2="24.021"/>
					<line fill="none" stroke="#444444" stroke-miterlimit="10" x1="707.436" y1="76.084" x2="759.477" y2="24.021"/>
					<line fill="none" stroke="#444444" stroke-miterlimit="10" x1="700.221" y1="76.084" x2="752.263" y2="24.021"/>
					<line fill="none" stroke="#444444" stroke-miterlimit="10" x1="693.008" y1="76.084" x2="745.049" y2="24.021"/>
					<line fill="none" stroke="#444444" stroke-miterlimit="10" x1="685.771" y1="76.084" x2="737.835" y2="24.021"/>
					<line fill="none" stroke="#444444" stroke-miterlimit="10" x1="678.559" y1="76.084" x2="730.621" y2="24.021"/>
					<line fill="none" stroke="#444444" stroke-miterlimit="10" x1="671.344" y1="76.084" x2="723.386" y2="24.021"/>
					<line fill="none" stroke="#444444" stroke-miterlimit="10" x1="1103.735" y1="76.084" x2="1155.776" y2="24.021"/>
					<line fill="none" stroke="#444444" stroke-miterlimit="10" x1="1096.648" y1="76.084" x2="1148.562" y2="24.021"/>
					<line fill="none" stroke="#444444" stroke-miterlimit="10" x1="1089.434" y1="76.084" x2="1141.349" y2="24.021"/>
					<line fill="none" stroke="#444444" stroke-miterlimit="10" x1="1082.22" y1="76.084" x2="1134.133" y2="24.021"/>
					<line fill="none" stroke="#444444" stroke-miterlimit="10" x1="1075.005" y1="76.084" x2="1127.047" y2="24.021"/>
					<line fill="none" stroke="#444444" stroke-miterlimit="10" x1="1067.771" y1="76.084" x2="1119.833" y2="24.021"/>
					<line fill="none" stroke="#444444" stroke-miterlimit="10" x1="1060.557" y1="76.084" x2="1112.618" y2="24.021"/>
					<line fill="none" stroke="#444444" stroke-miterlimit="10" x1="1053.344" y1="76.084" x2="1105.385" y2="24.021"/>
					<line fill="none" stroke="#444444" stroke-miterlimit="10" x1="1046.129" y1="76.084" x2="1098.17" y2="24.021"/>
					<line fill="none" stroke="#444444" stroke-miterlimit="10" x1="1038.916" y1="76.084" x2="1090.957" y2="24.021"/>
					<line fill="none" stroke="#444444" stroke-miterlimit="10" x1="1031.68" y1="76.084" x2="1083.742" y2="24.021"/>
					<line fill="none" stroke="#444444" stroke-miterlimit="10" x1="1024.467" y1="76.084" x2="1076.529" y2="24.021"/>
					<line fill="none" stroke="#444444" stroke-miterlimit="10" x1="1017.252" y1="76.084" x2="1069.293" y2="24.021"/>
					<line fill="none" stroke="#444444" stroke-miterlimit="10" x1="1010.039" y1="76.084" x2="1062.08" y2="24.021"/>
					<line fill="none" stroke="#444444" stroke-miterlimit="10" x1="1002.952" y1="76.084" x2="1054.865" y2="24.021"/>
					<line fill="none" stroke="#444444" stroke-miterlimit="10" x1="995.737" y1="76.084" x2="1047.652" y2="24.021"/>
					<line fill="none" stroke="#444444" stroke-miterlimit="10" x1="988.524" y1="76.084" x2="1040.565" y2="24.021"/>
					<line fill="none" stroke="#444444" stroke-miterlimit="10" x1="981.309" y1="76.084" x2="1033.351" y2="24.021"/>
					<line fill="none" stroke="#444444" stroke-miterlimit="10" x1="974.075" y1="76.084" x2="1026.137" y2="24.021"/>
					<line fill="none" stroke="#444444" stroke-miterlimit="10" x1="966.86" y1="76.084" x2="1018.922" y2="24.021"/>
					<line fill="none" stroke="#444444" stroke-miterlimit="10" x1="959.647" y1="76.084" x2="1011.688" y2="24.021"/>
					<line fill="none" stroke="#444444" stroke-miterlimit="10" x1="952.433" y1="76.084" x2="1004.474" y2="24.021"/>
					<line fill="none" stroke="#444444" stroke-miterlimit="10" x1="945.22" y1="76.084" x2="997.261" y2="24.021"/>
					<line fill="none" stroke="#444444" stroke-miterlimit="10" x1="937.983" y1="76.084" x2="990.046" y2="24.021"/>
					<line fill="none" stroke="#444444" stroke-miterlimit="10" x1="930.771" y1="76.084" x2="982.833" y2="24.021"/>
					<line fill="none" stroke="#444444" stroke-miterlimit="10" x1="923.556" y1="76.084" x2="975.618" y2="24.021"/>
					<line fill="none" stroke="#444444" stroke-miterlimit="10" x1="916.343" y1="76.084" x2="968.384" y2="24.021"/>
					<line fill="none" stroke="#444444" stroke-miterlimit="10" x1="909.256" y1="76.084" x2="961.169" y2="24.021"/>
					<line fill="none" stroke="#444444" stroke-miterlimit="10" x1="902.041" y1="76.084" x2="953.956" y2="24.021"/>
				</g>
				<g>
					<line fill="none" stroke="#444444" stroke-miterlimit="10" x1="454.947" y1="76.084" x2="506.988" y2="24.021"/>
					<line fill="none" stroke="#444444" stroke-miterlimit="10" x1="447.732" y1="76.084" x2="499.773" y2="24.021"/>
					<line fill="none" stroke="#444444" stroke-miterlimit="10" x1="440.498" y1="76.084" x2="492.561" y2="24.021"/>
					<line fill="none" stroke="#444444" stroke-miterlimit="10" x1="433.283" y1="76.084" x2="485.347" y2="24.021"/>
					<line fill="none" stroke="#444444" stroke-miterlimit="10" x1="426.07" y1="76.084" x2="478.132" y2="24.021"/>
					<line fill="none" stroke="#444444" stroke-miterlimit="10" x1="418.855" y1="76.084" x2="470.896" y2="24.021"/>
					<line fill="none" stroke="#444444" stroke-miterlimit="10" x1="411.643" y1="76.084" x2="463.684" y2="24.021"/>
					<line fill="none" stroke="#444444" stroke-miterlimit="10" x1="404.406" y1="76.084" x2="456.471" y2="24.021"/>
					<line fill="none" stroke="#444444" stroke-miterlimit="10" x1="397.193" y1="76.084" x2="449.256" y2="24.021"/>
					<line fill="none" stroke="#444444" stroke-miterlimit="10" x1="389.979" y1="76.084" x2="442.043" y2="24.021"/>
					<line fill="none" stroke="#444444" stroke-miterlimit="10" x1="382.766" y1="76.084" x2="434.807" y2="24.021"/>
					<line fill="none" stroke="#444444" stroke-miterlimit="10" x1="375.679" y1="76.084" x2="427.592" y2="24.021"/>
					<line fill="none" stroke="#444444" stroke-miterlimit="10" x1="368.464" y1="76.084" x2="420.379" y2="24.021"/>
					<line fill="none" stroke="#444444" stroke-miterlimit="10" x1="361.251" y1="76.084" x2="413.292" y2="24.021"/>
					<line fill="none" stroke="#444444" stroke-miterlimit="10" x1="354.036" y1="76.084" x2="406.079" y2="24.021"/>
					<line fill="none" stroke="#444444" stroke-miterlimit="10" x1="346.802" y1="76.084" x2="398.864" y2="24.021"/>
					<line fill="none" stroke="#444444" stroke-miterlimit="10" x1="339.587" y1="76.084" x2="391.651" y2="24.021"/>
					<line fill="none" stroke="#444444" stroke-miterlimit="10" x1="332.374" y1="76.084" x2="384.437" y2="24.021"/>
					<line fill="none" stroke="#444444" stroke-miterlimit="10" x1="325.159" y1="76.084" x2="377.201" y2="24.021"/>
					<line fill="none" stroke="#444444" stroke-miterlimit="10" x1="317.946" y1="76.084" x2="369.987" y2="24.021"/>
					<line fill="none" stroke="#444444" stroke-miterlimit="10" x1="310.71" y1="76.084" x2="362.773" y2="24.021"/>
					<line fill="none" stroke="#444444" stroke-miterlimit="10" x1="303.497" y1="76.084" x2="355.56" y2="24.021"/>
					<line fill="none" stroke="#444444" stroke-miterlimit="10" x1="296.282" y1="76.084" x2="348.346" y2="24.021"/>
					<line fill="none" stroke="#444444" stroke-miterlimit="10" x1="289.069" y1="76.084" x2="341.11" y2="24.021"/>
					<line fill="none" stroke="#444444" stroke-miterlimit="10" x1="281.982" y1="76.084" x2="333.896" y2="24.021"/>
					<line fill="none" stroke="#444444" stroke-miterlimit="10" x1="274.768" y1="76.084" x2="326.683" y2="24.021"/>
					<line fill="none" stroke="#444444" stroke-miterlimit="10" x1="267.554" y1="76.084" x2="319.596" y2="24.021"/>
					<line fill="none" stroke="#444444" stroke-miterlimit="10" x1="260.34" y1="76.084" x2="312.382" y2="24.021"/>
					<line fill="none" stroke="#444444" stroke-miterlimit="10" x1="253.125" y1="76.084" x2="305.168" y2="24.021"/>
					<line fill="none" stroke="#444444" stroke-miterlimit="10" x1="245.891" y1="76.084" x2="297.953" y2="24.021"/>
					<line fill="none" stroke="#444444" stroke-miterlimit="10" x1="238.677" y1="76.084" x2="290.739" y2="24.021"/>
					<line fill="none" stroke="#444444" stroke-miterlimit="10" x1="231.463" y1="76.084" x2="283.505" y2="24.021"/>
					<line fill="none" stroke="#444444" stroke-miterlimit="10" x1="663.854" y1="76.084" x2="715.896" y2="24.021"/>
					<line fill="none" stroke="#444444" stroke-miterlimit="10" x1="656.767" y1="76.084" x2="708.681" y2="24.021"/>
					<line fill="none" stroke="#444444" stroke-miterlimit="10" x1="649.552" y1="76.084" x2="701.467" y2="24.021"/>
					<line fill="none" stroke="#444444" stroke-miterlimit="10" x1="642.339" y1="76.084" x2="694.252" y2="24.021"/>
					<line fill="none" stroke="#444444" stroke-miterlimit="10" x1="635.124" y1="76.084" x2="687.165" y2="24.021"/>
					<line fill="none" stroke="#444444" stroke-miterlimit="10" x1="627.891" y1="76.084" x2="679.952" y2="24.021"/>
					<line fill="none" stroke="#444444" stroke-miterlimit="10" x1="620.676" y1="76.084" x2="672.737" y2="24.021"/>
					<line fill="none" stroke="#444444" stroke-miterlimit="10" x1="613.463" y1="76.084" x2="665.504" y2="24.021"/>
					<line fill="none" stroke="#444444" stroke-miterlimit="10" x1="606.248" y1="76.084" x2="658.289" y2="24.021"/>
					<line fill="none" stroke="#444444" stroke-miterlimit="10" x1="599.034" y1="76.084" x2="651.076" y2="24.021"/>
					<line fill="none" stroke="#444444" stroke-miterlimit="10" x1="591.799" y1="76.084" x2="643.861" y2="24.021"/>
					<line fill="none" stroke="#444444" stroke-miterlimit="10" x1="584.586" y1="76.084" x2="636.647" y2="24.021"/>
					<line fill="none" stroke="#444444" stroke-miterlimit="10" x1="577.371" y1="76.084" x2="629.412" y2="24.021"/>
					<line fill="none" stroke="#444444" stroke-miterlimit="10" x1="570.158" y1="76.084" x2="622.199" y2="24.021"/>
					<line fill="none" stroke="#444444" stroke-miterlimit="10" x1="563.071" y1="76.084" x2="614.984" y2="24.021"/>
					<line fill="none" stroke="#444444" stroke-miterlimit="10" x1="555.856" y1="76.084" x2="607.771" y2="24.021"/>
					<line fill="none" stroke="#444444" stroke-miterlimit="10" x1="548.643" y1="76.084" x2="600.685" y2="24.021"/>
					<line fill="none" stroke="#444444" stroke-miterlimit="10" x1="541.428" y1="76.084" x2="593.469" y2="24.021"/>
					<line fill="none" stroke="#444444" stroke-miterlimit="10" x1="534.194" y1="76.084" x2="586.256" y2="24.021"/>
					<line fill="none" stroke="#444444" stroke-miterlimit="10" x1="526.979" y1="76.084" x2="579.041" y2="24.021"/>
					<line fill="none" stroke="#444444" stroke-miterlimit="10" x1="519.767" y1="76.084" x2="571.808" y2="24.021"/>
					<line fill="none" stroke="#444444" stroke-miterlimit="10" x1="512.552" y1="76.084" x2="564.593" y2="24.021"/>
					<line fill="none" stroke="#444444" stroke-miterlimit="10" x1="505.339" y1="76.084" x2="557.38" y2="24.021"/>
					<line fill="none" stroke="#444444" stroke-miterlimit="10" x1="498.103" y1="76.084" x2="550.165" y2="24.021"/>
					<line fill="none" stroke="#444444" stroke-miterlimit="10" x1="490.89" y1="76.084" x2="542.951" y2="24.021"/>
					<line fill="none" stroke="#444444" stroke-miterlimit="10" x1="483.675" y1="76.084" x2="535.736" y2="24.021"/>
					<line fill="none" stroke="#444444" stroke-miterlimit="10" x1="476.462" y1="76.084" x2="528.503" y2="24.021"/>
					<line fill="none" stroke="#444444" stroke-miterlimit="10" x1="469.375" y1="76.084" x2="521.288" y2="24.021"/>
					<line fill="none" stroke="#444444" stroke-miterlimit="10" x1="462.16" y1="76.084" x2="514.075" y2="24.021"/>
				</g>
			</g>
		</g>
	</g>
	<g>
		<g>
			<defs>
				<rect id="SVGID_3_" x="42.893" y="27.422" width="71.507" height="48.046"/>
			</defs>
			<clipPath id="SVGID_4_">
				<use xlink:href="#SVGID_3_"  overflow="visible"/>
			</clipPath>
			<g clip-path="url(#SVGID_4_)">
				<g>
					<line fill="none" stroke="#444444" stroke-miterlimit="10" x1="593.754" y1="76.084" x2="645.795" y2="24.021"/>
					<line fill="none" stroke="#444444" stroke-miterlimit="10" x1="586.539" y1="76.084" x2="638.58" y2="24.021"/>
					<line fill="none" stroke="#444444" stroke-miterlimit="10" x1="579.305" y1="76.084" x2="631.367" y2="24.021"/>
					<line fill="none" stroke="#444444" stroke-miterlimit="10" x1="572.09" y1="76.084" x2="624.154" y2="24.021"/>
					<line fill="none" stroke="#444444" stroke-miterlimit="10" x1="564.877" y1="76.084" x2="616.939" y2="24.021"/>
					<line fill="none" stroke="#444444" stroke-miterlimit="10" x1="557.662" y1="76.084" x2="609.703" y2="24.021"/>
					<line fill="none" stroke="#444444" stroke-miterlimit="10" x1="550.449" y1="76.084" x2="602.49" y2="24.021"/>
					<line fill="none" stroke="#444444" stroke-miterlimit="10" x1="543.213" y1="76.084" x2="595.277" y2="24.021"/>
					<line fill="none" stroke="#444444" stroke-miterlimit="10" x1="536" y1="76.084" x2="588.063" y2="24.021"/>
					<line fill="none" stroke="#444444" stroke-miterlimit="10" x1="528.785" y1="76.084" x2="580.85" y2="24.021"/>
					<line fill="none" stroke="#444444" stroke-miterlimit="10" x1="521.572" y1="76.084" x2="573.613" y2="24.021"/>
					<line fill="none" stroke="#444444" stroke-miterlimit="10" x1="514.485" y1="76.084" x2="566.398" y2="24.021"/>
					<line fill="none" stroke="#444444" stroke-miterlimit="10" x1="507.271" y1="76.084" x2="559.186" y2="24.021"/>
					<line fill="none" stroke="#444444" stroke-miterlimit="10" x1="500.058" y1="76.084" x2="552.099" y2="24.021"/>
					<line fill="none" stroke="#444444" stroke-miterlimit="10" x1="492.843" y1="76.084" x2="544.886" y2="24.021"/>
					<line fill="none" stroke="#444444" stroke-miterlimit="10" x1="485.608" y1="76.084" x2="537.671" y2="24.021"/>
					<line fill="none" stroke="#444444" stroke-miterlimit="10" x1="478.394" y1="76.084" x2="530.458" y2="24.021"/>
					<line fill="none" stroke="#444444" stroke-miterlimit="10" x1="471.181" y1="76.084" x2="523.243" y2="24.021"/>
					<line fill="none" stroke="#444444" stroke-miterlimit="10" x1="463.966" y1="76.084" x2="516.008" y2="24.021"/>
					<line fill="none" stroke="#444444" stroke-miterlimit="10" x1="456.753" y1="76.084" x2="508.794" y2="24.021"/>
					<line fill="none" stroke="#444444" stroke-miterlimit="10" x1="449.517" y1="76.084" x2="501.58" y2="24.021"/>
					<line fill="none" stroke="#444444" stroke-miterlimit="10" x1="442.304" y1="76.084" x2="494.366" y2="24.021"/>
					<line fill="none" stroke="#444444" stroke-miterlimit="10" x1="435.089" y1="76.084" x2="487.152" y2="24.021"/>
					<line fill="none" stroke="#444444" stroke-miterlimit="10" x1="427.876" y1="76.084" x2="479.917" y2="24.021"/>
					<line fill="none" stroke="#444444" stroke-miterlimit="10" x1="420.789" y1="76.084" x2="472.703" y2="24.021"/>
					<line fill="none" stroke="#444444" stroke-miterlimit="10" x1="413.574" y1="76.084" x2="465.489" y2="24.021"/>
					<line fill="none" stroke="#444444" stroke-miterlimit="10" x1="406.361" y1="76.084" x2="458.402" y2="24.021"/>
					<line fill="none" stroke="#444444" stroke-miterlimit="10" x1="399.146" y1="76.084" x2="451.188" y2="24.021"/>
					<line fill="none" stroke="#444444" stroke-miterlimit="10" x1="391.934" y1="76.084" x2="443.975" y2="24.021"/>
					<line fill="none" stroke="#444444" stroke-miterlimit="10" x1="384.697" y1="76.084" x2="436.761" y2="24.021"/>
					<line fill="none" stroke="#444444" stroke-miterlimit="10" x1="377.484" y1="76.084" x2="429.547" y2="24.021"/>
					<line fill="none" stroke="#444444" stroke-miterlimit="10" x1="370.27" y1="76.084" x2="422.312" y2="24.021"/>
					<line fill="none" stroke="#444444" stroke-miterlimit="10" x1="802.661" y1="76.084" x2="854.702" y2="24.021"/>
					<line fill="none" stroke="#444444" stroke-miterlimit="10" x1="795.574" y1="76.084" x2="847.487" y2="24.021"/>
					<line fill="none" stroke="#444444" stroke-miterlimit="10" x1="788.359" y1="76.084" x2="840.274" y2="24.021"/>
					<line fill="none" stroke="#444444" stroke-miterlimit="10" x1="781.146" y1="76.084" x2="833.06" y2="24.021"/>
					<line fill="none" stroke="#444444" stroke-miterlimit="10" x1="773.932" y1="76.084" x2="825.973" y2="24.021"/>
					<line fill="none" stroke="#444444" stroke-miterlimit="10" x1="766.697" y1="76.084" x2="818.76" y2="24.021"/>
					<line fill="none" stroke="#444444" stroke-miterlimit="10" x1="759.482" y1="76.084" x2="811.545" y2="24.021"/>
					<line fill="none" stroke="#444444" stroke-miterlimit="10" x1="752.27" y1="76.084" x2="804.311" y2="24.021"/>
					<line fill="none" stroke="#444444" stroke-miterlimit="10" x1="745.055" y1="76.084" x2="797.096" y2="24.021"/>
					<line fill="none" stroke="#444444" stroke-miterlimit="10" x1="737.842" y1="76.084" x2="789.883" y2="24.021"/>
					<line fill="none" stroke="#444444" stroke-miterlimit="10" x1="730.605" y1="76.084" x2="782.668" y2="24.021"/>
					<line fill="none" stroke="#444444" stroke-miterlimit="10" x1="723.393" y1="76.084" x2="775.455" y2="24.021"/>
					<line fill="none" stroke="#444444" stroke-miterlimit="10" x1="716.178" y1="76.084" x2="768.219" y2="24.021"/>
					<line fill="none" stroke="#444444" stroke-miterlimit="10" x1="708.965" y1="76.084" x2="761.006" y2="24.021"/>
					<line fill="none" stroke="#444444" stroke-miterlimit="10" x1="701.878" y1="76.084" x2="753.791" y2="24.021"/>
					<line fill="none" stroke="#444444" stroke-miterlimit="10" x1="694.663" y1="76.084" x2="746.578" y2="24.021"/>
					<line fill="none" stroke="#444444" stroke-miterlimit="10" x1="687.45" y1="76.084" x2="739.491" y2="24.021"/>
					<line fill="none" stroke="#444444" stroke-miterlimit="10" x1="680.235" y1="76.084" x2="732.276" y2="24.021"/>
					<line fill="none" stroke="#444444" stroke-miterlimit="10" x1="673.001" y1="76.084" x2="725.063" y2="24.021"/>
					<line fill="none" stroke="#444444" stroke-miterlimit="10" x1="665.786" y1="76.084" x2="717.849" y2="24.021"/>
					<line fill="none" stroke="#444444" stroke-miterlimit="10" x1="658.573" y1="76.084" x2="710.614" y2="24.021"/>
					<line fill="none" stroke="#444444" stroke-miterlimit="10" x1="651.358" y1="76.084" x2="703.399" y2="24.021"/>
					<line fill="none" stroke="#444444" stroke-miterlimit="10" x1="644.146" y1="76.084" x2="696.187" y2="24.021"/>
					<line fill="none" stroke="#444444" stroke-miterlimit="10" x1="636.909" y1="76.084" x2="688.972" y2="24.021"/>
					<line fill="none" stroke="#444444" stroke-miterlimit="10" x1="629.696" y1="76.084" x2="681.759" y2="24.021"/>
					<line fill="none" stroke="#444444" stroke-miterlimit="10" x1="622.481" y1="76.084" x2="674.544" y2="24.021"/>
					<line fill="none" stroke="#444444" stroke-miterlimit="10" x1="615.269" y1="76.084" x2="667.31" y2="24.021"/>
					<line fill="none" stroke="#444444" stroke-miterlimit="10" x1="608.182" y1="76.084" x2="660.095" y2="24.021"/>
					<line fill="none" stroke="#444444" stroke-miterlimit="10" x1="600.967" y1="76.084" x2="652.882" y2="24.021"/>
				</g>
				<g>
					<line fill="none" stroke="#444444" stroke-miterlimit="10" x1="153.872" y1="76.084" x2="205.914" y2="24.021"/>
					<line fill="none" stroke="#444444" stroke-miterlimit="10" x1="146.658" y1="76.084" x2="198.699" y2="24.021"/>
					<line fill="none" stroke="#444444" stroke-miterlimit="10" x1="139.423" y1="76.084" x2="191.485" y2="24.021"/>
					<line fill="none" stroke="#444444" stroke-miterlimit="10" x1="132.209" y1="76.084" x2="184.272" y2="24.021"/>
					<line fill="none" stroke="#444444" stroke-miterlimit="10" x1="124.995" y1="76.084" x2="177.059" y2="24.021"/>
					<line fill="none" stroke="#444444" stroke-miterlimit="10" x1="117.781" y1="76.084" x2="169.823" y2="24.021"/>
					<line fill="none" stroke="#444444" stroke-miterlimit="10" x1="110.568" y1="76.084" x2="162.609" y2="24.021"/>
					<line fill="none" stroke="#444444" stroke-miterlimit="10" x1="103.333" y1="76.084" x2="155.396" y2="24.021"/>
					<line fill="none" stroke="#444444" stroke-miterlimit="10" x1="96.118" y1="76.084" x2="148.182" y2="24.021"/>
					<line fill="none" stroke="#444444" stroke-miterlimit="10" x1="88.904" y1="76.084" x2="140.968" y2="24.021"/>
					<line fill="none" stroke="#444444" stroke-miterlimit="10" x1="81.69" y1="76.084" x2="133.732" y2="24.021"/>
					<line fill="none" stroke="#444444" stroke-miterlimit="10" x1="74.604" y1="76.084" x2="126.518" y2="24.021"/>
					<line fill="none" stroke="#444444" stroke-miterlimit="10" x1="67.391" y1="76.084" x2="119.304" y2="24.021"/>
					<line fill="none" stroke="#444444" stroke-miterlimit="10" x1="60.177" y1="76.084" x2="112.217" y2="24.021"/>
					<line fill="none" stroke="#444444" stroke-miterlimit="10" x1="52.962" y1="76.084" x2="105.004" y2="24.021"/>
					<line fill="none" stroke="#444444" stroke-miterlimit="10" x1="45.727" y1="76.084" x2="97.791" y2="24.021"/>
					<line fill="none" stroke="#444444" stroke-miterlimit="10" x1="38.514" y1="76.084" x2="90.576" y2="24.021"/>
					<line fill="none" stroke="#444444" stroke-miterlimit="10" x1="31.3" y1="76.084" x2="83.361" y2="24.021"/>
					<line fill="none" stroke="#444444" stroke-miterlimit="10" x1="24.085" y1="76.084" x2="76.127" y2="24.021"/>
					<line fill="none" stroke="#444444" stroke-miterlimit="10" x1="16.872" y1="76.084" x2="68.914" y2="24.021"/>
					<line fill="none" stroke="#444444" stroke-miterlimit="10" x1="9.637" y1="76.084" x2="61.699" y2="24.021"/>
					<line fill="none" stroke="#444444" stroke-miterlimit="10" x1="2.423" y1="76.084" x2="54.485" y2="24.021"/>
					<line fill="none" stroke="#444444" stroke-miterlimit="10" x1="-4.791" y1="76.084" x2="47.271" y2="24.021"/>
					<line fill="none" stroke="#444444" stroke-miterlimit="10" x1="-12.005" y1="76.084" x2="40.037" y2="24.021"/>
					<line fill="none" stroke="#444444" stroke-miterlimit="10" x1="-19.092" y1="76.084" x2="32.822" y2="24.021"/>
					<line fill="none" stroke="#444444" stroke-miterlimit="10" x1="-26.306" y1="76.084" x2="25.608" y2="24.021"/>
					<line fill="none" stroke="#444444" stroke-miterlimit="10" x1="-33.52" y1="76.084" x2="18.521" y2="24.021"/>
					<line fill="none" stroke="#444444" stroke-miterlimit="10" x1="-40.734" y1="76.084" x2="11.308" y2="24.021"/>
					<line fill="none" stroke="#444444" stroke-miterlimit="10" x1="-47.948" y1="76.084" x2="4.094" y2="24.021"/>
					<line fill="none" stroke="#444444" stroke-miterlimit="10" x1="-55.183" y1="76.084" x2="-3.121" y2="24.021"/>
					<line fill="none" stroke="#444444" stroke-miterlimit="10" x1="-62.397" y1="76.084" x2="-10.334" y2="24.021"/>
					<line fill="none" stroke="#444444" stroke-miterlimit="10" x1="-69.611" y1="76.084" x2="-17.569" y2="24.021"/>
					<line fill="none" stroke="#444444" stroke-miterlimit="10" x1="362.78" y1="76.084" x2="414.821" y2="24.021"/>
					<line fill="none" stroke="#444444" stroke-miterlimit="10" x1="355.693" y1="76.084" x2="407.606" y2="24.021"/>
					<line fill="none" stroke="#444444" stroke-miterlimit="10" x1="348.479" y1="76.084" x2="400.394" y2="24.021"/>
					<line fill="none" stroke="#444444" stroke-miterlimit="10" x1="341.266" y1="76.084" x2="393.179" y2="24.021"/>
					<line fill="none" stroke="#444444" stroke-miterlimit="10" x1="334.05" y1="76.084" x2="386.092" y2="24.021"/>
					<line fill="none" stroke="#444444" stroke-miterlimit="10" x1="326.816" y1="76.084" x2="378.878" y2="24.021"/>
					<line fill="none" stroke="#444444" stroke-miterlimit="10" x1="319.602" y1="76.084" x2="371.663" y2="24.021"/>
					<line fill="none" stroke="#444444" stroke-miterlimit="10" x1="312.389" y1="76.084" x2="364.43" y2="24.021"/>
					<line fill="none" stroke="#444444" stroke-miterlimit="10" x1="305.174" y1="76.084" x2="357.215" y2="24.021"/>
					<line fill="none" stroke="#444444" stroke-miterlimit="10" x1="297.961" y1="76.084" x2="350.002" y2="24.021"/>
					<line fill="none" stroke="#444444" stroke-miterlimit="10" x1="290.725" y1="76.084" x2="342.787" y2="24.021"/>
					<line fill="none" stroke="#444444" stroke-miterlimit="10" x1="283.512" y1="76.084" x2="335.574" y2="24.021"/>
					<line fill="none" stroke="#444444" stroke-miterlimit="10" x1="276.297" y1="76.084" x2="328.338" y2="24.021"/>
					<line fill="none" stroke="#444444" stroke-miterlimit="10" x1="269.084" y1="76.084" x2="321.125" y2="24.021"/>
					<line fill="none" stroke="#444444" stroke-miterlimit="10" x1="261.997" y1="76.084" x2="313.91" y2="24.021"/>
					<line fill="none" stroke="#444444" stroke-miterlimit="10" x1="254.782" y1="76.084" x2="306.697" y2="24.021"/>
					<line fill="none" stroke="#444444" stroke-miterlimit="10" x1="247.568" y1="76.084" x2="299.61" y2="24.021"/>
					<line fill="none" stroke="#444444" stroke-miterlimit="10" x1="240.354" y1="76.084" x2="292.395" y2="24.021"/>
					<line fill="none" stroke="#444444" stroke-miterlimit="10" x1="233.12" y1="76.084" x2="285.182" y2="24.021"/>
					<line fill="none" stroke="#444444" stroke-miterlimit="10" x1="225.905" y1="76.084" x2="277.967" y2="24.021"/>
					<line fill="none" stroke="#444444" stroke-miterlimit="10" x1="218.692" y1="76.084" x2="270.734" y2="24.021"/>
					<line fill="none" stroke="#444444" stroke-miterlimit="10" x1="211.477" y1="76.084" x2="263.519" y2="24.021"/>
					<line fill="none" stroke="#444444" stroke-miterlimit="10" x1="204.265" y1="76.084" x2="256.306" y2="24.021"/>
					<line fill="none" stroke="#444444" stroke-miterlimit="10" x1="197.028" y1="76.084" x2="249.091" y2="24.021"/>
					<line fill="none" stroke="#444444" stroke-miterlimit="10" x1="189.815" y1="76.084" x2="241.877" y2="24.021"/>
					<line fill="none" stroke="#444444" stroke-miterlimit="10" x1="182.601" y1="76.084" x2="234.663" y2="24.021"/>
					<line fill="none" stroke="#444444" stroke-miterlimit="10" x1="175.387" y1="76.084" x2="227.429" y2="24.021"/>
					<line fill="none" stroke="#444444" stroke-miterlimit="10" x1="168.3" y1="76.084" x2="220.214" y2="24.021"/>
					<line fill="none" stroke="#444444" stroke-miterlimit="10" x1="161.086" y1="76.084" x2="213.001" y2="24.021"/>
				</g>
			</g>
		</g>
	</g>
	<g enable-background="new    ">
		<path fill="#444444" d="M168.497,57.688c-0.464-7.814-1.083-17.409-1.083-23.057h-0.155c-1.935,5.648-4.023,11.684-7.041,19.421
			L149.23,82.447h-2.553l-10.291-27.699c-2.94-8.124-5.184-14.392-6.731-20.117h-0.155c-0.155,6.112-0.542,15.166-1.161,23.831
			l-1.625,23.986h-3.636l3.792-52.149h4.255l11.219,30.02c2.476,6.654,4.256,11.916,5.726,16.944h0.232
			c1.315-4.796,3.172-9.904,5.803-16.866l11.683-30.098h4.41l3.482,52.149h-3.636L168.497,57.688z"/>
		<path fill="#444444" d="M220.261,73.394c0,3.251,0.077,6.19,0.309,9.053h-3.482l-0.232-6.654h-0.155
			c-1.856,3.482-6.112,7.505-12.689,7.505c-4.719,0-12.688-2.398-12.688-16.402V45.308h3.714v20.891
			c0,8.047,2.476,13.849,9.826,13.849c5.417,0,9.362-3.792,10.987-7.505c0.387-1.161,0.696-2.63,0.696-4.101V45.308h3.714V73.394z"
			/>
		<path fill="#444444" d="M239.373,54.206c0-3.404-0.077-5.958-0.309-8.898h3.481l0.232,6.731h0.155
			c2.012-4.178,6.731-7.582,12.766-7.582c3.56,0,12.999,1.78,12.999,15.707v22.283h-3.714V60.473c0-6.731-2.63-12.843-10.29-12.843
			c-5.184,0-9.672,3.713-11.142,8.511c-0.232,0.928-0.464,2.167-0.464,3.326v22.98h-3.714V54.206z"/>
		<path fill="#444444" d="M317.134,27.512v46.27c0,2.784,0.077,6.035,0.31,8.665h-3.327l-0.311-7.041h-0.154
			c-1.934,4.101-6.345,7.892-13.23,7.892c-9.208,0-16.016-7.659-16.016-18.725c-0.077-12.379,7.583-20.116,16.711-20.116
			c6.423,0,10.523,3.327,12.148,6.576h0.154V27.512H317.134z M313.419,60.009c0-1.005-0.077-2.398-0.386-3.404
			c-1.238-4.952-5.648-9.053-11.684-9.053c-8.124,0-13.231,7.041-13.231,16.635c0,8.356,4.178,16.017,12.998,16.017
			c5.34,0,10.369-3.559,11.917-9.672c0.309-1.006,0.386-1.934,0.386-3.094V60.009z"/>
		<path fill="#444444" d="M367.968,63.49c0,13.851-9.516,19.808-17.796,19.808c-9.593,0-17.021-7.505-17.021-19.111
			c0-12.689,8.356-19.729,17.563-19.729C361.004,44.457,367.968,52.194,367.968,63.49z M336.864,63.955
			c0,9.285,5.958,16.249,13.54,16.249c7.737,0,13.85-6.964,13.85-16.481c0-6.808-3.792-16.171-13.617-16.171
			C341.12,47.552,336.864,55.986,336.864,63.955z"/>
	</g>
</g>
</svg>
