<?xml version="1.0" encoding="utf-8"?>
<!-- Generator: Adobe Illustrator 16.0.0, SVG Export Plug-In . SVG Version: 6.00 Build 0)  -->
<!DOCTYPE svg PUBLIC "-//W3C//DTD SVG 1.1//EN" "http://www.w3.org/Graphics/SVG/1.1/DTD/svg11.dtd">
<svg version="1.1" id="Capa_1" xmlns="http://www.w3.org/2000/svg" xmlns:xlink="http://www.w3.org/1999/xlink" x="0px" y="0px"
	 width="417.426px" height="417.624px" viewBox="0 0 417.426 417.624" enable-background="new 0 0 417.426 417.624"
	 xml:space="preserve">
<g>
	<path fill="#494949" d="M385.361,399.29c0,6.627-5.371,12-12,12h-9.297c-6.627,0-12-5.373-12-12V272.041c0-6.627,5.373-12,12-12
		h9.297c6.629,0,12,5.373,12,12V399.29z"/>
	<path fill="#494949" d="M65.362,399.29c0,6.627-5.373,12-12,12h-9.298c-6.627,0-12-5.373-12-12V272.041c0-6.627,5.373-12,12-12
		h9.298c6.627,0,12,5.373,12,12V399.29z"/>
</g>
<g>
	<path fill="#575757" d="M26.185,20.516c-3.091,0-5.603,2.514-5.603,5.604v234.21c0,3.089,2.512,5.604,5.603,5.604h366.443
		c3.089,0,5.604-2.515,5.604-5.604V26.119c0-3.089-2.516-5.604-5.604-5.604L26.185,20.516L26.185,20.516z"/>
	<path fill="#999999" d="M26.185,24.999c-3.091,0-5.603,2.513-5.603,5.603v234.208c0,3.09,2.512,5.604,5.603,5.604h366.443
		c3.089,0,5.604-2.517,5.604-5.604V30.601c0-3.089-2.516-5.603-5.604-5.603L26.185,24.999L26.185,24.999z"/>
	<path fill="#575757" d="M414.105,271.521c0,11.742-9.737,21.479-21.478,21.479H26.185c-11.74,0-21.292-9.552-21.292-21.293v-11.205
		l16.063,8.965h377.277l15.688-16.435L414.105,271.521z"/>
	<path fill="#7E7E7E" d="M392.628,281.795H26.185c-11.74,0-21.292-9.552-21.292-21.292V26.292C4.893,14.552,14.445,5,26.185,5
		h366.443c11.739,0,21.292,9.552,21.292,21.292v234.211C413.92,272.243,404.368,281.795,392.628,281.795z M26.185,20.688
		c-3.091,0-5.603,2.517-5.603,5.604v234.211c0,3.088,2.512,5.604,5.603,5.604h366.443c3.089,0,5.604-2.517,5.604-5.604V26.292
		c0-3.087-2.516-5.604-5.604-5.604H26.185z"/>
</g>
</svg>
