<?xml version="1.0" encoding="utf-8"?>
<!-- Generator: Adobe Illustrator 21.1.0, SVG Export Plug-In . SVG Version: 6.00 Build 0)  -->
<svg version="1.1" id="Capa_1" xmlns="http://www.w3.org/2000/svg" xmlns:xlink="http://www.w3.org/1999/xlink" x="0px" y="0px"
	 viewBox="0 0 486 339" style="enable-background:new 0 0 486 339;" xml:space="preserve">
<style type="text/css">
	.st0{fill:#2BAF96;}
	.st1{fill:url(#SVGID_1_);}
	.st2{fill:url(#SVGID_2_);}
	.st3{fill:#9E9E13;}
	.st4{fill:#FFFF44;}
	.st5{fill:#605E0E;}
	.st6{fill:#FFFFFF;}
	.st7{fill:none;stroke:#000000;stroke-width:3;stroke-linecap:round;stroke-miterlimit:10;}
	.st8{fill:#754866;}
	.st9{fill:#E676C1;}
	.st10{fill:url(#SVGID_3_);}
	.st11{fill:#0F8A0F;}
	.st12{fill:#22FF22;}
	.st13{fill:none;stroke:#000000;stroke-width:6;stroke-linecap:round;stroke-miterlimit:10;}
	.st14{fill:#1B331B;}
</style>
<circle class="st0" cx="243" cy="169.5" r="157.1"/>
<linearGradient id="SVGID_1_" gradientUnits="userSpaceOnUse" x1="354.9915" y1="100.2593" x2="291.2971" y2="11.8832" gradientTransform="matrix(1 0 0 -1 0 340)">
	<stop  offset="0" style="stop-color:#AAA100"/>
	<stop  offset="1" style="stop-color:#AAA100;stop-opacity:0"/>
</linearGradient>
<path class="st1" d="M422.3,288.8c0,0-82.6,5.5-110.9,46.9H259c0,0-21-57.5,91.3-231.9l-8.5,65.2L422.3,288.8z"/>
<linearGradient id="SVGID_2_" gradientUnits="userSpaceOnUse" x1="103.0491" y1="134.1274" x2="160.2127" y2="36.4084" gradientTransform="matrix(1 0 0 -1 0 340)">
	<stop  offset="0" style="stop-color:#93278F"/>
	<stop  offset="1" style="stop-color:#93278F;stop-opacity:0"/>
</linearGradient>
<path class="st2" d="M48.3,247.7c0,0,58.3,10.3,95.2,63H205c0,0-10.1-140.9-97.7-199.4L48.3,247.7z"/>
<g>
	<path class="st3" d="M439,272.7c-4.9,13.7-20,20.8-33.7,15.9L322.7,259c-13.7-4.9-20.8-20-15.9-33.7l29.6-82.6
		c4.9-13.7,20-20.8,33.7-15.9l82.6,29.6c13.7,4.9,20.8,20,15.9,33.7L439,272.7z"/>
	<path class="st4" d="M442.7,262.1c-4.9,13.7-20,20.8-33.7,15.9l-82.6-29.6c-13.7-4.9-20.8-20-15.9-33.7l25.9-72.1
		c4.9-13.7,20-20.8,33.7-15.9l82.6,29.6c13.7,4.9,20.8,20,15.9,33.7L442.7,262.1z"/>
	<path class="st5" d="M463.7,163.6c0,0-28.7,69-55,59.6l-14,24c0,0,26.7,9,18.5,32c0,0,21.8,4.6,29.6-17l39.8-110.9
		C482.5,151.2,471,162.9,463.7,163.6z"/>
	<path class="st5" d="M357.2,125.4c0,0-21.5,71.6,4.7,81l-4.4,27.4c0,0-26.5-10.1-34.8,12.9c0,0-19.7-9.4-12.2-32l39.8-110.9
		C350.3,103.8,352,120.2,357.2,125.4z"/>
	<g>
		<g>
			<ellipse transform="matrix(0.3376 -0.9413 0.9413 0.3376 50.9439 556.3585)" cx="420.8" cy="242" rx="13.6" ry="13.6"/>
			<ellipse transform="matrix(0.3376 -0.9413 0.9413 0.3376 58.4371 560.2487)" class="st6" cx="427.3" cy="238.6" rx="5" ry="5"/>
		</g>
		<g>
			<ellipse transform="matrix(0.3376 -0.9413 0.9413 0.3376 24.8213 461.3947)" cx="340.2" cy="213.1" rx="13.6" ry="13.6"/>
			<ellipse transform="matrix(0.3376 -0.9413 0.9413 0.3376 32.3144 465.2851)" class="st6" cx="346.7" cy="209.7" rx="5" ry="5"/>
		</g>
		<path class="st7" d="M361.6,240.3c0,0,10.8,10.7,18.6,6.7c8.2-4.2,10.3,3.7,10.3,3.7"/>
	</g>
</g>
<g>
	<path class="st8" d="M145.3,186c5.3,11.1,0.6,24.4-10.5,29.8l-67.1,32.1c-11.1,5.3-24.4,0.6-29.8-10.5L5.8,170.3
		c-5.3-11.1-0.6-24.4,10.5-29.8l67.1-32.1c11.1-5.3,24.4-0.6,29.8,10.5L145.3,186z"/>
	<path class="st9" d="M141.3,177.4c5.3,11.1,0.6,24.4-10.5,29.8l-67.1,32.1c-11.1,5.3-24.4,0.6-29.8-10.5l-28-58.6
		c-5.3-11.1-0.6-24.4,10.5-29.8l67.1-32.1c11.1-5.3,24.4-0.6,29.8,10.5L141.3,177.4z"/>
	<path class="st8" d="M125.6,147.4c5.5,11.4-44.1,34.8-47.4,36.6c-3.4,1.4-52.8,25.3-58.2,13.9c0,0,19.6,37.3,37.7,28.6
		c18.1-8.6,9.5-21.3,26.6-29.7c17.3-8.1,21.8,6.5,39.8-2.1C142.3,186,125.6,147.4,125.6,147.4z"/>
	<g>
		<g>
			<ellipse transform="matrix(0.9023 -0.4312 0.4312 0.9023 -65.6584 67.5125)" cx="116.1" cy="178.6" rx="11.6" ry="11.6"/>
			
				<ellipse transform="matrix(0.9023 -0.4312 0.4312 0.9023 -62.9417 67.7244)" class="st6" cx="117.9" cy="172.7" rx="4.2" ry="4.2"/>
		</g>
		<g>
			<ellipse transform="matrix(0.9023 -0.4312 0.4312 0.9023 -85.5426 42.3794)" cx="50.7" cy="209.9" rx="11.6" ry="11.6"/>
			
				<ellipse transform="matrix(0.9023 -0.4312 0.4312 0.9023 -82.7912 42.564)" class="st6" cx="52.5" cy="203.9" rx="4.2" ry="4.2"/>
		</g>
		<path d="M83,219.6c-0.8,0.4-1.6,0.2-2-0.6c-3.2-6.8-0.3-14.9,6.5-18.1c6.8-3.2,14.9-0.5,18.1,6.3c0.4,0.8,0,1.6-0.8,2L83,219.6z"
			/>
	</g>
</g>
<linearGradient id="SVGID_3_" gradientUnits="userSpaceOnUse" x1="241.6" y1="170.3658" x2="241.6" y2="19.5493" gradientTransform="matrix(1 0 0 -1 0 340)">
	<stop  offset="0" style="stop-color:#009245"/>
	<stop  offset="1" style="stop-color:#009245;stop-opacity:0"/>
</linearGradient>
<polygon class="st10" points="149.1,185.7 334.1,185.7 288,330.7 198.3,330.7 "/>
<g>
	<g>
		<path class="st11" d="M338.8,167.7c0,20.1-16.3,36.5-36.5,36.5H180.8c-20.1,0-36.5-16.3-36.5-36.5V46.2
			c0-20.1,16.3-36.5,36.5-36.5h121.6c20.1,0,36.5,16.3,36.5,36.5v121.5H338.8z"/>
		<path class="st12" d="M338.8,152.3c0,20.1-16.3,36.5-36.5,36.5H180.8c-20.1,0-36.5-16.3-36.5-36.5V46.2
			c0-20.1,16.3-36.5,36.5-36.5h121.6c20.1,0,36.5,16.3,36.5,36.5v106.1H338.8z"/>
		<g>
			<path class="st13" d="M226.1,169c0-9.2,7.5-16.7,16.7-16.7s16.7,7.5,16.7,16.7"/>
			<g>
				<path d="M197.8,126.1L197.8,126.1c2.6,3.2,4.1,7.3,4.1,11.7c0,10.4-8.5,18.9-18.9,18.9s-18.9-8.5-18.9-18.9
					c0-6.8,3.6-12.7,8.9-16L197.8,126.1z"/>
				<circle class="st6" cx="190.5" cy="134.7" r="6.9"/>
			</g>
			<g>
				<path d="M311.5,121.8c5.3,3.3,8.9,9.3,8.9,16c0,10.4-8.5,18.9-18.9,18.9s-18.9-8.5-18.9-18.9c0-4.4,1.5-8.5,4.1-11.7l0,0
					L311.5,121.8z"/>
				<circle class="st6" cx="310.6" cy="134.7" r="6.9"/>
			</g>
		</g>
	</g>
	<path class="st14" d="M338.8,138.5V46.2c0-20.1-16.3-36.5-36.5-36.5H180.8c-20.1,0-36.5,16.3-36.5,36.5v92.3l10.3-55l5.6,2.1
		l6.9-8.6l16.6,7.7l6.9-8.6l15.6,7.7l12.9-7.3l12.5,6l11.4-5.2l14.4,4.3l12.5-4.3l12.9,5.6l12-7.3l12,8.2l6-9l7.7,10.7l4.7-3.9
		L338.8,138.5z"/>
</g>
</svg>
