<?xml version="1.0" encoding="utf-8"?>
<!-- Generator: Adobe Illustrator 21.1.0, SVG Export Plug-In . SVG Version: 6.00 Build 0)  -->
<svg version="1.1" id="Capa_1" xmlns="http://www.w3.org/2000/svg" xmlns:xlink="http://www.w3.org/1999/xlink" x="0px" y="0px"
	 viewBox="0 0 225 155.7" style="enable-background:new 0 0 225 155.7;" xml:space="preserve">
<style type="text/css">
	.st0{fill:#2BAF96;}
	.st1{opacity:0.3;enable-background:new    ;}
	.st2{fill:#1D4FCC;}
	.st3{fill:#4874FF;}
	.st4{fill:#262626;}
	.st5{fill:#FFFFFF;}
	.st6{opacity:0.3;}
	.st7{fill:#F2AD00;}
	.st8{opacity:0.6;fill:#605E0E;enable-background:new    ;}
</style>
<circle class="st0" cx="112.5" cy="77.8" r="65.5"/>
<g>
	<path class="st1" d="M139.9,153.9H85.5c-1.6,0-2.9-1.3-2.9-2.9v-2.7c0-1.6,1.3-2.9,2.9-2.9h54.5c1.6,0,2.9,1.3,2.9,2.9v2.7
		C142.8,152.7,141.6,153.9,139.9,153.9z"/>
	<path class="st2" d="M156.1,108.3c0,9.1-7.3,16.5-16.3,16.5h-0.2H85.1c-9.1,0-16.5-7.3-16.5-16.5l0,0V53.8
		c0-9.1,7.3-16.5,16.3-16.5l0,0h54.5c9.1,0,16.5,7.2,16.5,16.3c0,0,0,0,0,0.2v54.5L156.1,108.3L156.1,108.3z"/>
	<path class="st3" d="M156.1,101.1c0,9.1-7.3,16.5-16.5,16.5l0,0H85.1c-9.1,0-16.5-7.3-16.5-16.5l0,0V53.8c0-9.1,7.3-16.5,16.3-16.5
		l0,0h54.5c9.1,0,16.5,7.2,16.5,16.3c0,0,0,0,0,0.2v47.3H156.1z"/>
	<circle class="st4" cx="139.1" cy="94.5" r="8.4"/>
	<circle class="st4" cx="85.9" cy="94.5" r="8.4"/>
	<path class="st5" d="M141.9,88c1.7,0,3,1.4,3,3c0,1.7-1.4,3-3,3c-1.7,0-3-1.4-3-3C138.8,89.4,140.2,88,141.9,88z"/>
	<path class="st5" d="M88.9,88c1.7,0,3,1.4,3,3c0,1.7-1.4,3-3,3c-1.7,0-3-1.4-3-3C85.9,89.4,87.2,88,88.9,88z"/>
	<path class="st4" d="M121.7,97.7c0.5,0,1.1,0.4,1.1,0.9c0,0,0,0,0,0.2c0,5.6-4.5,10-10,10c-5.5,0-10-4.5-10-10
		c0-0.5,0.5-1.1,1.1-1.1l0,0H121.7z"/>
	<path class="st4" d="M126.9,151.6h-12c-0.9,0-1.6-0.7-1.6-1.6c0-0.9,0.7-1.6,1.6-1.6l0,0h10.4v-26c0-0.9,0.7-1.6,1.6-1.6
		c0.9,0,1.6,0.7,1.6,1.6l0,0v27.4C128.3,150.9,127.6,151.6,126.9,151.6z"/>
	<path class="st4" d="M97.9,151.6H86c-0.9,0-1.6-0.7-1.6-1.6c0-0.9,0.7-1.6,1.6-1.6l0,0h10.6v-26c0-0.9,0.7-1.6,1.6-1.6
		c0.9,0,1.6,0.7,1.6,1.6l0,0v27.4C99.8,150.9,98.8,151.6,97.9,151.6z"/>
	<g class="st6">
		<path d="M92.7,53.6h41.1v8.5H92.7V53.6z M92.7,69.9h41.1v8.5H92.7V69.9z"/>
	</g>
	<g>
		<path class="st4" d="M74.5,98.2c0.4,0.6,0.3,1.3-0.2,1.9c-4.1,3.8-9.7,5.8-15.2,5.8c-5.5-0.3-10.4-2.9-14.8-8.2
			c-0.2-0.3-0.4-0.8-0.3-1.1l1-6.4c0.1-0.8,0.8-1.4,1.5-1.3c0.7,0.1,1.4,0.8,1.3,1.5l0,0.3l-0.8,5.6c3.1,3.7,7.4,6.1,12.4,6.6
			c4.9,0.1,9.5-1.7,13.2-5C72.8,97.4,73.7,97.4,74.5,98.2L74.5,98.2z"/>
		<path class="st4" d="M42.5,88.4l0.1,0.1l4,7.5c0.4,0.6,0.2,1.6-0.3,2c-0.6,0.4-1.6,0.2-2-0.3l-0.1-0.1l-4-7.5
			c-0.3-0.7,0-1.5,0.6-2C41.3,87.7,42.1,87.8,42.5,88.4L42.5,88.4z"/>
		<path class="st4" d="M46.5,95.9c0.4,0.6,0.2,1.6-0.3,2c-0.4,0.3-1.1,0.3-1.5,0L37,93.6c-0.7-0.4-0.9-1.3-0.6-2
			c0.4-0.7,1.2-0.8,1.9-0.5l7.6,4.2C46.3,95.6,46.4,95.7,46.5,95.9z"/>
		<path class="st4" d="M46.5,95.9c0.4,0.6,0.2,1.6-0.3,2c-0.1,0.1-0.4,0.3-0.7,0.3l-7.2,0.7c-0.8,0.1-1.6-0.4-1.7-1.2
			c-0.1-0.8,0.4-1.6,1.2-1.7c0,0,0.1-0.1,0.3,0l7.2-0.7C45.6,95.2,46.2,95.5,46.5,95.9z"/>
	</g>
	<g>
		<path class="st4" d="M150,102.7l0.1-0.2c0.5-0.6,1.3-0.8,2-0.5c4.2,2.5,9.1,3.3,13.9,2.3c4.8-1.4,8.6-4.6,10.7-8.9l-2.1-5.5
			c-0.2-0.9,0.3-1.6,1.1-1.6c0.6-0.1,1.3,0.2,1.5,0.7l2.2,6.1c0.2,0.5,0.2,0.9-0.1,1.1c-3.5,5.9-7.6,9.5-13,10.9
			c-5.4,1.1-11.3,0.2-16.1-2.7C150,104,149.7,103.3,150,102.7z"/>
		<path class="st4" d="M179.5,86.9c0.3-0.7,1.2-1,1.9-0.7c0.7,0.3,0.9,1,0.8,1.7l-2.5,8.1c-0.3,0.7-1.1,1.1-1.9,0.7
			c-0.7-0.3-0.9-1-0.9-1.6L179.5,86.9L179.5,86.9z"/>
		<path class="st4" d="M177,95c0.1-0.2,0.1-0.3,0.4-0.4l6.7-5.6c0.6-0.5,1.6-0.5,2.1,0.2c0.5,0.6,0.3,1.5-0.1,1.9l-6.7,5.6
			c-0.6,0.5-1.6,0.5-2.1-0.2C176.9,96.1,176.8,95.5,177,95z"/>
		<path class="st4" d="M177,95c0.2-0.5,0.8-0.8,1.2-0.8l7.2-0.7c0.8,0,1.5,0.7,1.5,1.5c0,0.8-0.4,1.4-1.2,1.4l-7.2,0.7
			c-0.8,0-1.5-0.5-1.6-1.3C177,95.6,176.9,95.3,177,95z"/>
	</g>
</g>
<g>
	<g>
		<g>
			<polygon class="st7" points="122.4,16.4 138.9,19.7 126.3,30.8 128.3,47.5 113.9,38.9 98.6,46 102.3,29.6 90.8,17.3 107.6,15.7 
				115.8,1 			"/>
			<polyline class="st8" points="115.8,1 122.4,16.4 138.9,19.7 126.3,30.8 128.3,47.5 113.9,38.9 			"/>
		</g>
		<g>
			<polygon class="st7" points="75.9,33.3 88.5,33.8 80.4,43.5 83.9,55.6 72.2,51 61.7,58 62.5,45.4 52.6,37.7 64.8,34.5 69.1,22.7 
							"/>
			<polyline class="st8" points="69.1,22.7 75.9,33.3 88.5,33.8 80.4,43.5 83.9,55.6 72.2,51 			"/>
		</g>
		<g>
			<polygon class="st7" points="164.3,37.9 175.8,43 164.7,49 163.4,61.5 154.2,52.8 141.9,55.4 147.4,44 141.1,33.1 153.6,34.8 
				162.1,25.5 			"/>
			<polyline class="st8" points="162.1,25.5 164.3,37.9 175.8,43 164.7,49 163.4,61.5 154.2,52.8 			"/>
		</g>
		<g>
			<polygon class="st7" points="191.8,68.8 198.2,77 187.8,77.1 182.1,85.7 178.8,75.9 168.8,73 177.1,66.8 176.7,56.5 185.2,62.5 
				194.9,58.9 			"/>
			<polyline class="st8" points="194.9,58.9 191.8,68.8 198.2,77 187.8,77.1 182.1,85.7 178.8,75.9 			"/>
		</g>
		<g>
			<polygon class="st7" points="40.3,55.5 49,49.8 48.2,60.2 56.3,66.6 46.3,69.1 42.6,78.8 37.1,70 26.8,69.5 33.5,61.6 30.7,51.6 
							"/>
			<polyline class="st8" points="30.7,51.6 40.3,55.5 49,49.8 48.2,60.2 56.3,66.6 46.3,69.1 			"/>
		</g>
	</g>
</g>
</svg>
