<?xml version="1.0" encoding="utf-8"?>
<!-- Generator: Adobe Illustrator 16.0.0, SVG Export Plug-In . SVG Version: 6.00 Build 0)  -->
<!DOCTYPE svg PUBLIC "-//W3C//DTD SVG 1.1//EN" "http://www.w3.org/Graphics/SVG/1.1/DTD/svg11.dtd">
<svg version="1.1" id="Capa_1" xmlns="http://www.w3.org/2000/svg" xmlns:xlink="http://www.w3.org/1999/xlink" x="0px" y="0px"
	 width="160px" height="160px" viewBox="0 0 160 160" enable-background="new 0 0 160 160" xml:space="preserve">
<g>
	<path fill="#754866" d="M155.5,127.188c0,15.637-12.676,28.313-28.313,28.313H32.813C17.176,155.5,4.5,142.824,4.5,127.188V32.813
		C4.5,17.176,17.176,4.5,32.813,4.5h94.375c15.637,0,28.313,12.676,28.313,28.313V127.188z"/>
	<path fill="#E676C1" d="M155.5,115.188c0,15.637-12.676,28.313-28.313,28.313H32.813C17.176,143.5,4.5,130.824,4.5,115.188V32.813
		C4.5,17.176,17.176,4.5,32.813,4.5h94.375c15.637,0,28.313,12.676,28.313,28.313V115.188z"/>
	<g>
		<g>
			<circle cx="126.493" cy="102.275" r="14.674"/>
			<circle fill="#FFFFFF" cx="131.858" cy="96.471" r="5.366"/>
		</g>
		<g>
			<circle cx="34.507" cy="102.275" r="14.674"/>
			<circle fill="#FFFFFF" cx="39.873" cy="96.471" r="5.366"/>
		</g>
		<path d="M66.168,131.125c-1.104,0-2-0.647-2-1.752c0-9.557,7.775-17.207,17.332-17.207s17.331,7.589,17.331,17.145
			c0,1.105-0.896,1.814-2,1.814H66.168z"/>
	</g>
</g>
</svg>
