<?xml version="1.0" encoding="utf-8"?>
<!-- Generator: Adobe Illustrator 16.0.0, SVG Export Plug-In . SVG Version: 6.00 Build 0)  -->
<!DOCTYPE svg PUBLIC "-//W3C//DTD SVG 1.1//EN" "http://www.w3.org/Graphics/SVG/1.1/DTD/svg11.dtd">
<svg version="1.1" id="Capa_1" xmlns="http://www.w3.org/2000/svg" xmlns:xlink="http://www.w3.org/1999/xlink" x="0px" y="0px"
	 width="160px" height="160px" viewBox="0 0 160 160" enable-background="new 0 0 160 160" xml:space="preserve">
<g>
	<path fill="#416B95" d="M155,126.688C155,142.324,142.324,155,126.688,155H32.313C16.676,155,4,142.324,4,126.688V32.313
		C4,16.676,16.676,4,32.313,4h94.375C142.324,4,155,16.676,155,32.313V126.688z"/>
	<path fill="#6FBCEA" d="M155,114.688C155,130.324,142.324,143,126.688,143H32.313C16.676,143,4,130.324,4,114.688V32.313
		C4,16.676,16.676,4,32.313,4h94.375C142.324,4,155,16.676,155,32.313V114.688z"/>
	<g>
		<path fill="#FFFFFF" d="M109.584,78.5H99.035c-1.182,0-2.154-0.273-2.919-0.824s-1.296-1.256-1.591-2.115l-3.462-10.225H68.759
			l-3.462,10.225c-0.269,0.752-0.792,1.43-1.57,2.033c-0.779,0.605-1.731,0.906-2.859,0.906H50.24l22.707-58.658h13.931
			L109.584,78.5z M71.9,56.076h16.024l-5.396-16.064c-0.349-1.02-0.759-2.221-1.228-3.604c-0.471-1.383-0.933-2.879-1.389-4.488
			c-0.43,1.637-0.873,3.154-1.329,4.549c-0.457,1.396-0.886,2.604-1.289,3.623L71.9,56.076z"/>
	</g>
	<path fill="#FFFFFF" d="M159.331,51.001L143.707,83.03C143.707,83.03,157.248,119.23,159.331,51.001z"/>
	<path fill="#FFFFFF" d="M0.706,51.001L16.331,83.03C16.331,83.03,2.789,119.23,0.706,51.001z"/>
	<path fill="#D2B9B9" d="M55.25,143v-26.5c0-6.627,5.873-11.5,12.5-11.5h27c6.627,0,11.5,4.873,11.5,11.5V143"/>
	<g>
		<g>
			<circle cx="125.493" cy="102.275" r="14.674"/>
			<circle fill="#FFFFFF" cx="130.858" cy="96.471" r="5.366"/>
		</g>
		<g>
			<circle cx="33.507" cy="102.275" r="14.674"/>
			<circle fill="#FFFFFF" cx="38.873" cy="96.471" r="5.366"/>
		</g>
		<circle cx="80.75" cy="119.75" r="7.25"/>
	</g>
</g>
</svg>
