<?xml version="1.0" encoding="utf-8"?>
<!-- Generator: Adobe Illustrator 16.0.0, SVG Export Plug-In . SVG Version: 6.00 Build 0)  -->
<!DOCTYPE svg PUBLIC "-//W3C//DTD SVG 1.1//EN" "http://www.w3.org/Graphics/SVG/1.1/DTD/svg11.dtd">
<svg version="1.1" id="Capa_1" xmlns="http://www.w3.org/2000/svg" xmlns:xlink="http://www.w3.org/1999/xlink" x="0px" y="0px"
	 width="160px" height="160px" viewBox="0 0 160 160" enable-background="new 0 0 160 160" xml:space="preserve">
<g>
	<path fill="#9B9B9B" d="M155.167,127.188c0,15.638-12.676,28.313-28.313,28.313H32.479c-15.637,0-28.313-12.676-28.313-28.313
		V32.813C4.167,17.176,16.843,4.5,32.479,4.5h94.375c15.638,0,28.313,12.676,28.313,28.313V127.188z"/>
	<path fill="#C6C6C6" d="M155.167,115.188c0,15.638-12.676,28.313-28.313,28.313H32.479c-15.637,0-28.313-12.676-28.313-28.313
		V32.813C4.167,17.176,16.843,4.5,32.479,4.5h94.375c15.638,0,28.313,12.676,28.313,28.313V115.188z"/>
	<g>
		<g>
			<circle cx="125.993" cy="102.775" r="14.674"/>
			<circle fill="#FFFFFF" cx="131.357" cy="96.971" r="5.366"/>
		</g>
		<g>
			<circle cx="34.007" cy="102.775" r="14.674"/>
			<circle fill="#FFFFFF" cx="39.373" cy="96.971" r="5.366"/>
		</g>
		<circle cx="81.25" cy="120.25" r="7.25"/>
	</g>
</g>
</svg>
