<?xml version="1.0" encoding="utf-8"?>
<!-- Generator: Adobe Illustrator 16.0.0, SVG Export Plug-In . SVG Version: 6.00 Build 0)  -->
<!DOCTYPE svg PUBLIC "-//W3C//DTD SVG 1.1//EN" "http://www.w3.org/Graphics/SVG/1.1/DTD/svg11.dtd">
<svg version="1.1" id="Capa_1" xmlns="http://www.w3.org/2000/svg" xmlns:xlink="http://www.w3.org/1999/xlink" x="0px" y="0px"
	 width="160px" height="160px" viewBox="0 0 160 160" enable-background="new 0 0 160 160" xml:space="preserve">
<g>
	<path fill="#9C9C2B" d="M156,129.688C156,145.324,143.324,158,127.688,158H33.313C17.676,158,5,145.324,5,129.688V35.313
		C5,19.676,17.676,7,33.313,7h94.375C143.324,7,156,19.676,156,35.313V129.688z"/>
	<path fill="#FFFF58" d="M156,117.688C156,133.324,143.324,146,127.688,146H33.313C17.676,146,5,133.324,5,117.688V35.313
		C5,19.676,17.676,7,33.313,7h94.375C143.324,7,156,19.676,156,35.313V117.688z"/>
	<path fill="#605E1E" d="M141.417,10.325c0,0-4.042,80.234-34.042,80.234l-5.438,29.368c0,0,30.312-0.603,30.312,25.729
		c0,0,23.751-3.281,23.751-27.97V2C156,2,148.584,7,141.417,10.325z"/>
	<path fill="#605E1E" d="M19.833,10.325c0,0,4.167,80.234,34.167,80.234l5.5,29.368c0,0-30.53-0.603-30.53,25.729
		c0,0-23.303-2.323-23.97-27.97V2C5,2,12.667,7,19.833,10.325z"/>
	<g>
		<g>
			<circle cx="126.493" cy="105.275" r="14.674"/>
			<circle fill="#FFFFFF" cx="131.858" cy="99.471" r="5.366"/>
		</g>
		<g>
			<circle cx="34.507" cy="105.275" r="14.674"/>
			<circle fill="#FFFFFF" cx="39.873" cy="99.471" r="5.366"/>
		</g>
		<path fill="none" stroke="#000000" stroke-width="4" stroke-linecap="round" stroke-miterlimit="10" d="M66,125
			c0,0,14.75,6.875,21.195,0C94.007,117.734,99,125,99,125"/>
	</g>
</g>
</svg>
