<?xml version="1.0" encoding="utf-8"?>
<!-- Generator: Adobe Illustrator 16.0.0, SVG Export Plug-In . SVG Version: 6.00 Build 0)  -->
<!DOCTYPE svg PUBLIC "-//W3C//DTD SVG 1.1//EN" "http://www.w3.org/Graphics/SVG/1.1/DTD/svg11.dtd">
<svg version="1.1" id="Capa_1" xmlns="http://www.w3.org/2000/svg" xmlns:xlink="http://www.w3.org/1999/xlink" x="0px" y="0px"
	 width="160px" height="160px" viewBox="0 0 160 160" enable-background="new 0 0 160 160" xml:space="preserve">
<g>
	<path fill="#313131" d="M156,130.688C156,146.324,143.324,159,127.688,159H33.313C17.676,159,5,146.324,5,130.688V36.313
		C5,20.676,17.676,8,33.313,8h94.375C143.324,8,156,20.676,156,36.313V130.688z"/>
	<path fill="#575757" d="M156,118.688C156,134.324,143.324,147,127.688,147H33.313C17.676,147,5,134.324,5,118.688V36.313
		C5,20.676,17.676,8,33.313,8h94.375C143.324,8,156,20.676,156,36.313V118.688z"/>
	<path fill="#D2B9B9" d="M55,147v-33c0-6.627,5.373-12,12-12h27c6.627,0,12,5.373,12,12v33"/>
	<g>
		<g>
			<circle cx="126.493" cy="106.275" r="14.674"/>
			<circle fill="#FFFFFF" cx="131.858" cy="100.471" r="5.366"/>
		</g>
		<g>
			<circle cx="34.507" cy="106.275" r="14.674"/>
			<circle fill="#FFFFFF" cx="39.873" cy="100.471" r="5.366"/>
		</g>
		<path d="M81.156,130.834c-9.556,0-17.331-7.774-17.331-17.331c0-1.104,0.896-2,2-2s2,0.896,2,2c0,7.351,5.98,13.331,13.331,13.331
			c7.352,0,13.332-5.98,13.332-13.331c0-1.104,0.896-2,2-2s2,0.896,2,2C98.488,123.06,90.713,130.834,81.156,130.834z"/>
	</g>
	<polyline fill="#575757" points="156,37.375 156,1 140,17 	"/>
	<polyline fill="#575757" points="5,36.688 5,1 21,17 	"/>
</g>
</svg>
