<?xml version="1.0" encoding="utf-8"?>
<!-- Generator: Adobe Illustrator 16.0.0, SVG Export Plug-In . SVG Version: 6.00 Build 0)  -->
<!DOCTYPE svg PUBLIC "-//W3C//DTD SVG 1.1//EN" "http://www.w3.org/Graphics/SVG/1.1/DTD/svg11.dtd">
<svg version="1.1" id="Capa_1" xmlns="http://www.w3.org/2000/svg" xmlns:xlink="http://www.w3.org/1999/xlink" x="0px" y="0px"
	 width="160px" height="160px" viewBox="0 0 160 160" enable-background="new 0 0 160 160" xml:space="preserve">
<g>
	<path fill="#6A4965" d="M156,126.688C156,142.324,143.324,155,127.688,155H33.313C17.676,155,5,142.324,5,126.688V32.313
		C5,16.676,17.676,4,33.313,4h94.375C143.324,4,156,16.676,156,32.313V126.688z"/>
	<path fill="#CC75BC" d="M156,114.688C156,130.324,143.324,143,127.688,143H33.313C17.676,143,5,130.324,5,114.688V32.313
		C5,16.676,17.676,4,33.313,4h94.375C143.324,4,156,16.676,156,32.313V114.688z"/>
	<path fill="#6A4965" d="M154.464,71.667c0,16.076-69.588,15.747-74.232,15.986C75.588,87.414,6,87.743,6,71.667
		c0,0,2.015,53.389,27.507,53.389c25.396,0,22.523-19.236,46.725-19.382c24.202,0.146,21.329,19.382,46.725,19.382
		C152.449,125.056,154.464,71.667,154.464,71.667z"/>
	<g>
		<g>
			<circle cx="126.493" cy="102.275" r="14.674"/>
			<circle fill="#FFFFFF" cx="131.858" cy="96.471" r="5.366"/>
		</g>
		<g>
			<circle cx="34.507" cy="102.275" r="14.674"/>
			<circle fill="#FFFFFF" cx="39.873" cy="96.471" r="5.366"/>
		</g>
		<path d="M66.168,131.125c-1.104,0-2-0.647-2-1.752c0-9.557,7.775-17.207,17.332-17.207s17.331,7.589,17.331,17.145
			c0,1.105-0.896,1.814-2,1.814H66.168z"/>
	</g>
</g>
</svg>
