<?xml version="1.0" encoding="utf-8"?>
<!-- Generator: Adobe Illustrator 16.0.0, SVG Export Plug-In . SVG Version: 6.00 Build 0)  -->
<!DOCTYPE svg PUBLIC "-//W3C//DTD SVG 1.1//EN" "http://www.w3.org/Graphics/SVG/1.1/DTD/svg11.dtd">
<svg version="1.1" id="Capa_1" xmlns="http://www.w3.org/2000/svg" xmlns:xlink="http://www.w3.org/1999/xlink" x="0px" y="0px"
	 width="160px" height="160px" viewBox="0 0 160 160" enable-background="new 0 0 160 160" xml:space="preserve">
<g>
	<path fill="#447D9E" d="M155.5,127.188c0,15.637-12.676,28.313-28.313,28.313H32.813C17.176,155.5,4.5,142.824,4.5,127.188V32.813
		C4.5,17.176,17.176,4.5,32.813,4.5h94.375c15.637,0,28.313,12.676,28.313,28.313V127.188z"/>
	<path fill="#77CCFF" d="M155.5,115.188c0,15.637-12.676,28.313-28.313,28.313H32.813C17.176,143.5,4.5,130.824,4.5,115.188V32.813
		C4.5,17.176,17.176,4.5,32.813,4.5h94.375c15.637,0,28.313,12.676,28.313,28.313V115.188z"/>
	<g>
		
			<line fill="none" stroke="#000000" stroke-width="4" stroke-linecap="round" stroke-miterlimit="10" x1="65.5" y1="120.5" x2="95.5" y2="120.5"/>
		
			<line fill="none" stroke="#000000" stroke-width="4" stroke-linecap="round" stroke-miterlimit="10" x1="110.5" y1="100.5" x2="140.5" y2="100.5"/>
		
			<line fill="none" stroke="#000000" stroke-width="4" stroke-linecap="round" stroke-miterlimit="10" x1="19.5" y1="100.5" x2="49.5" y2="100.5"/>
	</g>
</g>
</svg>
