<?xml version="1.0" encoding="utf-8"?>
<!-- Generator: Adobe Illustrator 16.0.0, SVG Export Plug-In . SVG Version: 6.00 Build 0)  -->
<!DOCTYPE svg PUBLIC "-//W3C//DTD SVG 1.1//EN" "http://www.w3.org/Graphics/SVG/1.1/DTD/svg11.dtd">
<svg version="1.1" id="Capa_1" xmlns="http://www.w3.org/2000/svg" xmlns:xlink="http://www.w3.org/1999/xlink" x="0px" y="0px"
	 width="160px" height="160px" viewBox="0 0 160 160" enable-background="new 0 0 160 160" xml:space="preserve">
<g>
	<g>
		<path fill="#785D5D" d="M156,127.688C156,143.324,143.324,156,127.688,156H33.313C17.676,156,5,143.324,5,127.688V33.313
			C5,17.676,17.676,5,33.313,5h94.375C143.324,5,156,17.676,156,33.313V127.688z"/>
		<path fill="#D2B9B9" d="M156,115.688C156,131.324,143.324,144,127.688,144H33.313C17.676,144,5,131.324,5,115.688V33.313
			C5,17.676,17.676,5,33.313,5h94.375C143.324,5,156,17.676,156,33.313V115.688z"/>
		<g>
			<g>
				<circle cx="127.493" cy="103.275" r="14.674"/>
				<circle fill="#FFFFFF" cx="132.858" cy="97.471" r="5.366"/>
			</g>
			<g>
				<circle cx="35.507" cy="103.275" r="14.674"/>
				<circle fill="#FFFFFF" cx="40.873" cy="97.471" r="5.366"/>
			</g>
			<path d="M97.331,113c1.104,0,2,0.646,2,1.752c0,9.556-7.774,17.206-17.331,17.206s-17.332-7.589-17.332-17.145
				c0-1.104,0.896-1.813,2-1.813H97.331z"/>
		</g>
	</g>
	<path fill="#473D3D" d="M157,76.438V33.063c0-15.637-13.676-29.313-29.313-29.313H33.313C17.676,3.75,4,17.426,4,33.063v43.375
		L81.75,60.75L157,76.438z"/>
	<path fill="#CDCA41" d="M155.5,63.25c0,0-49,5.75-75-22.25v33c0,0,20,10.25,75,8.5V63.25z"/>
	<path fill="#FFFF58" d="M4.5,62.25c0,0,51,6.75,76-21.25v33c0,0-20,9.25-76,7.5V62.25z"/>
	<polygon fill="#785D5D" points="81,46.284 85.255,54.906 94.771,56.29 87.885,63.002 89.511,72.478 81,68.004 72.489,72.478 
		74.115,63.002 67.229,56.29 76.745,54.906 	"/>
	<polygon fill="#473D3D" points="3.5,60 3.5,143 13.5,129.25 13.5,61 	"/>
	<polygon fill="#473D3D" points="156.5,60 156.5,143 146.5,129.25 146.5,63 	"/>
</g>
</svg>
