<?xml version="1.0" encoding="utf-8"?>
<!-- Generator: Adobe Illustrator 16.0.0, SVG Export Plug-In . SVG Version: 6.00 Build 0)  -->
<!DOCTYPE svg PUBLIC "-//W3C//DTD SVG 1.1//EN" "http://www.w3.org/Graphics/SVG/1.1/DTD/svg11.dtd">
<svg version="1.1" id="Capa_1" xmlns="http://www.w3.org/2000/svg" xmlns:xlink="http://www.w3.org/1999/xlink" x="0px" y="0px"
	 width="160px" height="160px" viewBox="0 0 160 160" enable-background="new 0 0 160 160" xml:space="preserve">
<g>
	<path fill="#0F8A0F" d="M155.167,127.188c0,15.637-12.676,28.313-28.313,28.313H32.479c-15.637,0-28.313-12.676-28.313-28.313
		V32.813C4.167,17.176,16.843,4.5,32.479,4.5h94.375c15.637,0,28.313,12.676,28.313,28.313V127.188z"/>
	<path fill="#22FF22" d="M155.167,115.188c0,15.637-12.676,28.313-28.313,28.313H32.479c-15.637,0-28.313-12.676-28.313-28.313
		V32.813C4.167,17.176,16.843,4.5,32.479,4.5h94.375c15.637,0,28.313,12.676,28.313,28.313V115.188z"/>
	<g>
		<path fill="none" stroke="#000000" stroke-width="4" stroke-linecap="round" stroke-miterlimit="10" d="M67.856,127.67
			c0-7.168,5.81-12.979,12.978-12.979c7.168,0,12.979,5.811,12.979,12.979"/>
		<g>
			<path d="M45.837,94.335L45.837,94.335c1.989,2.505,3.179,5.674,3.179,9.12c0,8.104-6.57,14.675-14.676,14.675
				c-8.104,0-14.674-6.569-14.674-14.675c0-5.254,2.761-9.862,6.911-12.455L45.837,94.335z"/>
			<circle fill="#FFFFFF" cx="40.214" cy="101.018" r="5.366"/>
		</g>
		<g>
			<path d="M134.09,91c4.148,2.593,6.91,7.201,6.91,12.455c0,8.104-6.568,14.675-14.674,14.675c-8.104,0-14.674-6.569-14.674-14.675
				c0-3.446,1.188-6.615,3.178-9.12l0,0L134.09,91z"/>
			<circle fill="#FFFFFF" cx="133.453" cy="101.018" r="5.366"/>
		</g>
	</g>
</g>
</svg>
