<?xml version="1.0" encoding="utf-8"?>
<!-- Generator: Adobe Illustrator 16.0.0, SVG Export Plug-In . SVG Version: 6.00 Build 0)  -->
<!DOCTYPE svg PUBLIC "-//W3C//DTD SVG 1.1//EN" "http://www.w3.org/Graphics/SVG/1.1/DTD/svg11.dtd">
<svg version="1.1" id="Capa_1" xmlns="http://www.w3.org/2000/svg" xmlns:xlink="http://www.w3.org/1999/xlink" x="0px" y="0px"
	 width="160px" height="160px" viewBox="0 0 160 160" enable-background="new 0 0 160 160" xml:space="preserve">
<g>
	<g>
		<path fill="#4F8826" d="M156,126.688C156,142.324,143.324,155,127.688,155H33.313C17.676,155,5,142.324,5,126.688V32.313
			C5,16.676,17.676,4,33.313,4h94.375C143.324,4,156,16.676,156,32.313V126.688z"/>
		<path fill="#92FF45" d="M156,114.688C156,130.324,143.324,143,127.688,143H33.313C17.676,143,5,130.324,5,114.688V32.313
			C5,16.676,17.676,4,33.313,4h94.375C143.324,4,156,16.676,156,32.313V114.688z"/>
		<g>
			<path fill="none" stroke="#000000" stroke-width="4" stroke-linecap="round" stroke-miterlimit="10" d="M68.523,127.67
				c0-7.168,5.81-12.979,12.979-12.979c7.166,0,12.977,5.811,12.977,12.979"/>
			<g>
				<path d="M46.504,94.335L46.504,94.335c1.989,2.505,3.179,5.674,3.179,9.12c0,8.104-6.57,14.675-14.676,14.675
					c-8.104,0-14.674-6.569-14.674-14.675c0-5.254,2.761-9.862,6.911-12.455L46.504,94.335z"/>
				<circle fill="#FFFFFF" cx="40.881" cy="101.018" r="5.366"/>
			</g>
			<g>
				<path d="M134.756,91c4.15,2.593,6.912,7.201,6.912,12.455c0,8.104-6.57,14.675-14.674,14.675s-14.676-6.569-14.676-14.675
					c0-3.446,1.188-6.615,3.178-9.12l0,0L134.756,91z"/>
				<circle fill="#FFFFFF" cx="134.119" cy="101.018" r="5.366"/>
			</g>
		</g>
	</g>
	<path fill="#283622" d="M156,104V32.313C156,16.676,143.324,4,127.688,4H33.313C17.676,4,5,16.676,5,32.313V104l8-42.666
		l4.333,1.667l5.333-6.667l12.85,6l5.366-6.667l12.118,6l10-5.666l9.667,4.666l8.834-4l11.165,3.334l9.668-3.334l9.984,4.334
		l9.348-5.667L131,61.667l4.666-7l6.002,8.334l3.666-3L156,104z"/>
</g>
</svg>
