<?xml version="1.0" encoding="utf-8"?>
<!-- Generator: Adobe Illustrator 16.0.0, SVG Export Plug-In . SVG Version: 6.00 Build 0)  -->
<!DOCTYPE svg PUBLIC "-//W3C//DTD SVG 1.1//EN" "http://www.w3.org/Graphics/SVG/1.1/DTD/svg11.dtd">
<svg version="1.1" id="Capa_1" xmlns="http://www.w3.org/2000/svg" xmlns:xlink="http://www.w3.org/1999/xlink" x="0px" y="0px"
	 width="337px" height="310.5px" viewBox="29.5 0 337 310.5" enable-background="new 29.5 0 337 310.5" xml:space="preserve">
<g>
	<g>
		<defs>
			<rect id="SVGID_1_" width="400" height="400"/>
		</defs>
		<clipPath id="SVGID_2_">
			<use xlink:href="#SVGID_1_"  overflow="visible"/>
		</clipPath>
		<g clip-path="url(#SVGID_2_)">
			<g>
				<g>
					<g>
						<path fill="#575757" d="M303.773,195.041c0,21.671-17.565,39.24-39.239,39.24H133.733c-21.672,0-39.24-17.569-39.24-39.24
							V64.24c0-21.672,17.568-39.24,39.24-39.24h130.801c21.674,0,39.239,17.568,39.239,39.24V195.041z"/>
						<path fill="#C1C1C1" d="M303.773,178.41c0,21.672-17.565,39.24-39.239,39.24H133.733c-21.672,0-39.24-17.568-39.24-39.24
							V64.24c0-21.672,17.568-39.24,39.24-39.24h130.801c21.674,0,39.239,17.568,39.239,39.24V178.41z"/>
						<g>
							<path fill="#2A2A2A" d="M192.203,298.035h-28.411c-1.914,0-3.465-1.551-3.465-3.465v-65.834c0-1.913,1.551-3.463,3.465-3.463
								c1.913,0,3.464,1.55,3.464,3.463v62.369h24.947c1.915,0,3.466,1.553,3.466,3.465
								C195.669,296.484,194.118,298.035,192.203,298.035z"/>
							<path fill="#2A2A2A" d="M261.502,298.035h-28.413c-1.912,0-3.465-1.551-3.465-3.465v-65.834c0-1.913,1.553-3.463,3.465-3.463
								c1.915,0,3.466,1.55,3.466,3.463v62.369h24.947c1.913,0,3.465,1.553,3.465,3.465
								C264.967,296.484,263.415,298.035,261.502,298.035z"/>
						</g>
						<g>
							<path fill="#2A2A2A" d="M300.96,169.234c-0.659,0.141-1.071,0.212-1.188,0.231c-2.217,0.375-4.317-1.123-4.692-3.342
								c-0.371-2.217,1.155-4.323,3.334-4.691l0,0c0.229-0.037,21.938-3.942,33.512-21.039c6.941-10.257,8.953-23.306,5.992-38.809
								l-14.271-7.557c-1.987-1.053-2.744-3.52-1.693-5.507c1.054-1.988,3.521-2.746,5.509-1.694l15.974,8.458
								c1.063,0.564,1.825,1.571,2.078,2.75c3.978,18.605,1.659,34.416-6.89,46.998C326.577,162.755,306.145,168.125,300.96,169.234
								z"/>
							<path fill="#2A2A2A" d="M342.373,102.871c-1.814,0.388-3.727-0.513-4.544-2.27l-10.032-21.602
								c-0.945-2.041-0.063-4.462,1.979-5.411c2.041-0.946,4.464-0.061,5.412,1.979l10.032,21.602
								c0.95,2.04,0.063,4.463-1.979,5.411C342.96,102.711,342.667,102.808,342.373,102.871z"/>
							<path fill="#2A2A2A" d="M342.378,102.87c-0.458,0.098-0.94,0.118-1.431,0.048c-2.229-0.319-3.773-2.384-3.455-4.611
								l3.514-24.499c0.318-2.227,2.383-3.774,4.61-3.454c2.226,0.319,3.772,2.384,3.454,4.61l-3.514,24.499
								C345.311,101.2,344.001,102.523,342.378,102.87z"/>
							<path fill="#2A2A2A" d="M342.38,102.868c-1.26,0.27-2.627-0.061-3.638-1.01c-1.643-1.539-1.727-4.116-0.188-5.758
								l13.905-14.847c1.539-1.64,4.117-1.727,5.757-0.187c1.645,1.537,1.727,4.116,0.188,5.758l-13.904,14.846
								C343.909,102.3,343.165,102.7,342.38,102.868z"/>
						</g>
					</g>
					<g>
						<path fill="#2A2A2A" d="M199.623,188.679c-13.243,0-24.02-10.774-24.02-24.019c0-1.531,1.242-2.774,2.772-2.774
							c1.531,0,2.772,1.243,2.772,2.774c0,10.188,8.289,18.476,18.476,18.476c10.189,0,18.479-8.288,18.479-18.476
							c0-1.531,1.239-2.774,2.772-2.774c1.528,0,2.771,1.243,2.771,2.774C223.646,177.905,212.87,188.679,199.623,188.679z"/>
						<path fill="#2A2A2A" d="M153.365,165.097c-1.53,0-2.771-1.241-2.771-2.772c0-8.39-6.825-15.215-15.214-15.215
							c-8.39,0-15.214,6.825-15.214,15.215c0,1.531-1.241,2.772-2.772,2.772c-1.53,0-2.771-1.241-2.771-2.772
							c0-11.445,9.312-20.759,20.758-20.759c11.445,0,20.758,9.313,20.758,20.759C156.137,163.856,154.896,165.097,153.365,165.097z
							"/>
						<path fill="#2A2A2A" d="M280.873,165.097c-1.529,0-2.771-1.241-2.771-2.772c0-8.39-6.822-15.215-15.213-15.215
							c-8.389,0-15.214,6.825-15.214,15.215c0,1.531-1.239,2.772-2.772,2.772c-1.531,0-2.772-1.241-2.772-2.772
							c0-11.445,9.313-20.759,20.759-20.759c11.446,0,20.758,9.313,20.758,20.759C283.645,163.856,282.406,165.097,280.873,165.097z
							"/>
					</g>
				</g>
				<g>
					<path fill="#575757" d="M204.84,58.708v24.918h23.643V94.75H204.84v25.04h-12.155V94.75h-23.521V83.627h23.521V58.708H204.84z"
						/>
				</g>
			</g>
			<g>
				<path fill="#2A2A2A" d="M70.883,250.432c-0.927,0.146-1.91-0.02-2.779-0.539l-15.769-9.449c-1.052-0.631-1.77-1.693-1.962-2.903
					c-3.042-19.11,0.162-35.043,9.519-47.36c14.864-19.568,39.717-22.614,40.769-22.733c2.272-0.258,4.327,1.375,4.586,3.646
					c0.26,2.271-1.358,4.344-3.64,4.586l0,0c-0.229,0.039-22.488,2.827-35.16,19.571c-7.601,10.043-10.346,23.188-8.169,39.092
					l14.086,8.441c1.962,1.176,2.601,3.722,1.426,5.685C73.132,249.563,72.051,250.245,70.883,250.432z"/>
				<path fill="#2A2A2A" d="M64.145,263.462c-1.866,0.297-3.757-0.721-4.492-2.551l-9.032-22.479c-0.853-2.121,0.177-4.537,2.3-5.39
					c2.123-0.854,4.536,0.177,5.39,2.299l9.032,22.481c0.853,2.121-0.178,4.535-2.301,5.389
					C64.747,263.331,64.446,263.414,64.145,263.462z"/>
				<path fill="#2A2A2A" d="M50.236,265.676c-0.469,0.074-0.961,0.066-1.455-0.029c-2.245-0.444-3.705-2.621-3.261-4.869l4.88-24.69
					c0.443-2.244,2.62-3.712,4.868-3.261c2.244,0.441,3.705,2.621,3.261,4.865l-4.88,24.694
					C53.305,264.137,51.902,265.41,50.236,265.676z"/>
				<path fill="#2A2A2A" d="M40.2,255.313c-1.296,0.207-2.666-0.203-3.644-1.222c-1.585-1.649-1.533-4.274,0.117-5.858
					l14.921-14.334c1.652-1.584,4.276-1.531,5.859,0.117c1.585,1.651,1.533,4.272-0.117,5.859l-14.92,14.335
					C41.782,254.818,41.005,255.186,40.2,255.313z"/>
			</g>
		</g>
	</g>
</g>
</svg>
