<svg id="Capa_1" data-name="Capa 1" xmlns="http://www.w3.org/2000/svg" viewBox="0 0 60.82 61.77"><defs><style>.cls-1{opacity:0.1;isolation:isolate;}.cls-2{fill:#3a3a3a;}.cls-3{fill:#6b6b6b;}.cls-4{fill:#fff;}.cls-5{fill:#262626;}.cls-6{opacity:0.3;}</style></defs><title>Mesa de trabajo 1</title><rect class="cls-1" x="15.34" y="53.2" width="29.84" height="4.46" rx="2" ry="2"/><path class="cls-2" d="M50,36.32a7.43,7.43,0,0,1-7.43,7.43H17.83a7.43,7.43,0,0,1-7.43-7.43V11.54a7.43,7.43,0,0,1,7.43-7.43H42.6A7.43,7.43,0,0,1,50,11.54Z"/><path class="cls-3" d="M50,33.17A7.43,7.43,0,0,1,42.6,40.6H17.83a7.43,7.43,0,0,1-7.43-7.43V11.54a7.43,7.43,0,0,1,7.43-7.43H42.6A7.43,7.43,0,0,1,50,11.54Z"/><circle cx="42.29" cy="29.91" r="3.85"/><circle class="cls-4" cx="43.7" cy="28.38" r="1.41"/><circle cx="18.14" cy="29.91" r="3.85"/><circle class="cls-4" cx="19.55" cy="28.38" r="1.41"/><path d="M30.39,36.35a4.56,4.56,0,0,1-4.55-4.55.53.53,0,1,1,1.05,0,3.5,3.5,0,0,0,7,0,.53.53,0,0,1,1.05,0A4.56,4.56,0,0,1,30.39,36.35Z"/><path class="cls-5" d="M36.78,55.82H31.4a.66.66,0,1,1,0-1.31h4.73V42.7a.66.66,0,1,1,1.31,0V55.17A.66.66,0,0,1,36.78,55.82Z"/><path class="cls-5" d="M23.65,55.82H18.27a.66.66,0,1,1,0-1.31H23V42.7a.66.66,0,0,1,1.31,0V55.17A.66.66,0,0,1,23.65,55.82Z"/><path class="cls-5" d="M11.44,28.31h-.08a10.26,10.26,0,0,1-6.4-3.7,9.5,9.5,0,0,1-1.4-7.52.66.66,0,0,1,.32-.46l2.52-1.46A.66.66,0,1,1,7,16.31L4.8,17.61A8.1,8.1,0,0,0,6,23.83,9,9,0,0,0,11.52,27a.66.66,0,0,1-.08,1.31Z"/><path class="cls-5" d="M4.2,17.85a.66.66,0,0,1-.61-.91l1.48-3.54a.66.66,0,1,1,1.21.51L4.8,17.45A.66.66,0,0,1,4.2,17.85Z"/><path class="cls-5" d="M4.2,17.85a.66.66,0,0,1-.64-.54l-.72-3.92a.66.66,0,1,1,1.29-.24l.72,3.92a.66.66,0,0,1-.53.76Z"/><path class="cls-5" d="M4.2,17.85a.65.65,0,0,1-.46-.19l-2.33-2.3a.66.66,0,1,1,.92-.93l2.33,2.3a.66.66,0,0,1-.46,1.12Z"/><path class="cls-5" d="M49.38,28.31A.66.66,0,0,1,49.3,27a9.06,9.06,0,0,0,5.52-3.18A8.1,8.1,0,0,0,56,17.61l-2.25-1.3a.66.66,0,1,1,.66-1.14L57,16.63a.66.66,0,0,1,.32.46,9.5,9.5,0,0,1-1.4,7.52,10.26,10.26,0,0,1-6.4,3.7Z"/><path class="cls-5" d="M56.62,17.85a.66.66,0,0,1-.61-.4l-1.48-3.54a.66.66,0,1,1,1.21-.51l1.48,3.54a.66.66,0,0,1-.61.91Z"/><path class="cls-5" d="M56.62,17.85H56.5a.66.66,0,0,1-.53-.76l.72-3.92a.66.66,0,1,1,1.29.24l-.72,3.92A.66.66,0,0,1,56.62,17.85Z"/><path class="cls-5" d="M56.62,17.85a.66.66,0,0,1-.46-1.12l2.33-2.3a.66.66,0,1,1,.92.93l-2.33,2.3A.65.65,0,0,1,56.62,17.85Z"/><g class="cls-6"><path d="M31.4,24.87a.22.22,0,0,1,.19-.24h0a.22.22,0,0,1,0,.43h0a.2.2,0,0,1-.22-.19m1.3-.23a.22.22,0,1,1,.27.15l-.07,0a.24.24,0,0,1-.2-.17m1.25-.45a.21.21,0,0,1,.11-.28.22.22,0,0,1,.29.11.21.21,0,0,1-.11.28.15.15,0,0,1-.09,0,.18.18,0,0,1-.2-.12m1.18-.6a.21.21,0,1,1,.29.07.25.25,0,0,1-.12,0,.26.26,0,0,1-.17-.11m1.07-.76a.22.22,0,1,1,.31,0,.19.19,0,0,1-.15,0,.28.28,0,0,1-.16-.07m1-.92a.22.22,0,1,1,.31,0,.23.23,0,0,1-.16.08.17.17,0,0,1-.15-.06m.81-1a.2.2,0,0,1-.07-.29.22.22,0,0,1,.29-.07.2.2,0,0,1,.07.29.21.21,0,0,1-.19.09.23.23,0,0,1-.1,0m.66-1.15a.21.21,0,0,1-.11-.28.22.22,0,0,1,.29-.11.21.21,0,0,1,.11.28.21.21,0,0,1-.2.12h-.09m.49-1.23a.21.21,0,0,1-.15-.27.22.22,0,0,1,.42.12.22.22,0,0,1-.22.16h-.05m.31-1.29a.23.23,0,0,1-.19-.24.22.22,0,1,1,.43,0h0a.22.22,0,0,1-.22.19h0"/><path d="M31.61,25.23a.38.38,0,0,1,0-.76h0a.38.38,0,0,1,.37.33.41.41,0,0,1-.07.28.39.39,0,0,1-.26.15Zm0-.44a.05.05,0,0,0,0,0,0,0,0,0,0,0,0v0l0,0a.06.06,0,0,0,0,0A.1.1,0,0,0,31.61,24.79Zm1.3.16a.39.39,0,0,1-.37-.28.44.44,0,0,1,0-.29.38.38,0,0,1,.71.07.44.44,0,0,1,0,.29.42.42,0,0,1-.22.19Zm0-.42,0,0s0,0,0,0,0,0,0,0h0a0,0,0,0,0,0,0s0,0,0,0A0,0,0,0,0,32.91,24.53Zm1.23,0a.39.39,0,0,1-.35-.22.44.44,0,0,1,0-.29.43.43,0,0,1,.2-.22.38.38,0,0,1,.51.19.38.38,0,0,1-.19.51S34.2,24.48,34.14,24.48Zm0-.43,0,0v0s0,0,.07,0,0,0,0-.07A.07.07,0,0,0,34.14,24.05Zm1.16-.2a.38.38,0,0,1-.32-.17.36.36,0,0,1,0-.29.35.35,0,0,1,.17-.24.4.4,0,0,1,.53.12.38.38,0,0,1-.12.53A.49.49,0,0,1,35.3,23.85Zm0-.42s0,0,0,0a0,0,0,0,0,0,0,.05.05,0,0,0,0,0h0a.05.05,0,0,0,0-.07S35.31,23.43,35.3,23.43Zm1.05-.37a.39.39,0,0,1-.25-.68.38.38,0,1,1,.49.57A.31.31,0,0,1,36.35,23.06Zm0-.44s0,0,0,0a0,0,0,0,0,0,.07,0,0,0,0,0,.07,0,0,0,0,0,0,0-.07A0,0,0,0,0,36.35,22.62Zm.94-.49A.46.46,0,0,1,37,22a.4.4,0,0,1,0-.55.38.38,0,0,1,.66.22.35.35,0,0,1-.09.28A.38.38,0,0,1,37.29,22.13Zm.8-1.06a.44.44,0,0,1-.22-.07.39.39,0,1,1,.54-.12A.4.4,0,0,1,38.09,21.07Zm.63-1.16a.37.37,0,0,1-.16,0,.36.36,0,1,1,.16,0Zm0-.42a.07.07,0,0,0,0,0s0,0,0,.07h0s0,0,0,0a.06.06,0,0,0,0-.07Zm.46-.81a.25.25,0,0,1-.11,0,.36.36,0,0,1-.22-.19.33.33,0,0,1,0-.29.39.39,0,0,1,.48-.26.37.37,0,0,1,.26.47A.4.4,0,0,1,39.19,18.67Zm.28-1.29h0a.38.38,0,0,1-.32-.43.38.38,0,0,1,.37-.33h0a.43.43,0,0,1,.26.15.4.4,0,0,1,.08.28A.41.41,0,0,1,39.47,17.38Z"/><path d="M39.24,14.39h0a.22.22,0,1,1,.24.19h0a.26.26,0,0,1-.22-.19M39,13.12a.22.22,0,1,1,.27.15l-.07,0a.25.25,0,0,1-.2-.17m-.45-1.2a.21.21,0,1,1,.28.11l-.09,0a.28.28,0,0,1-.19-.13m-.61-1.14h0a.21.21,0,1,1,.29.07.25.25,0,0,1-.12,0,.21.21,0,0,1-.17-.11m-.78-1a.22.22,0,1,1,.31,0,.19.19,0,0,1-.15,0,.19.19,0,0,1-.16-.07m-.91-.91h0a.21.21,0,0,1,0-.31.22.22,0,1,1,.17.37.39.39,0,0,1-.15-.06m-1-.78A.21.21,0,1,1,35.48,8a.21.21,0,0,1-.19.09.14.14,0,0,1-.1,0m-1.14-.63a.21.21,0,1,1,.28-.11.21.21,0,0,1-.2.12s-.06,0-.08,0M32.84,7a.2.2,0,0,1-.15-.27A.23.23,0,0,1,33,6.58a.22.22,0,0,1-.07.42h-.05m-1.26-.27a.23.23,0,0,1-.19-.24.22.22,0,1,1,.22.24h0"/><path d="M39.47,14.73a.37.37,0,0,1-.37-.33.35.35,0,0,1,.08-.28.39.39,0,0,1,.26-.15h0a.37.37,0,0,1,.37.33.38.38,0,0,1-.32.43h-.07Zm0-.42,0,0a.06.06,0,0,0,0,0,0,0,0,0,0,0,0v0a0,0,0,0,0,0,0S39.48,14.31,39.47,14.31Zm-.28-.86a.38.38,0,0,1-.37-.28.44.44,0,0,1,0-.29.38.38,0,0,1,.71.07.44.44,0,0,1,0,.29.42.42,0,0,1-.22.19Zm0-.44,0,0s0,0,0,0,0,0,0,0l0,0s0,0,0,0A0,0,0,0,0,39.19,13Zm-.46-.81a.39.39,0,0,1-.37-.52.39.39,0,0,1,.2-.22.38.38,0,0,1,.51.19.4.4,0,0,1-.19.51A.31.31,0,0,1,38.72,12.21Zm0-.42,0,0v0s0,0,.07,0,0,0,0-.07S38.73,11.78,38.72,11.78ZM38.09,11a.38.38,0,0,1-.32-.17l-.16-.26h.11a.33.33,0,0,1,.17-.27.4.4,0,0,1,.53.12.38.38,0,0,1-.12.53A.58.58,0,0,1,38.09,11ZM37.29,10A.4.4,0,0,1,37,9.86a.38.38,0,0,1,0-.53.4.4,0,0,1,.55,0,.38.38,0,0,1-.3.62Zm0-.43s0,0,0,0a0,0,0,0,0,0,.07s0,0,.07,0a0,0,0,0,0,0-.07Zm-.94-.51A.46.46,0,0,1,36.1,9,.39.39,0,0,1,36,8.69a.35.35,0,0,1,.09-.28.39.39,0,0,1,.53,0,.38.38,0,0,1,0,.53A.29.29,0,0,1,36.35,9.05Zm0-.42,0,0a.06.06,0,0,0,0,.08,0,0,0,0,0,.07,0,.05.05,0,0,0,0-.07S36.37,8.63,36.35,8.63ZM35.3,8.26a.39.39,0,0,1-.22-.07A.31.31,0,0,1,34.92,8a.38.38,0,1,1,.7.12A.38.38,0,0,1,35.3,8.26Zm-1.15-.64a.37.37,0,0,1-.16,0,.38.38,0,1,1,.32-.7.39.39,0,0,1,.2.22.4.4,0,0,1-.36.52Zm-1.24-.46a.21.21,0,0,1-.11,0A.36.36,0,0,1,32.57,7a.33.33,0,0,1,0-.29A.38.38,0,0,1,33,6.41a.37.37,0,0,1,.26.46A.41.41,0,0,1,32.91,7.17Zm-1.3-.28h0a.43.43,0,0,1-.26-.15.35.35,0,0,1-.07-.28.38.38,0,0,1,.37-.33h0a.38.38,0,0,1,.32.43A.37.37,0,0,1,31.61,6.88Zm0-.42a0,0,0,0,0,0,0,0,0,0,0,0,0,0l0,0h0a.05.05,0,0,0,0,0s0-.06-.06-.06Z"/><path d="M21.09,14.56a.22.22,0,1,1,.24-.19.22.22,0,0,1-.24.19s0,0,0,0m.25-1.3a.22.22,0,1,1,.27-.15.22.22,0,0,1-.22.16,0,0,0,0,1,0,0M21.77,12a.22.22,0,0,1-.11-.29.21.21,0,0,1,.39.17.21.21,0,0,1-.2.12h-.08m.61-1.18a.21.21,0,1,1,.29-.07.21.21,0,0,1-.19.09.09.09,0,0,1-.1,0m.76-1.07a.22.22,0,1,1,.28-.33.21.21,0,0,1,0,.31.23.23,0,0,1-.16.08.27.27,0,0,1-.15-.06m.91-1a.22.22,0,1,1,.31,0,.19.19,0,0,1-.15,0,.19.19,0,0,1-.16-.08m1-.81a.2.2,0,0,1,.07-.29.2.2,0,0,1,.29.07.2.2,0,0,1-.07.29A.19.19,0,0,1,25.1,8m1.15-.66a.21.21,0,0,1,.39-.17.22.22,0,0,1-.11.29.15.15,0,0,1-.09,0,.23.23,0,0,1-.19-.13m1.23-.48a.22.22,0,1,1,.27.15l-.07,0a.26.26,0,0,1-.2-.17m1.29-.32a.22.22,0,1,1,.24.19h0a.2.2,0,0,1-.22-.19"/><path d="M21.13,14.73h-.07a.36.36,0,0,1-.24-.15.33.33,0,0,1-.07-.28.39.39,0,0,1,.39-.33h0a.37.37,0,0,1,.32.43A.42.42,0,0,1,21.13,14.73Zm0-.42a0,0,0,1,0,0,.09h0a.05.05,0,0,0,0,0s0,0-.06,0Zm.27-.87a.21.21,0,0,1-.11,0,.36.36,0,0,1-.22-.19.39.39,0,0,1,.46-.56.29.29,0,0,1,.22.19.4.4,0,0,1-.35.57Zm.47-1.23a.38.38,0,0,1-.16,0,.38.38,0,0,1,.32-.7.39.39,0,0,1,.2.22.35.35,0,0,1,0,.29A.37.37,0,0,1,21.86,12.21ZM22.49,11a.39.39,0,0,1-.22-.07.31.31,0,0,1-.16-.24.41.41,0,0,1,0-.29.39.39,0,0,1,.53-.12.39.39,0,0,1,.17.24.39.39,0,0,1-.38.47Zm.8-1.06A.46.46,0,0,1,23,9.9a.38.38,0,0,1,0-.53.39.39,0,1,1,.59.51A.5.5,0,0,1,23.29,10Zm0-.43,0,0a0,0,0,0,0,0,.07l0,0,0,0a.05.05,0,0,0,0-.07Zm.94-.51a.4.4,0,0,1-.29-.13.35.35,0,0,1-.09-.28A.39.39,0,0,1,24,8.37a.38.38,0,0,1,.53,0,.43.43,0,0,1,.09.28.39.39,0,0,1-.13.27A.32.32,0,0,1,24.23,9.05Zm1.05-.79a.38.38,0,0,1-.21-.7.4.4,0,0,1,.53.12.38.38,0,0,1-.12.53A.59.59,0,0,1,25.28,8.26Zm0-.44s0,0,0,.08,0,0,.07,0a.05.05,0,0,0,0-.07S25.3,7.82,25.28,7.82Zm1.16-.2a.4.4,0,0,1-.35-.22.44.44,0,0,1,0-.29.42.42,0,0,1,.2-.22.38.38,0,0,1,.51.19.39.39,0,0,1,0,.29.42.42,0,0,1-.2.22A.48.48,0,0,1,26.45,7.62Zm0-.42,0,0v0s0,0,.07,0l0,0v0Zm1.23,0a.36.36,0,0,1-.36-.28.4.4,0,0,1,.26-.48.4.4,0,0,1,.48.26.4.4,0,0,1-.26.48Zm0-.44s0,0,0,.07,0,0,.07,0,0,0,0-.07A.06.06,0,0,0,27.67,6.73Zm1.3.16a.38.38,0,0,1-.37-.33.43.43,0,0,1,.07-.28.39.39,0,0,1,.26-.15h0a.38.38,0,0,1,.37.33.4.4,0,0,1-.32.44Zm0-.44a.05.05,0,0,0,0,0,0,0,0,0,0,0,0v0a0,0,0,0,0,0,0A0,0,0,0,0,29,6.44Z"/><path d="M28.94,25.06h0a.22.22,0,0,1-.19-.24.23.23,0,0,1,.24-.19.22.22,0,0,1,0,.43h0m-1.33-.28a.21.21,0,0,1-.15-.27.23.23,0,0,1,.27-.15.22.22,0,0,1,.15.27.22.22,0,0,1-.22.16h-.05m-1.25-.48h0a.21.21,0,1,1,.28-.11.22.22,0,0,1-.2.13l-.08,0m-1.19-.64a.21.21,0,0,1,.22-.36h0a.2.2,0,0,1,.07.29.21.21,0,0,1-.19.09.17.17,0,0,1-.1,0m-1.09-.81a.23.23,0,0,1,0-.31.22.22,0,1,1,.33.28.23.23,0,0,1-.16.08.26.26,0,0,1-.15-.06m-1-.95h0a.22.22,0,1,1,.31,0,.19.19,0,0,1-.15,0,.54.54,0,0,1-.16-.07m-.8-1.09a.2.2,0,0,1,.07-.29.2.2,0,0,1,.29.07.2.2,0,0,1-.07.29.25.25,0,0,1-.12,0,.3.3,0,0,1-.17-.11m-.66-1.19a.21.21,0,1,1,.28.11.15.15,0,0,1-.09,0,.23.23,0,0,1-.19-.12m-.46-1.27a.21.21,0,0,1,.15-.27.2.2,0,0,1,.27.15.21.21,0,0,1-.15.27l-.07,0a.23.23,0,0,1-.2-.17M20.9,17h0a.22.22,0,1,1,.24.19h0A.27.27,0,0,1,20.9,17"/><path d="M29,25.23H28.9a.39.39,0,0,1-.32-.43.38.38,0,0,1,.37-.33h0a.39.39,0,0,1,.26.15.33.33,0,0,1,.07.28A.36.36,0,0,1,29,25.23Zm0-.43a0,0,0,0,0,0,0,0,0,0,0,0,0,0h0a.05.05,0,0,0,0,0,0,0,0,0,0,0,0Zm-1.3.15a.25.25,0,0,1-.11,0,.38.38,0,0,1-.26-.48.39.39,0,0,1,.48-.26.36.36,0,0,1,.22.19.39.39,0,0,1,0,.29A.38.38,0,0,1,27.67,24.95Zm0-.42a0,0,0,0,0,0,0s0,0,0,.07h0a.06.06,0,0,0,0,0s0-.07-.06-.07Zm-1.25,0a.37.37,0,0,1-.16,0,.38.38,0,0,1,.32-.7.39.39,0,0,1,.2.22.36.36,0,0,1,0,.29A.34.34,0,0,1,26.44,24.48Zm-1.15-.63a.34.34,0,0,1-.2-.07.38.38,0,0,1,.42-.65.43.43,0,0,1,.17.24.39.39,0,0,1,0,.29A.42.42,0,0,1,25.28,23.85Zm-1.05-.79A.36.36,0,0,1,24,23a.38.38,0,1,1,.49-.57.39.39,0,0,1,.13.27.43.43,0,0,1-.09.28A.38.38,0,0,1,24.23,23.06Zm-.94-.93A.4.4,0,0,1,23,22a.38.38,0,0,1,.57-.49.4.4,0,0,1,0,.55A.52.52,0,0,1,23.29,22.13Zm0-.45s0,0,0,0a0,0,0,0,0,0,.07s0,0,.07,0a0,0,0,0,0,0-.07S23.29,21.68,23.29,21.68Zm-.8-.61a.38.38,0,0,1-.32-.17.36.36,0,0,1,0-.29.35.35,0,0,1,.17-.24.4.4,0,0,1,.53.12.39.39,0,0,1-.12.53A.52.52,0,0,1,22.49,21.07Zm0-.44s0,0,0,0v0s0,0,.07,0a.05.05,0,0,0,0-.07S22.5,20.63,22.49,20.63Zm-.63-.72a.4.4,0,0,1-.35-.22.38.38,0,1,1,.7-.32.39.39,0,0,1-.19.51A.35.35,0,0,1,21.86,19.91Zm0-.44s0,0,0,.07,0,0,.07,0a.07.07,0,0,0,0-.07Zm-.47-.8a.38.38,0,0,1-.37-.28.44.44,0,0,1,0-.29.38.38,0,0,1,.71.07.4.4,0,0,1-.26.48A.13.13,0,0,1,21.4,18.67Zm0-.43,0,0s0,0,0,0,0,0,.07,0,0,0,0-.07A.07.07,0,0,0,21.4,18.24Zm-.28-.86a.38.38,0,0,1,0-.76h0a.38.38,0,0,1,.37.33.43.43,0,0,1-.07.28.39.39,0,0,1-.26.15S21.13,17.38,21.11,17.38Zm0-.44a0,0,0,0,0,0,0,0,0,0,0,0,0,0v0l0,0a.06.06,0,0,0,0,0A.07.07,0,0,0,21.11,16.94Z"/><path d="M21,15.89a.22.22,0,0,1-.15-.07.21.21,0,0,1-.07-.15.22.22,0,0,1,.37-.15.21.21,0,0,1,.07.15.22.22,0,0,1-.07.15.19.19,0,0,1-.16.07"/><path d="M21,16.06a.37.37,0,0,1-.27-.11.4.4,0,0,1-.11-.27.35.35,0,0,1,.12-.27.37.37,0,0,1,.64.27.34.34,0,0,1-.12.27A.35.35,0,0,1,21,16.06Zm0-.43,0,0a.06.06,0,0,0,0,.08,0,0,0,0,0,.07,0,.06.06,0,0,0,0-.08S21,15.63,21,15.63Z"/><path d="M39.55,15.89a.22.22,0,0,1-.15-.07.21.21,0,0,1-.07-.15.22.22,0,0,1,.37-.15.21.21,0,0,1,.07.15.22.22,0,0,1-.07.15.19.19,0,0,1-.16.07"/><path d="M39.55,16.06a.34.34,0,0,1-.27-.12.4.4,0,0,1-.11-.27.37.37,0,0,1,.11-.27.4.4,0,0,1,.53,0,.4.4,0,0,1,.11.27.37.37,0,0,1-.11.27A.34.34,0,0,1,39.55,16.06Zm0-.43,0,0a0,0,0,0,0,0,0s0,0,0,0a0,0,0,0,0,.07,0,.06.06,0,0,0,0-.08Z"/><path d="M30.3,6.62a.26.26,0,0,1-.16-.07.21.21,0,0,1-.07-.15.26.26,0,0,1,.07-.16.22.22,0,0,1,.31,0,.21.21,0,0,1,.07.16.22.22,0,0,1-.07.15.17.17,0,0,1-.15.07"/><path d="M30.3,6.79A.4.4,0,0,1,30,6.69a.38.38,0,0,1-.12-.28A.37.37,0,0,1,30,6.14a.41.41,0,0,1,.55,0,.43.43,0,0,1,.11.27.4.4,0,0,1-.11.27A.41.41,0,0,1,30.3,6.79Zm0-.42,0,0a.06.06,0,0,0,0,.08.05.05,0,0,0,.07,0l0,0a0,0,0,0,0,0,0S30.31,6.37,30.28,6.37Z"/><path d="M30.3,25.15a.26.26,0,0,1-.16-.07.21.21,0,0,1-.07-.15.22.22,0,0,1,.07-.15.22.22,0,0,1,.31,0,.2.2,0,0,1,0,.3.17.17,0,0,1-.15.07"/><path d="M30.3,25.32a.35.35,0,0,1-.27-.12.4.4,0,0,1-.11-.27.37.37,0,0,1,.11-.27.43.43,0,0,1,.55,0,.4.4,0,0,1,.11.27.37.37,0,0,1-.11.27A.48.48,0,0,1,30.3,25.32Zm0-.42,0,0a0,0,0,0,0,0,0,0,0,0,0,0,0,0,0,0,0,0,0,.07,0,0,0,0,0,0,0,0,0,0,0,0,0,0,0S30.31,24.9,30.28,24.9Z"/><rect x="26.79" y="14.33" width="0.37" height="1.23"/><rect x="33.19" y="14.33" width="0.37" height="1.23"/><path d="M27.14,12.67h6.16V11.15H27.14Zm6.54.36h-6.9V10.78h6.9V13Z"/><path d="M28.27,10.8H32.1V9.09H28.27Zm4.2.36H27.89V8.72h4.58v2.43Z"/><polygon points="30.23 23.46 26.79 21.35 26.79 17.05 27.14 17.05 27.14 21.14 30.23 23.04 33.19 21.14 33.19 17.05 33.55 17.05 33.55 21.35 30.23 23.46"/><polygon points="33.27 21.41 31.55 20.36 30.17 21.14 28.72 20.36 27.06 21.41 26.86 21.09 28.71 19.94 30.17 20.71 31.55 19.94 33.46 21.09 33.27 21.41"/><rect x="28.52" y="17.05" width="0.37" height="3.1"/><rect x="31.37" y="17.05" width="0.37" height="3.1"/><polyline points="29.7 23.04 30.23 22.6 30.81 23.02"/><polygon points="29.8 23.19 29.58 22.91 30.22 22.37 30.91 22.88 30.7 23.17 30.23 22.84 29.8 23.19"/><path d="M26.86,15.74a.55.55,0,0,0-.55.55v0a.55.55,0,0,0,.55.55h6.63A.55.55,0,0,0,34,16.3v0a.55.55,0,0,0-.55-.55Zm6.64,1.49H26.87a.93.93,0,0,1-.92-.92v0a.93.93,0,0,1,.92-.92H33.5a.93.93,0,0,1,.92.92v0a.92.92,0,0,1-.92.92"/><path d="M26.86,13a.55.55,0,0,0-.55.55v0a.55.55,0,0,0,.55.55h6.63a.55.55,0,0,0,.55-.55v0a.55.55,0,0,0-.55-.55Zm6.64,1.49H26.87a.93.93,0,0,1-.92-.92v0a.93.93,0,0,1,.92-.92H33.5a.92.92,0,0,1,.92.92v0a.91.91,0,0,1-.92.92"/><path d="M30.23,9.53a.37.37,0,0,0,0,.75.38.38,0,0,0,.37-.37.37.37,0,0,0-.37-.37m0,1.12A.75.75,0,1,1,31,9.91a.74.74,0,0,1-.75.75"/><path d="M35.21,11.34h.11c.12,0,.22,0,.22-.13s-.07-.15-.2-.15a.23.23,0,0,0-.12,0v.27h0Zm0,.51H35v-.93a1.93,1.93,0,0,1,.36,0,.57.57,0,0,1,.32.07.27.27,0,0,1,.09.2.23.23,0,0,1-.19.22v0a.29.29,0,0,1,.17.22c0,.15,0,.2.07.22h-.23s0-.12-.08-.22-.08-.15-.2-.15h-.11v.39h0Zm-.57-.48a.73.73,0,0,0,.74.75.71.71,0,0,0,.71-.74.72.72,0,0,0-.72-.75.71.71,0,0,0-.72.74m1.69,0a.94.94,0,0,1-1,.95.94.94,0,1,1,1-.95"/></g></svg>