<svg id="Capa_1" data-name="Capa 1" xmlns="http://www.w3.org/2000/svg" viewBox="0 0 203.67 85.4"><defs><style>.cls-1{opacity:0.1;}.cls-2{fill:#169e88;}.cls-3{fill:#2ec;}.cls-4,.cls-8{fill:#fff;}.cls-5,.cls-8{opacity:0.3;isolation:isolate;}.cls-6{fill:#262626;}.cls-7{fill:#967d04;}.cls-9{fill:#0f8a0f;}.cls-10{fill:#2f2;}.cls-11{fill:#825d5d;}.cls-12{fill:#dbb;}</style></defs><title>Mesa de trabajo 1</title><rect class="cls-1" x="80.79" y="75.9" width="44.04" height="5.85" rx="2.92" ry="2.92"/><rect class="cls-1" x="136.69" y="72.05" width="36.24" height="5.85" rx="2.92" ry="2.92"/><rect class="cls-1" x="30.71" y="71.46" width="36.24" height="5.85" rx="2.92" ry="2.92"/><path class="cls-2" d="M75.72,17.06a9.91,9.91,0,0,0-9.9-9.9H32.62a9.91,9.91,0,0,0-9.9,9.9V50.3a9.91,9.91,0,0,0,9.9,9.9H65.86a9.91,9.91,0,0,0,9.9-9.9V17.06Z"/><path class="cls-3" d="M75.72,17.06a9.91,9.91,0,0,0-9.9-9.9H32.62a9.91,9.91,0,0,0-9.9,9.9V45.62a9.91,9.91,0,0,0,9.9,9.9H65.86a9.91,9.91,0,0,0,9.9-9.9V17.06Z"/><circle cx="32.94" cy="36.87" r="5.14" transform="translate(-5.4 68.08) rotate(-87.38)"/><circle class="cls-4" cx="31.16" cy="34.71" r="1.87" transform="translate(-4.94 64.25) rotate(-87.38)"/><circle cx="65.04" cy="38.31" r="5.14" transform="translate(23.79 101.52) rotate(-87.38)"/><circle class="cls-4" cx="63.22" cy="36.19" r="1.87" transform="translate(24.18 97.69) rotate(-87.38)"/><path d="M48.36,46.13a6,6,0,0,0,6.31-5.77.7.7,0,1,0-1.4-.08A4.66,4.66,0,0,1,44,39.86a.73.73,0,0,0-.66-.74.7.7,0,0,0-.74.66A6.1,6.1,0,0,0,48.36,46.13Z"/><g class="cls-5"><path d="M27.36,13.63a2.77,2.77,0,0,1,.27-.86,2.54,2.54,0,0,1,.51-.62,2,2,0,0,1,.7-.35,3,3,0,0,1,.82-.12,3,3,0,0,1,.86.12,1.38,1.38,0,0,1,.62.35,1.29,1.29,0,0,1,.39.55,1.86,1.86,0,0,1,.16.7,2.65,2.65,0,0,1-.08.58,1.44,1.44,0,0,1-.19.43.92.92,0,0,1-.35.31,1.3,1.3,0,0,1-.47.19,1.65,1.65,0,0,1,.9.58,1.62,1.62,0,0,1,.31,1,2.17,2.17,0,0,1-.19.9,2.14,2.14,0,0,1-.51.66,1.7,1.7,0,0,1-.74.39,3.32,3.32,0,0,1-.9.12,3.12,3.12,0,0,1-.9-.12,2.17,2.17,0,0,1-.66-.35,2.05,2.05,0,0,1-.47-.55,7.59,7.59,0,0,1-.35-.78l.51-.19a.67.67,0,0,1,.39,0,.45.45,0,0,1,.27.19.85.85,0,0,0,.19.31,1.7,1.7,0,0,0,.23.27.85.85,0,0,0,.31.19,1.45,1.45,0,0,0,.47.08,2,2,0,0,0,.51-.08,1.36,1.36,0,0,0,.35-.23,1.83,1.83,0,0,0,.23-.35,1.15,1.15,0,0,0,.08-.39,1.46,1.46,0,0,0,0-.43.92.92,0,0,0-.23-.35,1.31,1.31,0,0,0-.47-.23,2.41,2.41,0,0,0-.82-.08V14.6a3.5,3.5,0,0,0,.7-.08.88.88,0,0,0,.43-.19.94.94,0,0,0,.23-.31,1.4,1.4,0,0,0,.08-.43,1,1,0,0,0-.27-.74,1.09,1.09,0,0,0-.7-.23,1.2,1.2,0,0,0-.39,0,.78.78,0,0,0-.31.16L28.6,13a.78.78,0,0,0-.16.31.39.39,0,0,1-.19.27.87.87,0,0,1-.35,0Z"/><path d="M34.14,14.21c.16,0,.31,0,.43-.08s.27,0,.39,0a2.36,2.36,0,0,1,.94.16,1.63,1.63,0,0,1,.66.43,2.77,2.77,0,0,1,.43.66,2.38,2.38,0,0,1,0,1.79,2.08,2.08,0,0,1-.51.74,3.34,3.34,0,0,1-.78.51,2.77,2.77,0,0,1-1,.16,2.65,2.65,0,0,1-.58-.08c-.19,0-.35-.12-.55-.16L33,18.07a1.53,1.53,0,0,1-.39-.31l.35-.51a.32.32,0,0,1,.31-.16.55.55,0,0,1,.23.08,1.69,1.69,0,0,0,.27.16,1.38,1.38,0,0,0,.35.16,2,2,0,0,0,.51.08,1.24,1.24,0,0,0,.55-.12,1,1,0,0,0,.39-.27.93.93,0,0,0,.23-.43,2.3,2.3,0,0,0,.08-.55,1.21,1.21,0,0,0-.31-.86,1.35,1.35,0,0,0-.94-.31,2.89,2.89,0,0,0-1,.19L33,15l.55-3.27h3.31v.47a.45.45,0,0,1-.16.39.66.66,0,0,1-.51.16H34.33Z"/></g><g class="cls-5"><path d="M45.25,19.47a8.38,8.38,0,0,1,2.34.27,4.34,4.34,0,0,1,1.6.74,2.63,2.63,0,0,1,.9,1.17,3.9,3.9,0,0,1,.27,1.52,2.62,2.62,0,0,1-.16.94,2.06,2.06,0,0,1-.43.82,2.72,2.72,0,0,1-.78.7,5.69,5.69,0,0,1-1.09.55c1.91.43,2.84,1.44,2.84,3.08a3.86,3.86,0,0,1-.35,1.64,3.53,3.53,0,0,1-1,1.29,4.81,4.81,0,0,1-1.6.86,7.1,7.1,0,0,1-2.14.31H40.45V19.47Zm-2.22,2v4h2.07a3.4,3.4,0,0,0,2-.47,1.67,1.67,0,0,0,.66-1.52,1.77,1.77,0,0,0-.62-1.56,3.13,3.13,0,0,0-1.91-.47Zm2.61,9.86a3.64,3.64,0,0,0,1.21-.16,2.19,2.19,0,0,0,.78-.47,1.76,1.76,0,0,0,.43-.66,3,3,0,0,0,.12-.82A1.81,1.81,0,0,0,48,28.4a1.39,1.39,0,0,0-.47-.62,2.09,2.09,0,0,0-.78-.39,4.92,4.92,0,0,0-1.17-.12H43v4.05Z"/><path d="M54.75,25.2a4.5,4.5,0,0,1,1.09-1.4,2.28,2.28,0,0,1,1.48-.51,1.81,1.81,0,0,1,1.09.31l-.16,1.75a.36.36,0,0,1-.16.23.55.55,0,0,1-.23.08,2.1,2.1,0,0,1-.43,0,2.76,2.76,0,0,0-.55,0,1.89,1.89,0,0,0-.7.12,2.48,2.48,0,0,0-.55.31,2.68,2.68,0,0,0-.43.51,5.86,5.86,0,0,0-.35.7v6H52.49V23.49h1.4a.8.8,0,0,1,.51.12.88.88,0,0,1,.19.47Z"/></g><path class="cls-6" d="M57.21,76.14H50a1,1,0,1,1,0-1.95h6.24V58.6a1,1,0,0,1,1.95,0V75.16A1,1,0,0,1,57.21,76.14Z"/><path class="cls-6" d="M39.67,76.14H32.85a1,1,0,0,1,0-1.95H38.7V58.6a1,1,0,0,1,1.95,0V75.16A1,1,0,0,1,39.67,76.14Z"/><path class="cls-6" d="M21.57,45.23a11.43,11.43,0,0,1-3.7-.59c-3.11-1.06-5.57-3.49-7.3-7.22a1,1,0,0,1,0-.82l1.64-3.51a1,1,0,0,1,1.77.82L12.53,37c1.48,3,3.48,4.93,6,5.78,4.15,1.42,8.34-.7,8.38-.72a1,1,0,0,1,.9,1.73A14.64,14.64,0,0,1,21.57,45.23Z"/><path class="cls-6" d="M11.46,38a1,1,0,0,1-1-.77l-1.05-5a1,1,0,1,1,1.91-.4l1.05,5A1,1,0,0,1,11.66,38Z"/><path class="cls-6" d="M11.46,38a1,1,0,0,1-.69-.29L7,34A1,1,0,1,1,8.4,32.62l3.74,3.74A1,1,0,0,1,11.46,38Z"/><path class="cls-6" d="M11.46,38h-.17L7,37.27a1,1,0,0,1,.33-1.92l4.29.74A1,1,0,0,1,11.46,38Z"/><polygon class="cls-7" points="42.95 51 12.66 21.38 4.09 32.96 40.88 54.2 42.95 51"/><polygon class="cls-8" points="9.66 36.19 14.69 39.04 14.69 23.33 12.66 21.38 9.66 25.43 9.66 36.19"/><polygon class="cls-8" points="21.36 42.9 26.38 45.82 26.38 34.79 21.36 29.84 21.36 42.9"/><polygon class="cls-8" points="33.05 49.68 38.08 52.56 38.08 46.21 33.05 41.3 33.05 49.68"/><path class="cls-6" d="M50.47,56a14.36,14.36,0,0,1-7-2.05,1,1,0,0,1-.48-.67l-.7-3.82a1,1,0,1,1,1.92-.35l.62,3.36c2.94,1.56,5.71,2,8.21,1.21a11.9,11.9,0,0,0,6.37-5.46,1,1,0,1,1,1.74.88,13.77,13.77,0,0,1-7.55,6.44A10.64,10.64,0,0,1,50.47,56Z"/><path class="cls-6" d="M43.92,54.12a1,1,0,0,1-.65-.25l-3.78-3.43A1,1,0,0,1,40.79,49l3.78,3.43a1,1,0,0,1-.65,1.7Z"/><path class="cls-6" d="M43.92,54.12h-.16l-5.22-.86a1,1,0,1,1,.32-1.92l5.22.86a1,1,0,0,1-.16,1.94Z"/><path class="cls-6" d="M40,56a1,1,0,0,1-.42-1.85l3.9-1.87A1,1,0,0,1,44.34,54l-3.9,1.87A1,1,0,0,1,40,56Z"/><path class="cls-9" d="M181.34,50.26a9.91,9.91,0,0,1-9.9,9.9H138.19a9.91,9.91,0,0,1-9.9-9.9V17.06a9.91,9.91,0,0,1,9.9-9.9h33.24a9.91,9.91,0,0,1,9.9,9.9v33.2Z"/><path class="cls-10" d="M181.34,45.58a9.91,9.91,0,0,1-9.9,9.9H138.19a9.91,9.91,0,0,1-9.9-9.9V17.06a9.91,9.91,0,0,1,9.9-9.9h33.24a9.91,9.91,0,0,1,9.9,9.9V45.58Z"/><circle cx="170.74" cy="36.86" r="5.14" transform="translate(-1.51 7.85) rotate(-2.62)"/><circle class="cls-4" cx="172.5" cy="34.75" r="1.87" transform="translate(-1.41 7.93) rotate(-2.62)"/><circle cx="138.63" cy="38.34" r="5.14" transform="translate(-1.61 6.38) rotate(-2.62)"/><circle class="cls-4" cx="140.42" cy="36.19" r="1.87" transform="translate(-1.51 6.46) rotate(-2.62)"/><path d="M155.3,46.13A6,6,0,0,1,149,40.36a.7.7,0,0,1,1.4-.08,4.66,4.66,0,1,0,9.31-.43.7.7,0,0,1,1.4-.08A6.1,6.1,0,0,1,155.3,46.13Z"/><g class="cls-5"><path d="M138,17.64v.86h-3.74v-.86h1.36v-4.4l-1,.82a.3.3,0,0,1-.16.08h-.16s-.08,0-.12,0-.08,0-.08-.08l-.35-.51,2.07-1.75h.94v5.88Z"/></g><g class="cls-5"><path d="M160.45,19.47V33.35h-2.57V27.27h-6.55v6h-2.57V19.47h2.57v6h6.51v-6Z"/></g><path class="cls-6" d="M163.21,76.14H156a1,1,0,0,1,0-1.95h6.24V58.6a1,1,0,1,1,1.95,0V75.16A1,1,0,0,1,163.21,76.14Z"/><path class="cls-6" d="M145.68,76.14h-6.82a1,1,0,0,1,0-1.95h5.85V58.6a1,1,0,1,1,1.95,0V75.16A1,1,0,0,1,145.68,76.14Z"/><path class="cls-6" d="M182.09,45.23a14.64,14.64,0,0,1-6.2-1.43,1,1,0,0,1,.9-1.73c.06,0,4.24,2.14,8.38.72,2.47-.85,4.48-2.79,6-5.78l-1.44-3.09a1,1,0,1,1,1.77-.82l1.64,3.51a1,1,0,0,1,0,.82c-1.73,3.73-4.19,6.16-7.3,7.22A11.43,11.43,0,0,1,182.09,45.23Z"/><path class="cls-6" d="M192.21,38l-.2,0a1,1,0,0,1-.75-1.15l1.05-5a1,1,0,1,1,1.91.4l-1.05,5A1,1,0,0,1,192.21,38Z"/><path class="cls-6" d="M192.21,38a1,1,0,0,1-.69-1.66l3.74-3.74A1,1,0,1,1,196.64,34l-3.74,3.74A1,1,0,0,1,192.21,38Z"/><path class="cls-6" d="M192.21,38a1,1,0,0,1-.16-1.93l4.29-.74a1,1,0,1,1,.33,1.92l-4.29.74Z"/><polygon class="cls-7" points="160.72 51 191 21.38 199.58 32.96 162.79 54.2 160.72 51"/><polygon class="cls-8" points="194 36.19 188.97 39.04 188.97 23.33 191 21.38 194 25.43 194 36.19"/><polygon class="cls-8" points="182.31 42.9 177.28 45.82 177.28 34.79 182.31 29.84 182.31 42.9"/><polygon class="cls-8" points="170.62 49.68 165.59 52.56 165.59 46.21 170.62 41.3 170.62 49.68"/><path class="cls-6" d="M153.2,56a10.64,10.64,0,0,1-3.11-.46,13.77,13.77,0,0,1-7.55-6.44,1,1,0,0,1,1.74-.88h0s2.19,4.2,6.39,5.47c2.5.75,5.26.35,8.19-1.21l.62-3.36a1,1,0,1,1,1.92.35l-.7,3.82a1,1,0,0,1-.48.67A14.36,14.36,0,0,1,153.2,56Z"/><path class="cls-6" d="M159.75,54.12a1,1,0,0,1-.65-1.7L162.87,49a1,1,0,0,1,1.31,1.44l-3.78,3.43A1,1,0,0,1,159.75,54.12Z"/><path class="cls-6" d="M159.74,54.12a1,1,0,0,1-.16-1.94l5.22-.86a1,1,0,0,1,.32,1.92l-5.22.86Z"/><path class="cls-6" d="M163.64,56a1,1,0,0,1-.42-.1L159.32,54a1,1,0,0,1,.84-1.76l3.9,1.87a1,1,0,0,1-.42,1.85Z"/><path class="cls-11" d="M131.45,51.47a11,11,0,0,1-11,11H83.63a11,11,0,0,1-11-11V14.68a11,11,0,0,1,11-11h36.79a11,11,0,0,1,11,11Z"/><path class="cls-12" d="M131.45,46.79a11,11,0,0,1-11,11H83.63a11,11,0,0,1-11-11V14.68a11,11,0,0,1,11-11h36.79a11,11,0,0,1,11,11Z"/><circle cx="119.84" cy="41.96" r="5.73"/><circle class="cls-4" cx="121.94" cy="39.7" r="2.1"/><circle cx="83.98" cy="41.96" r="5.73"/><circle class="cls-4" cx="86.09" cy="39.7" r="2.1"/><path d="M108.15,44.18a.7.7,0,0,1,.78.7,6.74,6.74,0,0,1-13.48,0,.72.72,0,0,1,.78-.7l11.93,0Z"/><g class="cls-5"><path d="M78.84,10.86a2.41,2.41,0,0,1,.31-.94,3.36,3.36,0,0,1,.55-.7,2.51,2.51,0,0,1,.78-.43,3.35,3.35,0,0,1,.94-.16,2.36,2.36,0,0,1,.94.16,2.12,2.12,0,0,1,.7.43,1.88,1.88,0,0,1,.47.62,1.74,1.74,0,0,1,.16.78,2.71,2.71,0,0,1-.08.62.89.89,0,0,1-.23.47,3.51,3.51,0,0,1-.39.35c-.16.08-.31.16-.51.23a1.93,1.93,0,0,1,1,.66,1.74,1.74,0,0,1,.35,1.09,2.76,2.76,0,0,1-.19,1,2.61,2.61,0,0,1-.55.74,2.06,2.06,0,0,1-.82.43,2.69,2.69,0,0,1-1,.16,3.51,3.51,0,0,1-1-.12,2.7,2.7,0,0,1-.74-.39,2.85,2.85,0,0,1-.55-.62,4.37,4.37,0,0,1-.39-.86l.58-.23a.55.55,0,0,1,.43,0,.5.5,0,0,1,.27.19c.08.12.12.23.19.35a1.05,1.05,0,0,0,.27.31l.35.23a2,2,0,0,0,.51.08,1.3,1.3,0,0,0,.58-.12,1,1,0,0,0,.39-.27.81.81,0,0,0,.23-.39,1.66,1.66,0,0,0,.08-.43,2.06,2.06,0,0,0,0-.51.81.81,0,0,0-.23-.39,1,1,0,0,0-.51-.23,3.07,3.07,0,0,0-.9-.08V12a4,4,0,0,0,.78-.08,1,1,0,0,0,.51-.23,2.14,2.14,0,0,0,.27-.35,1.67,1.67,0,0,0,.08-.47,1.12,1.12,0,0,0-.31-.82,1.06,1.06,0,0,0-.78-.27,1.4,1.4,0,0,0-.43.08,1.58,1.58,0,0,0-.35.19.91.91,0,0,0-.27.27,1.38,1.38,0,0,0-.16.35c-.08.16-.12.27-.23.31a.61.61,0,0,1-.39,0Z"/><path d="M87.73,13.39c.08-.08.12-.16.16-.19A.85.85,0,0,1,88,13a1.32,1.32,0,0,1-.58.23,3.43,3.43,0,0,1-.66.08A2.7,2.7,0,0,1,86,13.2a1.86,1.86,0,0,1-.66-.39,1.69,1.69,0,0,1-.47-.66,2.34,2.34,0,0,1,0-1.87,2.69,2.69,0,0,1,.51-.78A2.23,2.23,0,0,1,86.21,9a2.94,2.94,0,0,1,2.1,0,1.81,1.81,0,0,1,.78.51,2.08,2.08,0,0,1,.51.78,2.77,2.77,0,0,1,.16,1,3.43,3.43,0,0,1-.08.66,3.25,3.25,0,0,1-.16.58,2.38,2.38,0,0,1-.27.55c-.12.16-.23.35-.35.55l-1.71,2.46a.7.7,0,0,1-.27.19,1.15,1.15,0,0,1-.39.08H85.35ZM86,11.05a1.46,1.46,0,0,0,.31,1,1.19,1.19,0,0,0,.94.31,1.24,1.24,0,0,0,.55-.12,1.61,1.61,0,0,0,.43-.27.81.81,0,0,0,.23-.39,2,2,0,0,0,.08-.51,2.3,2.3,0,0,0-.08-.55,1,1,0,0,0-.27-.39,3.37,3.37,0,0,0-.39-.27,1.07,1.07,0,0,0-.51-.08,2,2,0,0,0-.51.08,1.37,1.37,0,0,0-.66.66A.87.87,0,0,0,86,11.05Z"/></g><g class="cls-5"><path d="M103.47,26.88v6h-2.88v-6l-5.65-9.47h2.53a1,1,0,0,1,.58.19,1.06,1.06,0,0,1,.35.47l2.81,5.18c.16.31.31.58.43.86l.35.82a7,7,0,0,1,.31-.82c.12-.27.27-.55.43-.86l2.81-5.18a1.22,1.22,0,0,1,.35-.43,1,1,0,0,1,.58-.19H109Z"/></g><path class="cls-6" d="M111.77,80.43h-8a1,1,0,0,1,0-1.95h7V60.94a1,1,0,1,1,1.95,0V79.45A1,1,0,0,1,111.77,80.43Z"/><path class="cls-6" d="M92.29,80.43h-8a1,1,0,1,1,0-1.95h7V60.94a1,1,0,0,1,1.95,0V79.45A1,1,0,0,1,92.29,80.43Z"/><path class="cls-6" d="M75.17,38.61a1,1,0,0,1-1-.84c0-.25-.8-6.09,2.78-10.62,2.25-2.85,5.69-4.51,10.21-4.94a1,1,0,0,1,.78.28l3.08,3a1,1,0,0,1-1.37,1.39l-2.75-2.72c-3.74.44-6.57,1.83-8.41,4.15-3.07,3.87-2.4,9.1-2.39,9.16a1,1,0,0,1-.83,1.1Z"/><path class="cls-6" d="M92.95,24.89h-.13l-5.65-.74a1,1,0,1,1,.25-1.93l5.65.74a1,1,0,0,1-.13,1.94Z"/><path class="cls-6" d="M87.3,24.15a1,1,0,0,1-.42-1.85l5.34-2.57a1,1,0,1,1,.85,1.76l-5.34,2.57A1,1,0,0,1,87.3,24.15Z"/><path class="cls-6" d="M87.3,24.15a1,1,0,0,1-.85-1.45l2.38-4.25a1,1,0,1,1,1.7,1l-2.38,4.25A1,1,0,0,1,87.3,24.15Z"/><path class="cls-6" d="M129.12,38.61H129a1,1,0,0,1-.83-1.1c0-.09.67-5.3-2.39-9.16-1.84-2.32-4.67-3.71-8.41-4.15l-2.75,2.72a1,1,0,0,1-1.37-1.39l3.08-3a1,1,0,0,1,.78-.28c4.52.43,8,2.09,10.21,4.94,3.58,4.53,2.82,10.37,2.78,10.62A1,1,0,0,1,129.12,38.61Z"/><path class="cls-6" d="M111.34,24.89a1,1,0,0,1-.13-1.94l5.65-.74a1,1,0,0,1,.25,1.93l-5.65.74Z"/><path class="cls-6" d="M117,24.15a1,1,0,0,1-.42-.1l-5.34-2.57a1,1,0,0,1,.85-1.76l5.34,2.57a1,1,0,0,1-.42,1.85Z"/><path class="cls-6" d="M117,24.15a1,1,0,0,1-.85-.5l-2.38-4.25a1,1,0,0,1,1.7-1l2.38,4.25a1,1,0,0,1-.85,1.45Z"/></svg>