<?xml version="1.0" encoding="utf-8"?>
<!-- Generator: Adobe Illustrator 16.0.0, SVG Export Plug-In . SVG Version: 6.00 Build 0)  -->
<!DOCTYPE svg PUBLIC "-//W3C//DTD SVG 1.1//EN" "http://www.w3.org/Graphics/SVG/1.1/DTD/svg11.dtd">
<svg version="1.1" id="Capa_1" xmlns="http://www.w3.org/2000/svg" xmlns:xlink="http://www.w3.org/1999/xlink" x="0px" y="0px"
	 width="291.95px" height="396.403px" viewBox="0 0 291.95 396.403" enable-background="new 0 0 291.95 396.403"
	 xml:space="preserve">
<g>
	<path fill="#104735" d="M145.975,362.84h-63h-12v-29c0-6.627,5.373-12,12-12h63"/>
	<path fill="#195B42" d="M145.975,321.84h-36c-6.075,0-11-4.926-11-11l0,0c0-6.074,4.925-11,11-11h36"/>
	<rect x="127.975" y="243.84" fill="#B2B2B2" width="18" height="56"/>
	<path fill="#6D6D6D" d="M145.975,243.84h-29.25c-4.28,0-7.75-3.469-7.75-7.75v-0.5c0-4.279,3.47-7.75,7.75-7.75h29.25"/>
	<path fill="#666666" d="M145.975,227.84h-55.25c-4.832,0-8.75-3.918-8.75-8.75v-0.5c0-4.832,3.918-8.75,8.75-8.75h55.25"/>
	<path fill="#D3D3D3" d="M145.975,209.84h-69c-6.627,0-12-5.373-12-12v-133v1h81"/>
	<path fill="#666666" d="M145.975,65.841h-81.25c-5.937,0-10.75-4.813-10.75-10.75v-0.5c0-5.938,4.813-10.75,10.75-10.75h81.25"/>
	<path fill="#072B1F" d="M145.975,362.84h63.001h12v-29c0-6.627-5.373-12-12-12h-63.001"/>
	<path fill="#124938" d="M145.975,321.84h36.001c6.073,0,11-4.926,11-11l0,0c0-6.074-4.927-11-11-11h-36.001"/>
	<rect x="145.975" y="243.84" fill="#A0A0A0" width="18.001" height="56"/>
	<path fill="#595959" d="M145.975,243.84h29.251c4.278,0,7.75-3.469,7.75-7.75v-0.5c0-4.279-3.472-7.75-7.75-7.75h-29.251"/>
	<path fill="#444444" d="M145.975,227.84h55.251c4.832,0,8.75-3.918,8.75-8.75v-0.5c0-4.832-3.918-8.75-8.75-8.75h-55.251"/>
	<path fill="#B7B7B7" d="M145.975,209.84h69.001c6.627,0,12-5.373,12-12v-133v1h-81.001"/>
	<path fill="#444444" d="M145.975,65.841h81.251c5.937,0,10.75-4.813,10.75-10.75v-0.5c0-5.938-4.813-10.75-10.75-10.75h-81.251"/>
	<g>
		<path fill="#444444" d="M145.459,78.754h32.5c6.627,0,12,5.373,12,12v65c0,6.628-5.373,12-12,12h-32.5"/>
		<path fill="#666666" d="M145.975,167.754h-32.5c-6.628,0-12-5.372-12-12v-65c0-6.627,5.372-12,12-12h32.5"/>
		<path fill="#828282" d="M145.459,73.754h32.5c6.627,0,12,5.373,12,12v65c0,6.628-5.373,12-12,12h-32.5"/>
		<path fill="#9B9B9B" d="M145.459,86.755h23.249c4.742,0,8.584,3.843,8.584,8.584v46.498c0,4.741-3.842,8.584-8.584,8.584
			l-23.249-0.042"/>
		<path fill="#AAAAAA" d="M145.975,162.754h-32.5c-6.628,0-12-5.372-12-12v-65c0-6.627,5.372-12,12-12h32.5"/>
		<path fill="#BCBCBC" d="M145.975,150.379l-23.249,0.042c-4.741,0-8.585-3.843-8.585-8.584V95.339c0-4.741,3.844-8.584,8.585-8.584
			h23.249"/>
		<polyline fill="#828282" points="146.036,133.848 162.105,142.296 159.036,124.403 172.036,111.73 154.071,109.12 146.036,92.841 
					"/>
		<polyline fill="#AAAAAA" points="146.032,133.848 129.963,142.296 133.032,124.403 120.031,111.73 137.997,109.12 146.032,92.841 
					"/>
	</g>
	<polygon fill="#BCBCBC" points="121.26,167.754 121.26,204.114 146.034,191.614 146.034,167.754 	"/>
	<polygon fill="#9B9B9B" points="170.809,167.754 170.809,204.114 146.034,191.614 146.034,167.754 	"/>
	<path fill="none" stroke="#999999" stroke-width="10" stroke-miterlimit="10" d="M64.975,169.448
		c-24.483,0-44.332-19.849-44.332-44.333c0-24.483,19.849-44.332,44.332-44.332"/>
	<path fill="none" stroke="#5E5E5E" stroke-width="10" stroke-miterlimit="10" d="M226.976,80.783
		c24.481,0,44.332,19.849,44.332,44.333c0,24.483-19.851,44.332-44.332,44.332"/>
</g>
</svg>
