<?xml version="1.0" encoding="utf-8"?>
<!-- Generator: Adobe Illustrator 16.0.0, SVG Export Plug-In . SVG Version: 6.00 Build 0)  -->
<!DOCTYPE svg PUBLIC "-//W3C//DTD SVG 1.1//EN" "http://www.w3.org/Graphics/SVG/1.1/DTD/svg11.dtd">
<svg version="1.1" id="Capa_1" xmlns="http://www.w3.org/2000/svg" xmlns:xlink="http://www.w3.org/1999/xlink" x="0px" y="0px"
	 width="291.95px" height="396.403px" viewBox="0 0 291.95 396.403" enable-background="new 0 0 291.95 396.403"
	 xml:space="preserve">
<g>
	<path fill="#9B5C00" d="M145.975,6.261c-29.572,0-53.546,23.974-53.546,53.547l53.547-0.465L145.975,6.261z"/>
	<path fill="none" stroke="#916700" stroke-width="10" stroke-miterlimit="10" d="M65.976,103.142H13.309
		c0,0,0,91.331,52.667,107.667"/>
	<path fill="#491010" d="M145.976,390.141h-63h-12v-29c0-6.627,5.372-12,12-12h63"/>
	<path fill="#601818" d="M145.976,349.141h-36c-6.075,0-11-4.924-11-11l0,0c0-6.074,4.925-11,11-11h36"/>
	<rect x="127.976" y="271.142" fill="#B28108" width="18" height="55.999"/>
	<path fill="#9B5C00" d="M145.976,271.142h-29.25c-4.28,0-7.75-3.472-7.75-7.75v-0.5c0-4.281,3.47-7.75,7.75-7.75h29.25"/>
	<path fill="#AD6B00" d="M145.976,255.142h-55.25c-4.833,0-8.75-3.917-8.75-8.75v-0.5c0-4.833,3.917-8.75,8.75-8.75h55.25"/>
	<path fill="#BA8B08" d="M145.976,237.142h-69c-6.628,0-12-5.373-12-12v-133v-12h81"/>
	<path fill="#AD6B00" d="M145.976,80.142h-81.25c-5.938,0-10.75-4.813-10.75-10.75v-0.5c0-5.937,4.813-10.75,10.75-10.75h81.25"/>
	<path fill="#8E5102" d="M145.976,6.261c29.573,0,53.547,23.974,53.547,53.547l-53.547-0.465V6.261z"/>
	<path fill="none" stroke="#7F5903" stroke-width="10" stroke-miterlimit="10" d="M225.976,103.142h52.666
		c0,0,0,91.331-52.666,107.667"/>
	<path fill="#2D0707" d="M145.976,390.141h63h12v-29c0-6.627-5.373-12-12-12h-63"/>
	<path fill="#4C1212" d="M145.976,349.141h36c6.075,0,11-4.924,11-11l0,0c0-6.074-4.925-11-11-11h-36"/>
	<rect x="145.976" y="271.142" fill="#966906" width="18" height="55.999"/>
	<path fill="#915403" d="M145.976,271.142h29.25c4.28,0,7.75-3.472,7.75-7.75v-0.5c0-4.281-3.47-7.75-7.75-7.75h-29.25"/>
	<path fill="#9B5C02" d="M145.976,255.142h55.25c4.832,0,8.75-3.917,8.75-8.75v-0.5c0-4.833-3.918-8.75-8.75-8.75h-55.25"/>
	<path fill="#A87A07" d="M145.976,237.142h69c6.627,0,12-5.373,12-12v-133v-12h-81"/>
	<path fill="#9B5C02" d="M145.976,80.142h81.25c5.937,0,10.75-4.813,10.75-10.75v-0.5c0-5.937-4.813-10.75-10.75-10.75h-81.25"/>
	<g>
		<path fill="#8E5102" d="M145.46,47.055h32.5c6.627,0,12,5.373,12,12v65c0,6.627-5.373,12-12,12h-32.5"/>
		<path fill="#9B5C00" d="M145.975,136.055h-32.5c-6.627,0-12-5.373-12-12v-65c0-6.627,5.373-12,12-12h32.5"/>
		<path fill="#996B07" d="M145.46,42.055h32.5c6.627,0,12,5.373,12,12v65c0,6.627-5.373,12-12,12h-32.5"/>
		<path fill="#AD7E09" d="M145.46,55.056h23.25c4.74,0,8.584,3.843,8.584,8.584v46.498c0,4.741-3.844,8.584-8.584,8.584
			l-23.25-0.042"/>
		<g>
			<path fill="#965902" d="M145.46,62.413h4.522v41.92h8.629v6.141H145.46"/>
		</g>
		<path fill="#A87A07" d="M145.975,131.055h-32.5c-6.627,0-12-5.373-12-12v-65c0-6.627,5.373-12,12-12h32.5"/>
		<path fill="#BA8B08" d="M145.975,118.68l-23.249,0.042c-4.741,0-8.584-3.843-8.584-8.584V63.64c0-4.741,3.843-8.584,8.584-8.584
			h23.249"/>
		<g>
			<path fill="#AD6B00" d="M145.975,110.474h-13.4v-6.141h9.725v-27.98c0-1.084,0.033-2.224,0.1-3.419l-6.904,5.775
				c-0.287,0.244-0.58,0.41-0.879,0.498c-0.299,0.088-0.593,0.132-0.88,0.132c-0.442,0-0.847-0.094-1.211-0.282
				c-0.365-0.188-0.637-0.404-0.813-0.647l-2.589-3.551l14.637-12.447h2.216"/>
		</g>
	</g>
	<polygon fill="#AD6B00" points="121.26,136.055 121.26,192.416 146.034,179.916 146.034,136.055 	"/>
	<polygon fill="#9B5C02" points="170.809,136.055 170.809,192.416 146.034,179.916 146.034,136.055 	"/>
</g>
</svg>
