<?xml version="1.0" encoding="utf-8"?>
<!-- Generator: Adobe Illustrator 16.0.0, SVG Export Plug-In . SVG Version: 6.00 Build 0)  -->
<!DOCTYPE svg PUBLIC "-//W3C//DTD SVG 1.1//EN" "http://www.w3.org/Graphics/SVG/1.1/DTD/svg11.dtd">
<svg version="1.1" id="Capa_1" xmlns="http://www.w3.org/2000/svg" xmlns:xlink="http://www.w3.org/1999/xlink" x="0px" y="0px"
	 width="291.95px" height="396.403px" viewBox="0 0 291.95 396.403" enable-background="new 0 0 291.95 396.403"
	 xml:space="preserve">
<g>
	<path fill="#081633" d="M145.475,344.202h72.999h12v-29c0-6.629-5.371-12-12-12h-72.999"/>
	<path fill="#102649" d="M145.475,303.202h45.999c6.075,0,11-4.926,11-11l0,0c0-6.076-4.925-11-11-11h-45.999"/>
	<rect x="146.474" y="225.202" fill="#3D2507" width="18" height="56"/>
	<path fill="#492A0A" d="M145.475,225.202h29.249c4.28,0,7.75-3.471,7.75-7.75v-0.5c0-4.281-3.47-7.75-7.75-7.75h-29.249"/>
	<path fill="#5B340E" d="M145.475,209.202h55.249c4.834,0,8.75-3.918,8.75-8.75v-0.5c0-4.833-3.916-8.75-8.75-8.75h-55.249"/>
	<path fill="#724009" d="M145.475,191.201h68.999c6.629,0,12-5.372,12-12v-93v-12h-80.999"/>
	<path fill="#56310C" d="M145.475,74.201h81.249c5.938,0,10.75-4.813,10.75-10.75v-0.5c0-5.937-4.813-10.75-10.75-10.75h-81.249"/>
	<path fill="#10214C" d="M146.474,344.202H73.475h-12v-29c0-6.629,5.373-12,12-12h72.999"/>
	<path fill="#183163" d="M146.474,303.202h-45.999c-6.075,0-11-4.926-11-11l0,0c0-6.076,4.925-11,11-11h45.999"/>
	<rect x="128.475" y="225.202" fill="#4F310A" width="17.999" height="56"/>
	<path fill="#5B360D" d="M146.474,225.202h-29.249c-4.28,0-7.75-3.471-7.75-7.75v-0.5c0-4.281,3.47-7.75,7.75-7.75h29.249"/>
	<path fill="#6B4112" d="M146.474,209.202H91.225c-4.832,0-8.75-3.918-8.75-8.75v-0.5c0-4.833,3.918-8.75,8.75-8.75h55.249"/>
	<path fill="#844D0B" d="M146.474,191.201H77.475c-6.627,0-12-5.372-12-12v-93v-12h80.999"/>
	<path fill="#6B4112" d="M146.474,74.201H65.225c-5.937,0-10.75-4.813-10.75-10.75v-0.5c0-5.937,4.813-10.75,10.75-10.75h81.249"/>
	<path fill="#5B340E" d="M146.476,171.868h27.976c5.297,0,9.59-4.294,9.59-9.592v-55.15c0-5.297-4.293-9.591-9.59-9.591h-27.976"/>
	<path fill="#6B4112" d="M146.476,171.868H118.5c-5.297,0-9.591-4.294-9.591-9.592v-55.15c0-5.297,4.294-9.591,9.591-9.591h27.976"
		/>
	<path fill="#8C4E10" d="M146.476,164.868h27.976c5.297,0,9.59-4.294,9.59-9.592v-55.15c0-5.297-4.293-9.591-9.59-9.591h-27.976"/>
	<polyline fill="#7C3E0A" points="146.478,145.125 165.551,155.154 161.911,133.914 177.34,118.872 156.015,115.773 146.478,96.448 
			"/>
	<path fill="#A86011" d="M146.476,164.868H118.5c-5.297,0-9.591-4.294-9.591-9.592v-55.15c0-5.297,4.294-9.591,9.591-9.591h27.976"
		/>
	<polyline fill="#87460B" points="146.472,145.125 127.399,155.154 131.042,133.914 115.61,118.872 136.936,115.773 146.472,96.448 
			"/>
</g>
</svg>
