<?xml version="1.0" encoding="utf-8"?>
<!-- Generator: Adobe Illustrator 16.0.0, SVG Export Plug-In . SVG Version: 6.00 Build 0)  -->
<!DOCTYPE svg PUBLIC "-//W3C//DTD SVG 1.1//EN" "http://www.w3.org/Graphics/SVG/1.1/DTD/svg11.dtd">
<svg version="1.1" id="Capa_1" xmlns="http://www.w3.org/2000/svg" xmlns:xlink="http://www.w3.org/1999/xlink" x="0px" y="0px"
	 width="65.5px" height="89.25px" viewBox="0 0 65.5 89.25" enable-background="new 0 0 65.5 89.25" xml:space="preserve">
<g>
	<g>
		<path fill="#878787" d="M62.869,85.041c0,1.657-1.342,2.999-2.999,2.999H5.892c-1.657,0-2.999-1.342-2.999-2.999V4.074
			c0-1.657,1.342-2.999,2.999-2.999H59.87c1.657,0,2.999,1.342,2.999,2.999V85.041z"/>
		<path fill="none" stroke="#2B2B2B" stroke-miterlimit="10" stroke-dasharray="4.0098,4.0098" d="M62.869,85.041
			c0,1.657-1.342,2.999-2.999,2.999H5.892c-1.657,0-2.999-1.342-2.999-2.999V4.074c0-1.657,1.342-2.999,2.999-2.999H59.87
			c1.657,0,2.999,1.342,2.999,2.999V85.041z"/>
	</g>
</g>
</svg>
